<?xml version="1.0" encoding="UTF-8"?>
<svg xmlns="http://www.w3.org/2000/svg" xmlns:xlink="http://www.w3.org/1999/xlink" width="288px" height="252px" viewBox="0 0 288 252" version="1.1" id="Fig:dens">
  <metadata xmlns:gridsvg="http://www.stat.auckland.ac.nz/~paul/R/gridSVG/">
    <gridsvg:generator name="gridSVG" version="1.5-1" time="2017-10-10 12:34:30"/>
    <gridsvg:argument name="name" value="~/lab/Mouse/Microarrays/GPL1261/OverExpMouseGSE8498/Quality_Metrics_PreNorm/dens.svg"/>
    <gridsvg:argument name="exportCoords" value="none"/>
    <gridsvg:argument name="exportMappings" value="none"/>
    <gridsvg:argument name="exportJS" value="none"/>
    <gridsvg:argument name="res" value="72"/>
    <gridsvg:argument name="prefix" value="Fig:dens"/>
    <gridsvg:argument name="addClasses" value="FALSE"/>
    <gridsvg:argument name="indent" value="TRUE"/>
    <gridsvg:argument name="htmlWrapper" value="FALSE"/>
    <gridsvg:argument name="usePaths" value="none"/>
    <gridsvg:argument name="uniqueNames" value="TRUE"/>
    <gridsvg:separator name="id.sep" value="."/>
    <gridsvg:separator name="gPath.sep" value="::"/>
    <gridsvg:separator name="vpPath.sep" value="::"/>
  </metadata>
  <g transform="translate(0, 252) scale(1, -1)">
    <g id="Fig:densgridSVG" fill="none" stroke="rgb(0,0,0)" stroke-dasharray="none" stroke-width="0.75" font-size="12" font-family="Helvetica, Arial, FreeSans, Liberation Sans, Nimbus Sans L, sans-serif" opacity="1" stroke-linecap="round" stroke-linejoin="round" stroke-miterlimit="10" stroke-opacity="1" fill-opacity="0" font-weight="normal" font-style="normal">
      <g id="Fig:densplot_01.background.1">
        <rect id="Fig:densplot_01.background.1.1" x="0" y="0" width="288" height="252" fill="none" stroke="none" stroke-opacity="0" fill-opacity="0"/>
      </g>
      <g id="Fig:densplot_01.toplevel.vp.1" font-size="12">
        <g id="Fig:densplot_01.ylab.vp.1">
          <g id="Fig:densplot_01.ylab.1">
            <g id="Fig:densplot_01.ylab.1.1" transform="translate(10.31, 138.09)" stroke-width="0.1">
              <g id="Fig:densplot_01.ylab.1.1.scale" transform="scale(1, -1)">
                <text x="0" y="0" id="Fig:densplot_01.ylab.1.1.text" transform="rotate(-90)" text-anchor="middle" opacity="1" stroke="rgb(0,0,0)" fill="rgb(0,0,0)" stroke-opacity="1" fill-opacity="1" font-size="12" font-weight="normal" font-style="normal">
                  <tspan id="Fig:densplot_01.ylab.1.1.tspan.1" dy="4.31" x="0">Density</tspan>
                </text>
              </g>
            </g>
          </g>
        </g>
        <g id="Fig:densplot_01.figure.vp.1"/>
        <defs>
          <clipPath id="Fig:densplot_01.panel.1.1.vp.1.clipPath">
            <rect x="44.8" y="42.19" width="231.2" height="191.81" fill="none" stroke="none"/>
          </clipPath>
        </defs>
        <g id="Fig:densplot_01.panel.1.1.vp.1" clip-path="url(#Fig:densplot_01.panel.1.1.vp.1.clipPath)"/>
        <g id="Fig:densplot_01.strip.1.1.off.vp.1"/>
        <g id="Fig:densplot_01.strip.left.1.1.off.vp.1">
          <g id="Fig:densplot_01.ticks.left.panel.1.1.1">
            <polyline id="Fig:densplot_01.ticks.left.panel.1.1.1.1" points="44.8,53.97 39.13,53.97" stroke="rgb(0,0,0)" opacity="1" stroke-dasharray="none" stroke-width="0.75" stroke-opacity="1" fill="none"/>
            <polyline id="Fig:densplot_01.ticks.left.panel.1.1.1.2" points="44.8,97.25 39.13,97.25" stroke="rgb(0,0,0)" opacity="1" stroke-dasharray="none" stroke-width="0.75" stroke-opacity="1" fill="none"/>
            <polyline id="Fig:densplot_01.ticks.left.panel.1.1.1.3" points="44.8,140.53 39.13,140.53" stroke="rgb(0,0,0)" opacity="1" stroke-dasharray="none" stroke-width="0.75" stroke-opacity="1" fill="none"/>
            <polyline id="Fig:densplot_01.ticks.left.panel.1.1.1.4" points="44.8,183.82 39.13,183.82" stroke="rgb(0,0,0)" opacity="1" stroke-dasharray="none" stroke-width="0.75" stroke-opacity="1" fill="none"/>
            <polyline id="Fig:densplot_01.ticks.left.panel.1.1.1.5" points="44.8,227.1 39.13,227.1" stroke="rgb(0,0,0)" opacity="1" stroke-dasharray="none" stroke-width="0.75" stroke-opacity="1" fill="none"/>
          </g>
          <g id="Fig:densplot_01.ticklabels.left.panel.1.1.1">
            <g id="Fig:densplot_01.ticklabels.left.panel.1.1.1.1" transform="translate(33.47, 53.97)" stroke-width="0.1">
              <g id="Fig:densplot_01.ticklabels.left.panel.1.1.1.1.scale" transform="scale(1, -1)">
                <text x="0" y="0" id="Fig:densplot_01.ticklabels.left.panel.1.1.1.1.text" transform="rotate(-90)" text-anchor="middle" stroke="rgb(0,0,0)" opacity="1" fill="rgb(0,0,0)" stroke-opacity="1" fill-opacity="1" font-size="9.6" font-weight="normal" font-style="normal">
                  <tspan id="Fig:densplot_01.ticklabels.left.panel.1.1.1.1.tspan.1" dy="0" x="0">0.0</tspan>
                </text>
              </g>
            </g>
            <g id="Fig:densplot_01.ticklabels.left.panel.1.1.1.2" transform="translate(33.47, 97.25)" stroke-width="0.1">
              <g id="Fig:densplot_01.ticklabels.left.panel.1.1.1.2.scale" transform="scale(1, -1)">
                <text x="0" y="0" id="Fig:densplot_01.ticklabels.left.panel.1.1.1.2.text" transform="rotate(-90)" text-anchor="middle" stroke="rgb(0,0,0)" opacity="1" fill="rgb(0,0,0)" stroke-opacity="1" fill-opacity="1" font-size="9.6" font-weight="normal" font-style="normal">
                  <tspan id="Fig:densplot_01.ticklabels.left.panel.1.1.1.2.tspan.1" dy="0" x="0">0.2</tspan>
                </text>
              </g>
            </g>
            <g id="Fig:densplot_01.ticklabels.left.panel.1.1.1.3" transform="translate(33.47, 140.53)" stroke-width="0.1">
              <g id="Fig:densplot_01.ticklabels.left.panel.1.1.1.3.scale" transform="scale(1, -1)">
                <text x="0" y="0" id="Fig:densplot_01.ticklabels.left.panel.1.1.1.3.text" transform="rotate(-90)" text-anchor="middle" stroke="rgb(0,0,0)" opacity="1" fill="rgb(0,0,0)" stroke-opacity="1" fill-opacity="1" font-size="9.6" font-weight="normal" font-style="normal">
                  <tspan id="Fig:densplot_01.ticklabels.left.panel.1.1.1.3.tspan.1" dy="0" x="0">0.4</tspan>
                </text>
              </g>
            </g>
            <g id="Fig:densplot_01.ticklabels.left.panel.1.1.1.4" transform="translate(33.47, 183.82)" stroke-width="0.1">
              <g id="Fig:densplot_01.ticklabels.left.panel.1.1.1.4.scale" transform="scale(1, -1)">
                <text x="0" y="0" id="Fig:densplot_01.ticklabels.left.panel.1.1.1.4.text" transform="rotate(-90)" text-anchor="middle" stroke="rgb(0,0,0)" opacity="1" fill="rgb(0,0,0)" stroke-opacity="1" fill-opacity="1" font-size="9.6" font-weight="normal" font-style="normal">
                  <tspan id="Fig:densplot_01.ticklabels.left.panel.1.1.1.4.tspan.1" dy="0" x="0">0.6</tspan>
                </text>
              </g>
            </g>
            <g id="Fig:densplot_01.ticklabels.left.panel.1.1.1.5" transform="translate(33.47, 227.1)" stroke-width="0.1">
              <g id="Fig:densplot_01.ticklabels.left.panel.1.1.1.5.scale" transform="scale(1, -1)">
                <text x="0" y="0" id="Fig:densplot_01.ticklabels.left.panel.1.1.1.5.text" transform="rotate(-90)" text-anchor="middle" stroke="rgb(0,0,0)" opacity="1" fill="rgb(0,0,0)" stroke-opacity="1" fill-opacity="1" font-size="9.6" font-weight="normal" font-style="normal">
                  <tspan id="Fig:densplot_01.ticklabels.left.panel.1.1.1.5.tspan.1" dy="0" x="0">0.8</tspan>
                </text>
              </g>
            </g>
          </g>
        </g>
        <g id="Fig:densplot_01.panel.1.1.off.vp.1">
          <g id="Fig:densplot_01.ticks.bottom.panel.1.1.1">
            <polyline id="Fig:densplot_01.ticks.bottom.panel.1.1.1.1" points="79.89,42.19 79.89,36.52" stroke="rgb(0,0,0)" opacity="1" stroke-dasharray="none" stroke-width="0.75" stroke-opacity="1" fill="none"/>
            <polyline id="Fig:densplot_01.ticks.bottom.panel.1.1.1.2" points="115.88,42.19 115.88,36.52" stroke="rgb(0,0,0)" opacity="1" stroke-dasharray="none" stroke-width="0.75" stroke-opacity="1" fill="none"/>
            <polyline id="Fig:densplot_01.ticks.bottom.panel.1.1.1.3" points="151.87,42.19 151.87,36.52" stroke="rgb(0,0,0)" opacity="1" stroke-dasharray="none" stroke-width="0.75" stroke-opacity="1" fill="none"/>
            <polyline id="Fig:densplot_01.ticks.bottom.panel.1.1.1.4" points="187.85,42.19 187.85,36.52" stroke="rgb(0,0,0)" opacity="1" stroke-dasharray="none" stroke-width="0.75" stroke-opacity="1" fill="none"/>
            <polyline id="Fig:densplot_01.ticks.bottom.panel.1.1.1.5" points="223.84,42.19 223.84,36.52" stroke="rgb(0,0,0)" opacity="1" stroke-dasharray="none" stroke-width="0.75" stroke-opacity="1" fill="none"/>
            <polyline id="Fig:densplot_01.ticks.bottom.panel.1.1.1.6" points="259.82,42.19 259.82,36.52" stroke="rgb(0,0,0)" opacity="1" stroke-dasharray="none" stroke-width="0.75" stroke-opacity="1" fill="none"/>
          </g>
          <g id="Fig:densplot_01.ticklabels.bottom.panel.1.1.1">
            <g id="Fig:densplot_01.ticklabels.bottom.panel.1.1.1.1" transform="translate(79.89, 30.85)" stroke-width="0.1">
              <g id="Fig:densplot_01.ticklabels.bottom.panel.1.1.1.1.scale" transform="scale(1, -1)">
                <text x="0" y="0" id="Fig:densplot_01.ticklabels.bottom.panel.1.1.1.1.text" text-anchor="middle" stroke="rgb(0,0,0)" opacity="1" fill="rgb(0,0,0)" stroke-opacity="1" fill-opacity="1" font-size="9.6" font-weight="normal" font-style="normal">
                  <tspan id="Fig:densplot_01.ticklabels.bottom.panel.1.1.1.1.tspan.1" dy="7.18" x="0">6</tspan>
                </text>
              </g>
            </g>
            <g id="Fig:densplot_01.ticklabels.bottom.panel.1.1.1.2" transform="translate(115.88, 30.85)" stroke-width="0.1">
              <g id="Fig:densplot_01.ticklabels.bottom.panel.1.1.1.2.scale" transform="scale(1, -1)">
                <text x="0" y="0" id="Fig:densplot_01.ticklabels.bottom.panel.1.1.1.2.text" text-anchor="middle" stroke="rgb(0,0,0)" opacity="1" fill="rgb(0,0,0)" stroke-opacity="1" fill-opacity="1" font-size="9.6" font-weight="normal" font-style="normal">
                  <tspan id="Fig:densplot_01.ticklabels.bottom.panel.1.1.1.2.tspan.1" dy="7.18" x="0">7</tspan>
                </text>
              </g>
            </g>
            <g id="Fig:densplot_01.ticklabels.bottom.panel.1.1.1.3" transform="translate(151.87, 30.85)" stroke-width="0.1">
              <g id="Fig:densplot_01.ticklabels.bottom.panel.1.1.1.3.scale" transform="scale(1, -1)">
                <text x="0" y="0" id="Fig:densplot_01.ticklabels.bottom.panel.1.1.1.3.text" text-anchor="middle" stroke="rgb(0,0,0)" opacity="1" fill="rgb(0,0,0)" stroke-opacity="1" fill-opacity="1" font-size="9.6" font-weight="normal" font-style="normal">
                  <tspan id="Fig:densplot_01.ticklabels.bottom.panel.1.1.1.3.tspan.1" dy="7.18" x="0">8</tspan>
                </text>
              </g>
            </g>
            <g id="Fig:densplot_01.ticklabels.bottom.panel.1.1.1.4" transform="translate(187.85, 30.85)" stroke-width="0.1">
              <g id="Fig:densplot_01.ticklabels.bottom.panel.1.1.1.4.scale" transform="scale(1, -1)">
                <text x="0" y="0" id="Fig:densplot_01.ticklabels.bottom.panel.1.1.1.4.text" text-anchor="middle" stroke="rgb(0,0,0)" opacity="1" fill="rgb(0,0,0)" stroke-opacity="1" fill-opacity="1" font-size="9.6" font-weight="normal" font-style="normal">
                  <tspan id="Fig:densplot_01.ticklabels.bottom.panel.1.1.1.4.tspan.1" dy="7.18" x="0">9</tspan>
                </text>
              </g>
            </g>
            <g id="Fig:densplot_01.ticklabels.bottom.panel.1.1.1.5" transform="translate(223.84, 30.85)" stroke-width="0.1">
              <g id="Fig:densplot_01.ticklabels.bottom.panel.1.1.1.5.scale" transform="scale(1, -1)">
                <text x="0" y="0" id="Fig:densplot_01.ticklabels.bottom.panel.1.1.1.5.text" text-anchor="middle" stroke="rgb(0,0,0)" opacity="1" fill="rgb(0,0,0)" stroke-opacity="1" fill-opacity="1" font-size="9.6" font-weight="normal" font-style="normal">
                  <tspan id="Fig:densplot_01.ticklabels.bottom.panel.1.1.1.5.tspan.1" dy="7.18" x="0">10</tspan>
                </text>
              </g>
            </g>
            <g id="Fig:densplot_01.ticklabels.bottom.panel.1.1.1.6" transform="translate(259.82, 30.85)" stroke-width="0.1">
              <g id="Fig:densplot_01.ticklabels.bottom.panel.1.1.1.6.scale" transform="scale(1, -1)">
                <text x="0" y="0" id="Fig:densplot_01.ticklabels.bottom.panel.1.1.1.6.text" text-anchor="middle" stroke="rgb(0,0,0)" opacity="1" fill="rgb(0,0,0)" stroke-opacity="1" fill-opacity="1" font-size="9.6" font-weight="normal" font-style="normal">
                  <tspan id="Fig:densplot_01.ticklabels.bottom.panel.1.1.1.6.tspan.1" dy="7.18" x="0">11</tspan>
                </text>
              </g>
            </g>
          </g>
        </g>
        <defs>
          <clipPath id="Fig:densplot_01.panel.1.1.vp.2.clipPath">
            <rect x="44.8" y="42.19" width="231.2" height="191.81" fill="none" stroke="none"/>
          </clipPath>
        </defs>
        <g id="Fig:densplot_01.panel.1.1.vp.2" clip-path="url(#Fig:densplot_01.panel.1.1.vp.2.clipPath)">
          <g id="Fig:densplot_01.xyplot.lines.group.1.panel.1.1.1">
            <polyline id="Fig:densplot_01.xyplot.lines.group.1.panel.1.1.1.1" points="69.32,53.97 69.69,53.97 70.07,53.97 70.44,53.97 70.82,53.97 71.19,53.97 71.56,53.97 71.94,53.97 72.31,53.97 72.69,53.97 73.06,53.97 73.43,53.97 73.81,53.97 74.18,53.97 74.56,53.97 74.93,53.97 75.3,53.98 75.68,53.98 76.05,53.98 76.43,53.99 76.8,53.99 77.17,54 77.55,54.01 77.92,54.02 78.3,54.04 78.67,54.06 79.04,54.08 79.42,54.1 79.79,54.13 80.16,54.16 80.54,54.2 80.91,54.25 81.29,54.31 81.66,54.37 82.03,54.45 82.41,54.54 82.78,54.64 83.16,54.76 83.53,54.9 83.9,55.06 84.28,55.24 84.65,55.45 85.03,55.69 85.4,55.97 85.77,56.28 86.15,56.64 86.52,57.04 86.9,57.49 87.27,57.99 87.64,58.55 88.02,59.18 88.39,59.89 88.77,60.67 89.14,61.55 89.51,62.52 89.89,63.59 90.26,64.77 90.64,66.05 91.01,67.42 91.38,68.89 91.76,70.45 92.13,72.13 92.5,73.92 92.88,75.85 93.25,77.93 93.63,80.15 94,82.54 94.37,85.08 94.75,87.78 95.12,90.62 95.5,93.6 95.87,96.72 96.24,99.98 96.62,103.38 96.99,106.91 97.37,110.56 97.74,114.34 98.11,118.22 98.49,122.19 98.86,126.25 99.24,130.38 99.61,134.56 99.98,138.77 100.36,143.01 100.73,147.25 101.11,151.48 101.48,155.7 101.85,159.91 102.23,164.1 102.6,168.28 102.98,172.43 103.35,176.53 103.72,180.57 104.1,184.51 104.47,188.32 104.85,191.97 105.22,195.42 105.59,198.67 105.97,201.71 106.34,204.51 106.71,207.1 107.09,209.46 107.46,211.6 107.84,213.53 108.21,215.23 108.58,216.7 108.96,217.92 109.33,218.9 109.71,219.66 110.08,220.26 110.45,220.72 110.83,221.08 111.2,221.36 111.58,221.54 111.95,221.61 112.32,221.51 112.7,221.22 113.07,220.71 113.45,219.98 113.82,219.05 114.19,217.95 114.57,216.73 114.94,215.41 115.32,214.04 115.69,212.63 116.06,211.18 116.44,209.7 116.81,208.2 117.19,206.67 117.56,205.11 117.93,203.53 118.31,201.94 118.68,200.34 119.05,198.73 119.43,197.1 119.8,195.45 120.18,193.78 120.55,192.08 120.92,190.38 121.3,188.67 121.67,186.99 122.05,185.35 122.42,183.76 122.79,182.22 123.17,180.73 123.54,179.26 123.92,177.78 124.29,176.28 124.66,174.75 125.04,173.2 125.41,171.63 125.79,170.07 126.16,168.52 126.53,166.99 126.91,165.49 127.28,164.01 127.66,162.56 128.03,161.14 128.4,159.74 128.78,158.37 129.15,157.03 129.53,155.72 129.9,154.43 130.27,153.16 130.65,151.9 131.02,150.65 131.39,149.41 131.77,148.18 132.14,146.95 132.52,145.74 132.89,144.55 133.26,143.39 133.64,142.26 134.01,141.16 134.39,140.1 134.76,139.06 135.13,138.03 135.51,137.02 135.88,136.01 136.26,135 136.63,133.99 137,132.97 137.38,131.94 137.75,130.9 138.13,129.87 138.5,128.83 138.87,127.8 139.25,126.79 139.62,125.8 140,124.86 140.37,123.96 140.74,123.1 141.12,122.29 141.49,121.51 141.87,120.77 142.24,120.04 142.61,119.33 142.99,118.63 143.36,117.92 143.74,117.21 144.11,116.5 144.48,115.8 144.86,115.1 145.23,114.42 145.6,113.76 145.98,113.12 146.35,112.52 146.73,111.93 147.1,111.35 147.47,110.78 147.85,110.19 148.22,109.58 148.6,108.95 148.97,108.29 149.34,107.61 149.72,106.92 150.09,106.22 150.47,105.53 150.84,104.87 151.21,104.24 151.59,103.64 151.96,103.07 152.34,102.53 152.71,102.02 153.08,101.53 153.46,101.04 153.83,100.57 154.21,100.09 154.58,99.61 154.95,99.14 155.33,98.65 155.7,98.16 156.08,97.65 156.45,97.14 156.82,96.61 157.2,96.06 157.57,95.51 157.94,94.97 158.32,94.44 158.69,93.93 159.07,93.45 159.44,93 159.81,92.59 160.19,92.21 160.56,91.85 160.94,91.5 161.31,91.15 161.68,90.8 162.06,90.44 162.43,90.06 162.81,89.67 163.18,89.27 163.55,88.87 163.93,88.48 164.3,88.09 164.68,87.71 165.05,87.35 165.42,87.01 165.8,86.67 166.17,86.34 166.55,86 166.92,85.67 167.29,85.33 167.67,84.99 168.04,84.65 168.42,84.31 168.79,83.98 169.16,83.67 169.54,83.38 169.91,83.1 170.28,82.83 170.66,82.56 171.03,82.3 171.41,82.02 171.78,81.74 172.15,81.44 172.53,81.14 172.9,80.83 173.28,80.53 173.65,80.24 174.02,79.96 174.4,79.7 174.77,79.45 175.15,79.21 175.52,78.98 175.89,78.75 176.27,78.52 176.64,78.29 177.02,78.05 177.39,77.81 177.76,77.56 178.14,77.31 178.51,77.07 178.89,76.82 179.26,76.58 179.63,76.35 180.01,76.13 180.38,75.93 180.76,75.74 181.13,75.55 181.5,75.37 181.88,75.18 182.25,74.99 182.63,74.79 183,74.58 183.37,74.37 183.75,74.15 184.12,73.92 184.49,73.7 184.87,73.49 185.24,73.29 185.62,73.1 185.99,72.91 186.36,72.74 186.74,72.58 187.11,72.43 187.49,72.29 187.86,72.15 188.23,72.01 188.61,71.87 188.98,71.72 189.36,71.56 189.73,71.39 190.1,71.22 190.48,71.05 190.85,70.88 191.23,70.71 191.6,70.55 191.97,70.39 192.35,70.24 192.72,70.09 193.1,69.94 193.47,69.8 193.84,69.65 194.22,69.51 194.59,69.37 194.97,69.23 195.34,69.09 195.71,68.94 196.09,68.79 196.46,68.62 196.83,68.45 197.21,68.27 197.58,68.09 197.96,67.91 198.33,67.73 198.7,67.56 199.08,67.38 199.45,67.22 199.83,67.06 200.2,66.9 200.57,66.77 200.95,66.64 201.32,66.53 201.7,66.42 202.07,66.32 202.44,66.23 202.82,66.13 203.19,66.03 203.57,65.92 203.94,65.81 204.31,65.7 204.69,65.6 205.06,65.5 205.44,65.4 205.81,65.31 206.18,65.22 206.56,65.13 206.93,65.04 207.31,64.95 207.68,64.85 208.05,64.75 208.43,64.64 208.8,64.53 209.17,64.42 209.55,64.3 209.92,64.19 210.3,64.08 210.67,63.98 211.04,63.88 211.42,63.79 211.79,63.69 212.17,63.61 212.54,63.52 212.91,63.44 213.29,63.37 213.66,63.29 214.04,63.22 214.41,63.15 214.78,63.07 215.16,63 215.53,62.91 215.91,62.82 216.28,62.73 216.65,62.63 217.03,62.53 217.4,62.43 217.78,62.34 218.15,62.25 218.52,62.17 218.9,62.09 219.27,62.03 219.65,61.97 220.02,61.92 220.39,61.86 220.77,61.81 221.14,61.75 221.52,61.68 221.89,61.6 222.26,61.51 222.64,61.42 223.01,61.32 223.38,61.22 223.76,61.11 224.13,61.01 224.51,60.91 224.88,60.82 225.25,60.74 225.63,60.66 226,60.59 226.38,60.52 226.75,60.47 227.12,60.42 227.5,60.37 227.87,60.33 228.25,60.28 228.62,60.24 228.99,60.2 229.37,60.15 229.74,60.1 230.12,60.06 230.49,60.01 230.86,59.97 231.24,59.92 231.61,59.87 231.99,59.81 232.36,59.75 232.73,59.69 233.11,59.63 233.48,59.56 233.86,59.49 234.23,59.42 234.6,59.36 234.98,59.3 235.35,59.25 235.72,59.2 236.1,59.16 236.47,59.12 236.85,59.09 237.22,59.06 237.59,59.03 237.97,59.01 238.34,58.98 238.72,58.95 239.09,58.91 239.46,58.87 239.84,58.83 240.21,58.79 240.59,58.74 240.96,58.7 241.33,58.65 241.71,58.61 242.08,58.58 242.46,58.55 242.83,58.51 243.2,58.48 243.58,58.45 243.95,58.4 244.33,58.35 244.7,58.29 245.07,58.23 245.45,58.15 245.82,58.08 246.2,58 246.57,57.93 246.94,57.86 247.32,57.81 247.69,57.77 248.06,57.74 248.44,57.71 248.81,57.7 249.19,57.69 249.56,57.68 249.93,57.66 250.31,57.64 250.68,57.62 251.06,57.59 251.43,57.56 251.8,57.52 252.18,57.48 252.55,57.42 252.93,57.36 253.3,57.26 253.67,57.14 254.05,56.97 254.42,56.76 254.8,56.51 255.17,56.22 255.54,55.9 255.92,55.57 256.29,55.25 256.67,54.95 257.04,54.69 257.41,54.47 257.79,54.3 258.16,54.18 258.54,54.09 258.91,54.04 259.28,54.01 259.66,53.99 260.03,53.98 260.41,53.97" stroke-dasharray="none" stroke="rgb(31,120,180)" stroke-width="0.75" opacity="1" stroke-opacity="1" fill="none" class="aqm1" onclick="plotObjRespond('click', 1, 'dens')" onmouseover="plotObjRespond('show', 1, 'dens')" onmouseout="plotObjRespond('hide', 1, 'dens')"/>
          </g>
          <g id="Fig:densplot_01.xyplot.lines.group.2.panel.1.1.1">
            <polyline id="Fig:densplot_01.xyplot.lines.group.2.panel.1.1.1.1" points="59,54.05 59.4,54.11 59.79,54.22 60.19,54.39 60.59,54.66 60.98,55.06 61.38,55.62 61.78,56.41 62.18,57.45 62.57,58.82 62.97,60.52 63.37,62.55 63.76,64.91 64.16,67.57 64.56,70.47 64.95,73.57 65.35,76.81 65.75,80.13 66.14,83.49 66.54,86.87 66.94,90.24 67.33,93.6 67.73,96.97 68.13,100.35 68.53,103.78 68.92,107.26 69.32,110.81 69.72,114.42 70.11,118.11 70.51,121.86 70.91,125.66 71.3,129.49 71.7,133.33 72.1,137.15 72.49,140.93 72.89,144.64 73.29,148.26 73.68,151.77 74.08,155.16 74.48,158.44 74.88,161.59 75.27,164.62 75.67,167.51 76.07,170.27 76.46,172.9 76.86,175.38 77.26,177.72 77.65,179.9 78.05,181.93 78.45,183.78 78.84,185.46 79.24,186.96 79.64,188.29 80.03,189.45 80.43,190.46 80.83,191.31 81.23,192.02 81.62,192.6 82.02,193.07 82.42,193.43 82.81,193.7 83.21,193.89 83.61,193.99 84,194.02 84.4,193.95 84.8,193.78 85.19,193.51 85.59,193.11 85.99,192.59 86.38,191.92 86.78,191.12 87.18,190.18 87.58,189.11 87.97,187.93 88.37,186.66 88.77,185.31 89.16,183.91 89.56,182.46 89.96,181.01 90.35,179.56 90.75,178.12 91.15,176.71 91.54,175.34 91.94,174.01 92.34,172.73 92.73,171.49 93.13,170.28 93.53,169.11 93.93,167.95 94.32,166.79 94.72,165.63 95.12,164.45 95.51,163.23 95.91,161.98 96.31,160.7 96.7,159.4 97.1,158.07 97.5,156.74 97.89,155.41 98.29,154.1 98.69,152.8 99.08,151.53 99.48,150.3 99.88,149.09 100.28,147.92 100.67,146.78 101.07,145.68 101.47,144.63 101.86,143.62 102.26,142.65 102.66,141.73 103.05,140.84 103.45,140 103.85,139.19 104.24,138.41 104.64,137.64 105.04,136.89 105.43,136.15 105.83,135.4 106.23,134.65 106.63,133.9 107.02,133.13 107.42,132.35 107.82,131.56 108.21,130.76 108.61,129.96 109.01,129.15 109.4,128.36 109.8,127.59 110.2,126.85 110.59,126.13 110.99,125.46 111.39,124.81 111.78,124.2 112.18,123.62 112.58,123.06 112.98,122.51 113.37,121.96 113.77,121.42 114.17,120.88 114.56,120.34 114.96,119.79 115.36,119.23 115.75,118.68 116.15,118.14 116.55,117.59 116.94,117.06 117.34,116.53 117.74,116 118.13,115.47 118.53,114.95 118.93,114.43 119.33,113.9 119.72,113.38 120.12,112.86 120.52,112.34 120.91,111.82 121.31,111.29 121.71,110.77 122.1,110.25 122.5,109.74 122.9,109.22 123.29,108.71 123.69,108.22 124.09,107.73 124.48,107.25 124.88,106.77 125.28,106.3 125.68,105.83 126.07,105.36 126.47,104.89 126.87,104.42 127.26,103.95 127.66,103.48 128.06,103.02 128.45,102.57 128.85,102.13 129.25,101.7 129.64,101.28 130.04,100.87 130.44,100.47 130.83,100.07 131.23,99.68 131.63,99.28 132.03,98.89 132.42,98.49 132.82,98.1 133.22,97.71 133.61,97.31 134.01,96.92 134.41,96.52 134.8,96.11 135.2,95.71 135.6,95.3 135.99,94.89 136.39,94.49 136.79,94.1 137.18,93.72 137.58,93.35 137.98,93 138.38,92.66 138.77,92.34 139.17,92.02 139.57,91.71 139.96,91.4 140.36,91.09 140.76,90.78 141.15,90.47 141.55,90.16 141.95,89.85 142.34,89.54 142.74,89.23 143.14,88.93 143.53,88.64 143.93,88.36 144.33,88.08 144.73,87.81 145.12,87.54 145.52,87.28 145.92,87.01 146.31,86.74 146.71,86.46 147.11,86.19 147.5,85.92 147.9,85.64 148.3,85.37 148.69,85.1 149.09,84.83 149.49,84.56 149.88,84.29 150.28,84.02 150.68,83.76 151.08,83.5 151.47,83.24 151.87,82.99 152.27,82.75 152.66,82.52 153.06,82.29 153.46,82.07 153.85,81.85 154.25,81.64 154.65,81.42 155.04,81.21 155.44,80.99 155.84,80.78 156.23,80.56 156.63,80.33 157.03,80.11 157.43,79.89 157.82,79.66 158.22,79.44 158.62,79.21 159.01,78.98 159.41,78.75 159.81,78.53 160.2,78.3 160.6,78.09 161,77.88 161.39,77.67 161.79,77.47 162.19,77.28 162.58,77.09 162.98,76.9 163.38,76.71 163.78,76.51 164.17,76.31 164.57,76.11 164.97,75.91 165.36,75.71 165.76,75.51 166.16,75.3 166.55,75.1 166.95,74.91 167.35,74.71 167.74,74.52 168.14,74.33 168.54,74.15 168.93,73.97 169.33,73.81 169.73,73.65 170.13,73.49 170.52,73.35 170.92,73.22 171.32,73.09 171.71,72.98 172.11,72.87 172.51,72.78 172.9,72.68 173.3,72.59 173.7,72.49 174.09,72.39 174.49,72.28 174.89,72.16 175.28,72.03 175.68,71.88 176.08,71.72 176.48,71.56 176.87,71.38 177.27,71.19 177.67,71 178.06,70.8 178.46,70.61 178.86,70.42 179.25,70.24 179.65,70.06 180.05,69.89 180.44,69.73 180.84,69.58 181.24,69.44 181.63,69.3 182.03,69.17 182.43,69.04 182.83,68.92 183.22,68.8 183.62,68.69 184.02,68.58 184.41,68.47 184.81,68.37 185.21,68.27 185.6,68.18 186,68.09 186.4,68 186.79,67.92 187.19,67.83 187.59,67.73 187.98,67.62 188.38,67.51 188.78,67.39 189.18,67.26 189.57,67.13 189.97,67 190.37,66.87 190.76,66.74 191.16,66.61 191.56,66.49 191.95,66.37 192.35,66.24 192.75,66.12 193.14,66 193.54,65.88 193.94,65.77 194.33,65.65 194.73,65.54 195.13,65.43 195.53,65.32 195.92,65.22 196.32,65.12 196.72,65.03 197.11,64.93 197.51,64.84 197.91,64.74 198.3,64.65 198.7,64.55 199.1,64.45 199.49,64.35 199.89,64.26 200.29,64.16 200.68,64.07 201.08,63.98 201.48,63.9 201.88,63.81 202.27,63.73 202.67,63.64 203.07,63.56 203.46,63.47 203.86,63.39 204.26,63.3 204.65,63.22 205.05,63.14 205.45,63.06 205.84,62.98 206.24,62.91 206.64,62.84 207.03,62.78 207.43,62.72 207.83,62.65 208.23,62.58 208.62,62.51 209.02,62.44 209.42,62.35 209.81,62.27 210.21,62.17 210.61,62.08 211,61.98 211.4,61.89 211.8,61.8 212.19,61.71 212.59,61.62 212.99,61.54 213.38,61.47 213.78,61.39 214.18,61.32 214.58,61.25 214.97,61.18 215.37,61.11 215.77,61.04 216.16,60.97 216.56,60.9 216.96,60.84 217.35,60.78 217.75,60.72 218.15,60.67 218.54,60.62 218.94,60.58 219.34,60.53 219.73,60.49 220.13,60.45 220.53,60.4 220.93,60.35 221.32,60.3 221.72,60.24 222.12,60.18 222.51,60.11 222.91,60.04 223.31,59.96 223.7,59.88 224.1,59.81 224.5,59.74 224.89,59.68 225.29,59.62 225.69,59.57 226.08,59.52 226.48,59.48 226.88,59.45 227.28,59.41 227.67,59.38 228.07,59.34 228.47,59.31 228.86,59.27 229.26,59.22 229.66,59.18 230.05,59.13 230.45,59.09 230.85,59.04 231.24,58.99 231.64,58.94 232.04,58.89 232.43,58.84 232.83,58.79 233.23,58.75 233.63,58.7 234.02,58.65 234.42,58.6 234.82,58.55 235.21,58.5 235.61,58.45 236.01,58.4 236.4,58.35 236.8,58.29 237.2,58.25 237.59,58.2 237.99,58.15 238.39,58.11 238.78,58.08 239.18,58.04 239.58,58.01 239.98,57.99 240.37,57.96 240.77,57.94 241.17,57.91 241.56,57.88 241.96,57.85 242.36,57.82 242.75,57.78 243.15,57.74 243.55,57.69 243.94,57.65 244.34,57.6 244.74,57.55 245.13,57.51 245.53,57.47 245.93,57.43 246.33,57.39 246.72,57.36 247.12,57.33 247.52,57.31 247.91,57.28 248.31,57.26 248.71,57.24 249.1,57.22 249.5,57.19 249.9,57.17 250.29,57.14 250.69,57.1 251.09,57.07 251.48,57.03 251.88,56.98 252.28,56.92 252.68,56.84 253.07,56.75 253.47,56.63 253.87,56.49 254.26,56.32 254.66,56.13 255.06,55.91 255.45,55.68 255.85,55.44 256.25,55.2 256.64,54.98 257.04,54.77 257.44,54.58 257.83,54.43 258.23,54.3 258.63,54.2 259.03,54.12 259.42,54.07 259.82,54.03 260.22,54.01 260.61,53.99 261.01,53.98 261.41,53.97 261.8,53.97" stroke-dasharray="none" stroke="rgb(31,120,180)" stroke-width="0.75" opacity="1" stroke-opacity="1" fill="none" class="aqm2" onclick="plotObjRespond('click', 2, 'dens')" onmouseover="plotObjRespond('show', 2, 'dens')" onmouseout="plotObjRespond('hide', 2, 'dens')"/>
          </g>
          <g id="Fig:densplot_01.xyplot.lines.group.3.panel.1.1.1">
            <polyline id="Fig:densplot_01.xyplot.lines.group.3.panel.1.1.1.1" points="59.06,54.03 59.46,54.08 59.85,54.17 60.25,54.31 60.65,54.52 61.04,54.84 61.44,55.31 61.84,55.96 62.23,56.84 62.63,57.97 63.03,59.37 63.42,61.05 63.82,63.01 64.22,65.22 64.61,67.65 65.01,70.25 65.41,72.99 65.8,75.83 66.2,78.73 66.59,81.67 66.99,84.65 67.39,87.68 67.78,90.75 68.18,93.89 68.58,97.1 68.97,100.41 69.37,103.81 69.77,107.32 70.16,110.93 70.56,114.63 70.96,118.42 71.35,122.28 71.75,126.19 72.15,130.13 72.54,134.06 72.94,137.96 73.34,141.8 73.73,145.57 74.13,149.24 74.53,152.81 74.92,156.26 75.32,159.6 75.72,162.8 76.11,165.88 76.51,168.82 76.91,171.62 77.3,174.28 77.7,176.79 78.1,179.13 78.49,181.32 78.89,183.33 79.29,185.17 79.68,186.83 80.08,188.31 80.48,189.6 80.87,190.73 81.27,191.69 81.67,192.5 82.06,193.18 82.46,193.74 82.86,194.18 83.25,194.51 83.65,194.71 84.05,194.8 84.44,194.75 84.84,194.56 85.24,194.23 85.63,193.75 86.03,193.13 86.43,192.38 86.82,191.52 87.22,190.56 87.62,189.51 88.01,188.4 88.41,187.23 88.81,186.02 89.2,184.78 89.6,183.51 90,182.24 90.39,180.96 90.79,179.69 91.19,178.43 91.58,177.18 91.98,175.94 92.38,174.72 92.77,173.51 93.17,172.31 93.57,171.12 93.96,169.93 94.36,168.73 94.76,167.51 95.15,166.28 95.55,165.02 95.95,163.73 96.34,162.43 96.74,161.1 97.14,159.77 97.53,158.44 97.93,157.11 98.33,155.81 98.72,154.53 99.12,153.28 99.52,152.07 99.91,150.89 100.31,149.76 100.71,148.67 101.1,147.62 101.5,146.61 101.9,145.65 102.29,144.72 102.69,143.82 103.09,142.96 103.48,142.12 103.88,141.3 104.28,140.48 104.67,139.67 105.07,138.86 105.47,138.04 105.86,137.22 106.26,136.41 106.66,135.62 107.05,134.84 107.45,134.09 107.85,133.36 108.24,132.66 108.64,131.98 109.04,131.32 109.43,130.67 109.83,130.04 110.23,129.43 110.62,128.82 111.02,128.22 111.42,127.63 111.81,127.03 112.21,126.43 112.61,125.82 113,125.2 113.4,124.57 113.8,123.93 114.19,123.3 114.59,122.67 114.99,122.05 115.38,121.44 115.78,120.85 116.18,120.28 116.57,119.72 116.97,119.17 117.37,118.61 117.76,118.04 118.16,117.46 118.56,116.86 118.95,116.24 119.35,115.6 119.75,114.95 120.14,114.3 120.54,113.65 120.94,113.01 121.33,112.38 121.73,111.77 122.13,111.17 122.52,110.58 122.92,110.01 123.32,109.44 123.71,108.88 124.11,108.32 124.51,107.76 124.9,107.2 125.3,106.65 125.7,106.1 126.09,105.57 126.49,105.06 126.89,104.57 127.28,104.1 127.68,103.67 128.08,103.26 128.47,102.87 128.87,102.51 129.27,102.16 129.66,101.82 130.06,101.48 130.46,101.14 130.85,100.79 131.25,100.42 131.65,100.04 132.04,99.64 132.44,99.23 132.83,98.8 133.23,98.36 133.63,97.92 134.02,97.48 134.42,97.04 134.82,96.62 135.21,96.2 135.61,95.81 136.01,95.43 136.4,95.07 136.8,94.73 137.2,94.41 137.59,94.1 137.99,93.8 138.39,93.51 138.78,93.21 139.18,92.91 139.58,92.59 139.97,92.26 140.37,91.91 140.77,91.55 141.16,91.17 141.56,90.77 141.96,90.37 142.35,89.96 142.75,89.56 143.15,89.17 143.54,88.79 143.94,88.43 144.34,88.09 144.73,87.78 145.13,87.49 145.53,87.21 145.92,86.95 146.32,86.69 146.72,86.44 147.11,86.18 147.51,85.92 147.91,85.65 148.3,85.38 148.7,85.11 149.1,84.83 149.49,84.56 149.89,84.3 150.29,84.05 150.68,83.81 151.08,83.57 151.48,83.35 151.87,83.13 152.27,82.91 152.67,82.7 153.06,82.48 153.46,82.27 153.86,82.06 154.25,81.85 154.65,81.65 155.05,81.44 155.44,81.23 155.84,81.02 156.24,80.8 156.63,80.58 157.03,80.36 157.43,80.13 157.82,79.91 158.22,79.68 158.62,79.46 159.01,79.25 159.41,79.04 159.81,78.85 160.2,78.66 160.6,78.48 161,78.3 161.39,78.12 161.79,77.94 162.19,77.74 162.58,77.53 162.98,77.31 163.38,77.08 163.77,76.85 164.17,76.61 164.57,76.37 164.96,76.14 165.36,75.91 165.76,75.7 166.15,75.49 166.55,75.29 166.95,75.1 167.34,74.91 167.74,74.73 168.14,74.56 168.53,74.39 168.93,74.22 169.33,74.06 169.72,73.9 170.12,73.75 170.52,73.6 170.91,73.46 171.31,73.31 171.71,73.17 172.1,73.02 172.5,72.88 172.9,72.73 173.29,72.58 173.69,72.44 174.09,72.29 174.48,72.15 174.88,72.01 175.28,71.88 175.67,71.75 176.07,71.62 176.47,71.49 176.86,71.36 177.26,71.23 177.66,71.09 178.05,70.94 178.45,70.78 178.85,70.62 179.24,70.46 179.64,70.3 180.04,70.13 180.43,69.97 180.83,69.82 181.23,69.66 181.62,69.52 182.02,69.38 182.42,69.24 182.81,69.11 183.21,68.98 183.61,68.85 184,68.72 184.4,68.59 184.8,68.46 185.19,68.34 185.59,68.21 185.99,68.08 186.38,67.95 186.78,67.82 187.18,67.7 187.57,67.57 187.97,67.45 188.37,67.34 188.76,67.23 189.16,67.12 189.56,67.03 189.95,66.94 190.35,66.85 190.75,66.77 191.14,66.69 191.54,66.6 191.94,66.51 192.33,66.42 192.73,66.32 193.13,66.22 193.52,66.1 193.92,65.98 194.32,65.85 194.71,65.72 195.11,65.59 195.51,65.46 195.9,65.34 196.3,65.21 196.7,65.09 197.09,64.97 197.49,64.85 197.89,64.73 198.28,64.62 198.68,64.5 199.07,64.39 199.47,64.29 199.87,64.18 200.26,64.08 200.66,63.99 201.06,63.89 201.45,63.8 201.85,63.72 202.25,63.63 202.64,63.55 203.04,63.47 203.44,63.4 203.83,63.33 204.23,63.26 204.63,63.2 205.02,63.14 205.42,63.07 205.82,63.01 206.21,62.95 206.61,62.88 207.01,62.81 207.4,62.73 207.8,62.66 208.2,62.58 208.59,62.5 208.99,62.42 209.39,62.34 209.78,62.26 210.18,62.19 210.58,62.11 210.97,62.03 211.37,61.96 211.77,61.88 212.16,61.81 212.56,61.74 212.96,61.67 213.35,61.6 213.75,61.53 214.15,61.47 214.54,61.4 214.94,61.34 215.34,61.28 215.73,61.21 216.13,61.15 216.53,61.09 216.92,61.03 217.32,60.97 217.72,60.91 218.11,60.86 218.51,60.8 218.91,60.74 219.3,60.69 219.7,60.63 220.1,60.57 220.49,60.51 220.89,60.45 221.29,60.38 221.68,60.32 222.08,60.25 222.48,60.18 222.87,60.11 223.27,60.03 223.67,59.96 224.06,59.89 224.46,59.81 224.86,59.74 225.25,59.67 225.65,59.6 226.05,59.54 226.44,59.48 226.84,59.42 227.24,59.36 227.63,59.31 228.03,59.26 228.43,59.22 228.82,59.17 229.22,59.13 229.62,59.1 230.01,59.06 230.41,59.03 230.81,59 231.2,58.97 231.6,58.93 232,58.9 232.39,58.87 232.79,58.83 233.19,58.79 233.58,58.75 233.98,58.71 234.38,58.66 234.77,58.62 235.17,58.57 235.57,58.53 235.96,58.48 236.36,58.44 236.76,58.39 237.15,58.35 237.55,58.31 237.95,58.27 238.34,58.23 238.74,58.19 239.14,58.15 239.53,58.11 239.93,58.08 240.33,58.04 240.72,58 241.12,57.96 241.52,57.92 241.91,57.87 242.31,57.83 242.71,57.78 243.1,57.73 243.5,57.69 243.9,57.65 244.29,57.61 244.69,57.57 245.09,57.54 245.48,57.5 245.88,57.47 246.28,57.43 246.67,57.4 247.07,57.37 247.47,57.33 247.86,57.3 248.26,57.27 248.66,57.24 249.05,57.21 249.45,57.19 249.85,57.17 250.24,57.14 250.64,57.12 251.04,57.08 251.43,57.05 251.83,57 252.23,56.94 252.62,56.86 253.02,56.76 253.42,56.63 253.81,56.48 254.21,56.31 254.61,56.11 255,55.89 255.4,55.65 255.8,55.42 256.19,55.18 256.59,54.96 256.99,54.75 257.38,54.57 257.78,54.42 258.18,54.3 258.57,54.2 258.97,54.12 259.37,54.07 259.76,54.03 260.16,54.01 260.56,53.99 260.95,53.98 261.35,53.97 261.75,53.97" stroke-dasharray="none" stroke="rgb(31,120,180)" stroke-width="0.75" opacity="1" stroke-opacity="1" fill="none" class="aqm3" onclick="plotObjRespond('click', 3, 'dens')" onmouseover="plotObjRespond('show', 3, 'dens')" onmouseout="plotObjRespond('hide', 3, 'dens')"/>
          </g>
          <g id="Fig:densplot_01.xyplot.lines.group.4.panel.1.1.1">
            <polyline id="Fig:densplot_01.xyplot.lines.group.4.panel.1.1.1.1" points="60.3,53.97 60.7,53.97 61.09,53.97 61.48,53.97 61.87,53.97 62.26,53.97 62.65,53.97 63.05,53.97 63.44,53.97 63.83,53.97 64.22,53.98 64.61,53.98 65,53.98 65.4,53.98 65.79,53.99 66.18,53.99 66.57,54 66.96,54.01 67.36,54.01 67.75,54.02 68.14,54.04 68.53,54.05 68.92,54.07 69.31,54.1 69.71,54.13 70.1,54.16 70.49,54.21 70.88,54.27 71.27,54.33 71.66,54.42 72.06,54.51 72.45,54.63 72.84,54.76 73.23,54.92 73.62,55.1 74.02,55.31 74.41,55.56 74.8,55.84 75.19,56.16 75.58,56.53 75.97,56.96 76.37,57.45 76.76,58 77.15,58.64 77.54,59.36 77.93,60.18 78.32,61.12 78.72,62.17 79.11,63.35 79.5,64.67 79.89,66.12 80.28,67.73 80.68,69.49 81.07,71.41 81.46,73.5 81.85,75.76 82.24,78.21 82.63,80.84 83.03,83.67 83.42,86.69 83.81,89.9 84.2,93.29 84.59,96.87 84.99,100.62 85.38,104.54 85.77,108.63 86.16,112.88 86.55,117.27 86.94,121.82 87.34,126.51 87.73,131.31 88.12,136.22 88.51,141.23 88.9,146.3 89.29,151.43 89.69,156.58 90.08,161.73 90.47,166.83 90.86,171.85 91.25,176.74 91.65,181.47 92.04,186 92.43,190.28 92.82,194.31 93.21,198.06 93.6,201.5 94,204.64 94.39,207.49 94.78,210.06 95.17,212.35 95.56,214.38 95.95,216.16 96.35,217.69 96.74,218.98 97.13,220.04 97.52,220.89 97.91,221.52 98.31,221.94 98.7,222.18 99.09,222.22 99.48,222.09 99.87,221.8 100.26,221.33 100.66,220.69 101.05,219.9 101.44,218.96 101.83,217.87 102.22,216.66 102.62,215.34 103.01,213.94 103.4,212.47 103.79,210.95 104.18,209.4 104.57,207.83 104.97,206.23 105.36,204.6 105.75,202.92 106.14,201.18 106.53,199.39 106.92,197.57 107.32,195.74 107.71,193.96 108.1,192.24 108.49,190.57 108.88,188.95 109.28,187.33 109.67,185.69 110.06,183.98 110.45,182.21 110.84,180.39 111.23,178.54 111.63,176.71 112.02,174.92 112.41,173.22 112.8,171.61 113.19,170.12 113.58,168.73 113.98,167.43 114.37,166.2 114.76,165.01 115.15,163.84 115.54,162.68 115.94,161.5 116.33,160.3 116.72,159.08 117.11,157.82 117.5,156.55 117.89,155.28 118.29,154 118.68,152.74 119.07,151.49 119.46,150.26 119.85,149.05 120.24,147.86 120.64,146.69 121.03,145.54 121.42,144.41 121.81,143.29 122.2,142.19 122.6,141.1 122.99,140.03 123.38,138.97 123.77,137.92 124.16,136.88 124.55,135.84 124.95,134.8 125.34,133.76 125.73,132.72 126.12,131.69 126.51,130.68 126.91,129.68 127.3,128.71 127.69,127.76 128.08,126.83 128.47,125.93 128.86,125.04 129.26,124.16 129.65,123.29 130.04,122.42 130.43,121.55 130.82,120.68 131.21,119.81 131.61,118.94 132,118.08 132.39,117.22 132.78,116.37 133.17,115.52 133.57,114.69 133.96,113.86 134.35,113.05 134.74,112.26 135.13,111.49 135.52,110.75 135.92,110.03 136.31,109.34 136.7,108.67 137.09,108.02 137.48,107.39 137.87,106.77 138.27,106.15 138.66,105.52 139.05,104.89 139.44,104.26 139.83,103.63 140.23,103 140.62,102.4 141.01,101.81 141.4,101.23 141.79,100.67 142.18,100.12 142.58,99.57 142.97,99.04 143.36,98.51 143.75,97.99 144.14,97.5 144.54,97.03 144.93,96.58 145.32,96.15 145.71,95.72 146.1,95.29 146.49,94.85 146.89,94.4 147.28,93.94 147.67,93.47 148.06,93.01 148.45,92.56 148.84,92.13 149.24,91.71 149.63,91.31 150.02,90.92 150.41,90.52 150.8,90.13 151.2,89.72 151.59,89.31 151.98,88.9 152.37,88.49 152.76,88.09 153.15,87.71 153.55,87.35 153.94,86.99 154.33,86.63 154.72,86.26 155.11,85.88 155.5,85.49 155.9,85.1 156.29,84.71 156.68,84.33 157.07,83.97 157.46,83.64 157.86,83.32 158.25,83.02 158.64,82.73 159.03,82.45 159.42,82.18 159.81,81.91 160.21,81.64 160.6,81.38 160.99,81.12 161.38,80.87 161.77,80.62 162.16,80.37 162.56,80.12 162.95,79.87 163.34,79.6 163.73,79.34 164.12,79.07 164.52,78.81 164.91,78.57 165.3,78.34 165.69,78.13 166.08,77.94 166.47,77.75 166.87,77.56 167.26,77.37 167.65,77.15 168.04,76.91 168.43,76.66 168.83,76.4 169.22,76.13 169.61,75.87 170,75.6 170.39,75.35 170.78,75.09 171.18,74.84 171.57,74.59 171.96,74.35 172.35,74.11 172.74,73.88 173.13,73.65 173.53,73.43 173.92,73.22 174.31,73.01 174.7,72.82 175.09,72.64 175.49,72.46 175.88,72.29 176.27,72.13 176.66,71.96 177.05,71.8 177.44,71.63 177.84,71.47 178.23,71.31 178.62,71.14 179.01,70.98 179.4,70.82 179.79,70.66 180.19,70.5 180.58,70.33 180.97,70.16 181.36,69.98 181.75,69.8 182.15,69.63 182.54,69.46 182.93,69.29 183.32,69.13 183.71,68.96 184.1,68.78 184.5,68.61 184.89,68.43 185.28,68.25 185.67,68.09 186.06,67.93 186.46,67.78 186.85,67.65 187.24,67.53 187.63,67.43 188.02,67.33 188.41,67.23 188.81,67.14 189.2,67.04 189.59,66.93 189.98,66.81 190.37,66.68 190.76,66.55 191.16,66.4 191.55,66.25 191.94,66.09 192.33,65.92 192.72,65.75 193.12,65.57 193.51,65.4 193.9,65.24 194.29,65.08 194.68,64.94 195.07,64.82 195.47,64.71 195.86,64.63 196.25,64.55 196.64,64.48 197.03,64.42 197.42,64.36 197.82,64.29 198.21,64.22 198.6,64.14 198.99,64.06 199.38,63.97 199.78,63.87 200.17,63.77 200.56,63.67 200.95,63.57 201.34,63.47 201.73,63.38 202.13,63.28 202.52,63.2 202.91,63.12 203.3,63.04 203.69,62.96 204.08,62.89 204.48,62.81 204.87,62.73 205.26,62.65 205.65,62.57 206.04,62.49 206.44,62.4 206.83,62.32 207.22,62.23 207.61,62.13 208,62.03 208.39,61.94 208.79,61.84 209.18,61.76 209.57,61.68 209.96,61.61 210.35,61.56 210.75,61.51 211.14,61.45 211.53,61.39 211.92,61.32 212.31,61.24 212.7,61.14 213.1,61.04 213.49,60.94 213.88,60.84 214.27,60.75 214.66,60.67 215.05,60.59 215.45,60.53 215.84,60.46 216.23,60.4 216.62,60.34 217.01,60.27 217.41,60.2 217.8,60.13 218.19,60.05 218.58,59.97 218.97,59.9 219.36,59.82 219.76,59.75 220.15,59.68 220.54,59.62 220.93,59.56 221.32,59.51 221.71,59.46 222.11,59.42 222.5,59.37 222.89,59.33 223.28,59.28 223.67,59.24 224.07,59.2 224.46,59.15 224.85,59.11 225.24,59.07 225.63,59.02 226.02,58.97 226.42,58.92 226.81,58.86 227.2,58.79 227.59,58.73 227.98,58.67 228.38,58.61 228.77,58.56 229.16,58.52 229.55,58.47 229.94,58.43 230.33,58.39 230.73,58.35 231.12,58.3 231.51,58.24 231.9,58.18 232.29,58.12 232.68,58.06 233.08,58.01 233.47,57.96 233.86,57.92 234.25,57.88 234.64,57.85 235.04,57.82 235.43,57.8 235.82,57.78 236.21,57.77 236.6,57.75 236.99,57.73 237.39,57.71 237.78,57.68 238.17,57.66 238.56,57.63 238.95,57.59 239.34,57.56 239.74,57.52 240.13,57.49 240.52,57.45 240.91,57.41 241.3,57.37 241.7,57.34 242.09,57.3 242.48,57.28 242.87,57.25 243.26,57.23 243.65,57.21 244.05,57.19 244.44,57.17 244.83,57.15 245.22,57.12 245.61,57.1 246,57.07 246.4,57.03 246.79,57 247.18,56.97 247.57,56.93 247.96,56.9 248.36,56.86 248.75,56.83 249.14,56.79 249.53,56.76 249.92,56.72 250.31,56.69 250.71,56.65 251.1,56.61 251.49,56.58 251.88,56.54 252.27,56.49 252.67,56.44 253.06,56.38 253.45,56.3 253.84,56.2 254.23,56.07 254.62,55.91 255.02,55.71 255.41,55.49 255.8,55.25 256.19,55.01 256.58,54.78 256.97,54.57 257.37,54.4 257.76,54.26 258.15,54.15 258.54,54.08 258.93,54.03 259.33,54 259.72,53.98 260.11,53.97 260.5,53.97" stroke-dasharray="none" stroke="rgb(31,120,180)" stroke-width="0.75" opacity="1" stroke-opacity="1" fill="none" class="aqm4" onclick="plotObjRespond('click', 4, 'dens')" onmouseover="plotObjRespond('show', 4, 'dens')" onmouseout="plotObjRespond('hide', 4, 'dens')"/>
          </g>
          <g id="Fig:densplot_01.xyplot.lines.group.5.panel.1.1.1">
            <polyline id="Fig:densplot_01.xyplot.lines.group.5.panel.1.1.1.1" points="63.52,53.97 63.9,53.97 64.29,53.97 64.67,53.97 65.06,53.97 65.45,53.97 65.83,53.97 66.22,53.97 66.6,53.97 66.99,53.97 67.37,53.97 67.76,53.97 68.14,53.97 68.53,53.97 68.91,53.97 69.3,53.98 69.68,53.98 70.07,53.98 70.46,53.98 70.84,53.99 71.23,53.99 71.61,53.99 72,54 72.38,54 72.77,54 73.15,54.01 73.54,54.02 73.92,54.03 74.31,54.04 74.69,54.06 75.08,54.08 75.46,54.1 75.85,54.12 76.24,54.15 76.62,54.18 77.01,54.21 77.39,54.25 77.78,54.3 78.16,54.36 78.55,54.42 78.93,54.49 79.32,54.57 79.7,54.65 80.09,54.75 80.47,54.85 80.86,54.97 81.24,55.1 81.63,55.25 82.02,55.42 82.4,55.6 82.79,55.81 83.17,56.04 83.56,56.29 83.94,56.57 84.33,56.87 84.71,57.2 85.1,57.56 85.48,57.95 85.87,58.38 86.25,58.84 86.64,59.35 87.03,59.9 87.41,60.49 87.8,61.12 88.18,61.79 88.57,62.51 88.95,63.29 89.34,64.12 89.72,65.01 90.11,65.97 90.49,67.01 90.88,68.11 91.26,69.29 91.65,70.55 92.03,71.87 92.42,73.27 92.81,74.73 93.19,76.25 93.58,77.83 93.96,79.47 94.35,81.15 94.73,82.88 95.12,84.65 95.5,86.47 95.89,88.33 96.27,90.23 96.66,92.18 97.04,94.17 97.43,96.2 97.81,98.27 98.2,100.37 98.59,102.51 98.97,104.68 99.36,106.88 99.74,109.1 100.13,111.36 100.51,113.65 100.9,115.97 101.28,118.3 101.67,120.63 102.05,122.96 102.44,125.28 102.82,127.57 103.21,129.83 103.6,132.06 103.98,134.26 104.37,136.41 104.75,138.52 105.14,140.58 105.52,142.59 105.91,144.53 106.29,146.4 106.68,148.23 107.06,150.03 107.45,151.81 107.83,153.58 108.22,155.36 108.6,157.12 108.99,158.84 109.38,160.51 109.76,162.1 110.15,163.62 110.53,165.08 110.92,166.49 111.3,167.86 111.69,169.19 112.07,170.48 112.46,171.72 112.84,172.9 113.23,174 113.61,175.04 114,175.99 114.38,176.87 114.77,177.67 115.16,178.41 115.54,179.09 115.93,179.72 116.31,180.31 116.7,180.86 117.08,181.37 117.47,181.84 117.85,182.25 118.24,182.62 118.62,182.93 119.01,183.21 119.39,183.45 119.78,183.67 120.17,183.84 120.55,183.95 120.94,184 121.32,183.97 121.71,183.86 122.09,183.69 122.48,183.49 122.86,183.28 123.25,183.07 123.63,182.86 124.02,182.65 124.4,182.44 124.79,182.22 125.17,181.97 125.56,181.71 125.95,181.44 126.33,181.14 126.72,180.84 127.1,180.51 127.49,180.18 127.87,179.83 128.26,179.47 128.64,179.09 129.03,178.69 129.41,178.27 129.8,177.81 130.18,177.3 130.57,176.74 130.95,176.12 131.34,175.42 131.73,174.65 132.11,173.82 132.5,172.92 132.88,171.99 133.27,171.02 133.65,170.05 134.04,169.08 134.42,168.13 134.81,167.21 135.19,166.3 135.58,165.4 135.96,164.49 136.35,163.54 136.74,162.56 137.12,161.55 137.51,160.5 137.89,159.45 138.28,158.4 138.66,157.36 139.05,156.34 139.43,155.34 139.82,154.34 140.2,153.33 140.59,152.28 140.97,151.2 141.36,150.09 141.74,148.94 142.13,147.79 142.52,146.63 142.9,145.5 143.29,144.39 143.67,143.3 144.06,142.22 144.44,141.14 144.83,140.07 145.21,138.98 145.6,137.88 145.98,136.77 146.37,135.64 146.75,134.5 147.14,133.34 147.53,132.16 147.91,130.97 148.3,129.77 148.68,128.58 149.07,127.4 149.45,126.25 149.84,125.12 150.22,124.04 150.61,122.99 150.99,121.97 151.38,121 151.76,120.05 152.15,119.14 152.53,118.25 152.92,117.39 153.31,116.55 153.69,115.71 154.08,114.87 154.46,114.03 154.85,113.2 155.23,112.36 155.62,111.54 156,110.73 156.39,109.94 156.77,109.18 157.16,108.44 157.54,107.72 157.93,107.02 158.31,106.33 158.7,105.66 159.09,105 159.47,104.34 159.86,103.69 160.24,103.04 160.63,102.39 161.01,101.75 161.4,101.1 161.78,100.45 162.17,99.8 162.55,99.15 162.94,98.51 163.32,97.88 163.71,97.27 164.1,96.66 164.48,96.07 164.87,95.5 165.25,94.93 165.64,94.38 166.02,93.83 166.41,93.3 166.79,92.77 167.18,92.26 167.56,91.76 167.95,91.27 168.33,90.8 168.72,90.35 169.1,89.91 169.49,89.48 169.88,89.07 170.26,88.68 170.65,88.3 171.03,87.93 171.42,87.57 171.8,87.21 172.19,86.84 172.57,86.47 172.96,86.1 173.34,85.74 173.73,85.4 174.11,85.06 174.5,84.74 174.88,84.43 175.27,84.12 175.66,83.81 176.04,83.5 176.43,83.17 176.81,82.84 177.2,82.5 177.58,82.16 177.97,81.83 178.35,81.5 178.74,81.17 179.12,80.86 179.51,80.56 179.89,80.27 180.28,79.98 180.67,79.7 181.05,79.43 181.44,79.15 181.82,78.88 182.21,78.59 182.59,78.31 182.98,78.02 183.36,77.74 183.75,77.45 184.13,77.17 184.52,76.88 184.9,76.6 185.29,76.32 185.67,76.04 186.06,75.76 186.45,75.48 186.83,75.2 187.22,74.92 187.6,74.64 187.99,74.36 188.37,74.09 188.76,73.83 189.14,73.57 189.53,73.32 189.91,73.09 190.3,72.86 190.68,72.65 191.07,72.46 191.45,72.27 191.84,72.1 192.23,71.93 192.61,71.77 193,71.62 193.38,71.45 193.77,71.28 194.15,71.09 194.54,70.89 194.92,70.68 195.31,70.46 195.69,70.24 196.08,70.03 196.46,69.81 196.85,69.61 197.24,69.42 197.62,69.25 198.01,69.07 198.39,68.91 198.78,68.74 199.16,68.57 199.55,68.39 199.93,68.2 200.32,68.01 200.7,67.81 201.09,67.61 201.47,67.42 201.86,67.25 202.24,67.09 202.63,66.95 203.02,66.82 203.4,66.71 203.79,66.61 204.17,66.51 204.56,66.41 204.94,66.31 205.33,66.21 205.71,66.1 206.1,65.99 206.48,65.87 206.87,65.76 207.25,65.65 207.64,65.53 208.02,65.42 208.41,65.3 208.8,65.18 209.18,65.05 209.57,64.92 209.95,64.79 210.34,64.66 210.72,64.54 211.11,64.42 211.49,64.31 211.88,64.2 212.26,64.1 212.65,63.99 213.03,63.88 213.42,63.76 213.81,63.64 214.19,63.5 214.58,63.36 214.96,63.23 215.35,63.1 215.73,62.98 216.12,62.88 216.5,62.78 216.89,62.7 217.27,62.62 217.66,62.53 218.04,62.45 218.43,62.36 218.81,62.27 219.2,62.17 219.59,62.08 219.97,61.98 220.36,61.88 220.74,61.78 221.13,61.67 221.51,61.56 221.9,61.46 222.28,61.35 222.67,61.26 223.05,61.18 223.44,61.11 223.82,61.06 224.21,61.01 224.59,60.97 224.98,60.93 225.37,60.89 225.75,60.85 226.14,60.79 226.52,60.73 226.91,60.66 227.29,60.59 227.68,60.51 228.06,60.43 228.45,60.35 228.83,60.27 229.22,60.19 229.6,60.11 229.99,60.04 230.38,59.96 230.76,59.9 231.15,59.84 231.53,59.78 231.92,59.72 232.3,59.67 232.69,59.62 233.07,59.56 233.46,59.5 233.84,59.44 234.23,59.36 234.61,59.28 235,59.19 235.38,59.1 235.77,59.01 236.16,58.92 236.54,58.85 236.93,58.78 237.31,58.74 237.7,58.7 238.08,58.69 238.47,58.68 238.85,58.68 239.24,58.67 239.62,58.67 240.01,58.65 240.39,58.62 240.78,58.58 241.16,58.53 241.55,58.47 241.94,58.42 242.32,58.36 242.71,58.3 243.09,58.25 243.48,58.2 243.86,58.15 244.25,58.11 244.63,58.06 245.02,58.02 245.4,57.98 245.79,57.93 246.17,57.88 246.56,57.83 246.95,57.78 247.33,57.72 247.72,57.67 248.1,57.62 248.49,57.57 248.87,57.53 249.26,57.5 249.64,57.48 250.03,57.46 250.41,57.44 250.8,57.43 251.18,57.41 251.57,57.4 251.95,57.37 252.34,57.32 252.73,57.26 253.11,57.18 253.5,57.06 253.88,56.9 254.27,56.71 254.65,56.46 255.04,56.18 255.42,55.87 255.81,55.56 256.19,55.24 256.58,54.95 256.96,54.69 257.35,54.48 257.73,54.31 258.12,54.19 258.51,54.1 258.89,54.04 259.28,54.01 259.66,53.99 260.05,53.98 260.43,53.97" stroke-dasharray="none" stroke="rgb(31,120,180)" stroke-width="0.75" opacity="1" stroke-opacity="1" fill="none" class="aqm5" onclick="plotObjRespond('click', 5, 'dens')" onmouseover="plotObjRespond('show', 5, 'dens')" onmouseout="plotObjRespond('hide', 5, 'dens')"/>
          </g>
          <g id="Fig:densplot_01.xyplot.lines.group.6.panel.1.1.1">
            <polyline id="Fig:densplot_01.xyplot.lines.group.6.panel.1.1.1.1" points="59.15,53.98 59.55,53.99 59.95,54.02 60.34,54.05 60.74,54.11 61.14,54.2 61.53,54.33 61.93,54.51 62.33,54.75 62.72,55.07 63.12,55.47 63.51,55.96 63.91,56.54 64.31,57.22 64.7,57.99 65.1,58.84 65.5,59.77 65.89,60.79 66.29,61.87 66.68,63.03 67.08,64.26 67.48,65.57 67.87,66.97 68.27,68.47 68.67,70.06 69.06,71.76 69.46,73.57 69.85,75.5 70.25,77.55 70.65,79.73 71.04,82.03 71.44,84.47 71.84,87.05 72.23,89.75 72.63,92.59 73.02,95.56 73.42,98.65 73.82,101.85 74.21,105.17 74.61,108.59 75.01,112.11 75.4,115.71 75.8,119.37 76.19,123.1 76.59,126.87 76.99,130.67 77.38,134.49 77.78,138.29 78.18,142.07 78.57,145.8 78.97,149.48 79.36,153.07 79.76,156.58 80.16,159.98 80.55,163.28 80.95,166.48 81.35,169.55 81.74,172.51 82.14,175.34 82.53,178.02 82.93,180.55 83.33,182.92 83.72,185.1 84.12,187.1 84.52,188.89 84.91,190.48 85.31,191.86 85.7,193.04 86.1,194.02 86.5,194.81 86.89,195.43 87.29,195.89 87.69,196.22 88.08,196.42 88.48,196.51 88.88,196.5 89.27,196.41 89.67,196.24 90.06,195.98 90.46,195.64 90.86,195.22 91.25,194.7 91.65,194.09 92.05,193.38 92.44,192.56 92.84,191.64 93.23,190.62 93.63,189.5 94.03,188.29 94.42,186.99 94.82,185.63 95.22,184.2 95.61,182.72 96.01,181.21 96.4,179.68 96.8,178.14 97.2,176.61 97.59,175.1 97.99,173.61 98.39,172.15 98.78,170.72 99.18,169.33 99.57,167.97 99.97,166.64 100.37,165.33 100.76,164.03 101.16,162.75 101.56,161.48 101.95,160.21 102.35,158.95 102.74,157.7 103.14,156.45 103.54,155.22 103.93,153.99 104.33,152.77 104.73,151.56 105.12,150.37 105.52,149.19 105.91,148.03 106.31,146.9 106.71,145.79 107.1,144.73 107.5,143.7 107.9,142.71 108.29,141.77 108.69,140.85 109.08,139.96 109.48,139.08 109.88,138.22 110.27,137.38 110.67,136.54 111.07,135.72 111.46,134.9 111.86,134.1 112.26,133.31 112.65,132.54 113.05,131.78 113.44,131.05 113.84,130.33 114.24,129.63 114.63,128.96 115.03,128.32 115.43,127.7 115.82,127.1 116.22,126.51 116.61,125.94 117.01,125.38 117.41,124.81 117.8,124.25 118.2,123.67 118.6,123.1 118.99,122.51 119.39,121.92 119.78,121.31 120.18,120.69 120.58,120.06 120.97,119.42 121.37,118.77 121.77,118.12 122.16,117.46 122.56,116.8 122.95,116.14 123.35,115.49 123.75,114.85 124.14,114.22 124.54,113.59 124.94,112.97 125.33,112.35 125.73,111.74 126.12,111.13 126.52,110.53 126.92,109.95 127.31,109.39 127.71,108.85 128.11,108.33 128.5,107.83 128.9,107.35 129.29,106.87 129.69,106.41 130.09,105.95 130.48,105.48 130.88,105.01 131.28,104.55 131.67,104.08 132.07,103.62 132.46,103.15 132.86,102.7 133.26,102.25 133.65,101.8 134.05,101.35 134.45,100.89 134.84,100.43 135.24,99.97 135.64,99.5 136.03,99.02 136.43,98.55 136.82,98.08 137.22,97.62 137.62,97.18 138.01,96.74 138.41,96.33 138.81,95.93 139.2,95.54 139.6,95.18 139.99,94.82 140.39,94.47 140.79,94.14 141.18,93.81 141.58,93.49 141.98,93.18 142.37,92.87 142.77,92.57 143.16,92.28 143.56,91.99 143.96,91.7 144.35,91.41 144.75,91.11 145.15,90.81 145.54,90.51 145.94,90.2 146.33,89.89 146.73,89.58 147.13,89.27 147.52,88.95 147.92,88.64 148.32,88.32 148.71,88.01 149.11,87.69 149.5,87.37 149.9,87.04 150.3,86.71 150.69,86.38 151.09,86.05 151.49,85.73 151.88,85.41 152.28,85.11 152.67,84.81 153.07,84.53 153.47,84.26 153.86,84 154.26,83.76 154.66,83.52 155.05,83.28 155.45,83.05 155.84,82.82 156.24,82.59 156.64,82.35 157.03,82.11 157.43,81.87 157.83,81.62 158.22,81.36 158.62,81.1 159.01,80.83 159.41,80.56 159.81,80.29 160.2,80.03 160.6,79.77 161,79.53 161.39,79.29 161.79,79.07 162.19,78.85 162.58,78.65 162.98,78.44 163.37,78.25 163.77,78.05 164.17,77.86 164.56,77.67 164.96,77.48 165.36,77.29 165.75,77.11 166.15,76.93 166.54,76.75 166.94,76.58 167.34,76.4 167.73,76.23 168.13,76.06 168.53,75.89 168.92,75.71 169.32,75.54 169.71,75.37 170.11,75.2 170.51,75.02 170.9,74.85 171.3,74.68 171.7,74.51 172.09,74.35 172.49,74.19 172.88,74.02 173.28,73.86 173.68,73.7 174.07,73.55 174.47,73.39 174.87,73.24 175.26,73.1 175.66,72.95 176.05,72.81 176.45,72.68 176.85,72.54 177.24,72.39 177.64,72.25 178.04,72.1 178.43,71.94 178.83,71.78 179.22,71.62 179.62,71.45 180.02,71.29 180.41,71.12 180.81,70.96 181.21,70.8 181.6,70.65 182,70.5 182.39,70.35 182.79,70.21 183.19,70.08 183.58,69.95 183.98,69.82 184.38,69.69 184.77,69.58 185.17,69.46 185.57,69.35 185.96,69.25 186.36,69.15 186.75,69.05 187.15,68.95 187.55,68.86 187.94,68.76 188.34,68.67 188.74,68.57 189.13,68.47 189.53,68.37 189.92,68.27 190.32,68.17 190.72,68.06 191.11,67.96 191.51,67.85 191.91,67.73 192.3,67.62 192.7,67.49 193.09,67.36 193.49,67.22 193.89,67.08 194.28,66.92 194.68,66.76 195.08,66.59 195.47,66.43 195.87,66.27 196.26,66.12 196.66,65.98 197.06,65.86 197.45,65.75 197.85,65.65 198.25,65.57 198.64,65.5 199.04,65.44 199.43,65.37 199.83,65.31 200.23,65.24 200.62,65.16 201.02,65.08 201.42,64.98 201.81,64.88 202.21,64.77 202.6,64.65 203,64.53 203.4,64.4 203.79,64.27 204.19,64.14 204.59,64.01 204.98,63.89 205.38,63.77 205.77,63.66 206.17,63.57 206.57,63.48 206.96,63.4 207.36,63.33 207.76,63.27 208.15,63.21 208.55,63.16 208.95,63.11 209.34,63.05 209.74,63 210.13,62.95 210.53,62.89 210.93,62.83 211.32,62.76 211.72,62.7 212.12,62.64 212.51,62.58 212.91,62.52 213.3,62.46 213.7,62.4 214.1,62.33 214.49,62.26 214.89,62.19 215.29,62.1 215.68,62.02 216.08,61.93 216.47,61.84 216.87,61.75 217.27,61.66 217.66,61.58 218.06,61.51 218.46,61.44 218.85,61.38 219.25,61.32 219.64,61.26 220.04,61.2 220.44,61.14 220.83,61.07 221.23,61.01 221.63,60.94 222.02,60.88 222.42,60.82 222.81,60.76 223.21,60.7 223.61,60.65 224,60.59 224.4,60.54 224.8,60.5 225.19,60.45 225.59,60.39 225.98,60.34 226.38,60.29 226.78,60.23 227.17,60.17 227.57,60.11 227.97,60.05 228.36,59.99 228.76,59.92 229.15,59.86 229.55,59.8 229.95,59.74 230.34,59.68 230.74,59.63 231.14,59.57 231.53,59.52 231.93,59.46 232.32,59.41 232.72,59.35 233.12,59.29 233.51,59.23 233.91,59.17 234.31,59.11 234.7,59.05 235.1,58.99 235.5,58.93 235.89,58.88 236.29,58.83 236.68,58.78 237.08,58.74 237.48,58.71 237.87,58.68 238.27,58.65 238.67,58.62 239.06,58.6 239.46,58.57 239.85,58.55 240.25,58.52 240.65,58.48 241.04,58.45 241.44,58.41 241.84,58.37 242.23,58.33 242.63,58.28 243.02,58.24 243.42,58.2 243.82,58.16 244.21,58.12 244.61,58.08 245.01,58.05 245.4,58.01 245.8,57.97 246.19,57.93 246.59,57.89 246.99,57.85 247.38,57.8 247.78,57.76 248.18,57.71 248.57,57.67 248.97,57.63 249.36,57.59 249.76,57.56 250.16,57.54 250.55,57.51 250.95,57.49 251.35,57.46 251.74,57.43 252.14,57.39 252.53,57.32 252.93,57.23 253.33,57.12 253.72,56.97 254.12,56.79 254.52,56.57 254.91,56.33 255.31,56.06 255.7,55.78 256.1,55.5 256.5,55.23 256.89,54.98 257.29,54.75 257.69,54.56 258.08,54.4 258.48,54.27 258.88,54.17 259.27,54.1 259.67,54.05 260.06,54.02 260.46,54 260.86,53.98 261.25,53.98 261.65,53.97" stroke-dasharray="none" stroke="rgb(31,120,180)" stroke-width="0.75" opacity="1" stroke-opacity="1" fill="none" class="aqm6" onclick="plotObjRespond('click', 6, 'dens')" onmouseover="plotObjRespond('show', 6, 'dens')" onmouseout="plotObjRespond('hide', 6, 'dens')"/>
          </g>
        </g>
        <g id="Fig:densplot_01.panel.1.1.off.vp.2">
          <g id="Fig:densplot_01.border.panel.1.1.1">
            <rect id="Fig:densplot_01.border.panel.1.1.1.1" x="44.8" y="42.19" width="231.2" height="191.81" stroke="rgb(0,0,0)" stroke-dasharray="none" stroke-width="0.75" opacity="1" fill="none" stroke-opacity="1" fill-opacity="0"/>
          </g>
        </g>
        <g id="Fig:densplot_01..1"/>
      </g>
    </g>
  </g>
</svg>