<?xml version="1.0" encoding="UTF-8"?>
<svg xmlns="http://www.w3.org/2000/svg" xmlns:xlink="http://www.w3.org/1999/xlink" width="288px" height="252px" viewBox="0 0 288 252" version="1.1" id="Fig:dens">
  <metadata xmlns:gridsvg="http://www.stat.auckland.ac.nz/~paul/R/gridSVG/">
    <gridsvg:generator name="gridSVG" version="1.5-0" time="2016-09-23 12:14:04"/>
    <gridsvg:argument name="name" value="~/lab/Human/Microarrays/GPL570/GSE32876/Quality_Metrics_PreNorm/dens.svg"/>
    <gridsvg:argument name="exportCoords" value="none"/>
    <gridsvg:argument name="exportMappings" value="none"/>
    <gridsvg:argument name="exportJS" value="none"/>
    <gridsvg:argument name="res" value="72"/>
    <gridsvg:argument name="prefix" value="Fig:dens"/>
    <gridsvg:argument name="addClasses" value="FALSE"/>
    <gridsvg:argument name="indent" value="TRUE"/>
    <gridsvg:argument name="htmlWrapper" value="FALSE"/>
    <gridsvg:argument name="usePaths" value="none"/>
    <gridsvg:argument name="uniqueNames" value="TRUE"/>
    <gridsvg:separator name="id.sep" value="."/>
    <gridsvg:separator name="gPath.sep" value="::"/>
    <gridsvg:separator name="vpPath.sep" value="::"/>
  </metadata>
  <g transform="translate(0, 252) scale(1, -1)">
    <g id="Fig:densgridSVG" fill="none" stroke="rgb(0,0,0)" stroke-dasharray="none" stroke-width="0.75" font-size="12" font-family="Helvetica, Arial, FreeSans, Liberation Sans, Nimbus Sans L, sans-serif" opacity="1" stroke-linecap="round" stroke-linejoin="round" stroke-miterlimit="10" stroke-opacity="1" fill-opacity="0" font-weight="normal" font-style="normal">
      <g id="Fig:densplot_01.background.1">
        <rect id="Fig:densplot_01.background.1.1" x="0" y="0" width="288" height="252" fill="none" stroke="none" stroke-opacity="0" fill-opacity="0"/>
      </g>
      <g id="Fig:densplot_01.toplevel.vp.1" font-size="12">
        <g id="Fig:densplot_01.ylab.vp.1">
          <g id="Fig:densplot_01.ylab.1">
            <g id="Fig:densplot_01.ylab.1.1" transform="translate(10.31, 138.09)" stroke-width="0.1">
              <g id="Fig:densplot_01.ylab.1.1.scale" transform="scale(1, -1)">
                <text x="0" y="0" id="Fig:densplot_01.ylab.1.1.text" transform="rotate(-90)" text-anchor="middle" opacity="1" stroke="rgb(0,0,0)" fill="rgb(0,0,0)" stroke-opacity="1" fill-opacity="1" font-size="12" font-weight="normal" font-style="normal">
                  <tspan id="Fig:densplot_01.ylab.1.1.tspan.1" dy="4.31" x="0">Density</tspan>
                </text>
              </g>
            </g>
          </g>
        </g>
        <g id="Fig:densplot_01.figure.vp.1"/>
        <defs>
          <clipPath id="Fig:densplot_01.panel.1.1.vp.1.clipPath">
            <rect x="44.8" y="42.19" width="231.2" height="191.81" fill="none" stroke="none"/>
          </clipPath>
        </defs>
        <g id="Fig:densplot_01.panel.1.1.vp.1" clip-path="url(#Fig:densplot_01.panel.1.1.vp.1.clipPath)"/>
        <g id="Fig:densplot_01.strip.1.1.off.vp.1"/>
        <g id="Fig:densplot_01.strip.left.1.1.off.vp.1">
          <g id="Fig:densplot_01.ticks.left.panel.1.1.1">
            <polyline id="Fig:densplot_01.ticks.left.panel.1.1.1.1" points="44.8,53.96 39.13,53.96" stroke="rgb(0,0,0)" opacity="1" stroke-dasharray="none" stroke-width="0.75" stroke-opacity="1" fill="none"/>
            <polyline id="Fig:densplot_01.ticks.left.panel.1.1.1.2" points="44.8,82.7 39.13,82.7" stroke="rgb(0,0,0)" opacity="1" stroke-dasharray="none" stroke-width="0.75" stroke-opacity="1" fill="none"/>
            <polyline id="Fig:densplot_01.ticks.left.panel.1.1.1.3" points="44.8,111.44 39.13,111.44" stroke="rgb(0,0,0)" opacity="1" stroke-dasharray="none" stroke-width="0.75" stroke-opacity="1" fill="none"/>
            <polyline id="Fig:densplot_01.ticks.left.panel.1.1.1.4" points="44.8,140.18 39.13,140.18" stroke="rgb(0,0,0)" opacity="1" stroke-dasharray="none" stroke-width="0.75" stroke-opacity="1" fill="none"/>
            <polyline id="Fig:densplot_01.ticks.left.panel.1.1.1.5" points="44.8,168.92 39.13,168.92" stroke="rgb(0,0,0)" opacity="1" stroke-dasharray="none" stroke-width="0.75" stroke-opacity="1" fill="none"/>
            <polyline id="Fig:densplot_01.ticks.left.panel.1.1.1.6" points="44.8,197.66 39.13,197.66" stroke="rgb(0,0,0)" opacity="1" stroke-dasharray="none" stroke-width="0.75" stroke-opacity="1" fill="none"/>
            <polyline id="Fig:densplot_01.ticks.left.panel.1.1.1.7" points="44.8,226.4 39.13,226.4" stroke="rgb(0,0,0)" opacity="1" stroke-dasharray="none" stroke-width="0.75" stroke-opacity="1" fill="none"/>
          </g>
          <g id="Fig:densplot_01.ticklabels.left.panel.1.1.1">
            <g id="Fig:densplot_01.ticklabels.left.panel.1.1.1.1" transform="translate(33.47, 53.96)" stroke-width="0.1">
              <g id="Fig:densplot_01.ticklabels.left.panel.1.1.1.1.scale" transform="scale(1, -1)">
                <text x="0" y="0" id="Fig:densplot_01.ticklabels.left.panel.1.1.1.1.text" transform="rotate(-90)" text-anchor="middle" stroke="rgb(0,0,0)" opacity="1" fill="rgb(0,0,0)" stroke-opacity="1" fill-opacity="1" font-size="9.6" font-weight="normal" font-style="normal">
                  <tspan id="Fig:densplot_01.ticklabels.left.panel.1.1.1.1.tspan.1" dy="0" x="0">0.0</tspan>
                </text>
              </g>
            </g>
            <g id="Fig:densplot_01.ticklabels.left.panel.1.1.1.2" transform="translate(33.47, 82.7)" stroke-width="0.1">
              <g id="Fig:densplot_01.ticklabels.left.panel.1.1.1.2.scale" transform="scale(1, -1)">
                <text x="0" y="0" id="Fig:densplot_01.ticklabels.left.panel.1.1.1.2.text" transform="rotate(-90)" text-anchor="middle" stroke="rgb(0,0,0)" opacity="1" fill="rgb(0,0,0)" stroke-opacity="1" fill-opacity="1" font-size="9.6" font-weight="normal" font-style="normal">
                  <tspan id="Fig:densplot_01.ticklabels.left.panel.1.1.1.2.tspan.1" dy="0" x="0">0.1</tspan>
                </text>
              </g>
            </g>
            <g id="Fig:densplot_01.ticklabels.left.panel.1.1.1.3" transform="translate(33.47, 111.44)" stroke-width="0.1">
              <g id="Fig:densplot_01.ticklabels.left.panel.1.1.1.3.scale" transform="scale(1, -1)">
                <text x="0" y="0" id="Fig:densplot_01.ticklabels.left.panel.1.1.1.3.text" transform="rotate(-90)" text-anchor="middle" stroke="rgb(0,0,0)" opacity="1" fill="rgb(0,0,0)" stroke-opacity="1" fill-opacity="1" font-size="9.6" font-weight="normal" font-style="normal">
                  <tspan id="Fig:densplot_01.ticklabels.left.panel.1.1.1.3.tspan.1" dy="0" x="0">0.2</tspan>
                </text>
              </g>
            </g>
            <g id="Fig:densplot_01.ticklabels.left.panel.1.1.1.4" transform="translate(33.47, 140.18)" stroke-width="0.1">
              <g id="Fig:densplot_01.ticklabels.left.panel.1.1.1.4.scale" transform="scale(1, -1)">
                <text x="0" y="0" id="Fig:densplot_01.ticklabels.left.panel.1.1.1.4.text" transform="rotate(-90)" text-anchor="middle" stroke="rgb(0,0,0)" opacity="1" fill="rgb(0,0,0)" stroke-opacity="1" fill-opacity="1" font-size="9.6" font-weight="normal" font-style="normal">
                  <tspan id="Fig:densplot_01.ticklabels.left.panel.1.1.1.4.tspan.1" dy="0" x="0">0.3</tspan>
                </text>
              </g>
            </g>
            <g id="Fig:densplot_01.ticklabels.left.panel.1.1.1.5" transform="translate(33.47, 168.92)" stroke-width="0.1">
              <g id="Fig:densplot_01.ticklabels.left.panel.1.1.1.5.scale" transform="scale(1, -1)">
                <text x="0" y="0" id="Fig:densplot_01.ticklabels.left.panel.1.1.1.5.text" transform="rotate(-90)" text-anchor="middle" stroke="rgb(0,0,0)" opacity="1" fill="rgb(0,0,0)" stroke-opacity="1" fill-opacity="1" font-size="9.6" font-weight="normal" font-style="normal">
                  <tspan id="Fig:densplot_01.ticklabels.left.panel.1.1.1.5.tspan.1" dy="0" x="0">0.4</tspan>
                </text>
              </g>
            </g>
            <g id="Fig:densplot_01.ticklabels.left.panel.1.1.1.6" transform="translate(33.47, 197.66)" stroke-width="0.1">
              <g id="Fig:densplot_01.ticklabels.left.panel.1.1.1.6.scale" transform="scale(1, -1)">
                <text x="0" y="0" id="Fig:densplot_01.ticklabels.left.panel.1.1.1.6.text" transform="rotate(-90)" text-anchor="middle" stroke="rgb(0,0,0)" opacity="1" fill="rgb(0,0,0)" stroke-opacity="1" fill-opacity="1" font-size="9.6" font-weight="normal" font-style="normal">
                  <tspan id="Fig:densplot_01.ticklabels.left.panel.1.1.1.6.tspan.1" dy="0" x="0">0.5</tspan>
                </text>
              </g>
            </g>
            <g id="Fig:densplot_01.ticklabels.left.panel.1.1.1.7" transform="translate(33.47, 226.4)" stroke-width="0.1">
              <g id="Fig:densplot_01.ticklabels.left.panel.1.1.1.7.scale" transform="scale(1, -1)">
                <text x="0" y="0" id="Fig:densplot_01.ticklabels.left.panel.1.1.1.7.text" transform="rotate(-90)" text-anchor="middle" stroke="rgb(0,0,0)" opacity="1" fill="rgb(0,0,0)" stroke-opacity="1" fill-opacity="1" font-size="9.6" font-weight="normal" font-style="normal">
                  <tspan id="Fig:densplot_01.ticklabels.left.panel.1.1.1.7.tspan.1" dy="0" x="0">0.6</tspan>
                </text>
              </g>
            </g>
          </g>
        </g>
        <g id="Fig:densplot_01.panel.1.1.off.vp.1">
          <g id="Fig:densplot_01.ticks.bottom.panel.1.1.1">
            <polyline id="Fig:densplot_01.ticks.bottom.panel.1.1.1.1" points="92.81,42.19 92.81,36.52" stroke="rgb(0,0,0)" opacity="1" stroke-dasharray="none" stroke-width="0.75" stroke-opacity="1" fill="none"/>
            <polyline id="Fig:densplot_01.ticks.bottom.panel.1.1.1.2" points="151.51,42.19 151.51,36.52" stroke="rgb(0,0,0)" opacity="1" stroke-dasharray="none" stroke-width="0.75" stroke-opacity="1" fill="none"/>
            <polyline id="Fig:densplot_01.ticks.bottom.panel.1.1.1.3" points="210.2,42.19 210.2,36.52" stroke="rgb(0,0,0)" opacity="1" stroke-dasharray="none" stroke-width="0.75" stroke-opacity="1" fill="none"/>
            <polyline id="Fig:densplot_01.ticks.bottom.panel.1.1.1.4" points="268.9,42.19 268.9,36.52" stroke="rgb(0,0,0)" opacity="1" stroke-dasharray="none" stroke-width="0.75" stroke-opacity="1" fill="none"/>
          </g>
          <g id="Fig:densplot_01.ticklabels.bottom.panel.1.1.1">
            <g id="Fig:densplot_01.ticklabels.bottom.panel.1.1.1.1" transform="translate(92.81, 30.85)" stroke-width="0.1">
              <g id="Fig:densplot_01.ticklabels.bottom.panel.1.1.1.1.scale" transform="scale(1, -1)">
                <text x="0" y="0" id="Fig:densplot_01.ticklabels.bottom.panel.1.1.1.1.text" text-anchor="middle" stroke="rgb(0,0,0)" opacity="1" fill="rgb(0,0,0)" stroke-opacity="1" fill-opacity="1" font-size="9.6" font-weight="normal" font-style="normal">
                  <tspan id="Fig:densplot_01.ticklabels.bottom.panel.1.1.1.1.tspan.1" dy="7.18" x="0">6</tspan>
                </text>
              </g>
            </g>
            <g id="Fig:densplot_01.ticklabels.bottom.panel.1.1.1.2" transform="translate(151.51, 30.85)" stroke-width="0.1">
              <g id="Fig:densplot_01.ticklabels.bottom.panel.1.1.1.2.scale" transform="scale(1, -1)">
                <text x="0" y="0" id="Fig:densplot_01.ticklabels.bottom.panel.1.1.1.2.text" text-anchor="middle" stroke="rgb(0,0,0)" opacity="1" fill="rgb(0,0,0)" stroke-opacity="1" fill-opacity="1" font-size="9.6" font-weight="normal" font-style="normal">
                  <tspan id="Fig:densplot_01.ticklabels.bottom.panel.1.1.1.2.tspan.1" dy="7.18" x="0">8</tspan>
                </text>
              </g>
            </g>
            <g id="Fig:densplot_01.ticklabels.bottom.panel.1.1.1.3" transform="translate(210.2, 30.85)" stroke-width="0.1">
              <g id="Fig:densplot_01.ticklabels.bottom.panel.1.1.1.3.scale" transform="scale(1, -1)">
                <text x="0" y="0" id="Fig:densplot_01.ticklabels.bottom.panel.1.1.1.3.text" text-anchor="middle" stroke="rgb(0,0,0)" opacity="1" fill="rgb(0,0,0)" stroke-opacity="1" fill-opacity="1" font-size="9.6" font-weight="normal" font-style="normal">
                  <tspan id="Fig:densplot_01.ticklabels.bottom.panel.1.1.1.3.tspan.1" dy="7.18" x="0">10</tspan>
                </text>
              </g>
            </g>
            <g id="Fig:densplot_01.ticklabels.bottom.panel.1.1.1.4" transform="translate(268.9, 30.85)" stroke-width="0.1">
              <g id="Fig:densplot_01.ticklabels.bottom.panel.1.1.1.4.scale" transform="scale(1, -1)">
                <text x="0" y="0" id="Fig:densplot_01.ticklabels.bottom.panel.1.1.1.4.text" text-anchor="middle" stroke="rgb(0,0,0)" opacity="1" fill="rgb(0,0,0)" stroke-opacity="1" fill-opacity="1" font-size="9.6" font-weight="normal" font-style="normal">
                  <tspan id="Fig:densplot_01.ticklabels.bottom.panel.1.1.1.4.tspan.1" dy="7.18" x="0">12</tspan>
                </text>
              </g>
            </g>
          </g>
        </g>
        <defs>
          <clipPath id="Fig:densplot_01.panel.1.1.vp.2.clipPath">
            <rect x="44.8" y="42.19" width="231.2" height="191.81" fill="none" stroke="none"/>
          </clipPath>
        </defs>
        <g id="Fig:densplot_01.panel.1.1.vp.2" clip-path="url(#Fig:densplot_01.panel.1.1.vp.2.clipPath)">
          <g id="Fig:densplot_01.xyplot.lines.group.1.panel.1.1.1">
            <polyline id="Fig:densplot_01.xyplot.lines.group.1.panel.1.1.1.1" points="59.4,53.97 59.79,53.98 60.19,53.99 60.59,54.02 60.98,54.05 61.38,54.11 61.77,54.19 62.17,54.32 62.56,54.49 62.96,54.71 63.35,55.01 63.75,55.38 64.14,55.84 64.54,56.39 64.93,57.06 65.33,57.84 65.72,58.75 66.12,59.79 66.51,60.99 66.91,62.34 67.31,63.87 67.7,65.6 68.1,67.53 68.49,69.69 68.89,72.08 69.28,74.73 69.68,77.64 70.07,80.82 70.47,84.27 70.86,88.01 71.26,92.04 71.65,96.33 72.05,100.88 72.44,105.67 72.84,110.68 73.24,115.89 73.63,121.27 74.03,126.78 74.42,132.39 74.82,138.06 75.21,143.72 75.61,149.35 76,154.9 76.4,160.34 76.79,165.64 77.19,170.77 77.58,175.72 77.98,180.48 78.37,185.01 78.77,189.3 79.16,193.31 79.56,197 79.96,200.36 80.35,203.38 80.75,206.04 81.14,208.37 81.54,210.36 81.93,212.06 82.33,213.48 82.72,214.63 83.12,215.51 83.51,216.14 83.91,216.55 84.3,216.74 84.7,216.72 85.09,216.53 85.49,216.19 85.89,215.73 86.28,215.17 86.68,214.52 87.07,213.79 87.47,212.97 87.86,212.06 88.26,211.04 88.65,209.9 89.05,208.64 89.44,207.26 89.84,205.8 90.23,204.26 90.63,202.69 91.02,201.1 91.42,199.52 91.81,197.95 92.21,196.39 92.61,194.86 93,193.35 93.4,191.85 93.79,190.36 94.19,188.87 94.58,187.37 94.98,185.87 95.37,184.38 95.77,182.89 96.16,181.42 96.56,179.97 96.95,178.54 97.35,177.14 97.74,175.76 98.14,174.4 98.54,173.05 98.93,171.72 99.33,170.4 99.72,169.1 100.12,167.81 100.51,166.56 100.91,165.33 101.3,164.15 101.7,163.01 102.09,161.91 102.49,160.87 102.88,159.87 103.28,158.91 103.67,157.98 104.07,157.07 104.46,156.17 104.86,155.28 105.26,154.39 105.65,153.49 106.05,152.58 106.44,151.64 106.84,150.68 107.23,149.68 107.63,148.65 108.02,147.57 108.42,146.48 108.81,145.37 109.21,144.28 109.6,143.23 110,142.21 110.39,141.25 110.79,140.35 111.19,139.48 111.58,138.66 111.98,137.86 112.37,137.08 112.77,136.31 113.16,135.54 113.56,134.78 113.95,134.01 114.35,133.24 114.74,132.45 115.14,131.66 115.53,130.85 115.93,130.04 116.32,129.22 116.72,128.41 117.12,127.6 117.51,126.8 117.91,126.01 118.3,125.24 118.7,124.47 119.09,123.71 119.49,122.95 119.88,122.2 120.28,121.46 120.67,120.73 121.07,120.01 121.46,119.31 121.86,118.63 122.25,117.98 122.65,117.34 123.04,116.73 123.44,116.13 123.84,115.56 124.23,115 124.63,114.45 125.02,113.91 125.42,113.38 125.81,112.85 126.21,112.32 126.6,111.8 127,111.28 127.39,110.76 127.79,110.26 128.18,109.76 128.58,109.27 128.97,108.79 129.37,108.31 129.77,107.84 130.16,107.37 130.56,106.9 130.95,106.42 131.35,105.93 131.74,105.43 132.14,104.93 132.53,104.42 132.93,103.91 133.32,103.41 133.72,102.9 134.11,102.4 134.51,101.91 134.9,101.41 135.3,100.91 135.69,100.4 136.09,99.89 136.49,99.37 136.88,98.84 137.28,98.32 137.67,97.8 138.07,97.28 138.46,96.78 138.86,96.29 139.25,95.81 139.65,95.34 140.04,94.86 140.44,94.39 140.83,93.91 141.23,93.42 141.62,92.93 142.02,92.44 142.42,91.95 142.81,91.47 143.21,91.01 143.6,90.56 144,90.12 144.39,89.69 144.79,89.28 145.18,88.87 145.58,88.48 145.97,88.1 146.37,87.74 146.76,87.41 147.16,87.1 147.55,86.82 147.95,86.57 148.34,86.34 148.74,86.13 149.14,85.91 149.53,85.68 149.93,85.45 150.32,85.2 150.72,84.94 151.11,84.67 151.51,84.4 151.9,84.13 152.3,83.86 152.69,83.6 153.09,83.34 153.48,83.09 153.88,82.84 154.27,82.59 154.67,82.34 155.07,82.09 155.46,81.84 155.86,81.58 156.25,81.32 156.65,81.06 157.04,80.8 157.44,80.54 157.83,80.28 158.23,80.03 158.62,79.78 159.02,79.54 159.41,79.3 159.81,79.08 160.2,78.87 160.6,78.68 160.99,78.49 161.39,78.32 161.79,78.15 162.18,77.99 162.58,77.83 162.97,77.67 163.37,77.5 163.76,77.33 164.16,77.15 164.55,76.97 164.95,76.78 165.34,76.59 165.74,76.4 166.13,76.21 166.53,76.02 166.92,75.83 167.32,75.64 167.72,75.45 168.11,75.26 168.51,75.08 168.9,74.9 169.3,74.74 169.69,74.57 170.09,74.43 170.48,74.29 170.88,74.16 171.27,74.05 171.67,73.94 172.06,73.84 172.46,73.74 172.85,73.64 173.25,73.52 173.64,73.4 174.04,73.26 174.44,73.11 174.83,72.95 175.23,72.78 175.62,72.61 176.02,72.44 176.41,72.28 176.81,72.13 177.2,71.98 177.6,71.84 177.99,71.71 178.39,71.59 178.78,71.47 179.18,71.35 179.57,71.23 179.97,71.12 180.37,71 180.76,70.89 181.16,70.77 181.55,70.64 181.95,70.52 182.34,70.39 182.74,70.27 183.13,70.14 183.53,70.02 183.92,69.9 184.32,69.79 184.71,69.68 185.11,69.59 185.5,69.5 185.9,69.42 186.3,69.35 186.69,69.28 187.09,69.21 187.48,69.14 187.88,69.06 188.27,68.97 188.67,68.87 189.06,68.75 189.46,68.63 189.85,68.49 190.25,68.35 190.64,68.21 191.04,68.06 191.43,67.92 191.83,67.79 192.22,67.67 192.62,67.56 193.02,67.46 193.41,67.36 193.81,67.27 194.2,67.19 194.6,67.1 194.99,67.02 195.39,66.94 195.78,66.85 196.18,66.78 196.57,66.7 196.97,66.62 197.36,66.55 197.76,66.48 198.15,66.41 198.55,66.34 198.95,66.26 199.34,66.18 199.74,66.1 200.13,66.01 200.53,65.93 200.92,65.84 201.32,65.75 201.71,65.66 202.11,65.58 202.5,65.49 202.9,65.41 203.29,65.32 203.69,65.24 204.08,65.16 204.48,65.07 204.87,64.98 205.27,64.89 205.67,64.8 206.06,64.71 206.46,64.61 206.85,64.52 207.25,64.43 207.64,64.34 208.04,64.25 208.43,64.16 208.83,64.08 209.22,64 209.62,63.92 210.01,63.84 210.41,63.78 210.8,63.72 211.2,63.66 211.6,63.61 211.99,63.57 212.39,63.52 212.78,63.48 213.18,63.43 213.57,63.37 213.97,63.31 214.36,63.23 214.76,63.15 215.15,63.07 215.55,62.98 215.94,62.89 216.34,62.8 216.73,62.71 217.13,62.63 217.52,62.55 217.92,62.48 218.32,62.42 218.71,62.36 219.11,62.31 219.5,62.25 219.9,62.19 220.29,62.13 220.69,62.07 221.08,62 221.48,61.92 221.87,61.85 222.27,61.77 222.66,61.69 223.06,61.6 223.45,61.52 223.85,61.43 224.25,61.34 224.64,61.26 225.04,61.18 225.43,61.11 225.83,61.05 226.22,61 226.62,60.95 227.01,60.91 227.41,60.88 227.8,60.85 228.2,60.81 228.59,60.77 228.99,60.72 229.38,60.66 229.78,60.6 230.17,60.54 230.57,60.47 230.97,60.41 231.36,60.34 231.76,60.29 232.15,60.24 232.55,60.19 232.94,60.15 233.34,60.1 233.73,60.06 234.13,60.02 234.52,59.97 234.92,59.93 235.31,59.87 235.71,59.82 236.1,59.77 236.5,59.71 236.9,59.66 237.29,59.6 237.69,59.55 238.08,59.49 238.48,59.44 238.87,59.39 239.27,59.34 239.66,59.3 240.06,59.25 240.45,59.21 240.85,59.16 241.24,59.12 241.64,59.07 242.03,59.02 242.43,58.97 242.82,58.92 243.22,58.87 243.62,58.81 244.01,58.76 244.41,58.71 244.8,58.65 245.2,58.6 245.59,58.54 245.99,58.49 246.38,58.45 246.78,58.4 247.17,58.36 247.57,58.32 247.96,58.28 248.36,58.25 248.75,58.21 249.15,58.18 249.55,58.14 249.94,58.1 250.34,58.05 250.73,58 251.13,57.95 251.52,57.89 251.92,57.82 252.31,57.74 252.71,57.65 253.1,57.54 253.5,57.4 253.89,57.24 254.29,57.03 254.68,56.8 255.08,56.53 255.47,56.23 255.87,55.91 256.27,55.59 256.66,55.29 257.06,55 257.45,54.75 257.85,54.54 258.24,54.37 258.64,54.24 259.03,54.14 259.43,54.08 259.82,54.03 260.22,54 260.61,53.99 261.01,53.98 261.4,53.97" stroke-dasharray="none" stroke="rgb(31,120,180)" stroke-width="0.75" opacity="1" stroke-opacity="1" fill="none" class="aqm1" onclick="plotObjRespond('click', 1, 'dens')" onmouseover="plotObjRespond('show', 1, 'dens')" onmouseout="plotObjRespond('hide', 1, 'dens')"/>
          </g>
          <g id="Fig:densplot_01.xyplot.lines.group.2.panel.1.1.1">
            <polyline id="Fig:densplot_01.xyplot.lines.group.2.panel.1.1.1.1" points="59.47,53.98 59.87,54 60.26,54.02 60.66,54.07 61.05,54.14 61.45,54.25 61.84,54.42 62.24,54.66 62.63,54.98 63.03,55.41 63.42,55.96 63.82,56.64 64.21,57.47 64.61,58.45 65,59.59 65.4,60.88 65.79,62.35 66.19,63.99 66.58,65.82 66.98,67.84 67.37,70.07 67.77,72.53 68.16,75.22 68.56,78.18 68.95,81.4 69.35,84.91 69.74,88.72 70.14,92.86 70.53,97.31 70.93,102.08 71.32,107.14 71.72,112.48 72.11,118.07 72.51,123.87 72.9,129.84 73.3,135.94 73.69,142.11 74.09,148.3 74.48,154.46 74.88,160.53 75.27,166.45 75.67,172.17 76.06,177.62 76.46,182.77 76.85,187.58 77.25,192.05 77.65,196.19 78.04,200 78.44,203.5 78.83,206.72 79.23,209.65 79.62,212.3 80.02,214.65 80.41,216.7 80.81,218.43 81.2,219.84 81.6,220.91 81.99,221.66 82.39,222.08 82.78,222.22 83.18,222.11 83.57,221.77 83.97,221.25 84.36,220.57 84.76,219.77 85.15,218.88 85.55,217.92 85.94,216.9 86.34,215.81 86.73,214.67 87.13,213.44 87.52,212.13 87.92,210.72 88.31,209.21 88.71,207.61 89.1,205.95 89.5,204.25 89.89,202.53 90.29,200.83 90.68,199.14 91.08,197.49 91.47,195.87 91.87,194.29 92.26,192.73 92.66,191.19 93.05,189.65 93.45,188.1 93.84,186.55 94.24,184.99 94.63,183.43 95.03,181.86 95.42,180.29 95.82,178.73 96.21,177.18 96.61,175.64 97,174.12 97.4,172.63 97.79,171.17 98.19,169.75 98.58,168.37 98.98,167.04 99.37,165.77 99.77,164.55 100.16,163.39 100.56,162.27 100.95,161.2 101.35,160.16 101.74,159.14 102.14,158.12 102.53,157.12 102.93,156.12 103.32,155.13 103.72,154.15 104.11,153.17 104.51,152.21 104.9,151.25 105.3,150.3 105.69,149.37 106.09,148.43 106.48,147.51 106.88,146.58 107.27,145.66 107.67,144.73 108.06,143.78 108.46,142.83 108.85,141.86 109.25,140.87 109.64,139.87 110.04,138.88 110.43,137.9 110.83,136.94 111.22,136 111.62,135.1 112.01,134.24 112.41,133.41 112.8,132.6 113.2,131.82 113.59,131.04 113.99,130.27 114.38,129.49 114.78,128.71 115.17,127.93 115.57,127.14 115.96,126.36 116.36,125.6 116.75,124.87 117.15,124.16 117.54,123.48 117.94,122.82 118.33,122.19 118.73,121.56 119.12,120.94 119.52,120.31 119.91,119.68 120.31,119.04 120.7,118.39 121.1,117.74 121.49,117.09 121.89,116.45 122.28,115.81 122.68,115.18 123.07,114.56 123.47,113.94 123.86,113.33 124.26,112.72 124.65,112.12 125.05,111.52 125.44,110.92 125.84,110.33 126.23,109.74 126.63,109.14 127.02,108.55 127.42,107.95 127.81,107.35 128.21,106.75 128.6,106.14 129,105.55 129.39,104.97 129.79,104.4 130.18,103.86 130.58,103.33 130.97,102.83 131.37,102.33 131.76,101.85 132.16,101.37 132.55,100.89 132.95,100.4 133.34,99.92 133.74,99.42 134.13,98.92 134.53,98.42 134.92,97.92 135.32,97.42 135.71,96.92 136.11,96.43 136.5,95.95 136.9,95.49 137.29,95.03 137.69,94.58 138.08,94.15 138.48,93.72 138.87,93.29 139.27,92.86 139.66,92.44 140.06,92.02 140.45,91.59 140.85,91.17 141.24,90.76 141.64,90.35 142.03,89.95 142.43,89.56 142.82,89.17 143.22,88.79 143.61,88.41 144.01,88.04 144.4,87.67 144.8,87.31 145.19,86.96 145.59,86.63 145.98,86.3 146.38,85.99 146.77,85.68 147.17,85.39 147.56,85.1 147.96,84.82 148.35,84.53 148.75,84.25 149.14,83.97 149.54,83.7 149.93,83.42 150.33,83.15 150.72,82.89 151.12,82.62 151.51,82.36 151.91,82.11 152.3,81.86 152.7,81.62 153.09,81.38 153.49,81.16 153.88,80.96 154.28,80.77 154.67,80.59 155.07,80.43 155.46,80.28 155.86,80.13 156.25,79.97 156.65,79.8 157.04,79.61 157.44,79.41 157.83,79.19 158.23,78.96 158.62,78.72 159.02,78.48 159.41,78.24 159.81,78 160.2,77.77 160.6,77.56 160.99,77.35 161.39,77.16 161.78,76.98 162.18,76.8 162.57,76.63 162.97,76.46 163.36,76.29 163.76,76.13 164.15,75.97 164.55,75.82 164.94,75.66 165.34,75.52 165.73,75.37 166.13,75.22 166.52,75.08 166.92,74.93 167.31,74.79 167.71,74.64 168.1,74.49 168.5,74.35 168.89,74.2 169.29,74.04 169.68,73.88 170.08,73.72 170.47,73.55 170.87,73.38 171.27,73.21 171.66,73.04 172.06,72.87 172.45,72.7 172.85,72.55 173.24,72.4 173.64,72.26 174.03,72.12 174.43,72 174.82,71.89 175.22,71.78 175.61,71.68 176.01,71.58 176.4,71.48 176.8,71.38 177.19,71.28 177.59,71.17 177.98,71.07 178.38,70.95 178.77,70.84 179.17,70.74 179.56,70.63 179.96,70.53 180.35,70.43 180.75,70.33 181.14,70.23 181.54,70.13 181.93,70.02 182.33,69.9 182.72,69.78 183.12,69.65 183.51,69.52 183.91,69.39 184.3,69.26 184.7,69.13 185.09,69 185.49,68.89 185.88,68.77 186.28,68.66 186.67,68.56 187.07,68.47 187.46,68.38 187.86,68.29 188.25,68.21 188.65,68.13 189.04,68.05 189.44,67.96 189.83,67.88 190.23,67.79 190.62,67.69 191.02,67.58 191.41,67.47 191.81,67.35 192.2,67.23 192.6,67.1 192.99,66.97 193.39,66.85 193.78,66.73 194.18,66.62 194.57,66.53 194.97,66.45 195.36,66.38 195.76,66.32 196.15,66.26 196.55,66.21 196.94,66.15 197.34,66.09 197.73,66.03 198.13,65.96 198.52,65.88 198.92,65.81 199.31,65.74 199.71,65.66 200.1,65.59 200.5,65.51 200.89,65.43 201.29,65.34 201.68,65.26 202.08,65.17 202.47,65.08 202.87,64.99 203.26,64.9 203.66,64.82 204.05,64.73 204.45,64.65 204.84,64.57 205.24,64.49 205.63,64.41 206.03,64.32 206.42,64.23 206.82,64.14 207.21,64.05 207.61,63.95 208,63.87 208.4,63.79 208.79,63.71 209.19,63.64 209.58,63.58 209.98,63.52 210.37,63.46 210.77,63.4 211.16,63.34 211.56,63.27 211.95,63.2 212.35,63.13 212.74,63.05 213.14,62.97 213.53,62.89 213.93,62.81 214.32,62.74 214.72,62.67 215.11,62.61 215.51,62.54 215.9,62.48 216.3,62.42 216.69,62.35 217.09,62.29 217.48,62.22 217.88,62.14 218.27,62.07 218.67,61.99 219.06,61.91 219.46,61.83 219.85,61.76 220.25,61.69 220.64,61.62 221.04,61.55 221.43,61.5 221.83,61.44 222.22,61.39 222.62,61.33 223.01,61.28 223.41,61.21 223.8,61.15 224.2,61.08 224.59,61 224.99,60.93 225.38,60.86 225.78,60.8 226.17,60.74 226.57,60.69 226.96,60.65 227.36,60.61 227.75,60.57 228.15,60.53 228.54,60.48 228.94,60.43 229.33,60.38 229.73,60.32 230.12,60.27 230.52,60.21 230.91,60.15 231.31,60.09 231.7,60.03 232.1,59.98 232.49,59.93 232.89,59.87 233.28,59.82 233.68,59.76 234.07,59.71 234.47,59.66 234.86,59.61 235.26,59.56 235.65,59.51 236.05,59.46 236.44,59.42 236.84,59.37 237.23,59.32 237.63,59.28 238.02,59.23 238.42,59.18 238.81,59.13 239.21,59.08 239.6,59.03 240,58.98 240.39,58.92 240.79,58.87 241.18,58.81 241.58,58.75 241.97,58.69 242.37,58.63 242.76,58.58 243.16,58.52 243.55,58.47 243.95,58.42 244.34,58.38 244.74,58.34 245.13,58.3 245.53,58.27 245.92,58.24 246.32,58.2 246.71,58.17 247.11,58.13 247.5,58.09 247.9,58.05 248.29,58.01 248.69,57.98 249.08,57.94 249.48,57.9 249.87,57.85 250.27,57.81 250.66,57.77 251.06,57.72 251.45,57.67 251.85,57.62 252.24,57.56 252.64,57.49 253.03,57.4 253.43,57.29 253.82,57.15 254.22,56.98 254.61,56.76 255.01,56.51 255.4,56.23 255.8,55.92 256.19,55.61 256.59,55.3 256.98,55.01 257.38,54.76 257.77,54.54 258.17,54.37 258.56,54.24 258.96,54.14 259.35,54.08 259.75,54.03 260.14,54 260.54,53.98 260.93,53.98 261.33,53.97" stroke-dasharray="none" stroke="rgb(31,120,180)" stroke-width="0.75" opacity="1" stroke-opacity="1" fill="none" class="aqm2" onclick="plotObjRespond('click', 2, 'dens')" onmouseover="plotObjRespond('show', 2, 'dens')" onmouseout="plotObjRespond('hide', 2, 'dens')"/>
          </g>
          <g id="Fig:densplot_01.xyplot.lines.group.3.panel.1.1.1">
            <polyline id="Fig:densplot_01.xyplot.lines.group.3.panel.1.1.1.1" points="59.1,53.97 59.49,53.97 59.89,53.97 60.29,53.97 60.68,53.98 61.08,53.99 61.48,54 61.87,54.03 62.27,54.06 62.67,54.1 63.06,54.15 63.46,54.23 63.86,54.33 64.25,54.46 64.65,54.62 65.05,54.81 65.44,55.05 65.84,55.34 66.23,55.69 66.63,56.11 67.03,56.6 67.42,57.18 67.82,57.86 68.22,58.66 68.61,59.58 69.01,60.65 69.41,61.89 69.8,63.31 70.2,64.91 70.6,66.71 70.99,68.73 71.39,70.97 71.79,73.44 72.18,76.15 72.58,79.1 72.97,82.3 73.37,85.74 73.77,89.4 74.16,93.3 74.56,97.39 74.96,101.68 75.35,106.14 75.75,110.74 76.15,115.46 76.54,120.26 76.94,125.13 77.34,130.03 77.73,134.92 78.13,139.78 78.53,144.58 78.92,149.27 79.32,153.84 79.72,158.26 80.11,162.52 80.51,166.59 80.9,170.45 81.3,174.11 81.7,177.56 82.09,180.8 82.49,183.82 82.89,186.63 83.28,189.21 83.68,191.56 84.08,193.69 84.47,195.58 84.87,197.24 85.27,198.66 85.66,199.85 86.06,200.82 86.46,201.57 86.85,202.11 87.25,202.46 87.65,202.64 88.04,202.63 88.44,202.46 88.83,202.14 89.23,201.67 89.63,201.07 90.02,200.37 90.42,199.57 90.82,198.71 91.21,197.78 91.61,196.82 92.01,195.81 92.4,194.77 92.8,193.69 93.2,192.57 93.59,191.41 93.99,190.21 94.39,188.96 94.78,187.67 95.18,186.34 95.58,184.99 95.97,183.62 96.37,182.23 96.76,180.85 97.16,179.48 97.56,178.12 97.95,176.79 98.35,175.49 98.75,174.22 99.14,172.99 99.54,171.8 99.94,170.65 100.33,169.53 100.73,168.45 101.13,167.39 101.52,166.35 101.92,165.33 102.32,164.31 102.71,163.3 103.11,162.3 103.51,161.32 103.9,160.35 104.3,159.4 104.69,158.49 105.09,157.61 105.49,156.77 105.88,155.96 106.28,155.17 106.68,154.41 107.07,153.65 107.47,152.89 107.87,152.11 108.26,151.31 108.66,150.49 109.06,149.63 109.45,148.76 109.85,147.88 110.25,147.02 110.64,146.17 111.04,145.37 111.43,144.61 111.83,143.89 112.23,143.22 112.62,142.59 113.02,141.98 113.42,141.39 113.81,140.81 114.21,140.22 114.61,139.64 115,139.05 115.4,138.46 115.8,137.87 116.19,137.29 116.59,136.72 116.99,136.14 117.38,135.57 117.78,134.99 118.18,134.41 118.57,133.82 118.97,133.22 119.36,132.62 119.76,132.03 120.16,131.44 120.55,130.85 120.95,130.27 121.35,129.69 121.74,129.12 122.14,128.54 122.54,127.96 122.93,127.37 123.33,126.77 123.73,126.15 124.12,125.53 124.52,124.89 124.92,124.25 125.31,123.59 125.71,122.93 126.11,122.26 126.5,121.59 126.9,120.93 127.29,120.26 127.69,119.6 128.09,118.95 128.48,118.31 128.88,117.68 129.28,117.06 129.67,116.45 130.07,115.87 130.47,115.29 130.86,114.73 131.26,114.18 131.66,113.64 132.05,113.11 132.45,112.58 132.85,112.04 133.24,111.5 133.64,110.96 134.04,110.4 134.43,109.84 134.83,109.28 135.22,108.71 135.62,108.13 136.02,107.55 136.41,106.97 136.81,106.38 137.21,105.8 137.6,105.21 138,104.63 138.4,104.06 138.79,103.49 139.19,102.93 139.59,102.38 139.98,101.84 140.38,101.32 140.78,100.81 141.17,100.32 141.57,99.84 141.96,99.38 142.36,98.92 142.76,98.48 143.15,98.05 143.55,97.63 143.95,97.21 144.34,96.8 144.74,96.4 145.14,96.01 145.53,95.63 145.93,95.25 146.33,94.87 146.72,94.5 147.12,94.14 147.52,93.78 147.91,93.42 148.31,93.07 148.71,92.71 149.1,92.34 149.5,91.98 149.89,91.61 150.29,91.24 150.69,90.87 151.08,90.51 151.48,90.16 151.88,89.82 152.27,89.48 152.67,89.15 153.07,88.83 153.46,88.5 153.86,88.18 154.26,87.85 154.65,87.51 155.05,87.17 155.45,86.83 155.84,86.48 156.24,86.13 156.64,85.78 157.03,85.45 157.43,85.12 157.82,84.8 158.22,84.51 158.62,84.23 159.01,83.96 159.41,83.71 159.81,83.48 160.2,83.26 160.6,83.05 161,82.85 161.39,82.66 161.79,82.46 162.19,82.27 162.58,82.08 162.98,81.88 163.38,81.68 163.77,81.47 164.17,81.25 164.57,81.03 164.96,80.8 165.36,80.56 165.75,80.32 166.15,80.08 166.55,79.84 166.94,79.61 167.34,79.38 167.74,79.15 168.13,78.93 168.53,78.71 168.93,78.5 169.32,78.28 169.72,78.07 170.12,77.87 170.51,77.67 170.91,77.48 171.31,77.3 171.7,77.12 172.1,76.95 172.5,76.78 172.89,76.62 173.29,76.45 173.68,76.28 174.08,76.11 174.48,75.93 174.87,75.75 175.27,75.57 175.67,75.38 176.06,75.19 176.46,75 176.86,74.81 177.25,74.61 177.65,74.42 178.05,74.24 178.44,74.05 178.84,73.88 179.24,73.71 179.63,73.55 180.03,73.39 180.42,73.25 180.82,73.11 181.22,72.99 181.61,72.87 182.01,72.76 182.41,72.66 182.8,72.56 183.2,72.48 183.6,72.39 183.99,72.31 184.39,72.23 184.79,72.14 185.18,72.04 185.58,71.94 185.98,71.83 186.37,71.71 186.77,71.58 187.17,71.45 187.56,71.31 187.96,71.17 188.35,71.03 188.75,70.89 189.15,70.76 189.54,70.63 189.94,70.52 190.34,70.41 190.73,70.31 191.13,70.22 191.53,70.13 191.92,70.04 192.32,69.96 192.72,69.87 193.11,69.78 193.51,69.68 193.91,69.58 194.3,69.47 194.7,69.35 195.1,69.22 195.49,69.09 195.89,68.96 196.28,68.83 196.68,68.69 197.08,68.56 197.47,68.44 197.87,68.32 198.27,68.2 198.66,68.1 199.06,68 199.46,67.9 199.85,67.81 200.25,67.73 200.65,67.64 201.04,67.56 201.44,67.49 201.84,67.41 202.23,67.33 202.63,67.25 203.03,67.16 203.42,67.08 203.82,66.99 204.21,66.9 204.61,66.82 205.01,66.73 205.4,66.65 205.8,66.56 206.2,66.48 206.59,66.4 206.99,66.32 207.39,66.24 207.78,66.16 208.18,66.08 208.58,66 208.97,65.92 209.37,65.84 209.77,65.77 210.16,65.69 210.56,65.61 210.95,65.53 211.35,65.45 211.75,65.36 212.14,65.28 212.54,65.19 212.94,65.09 213.33,65 213.73,64.9 214.13,64.8 214.52,64.7 214.92,64.6 215.32,64.51 215.71,64.41 216.11,64.32 216.51,64.24 216.9,64.16 217.3,64.09 217.7,64.02 218.09,63.95 218.49,63.88 218.88,63.82 219.28,63.75 219.68,63.68 220.07,63.61 220.47,63.53 220.87,63.45 221.26,63.37 221.66,63.3 222.06,63.22 222.45,63.15 222.85,63.08 223.25,63.01 223.64,62.95 224.04,62.9 224.44,62.84 224.83,62.78 225.23,62.72 225.63,62.66 226.02,62.6 226.42,62.54 226.81,62.47 227.21,62.4 227.61,62.34 228,62.27 228.4,62.21 228.8,62.15 229.19,62.08 229.59,62.02 229.99,61.95 230.38,61.88 230.78,61.81 231.18,61.74 231.57,61.67 231.97,61.61 232.37,61.54 232.76,61.48 233.16,61.41 233.56,61.34 233.95,61.27 234.35,61.19 234.74,61.11 235.14,61.03 235.54,60.95 235.93,60.88 236.33,60.8 236.73,60.74 237.12,60.68 237.52,60.62 237.92,60.56 238.31,60.51 238.71,60.46 239.11,60.41 239.5,60.36 239.9,60.32 240.3,60.27 240.69,60.22 241.09,60.18 241.48,60.13 241.88,60.09 242.28,60.05 242.67,60.01 243.07,59.97 243.47,59.92 243.86,59.87 244.26,59.82 244.66,59.77 245.05,59.71 245.45,59.65 245.85,59.58 246.24,59.52 246.64,59.45 247.04,59.39 247.43,59.33 247.83,59.27 248.23,59.22 248.62,59.17 249.02,59.12 249.41,59.07 249.81,59.03 250.21,58.98 250.6,58.93 251,58.87 251.4,58.81 251.79,58.74 252.19,58.64 252.59,58.53 252.98,58.4 253.38,58.23 253.78,58.03 254.17,57.79 254.57,57.51 254.97,57.19 255.36,56.84 255.76,56.47 256.16,56.09 256.55,55.72 256.95,55.37 257.34,55.06 257.74,54.79 258.14,54.56 258.53,54.39 258.93,54.25 259.33,54.15 259.72,54.08 260.12,54.04 260.52,54.01 260.91,53.99 261.31,53.98 261.71,53.97" stroke-dasharray="none" stroke="rgb(31,120,180)" stroke-width="0.75" opacity="1" stroke-opacity="1" fill="none" class="aqm3" onclick="plotObjRespond('click', 3, 'dens')" onmouseover="plotObjRespond('show', 3, 'dens')" onmouseout="plotObjRespond('hide', 3, 'dens')"/>
          </g>
          <g id="Fig:densplot_01.xyplot.lines.group.4.panel.1.1.1">
            <polyline id="Fig:densplot_01.xyplot.lines.group.4.panel.1.1.1.1" points="59,53.99 59.4,54.02 59.79,54.07 60.19,54.14 60.59,54.26 60.98,54.44 61.38,54.7 61.78,55.06 62.18,55.54 62.57,56.18 62.97,56.98 63.37,57.95 63.76,59.12 64.16,60.47 64.56,62.01 64.95,63.74 65.35,65.65 65.75,67.72 66.14,69.95 66.54,72.34 66.94,74.9 67.33,77.63 67.73,80.53 68.13,83.62 68.53,86.9 68.92,90.37 69.32,94.04 69.72,97.89 70.11,101.93 70.51,106.13 70.91,110.5 71.3,114.99 71.7,119.58 72.1,124.26 72.49,128.98 72.89,133.73 73.29,138.48 73.68,143.19 74.08,147.85 74.48,152.42 74.88,156.87 75.27,161.17 75.67,165.28 76.07,169.15 76.46,172.75 76.86,176.05 77.26,179.05 77.65,181.73 78.05,184.1 78.45,186.18 78.84,187.97 79.24,189.52 79.64,190.85 80.03,191.97 80.43,192.92 80.83,193.7 81.23,194.34 81.62,194.83 82.02,195.17 82.42,195.38 82.81,195.47 83.21,195.43 83.61,195.27 84,195.01 84.4,194.65 84.8,194.2 85.19,193.68 85.59,193.09 85.99,192.44 86.38,191.74 86.78,191 87.18,190.21 87.58,189.4 87.97,188.55 88.37,187.69 88.77,186.82 89.16,185.93 89.56,185.04 89.96,184.15 90.35,183.25 90.75,182.34 91.15,181.42 91.54,180.48 91.94,179.53 92.34,178.55 92.73,177.54 93.13,176.51 93.53,175.46 93.93,174.39 94.32,173.31 94.72,172.22 95.12,171.14 95.51,170.06 95.91,169.01 96.31,167.97 96.7,166.96 97.1,165.97 97.5,165.01 97.89,164.06 98.29,163.13 98.69,162.22 99.08,161.32 99.48,160.43 99.88,159.56 100.28,158.71 100.67,157.88 101.07,157.08 101.47,156.31 101.86,155.55 102.26,154.82 102.66,154.11 103.05,153.41 103.45,152.71 103.85,152.02 104.24,151.34 104.64,150.65 105.04,149.98 105.43,149.31 105.83,148.64 106.23,147.97 106.63,147.29 107.02,146.6 107.42,145.89 107.82,145.15 108.21,144.39 108.61,143.6 109.01,142.8 109.4,141.99 109.8,141.19 110.2,140.41 110.59,139.64 110.99,138.9 111.39,138.19 111.78,137.49 112.18,136.82 112.58,136.16 112.98,135.52 113.37,134.88 113.77,134.25 114.17,133.61 114.56,132.97 114.96,132.32 115.36,131.67 115.75,131 116.15,130.33 116.55,129.65 116.94,128.98 117.34,128.31 117.74,127.66 118.13,127.02 118.53,126.39 118.93,125.77 119.33,125.16 119.72,124.56 120.12,123.96 120.52,123.36 120.91,122.76 121.31,122.15 121.71,121.53 122.1,120.89 122.5,120.25 122.9,119.6 123.29,118.94 123.69,118.27 124.09,117.61 124.48,116.96 124.88,116.31 125.28,115.67 125.68,115.03 126.07,114.4 126.47,113.77 126.87,113.15 127.26,112.52 127.66,111.89 128.06,111.25 128.45,110.62 128.85,110 129.25,109.38 129.64,108.77 130.04,108.17 130.44,107.59 130.83,107.04 131.23,106.5 131.63,105.99 132.03,105.5 132.42,105.02 132.82,104.57 133.22,104.12 133.61,103.68 134.01,103.25 134.41,102.81 134.8,102.38 135.2,101.95 135.6,101.53 135.99,101.1 136.39,100.67 136.79,100.25 137.18,99.82 137.58,99.39 137.98,98.96 138.38,98.53 138.77,98.09 139.17,97.65 139.57,97.2 139.96,96.76 140.36,96.33 140.76,95.9 141.15,95.48 141.55,95.07 141.95,94.67 142.34,94.27 142.74,93.89 143.14,93.5 143.53,93.12 143.93,92.74 144.33,92.35 144.73,91.96 145.12,91.57 145.52,91.18 145.92,90.79 146.31,90.4 146.71,90.02 147.11,89.65 147.5,89.29 147.9,88.95 148.3,88.63 148.69,88.32 149.09,88.02 149.49,87.73 149.88,87.45 150.28,87.16 150.68,86.88 151.08,86.6 151.47,86.3 151.87,86.01 152.27,85.7 152.66,85.39 153.06,85.07 153.46,84.74 153.85,84.42 154.25,84.11 154.65,83.81 155.04,83.52 155.44,83.26 155.84,83.01 156.23,82.79 156.63,82.58 157.03,82.38 157.43,82.18 157.82,81.99 158.22,81.8 158.62,81.61 159.01,81.41 159.41,81.21 159.81,81.01 160.2,80.81 160.6,80.61 161,80.4 161.39,80.2 161.79,79.99 162.19,79.77 162.58,79.56 162.98,79.34 163.38,79.13 163.78,78.91 164.17,78.7 164.57,78.5 164.97,78.3 165.36,78.1 165.76,77.91 166.16,77.72 166.55,77.54 166.95,77.36 167.35,77.17 167.74,76.99 168.14,76.81 168.54,76.63 168.93,76.45 169.33,76.26 169.73,76.08 170.13,75.9 170.52,75.72 170.92,75.55 171.32,75.38 171.71,75.21 172.11,75.05 172.51,74.89 172.9,74.73 173.3,74.59 173.7,74.45 174.09,74.32 174.49,74.19 174.89,74.08 175.28,73.98 175.68,73.88 176.08,73.79 176.48,73.69 176.87,73.59 177.27,73.48 177.67,73.36 178.06,73.24 178.46,73.1 178.86,72.95 179.25,72.8 179.65,72.65 180.05,72.5 180.44,72.35 180.84,72.22 181.24,72.09 181.63,71.98 182.03,71.87 182.43,71.76 182.83,71.66 183.22,71.55 183.62,71.44 184.02,71.33 184.41,71.2 184.81,71.08 185.21,70.95 185.6,70.83 186,70.7 186.4,70.58 186.79,70.47 187.19,70.37 187.59,70.28 187.98,70.19 188.38,70.11 188.78,70.03 189.18,69.95 189.57,69.86 189.97,69.78 190.37,69.68 190.76,69.58 191.16,69.46 191.56,69.35 191.95,69.22 192.35,69.1 192.75,68.97 193.14,68.83 193.54,68.7 193.94,68.57 194.33,68.44 194.73,68.32 195.13,68.21 195.53,68.1 195.92,68.01 196.32,67.92 196.72,67.85 197.11,67.78 197.51,67.72 197.91,67.66 198.3,67.61 198.7,67.56 199.1,67.5 199.49,67.44 199.89,67.36 200.29,67.28 200.68,67.18 201.08,67.08 201.48,66.96 201.88,66.84 202.27,66.72 202.67,66.59 203.07,66.46 203.46,66.33 203.86,66.21 204.26,66.1 204.65,65.99 205.05,65.9 205.45,65.81 205.84,65.73 206.24,65.65 206.64,65.58 207.03,65.52 207.43,65.46 207.83,65.39 208.23,65.33 208.62,65.26 209.02,65.2 209.42,65.12 209.81,65.05 210.21,64.97 210.61,64.89 211,64.81 211.4,64.72 211.8,64.64 212.19,64.56 212.59,64.48 212.99,64.4 213.38,64.33 213.78,64.26 214.18,64.2 214.58,64.13 214.97,64.08 215.37,64.02 215.77,63.96 216.16,63.91 216.56,63.85 216.96,63.78 217.35,63.71 217.75,63.64 218.15,63.56 218.54,63.47 218.94,63.38 219.34,63.29 219.73,63.2 220.13,63.11 220.53,63.03 220.93,62.95 221.32,62.89 221.72,62.83 222.12,62.77 222.51,62.72 222.91,62.67 223.31,62.62 223.7,62.56 224.1,62.51 224.5,62.44 224.89,62.37 225.29,62.29 225.69,62.21 226.08,62.12 226.48,62.03 226.88,61.94 227.28,61.85 227.67,61.76 228.07,61.68 228.47,61.6 228.86,61.52 229.26,61.45 229.66,61.39 230.05,61.33 230.45,61.27 230.85,61.22 231.24,61.18 231.64,61.14 232.04,61.1 232.43,61.06 232.83,61.03 233.23,60.98 233.63,60.93 234.02,60.88 234.42,60.82 234.82,60.76 235.21,60.69 235.61,60.62 236.01,60.55 236.4,60.49 236.8,60.43 237.2,60.38 237.59,60.33 237.99,60.29 238.39,60.25 238.78,60.21 239.18,60.17 239.58,60.13 239.98,60.09 240.37,60.05 240.77,60 241.17,59.95 241.56,59.9 241.96,59.85 242.36,59.8 242.75,59.75 243.15,59.7 243.55,59.66 243.94,59.62 244.34,59.58 244.74,59.54 245.13,59.5 245.53,59.46 245.93,59.42 246.33,59.37 246.72,59.31 247.12,59.25 247.52,59.19 247.91,59.12 248.31,59.05 248.71,58.98 249.1,58.92 249.5,58.85 249.9,58.79 250.29,58.73 250.69,58.68 251.09,58.62 251.48,58.56 251.88,58.49 252.28,58.41 252.68,58.3 253.07,58.17 253.47,58 253.87,57.81 254.26,57.57 254.66,57.29 255.06,56.98 255.45,56.64 255.85,56.28 256.25,55.93 256.64,55.58 257.04,55.26 257.44,54.97 257.83,54.72 258.23,54.51 258.63,54.35 259.03,54.23 259.42,54.14 259.82,54.07 260.22,54.03 260.61,54 261.01,53.99 261.41,53.98 261.8,53.97" stroke-dasharray="none" stroke="rgb(31,120,180)" stroke-width="0.75" opacity="1" stroke-opacity="1" fill="none" class="aqm4" onclick="plotObjRespond('click', 4, 'dens')" onmouseover="plotObjRespond('show', 4, 'dens')" onmouseout="plotObjRespond('hide', 4, 'dens')"/>
          </g>
          <g id="Fig:densplot_01.xyplot.lines.group.5.panel.1.1.1">
            <polyline id="Fig:densplot_01.xyplot.lines.group.5.panel.1.1.1.1" points="59.15,54.01 59.54,54.05 59.94,54.12 60.34,54.24 60.73,54.42 61.13,54.69 61.53,55.09 61.92,55.64 62.32,56.38 62.71,57.36 63.11,58.59 63.51,60.1 63.9,61.88 64.3,63.93 64.7,66.23 65.09,68.77 65.49,71.54 65.89,74.51 66.28,77.69 66.68,81.07 67.07,84.65 67.47,88.44 67.87,92.44 68.26,96.65 68.66,101.1 69.06,105.77 69.45,110.63 69.85,115.69 70.24,120.91 70.64,126.26 71.04,131.72 71.43,137.24 71.83,142.81 72.23,148.37 72.62,153.9 73.02,159.37 73.41,164.74 73.81,169.99 74.21,175.06 74.6,179.93 75,184.55 75.4,188.89 75.79,192.92 76.19,196.62 76.59,199.97 76.98,202.97 77.38,205.61 77.77,207.91 78.17,209.85 78.57,211.46 78.96,212.72 79.36,213.67 79.76,214.3 80.15,214.63 80.55,214.7 80.94,214.54 81.34,214.2 81.74,213.71 82.13,213.08 82.53,212.33 82.93,211.49 83.32,210.54 83.72,209.5 84.11,208.37 84.51,207.16 84.91,205.87 85.3,204.52 85.7,203.12 86.1,201.7 86.49,200.26 86.89,198.81 87.29,197.36 87.68,195.91 88.08,194.46 88.47,192.99 88.87,191.51 89.27,190.02 89.66,188.52 90.06,187.01 90.46,185.49 90.85,183.98 91.25,182.47 91.64,180.98 92.04,179.51 92.44,178.06 92.83,176.63 93.23,175.23 93.63,173.86 94.02,172.51 94.42,171.18 94.81,169.87 95.21,168.58 95.61,167.3 96,166.04 96.4,164.79 96.8,163.55 97.19,162.34 97.59,161.13 97.99,159.95 98.38,158.8 98.78,157.66 99.17,156.55 99.57,155.47 99.97,154.42 100.36,153.39 100.76,152.39 101.16,151.43 101.55,150.51 101.95,149.63 102.34,148.8 102.74,148.01 103.14,147.27 103.53,146.55 103.93,145.87 104.33,145.2 104.72,144.53 105.12,143.87 105.51,143.2 105.91,142.53 106.31,141.85 106.7,141.18 107.1,140.51 107.5,139.86 107.89,139.2 108.29,138.55 108.69,137.89 109.08,137.21 109.48,136.51 109.87,135.79 110.27,135.05 110.67,134.29 111.06,133.52 111.46,132.76 111.86,132 112.25,131.26 112.65,130.53 113.04,129.82 113.44,129.12 113.84,128.43 114.23,127.74 114.63,127.05 115.03,126.35 115.42,125.65 115.82,124.94 116.21,124.22 116.61,123.5 117.01,122.77 117.4,122.03 117.8,121.3 118.2,120.58 118.59,119.86 118.99,119.17 119.39,118.5 119.78,117.85 120.18,117.22 120.57,116.62 120.97,116.02 121.37,115.43 121.76,114.84 122.16,114.24 122.56,113.64 122.95,113.03 123.35,112.41 123.74,111.79 124.14,111.17 124.54,110.56 124.93,109.96 125.33,109.37 125.73,108.8 126.12,108.24 126.52,107.71 126.91,107.19 127.31,106.69 127.71,106.2 128.1,105.72 128.5,105.26 128.9,104.79 129.29,104.32 129.69,103.85 130.09,103.37 130.48,102.87 130.88,102.37 131.27,101.85 131.67,101.34 132.07,100.83 132.46,100.33 132.86,99.84 133.26,99.36 133.65,98.9 134.05,98.45 134.44,98.01 134.84,97.58 135.24,97.15 135.63,96.73 136.03,96.3 136.43,95.87 136.82,95.43 137.22,94.99 137.61,94.55 138.01,94.1 138.41,93.66 138.8,93.22 139.2,92.8 139.6,92.39 139.99,92 140.39,91.62 140.79,91.26 141.18,90.91 141.58,90.57 141.97,90.23 142.37,89.9 142.77,89.57 143.16,89.24 143.56,88.9 143.96,88.55 144.35,88.21 144.75,87.86 145.14,87.51 145.54,87.17 145.94,86.83 146.33,86.5 146.73,86.19 147.13,85.89 147.52,85.61 147.92,85.34 148.31,85.08 148.71,84.82 149.11,84.57 149.5,84.32 149.9,84.07 150.3,83.82 150.69,83.56 151.09,83.31 151.49,83.05 151.88,82.8 152.28,82.56 152.67,82.32 153.07,82.09 153.47,81.87 153.86,81.65 154.26,81.43 154.66,81.22 155.05,81.02 155.45,80.81 155.84,80.61 156.24,80.41 156.64,80.21 157.03,80.01 157.43,79.81 157.83,79.61 158.22,79.41 158.62,79.2 159.01,79 159.41,78.79 159.81,78.59 160.2,78.38 160.6,78.17 161,77.97 161.39,77.76 161.79,77.55 162.19,77.35 162.58,77.14 162.98,76.94 163.37,76.75 163.77,76.57 164.17,76.39 164.56,76.22 164.96,76.05 165.36,75.9 165.75,75.74 166.15,75.59 166.54,75.44 166.94,75.28 167.34,75.12 167.73,74.96 168.13,74.8 168.53,74.63 168.92,74.47 169.32,74.32 169.71,74.17 170.11,74.03 170.51,73.9 170.9,73.78 171.3,73.66 171.7,73.54 172.09,73.41 172.49,73.29 172.89,73.15 173.28,73.01 173.68,72.87 174.07,72.72 174.47,72.57 174.87,72.41 175.26,72.26 175.66,72.12 176.06,71.99 176.45,71.86 176.85,71.74 177.24,71.63 177.64,71.53 178.04,71.44 178.43,71.35 178.83,71.27 179.23,71.19 179.62,71.12 180.02,71.05 180.41,70.98 180.81,70.91 181.21,70.84 181.6,70.76 182,70.68 182.4,70.59 182.79,70.49 183.19,70.38 183.59,70.26 183.98,70.13 184.38,70 184.77,69.87 185.17,69.73 185.57,69.6 185.96,69.47 186.36,69.35 186.76,69.23 187.15,69.12 187.55,69.01 187.94,68.9 188.34,68.8 188.74,68.69 189.13,68.58 189.53,68.47 189.93,68.36 190.32,68.25 190.72,68.14 191.11,68.04 191.51,67.94 191.91,67.84 192.3,67.75 192.7,67.66 193.1,67.58 193.49,67.5 193.89,67.42 194.29,67.35 194.68,67.28 195.08,67.22 195.47,67.15 195.87,67.08 196.27,67 196.66,66.93 197.06,66.84 197.46,66.76 197.85,66.67 198.25,66.58 198.64,66.48 199.04,66.38 199.44,66.28 199.83,66.18 200.23,66.08 200.63,65.97 201.02,65.87 201.42,65.77 201.81,65.67 202.21,65.57 202.61,65.47 203,65.37 203.4,65.28 203.8,65.19 204.19,65.1 204.59,65.01 204.99,64.93 205.38,64.85 205.78,64.78 206.17,64.71 206.57,64.64 206.97,64.59 207.36,64.53 207.76,64.47 208.16,64.42 208.55,64.36 208.95,64.31 209.34,64.25 209.74,64.18 210.14,64.12 210.53,64.05 210.93,63.97 211.33,63.89 211.72,63.8 212.12,63.72 212.52,63.63 212.91,63.53 213.31,63.44 213.7,63.35 214.1,63.27 214.5,63.18 214.89,63.1 215.29,63.02 215.69,62.94 216.08,62.87 216.48,62.79 216.87,62.71 217.27,62.62 217.67,62.54 218.06,62.46 218.46,62.38 218.86,62.3 219.25,62.24 219.65,62.18 220.04,62.13 220.44,62.09 220.84,62.06 221.23,62.03 221.63,62.01 222.03,61.98 222.42,61.95 222.82,61.91 223.22,61.87 223.61,61.81 224.01,61.75 224.4,61.67 224.8,61.6 225.2,61.52 225.59,61.44 225.99,61.36 226.39,61.29 226.78,61.22 227.18,61.16 227.57,61.1 227.97,61.05 228.37,61 228.76,60.94 229.16,60.89 229.56,60.83 229.95,60.77 230.35,60.71 230.74,60.64 231.14,60.57 231.54,60.49 231.93,60.42 232.33,60.35 232.73,60.28 233.12,60.22 233.52,60.17 233.92,60.11 234.31,60.06 234.71,60.01 235.1,59.97 235.5,59.92 235.9,59.87 236.29,59.82 236.69,59.76 237.09,59.71 237.48,59.66 237.88,59.61 238.27,59.56 238.67,59.51 239.07,59.47 239.46,59.42 239.86,59.38 240.26,59.33 240.65,59.29 241.05,59.24 241.44,59.2 241.84,59.15 242.24,59.1 242.63,59.05 243.03,59.01 243.43,58.96 243.82,58.92 244.22,58.88 244.62,58.84 245.01,58.79 245.41,58.75 245.8,58.7 246.2,58.64 246.6,58.59 246.99,58.54 247.39,58.49 247.79,58.44 248.18,58.39 248.58,58.34 248.97,58.3 249.37,58.26 249.77,58.22 250.16,58.19 250.56,58.15 250.96,58.11 251.35,58.07 251.75,58.02 252.14,57.96 252.54,57.89 252.94,57.79 253.33,57.67 253.73,57.51 254.13,57.31 254.52,57.08 254.92,56.81 255.32,56.5 255.71,56.18 256.11,55.85 256.5,55.52 256.9,55.21 257.3,54.93 257.69,54.69 258.09,54.49 258.49,54.33 258.88,54.21 259.28,54.13 259.67,54.07 260.07,54.03 260.47,54 260.86,53.98 261.26,53.98 261.66,53.97" stroke-dasharray="none" stroke="rgb(31,120,180)" stroke-width="0.75" opacity="1" stroke-opacity="1" fill="none" class="aqm5" onclick="plotObjRespond('click', 5, 'dens')" onmouseover="plotObjRespond('show', 5, 'dens')" onmouseout="plotObjRespond('hide', 5, 'dens')"/>
          </g>
          <g id="Fig:densplot_01.xyplot.lines.group.6.panel.1.1.1">
            <polyline id="Fig:densplot_01.xyplot.lines.group.6.panel.1.1.1.1" points="59.44,53.99 59.83,54.02 60.23,54.06 60.62,54.13 61.02,54.25 61.41,54.43 61.81,54.69 62.2,55.05 62.6,55.55 62.99,56.19 63.39,56.99 63.78,57.96 64.18,59.11 64.57,60.44 64.97,61.94 65.36,63.6 65.76,65.41 66.15,67.37 66.55,69.49 66.94,71.77 67.34,74.22 67.73,76.85 68.13,79.67 68.52,82.7 68.92,85.95 69.32,89.41 69.71,93.1 70.11,97.01 70.5,101.16 70.9,105.51 71.29,110.06 71.69,114.79 72.08,119.66 72.48,124.66 72.87,129.76 73.27,134.93 73.66,140.13 74.06,145.34 74.45,150.51 74.85,155.61 75.24,160.59 75.64,165.41 76.03,170.04 76.43,174.44 76.82,178.56 77.22,182.42 77.61,186 78.01,189.31 78.4,192.35 78.8,195.12 79.19,197.62 79.59,199.85 79.98,201.8 80.38,203.47 80.78,204.88 81.17,206.03 81.57,206.93 81.96,207.59 82.36,208.04 82.75,208.28 83.15,208.34 83.54,208.25 83.94,208.01 84.33,207.65 84.73,207.19 85.12,206.65 85.52,206.05 85.91,205.39 86.31,204.7 86.7,203.96 87.1,203.17 87.49,202.33 87.89,201.42 88.28,200.42 88.68,199.34 89.07,198.18 89.47,196.96 89.86,195.7 90.26,194.41 90.65,193.12 91.05,191.83 91.44,190.56 91.84,189.3 92.24,188.05 92.63,186.81 93.03,185.57 93.42,184.32 93.82,183.06 94.21,181.79 94.61,180.5 95,179.21 95.4,177.92 95.79,176.65 96.19,175.39 96.58,174.16 96.98,172.96 97.37,171.79 97.77,170.65 98.16,169.54 98.56,168.46 98.95,167.4 99.35,166.37 99.74,165.36 100.14,164.39 100.53,163.45 100.93,162.55 101.32,161.67 101.72,160.81 102.11,159.97 102.51,159.13 102.9,158.3 103.3,157.48 103.7,156.65 104.09,155.82 104.49,154.99 104.88,154.17 105.28,153.35 105.67,152.55 106.07,151.75 106.46,150.96 106.86,150.17 107.25,149.37 107.65,148.54 108.04,147.67 108.44,146.76 108.83,145.82 109.23,144.84 109.62,143.86 110.02,142.87 110.41,141.9 110.81,140.96 111.2,140.04 111.6,139.16 111.99,138.32 112.39,137.51 112.78,136.74 113.18,136 113.57,135.29 113.97,134.6 114.36,133.93 114.76,133.25 115.16,132.57 115.55,131.87 115.95,131.16 116.34,130.44 116.74,129.7 117.13,128.95 117.53,128.19 117.92,127.44 118.32,126.69 118.71,125.95 119.11,125.21 119.5,124.5 119.9,123.79 120.29,123.09 120.69,122.41 121.08,121.73 121.48,121.05 121.87,120.37 122.27,119.7 122.66,119.02 123.06,118.35 123.45,117.67 123.85,116.99 124.24,116.3 124.64,115.61 125.03,114.91 125.43,114.2 125.82,113.5 126.22,112.8 126.61,112.11 127.01,111.44 127.41,110.78 127.8,110.14 128.2,109.52 128.59,108.92 128.99,108.33 129.38,107.74 129.78,107.15 130.17,106.57 130.57,105.99 130.96,105.41 131.36,104.85 131.75,104.29 132.15,103.75 132.54,103.22 132.94,102.7 133.33,102.19 133.73,101.69 134.12,101.19 134.52,100.7 134.91,100.22 135.31,99.74 135.7,99.27 136.1,98.8 136.49,98.34 136.89,97.87 137.28,97.41 137.68,96.95 138.07,96.49 138.47,96.03 138.87,95.56 139.26,95.1 139.66,94.63 140.05,94.15 140.45,93.68 140.84,93.21 141.24,92.75 141.63,92.31 142.03,91.88 142.42,91.47 142.82,91.08 143.21,90.72 143.61,90.37 144,90.03 144.4,89.69 144.79,89.36 145.19,89.03 145.58,88.69 145.98,88.35 146.37,88.01 146.77,87.66 147.16,87.32 147.56,86.97 147.95,86.63 148.35,86.3 148.74,85.96 149.14,85.64 149.53,85.32 149.93,85.01 150.33,84.71 150.72,84.42 151.12,84.15 151.51,83.89 151.91,83.65 152.3,83.41 152.7,83.19 153.09,82.97 153.49,82.74 153.88,82.51 154.28,82.26 154.67,82.01 155.07,81.75 155.46,81.49 155.86,81.22 156.25,80.96 156.65,80.71 157.04,80.48 157.44,80.25 157.83,80.04 158.23,79.83 158.62,79.62 159.02,79.41 159.41,79.19 159.81,78.96 160.2,78.72 160.6,78.48 160.99,78.23 161.39,77.99 161.79,77.76 162.18,77.54 162.58,77.32 162.97,77.12 163.37,76.92 163.76,76.73 164.16,76.54 164.55,76.36 164.95,76.18 165.34,76.01 165.74,75.84 166.13,75.68 166.53,75.52 166.92,75.38 167.32,75.23 167.71,75.09 168.11,74.94 168.5,74.79 168.9,74.64 169.29,74.48 169.69,74.32 170.08,74.15 170.48,73.98 170.87,73.82 171.27,73.65 171.66,73.5 172.06,73.35 172.45,73.21 172.85,73.08 173.24,72.95 173.64,72.83 174.04,72.7 174.43,72.57 174.83,72.43 175.22,72.28 175.62,72.13 176.01,71.97 176.41,71.81 176.8,71.66 177.2,71.5 177.59,71.35 177.99,71.2 178.38,71.06 178.78,70.92 179.17,70.79 179.57,70.66 179.96,70.54 180.36,70.43 180.75,70.33 181.15,70.23 181.54,70.15 181.94,70.06 182.33,69.98 182.73,69.89 183.12,69.8 183.52,69.71 183.91,69.6 184.31,69.49 184.7,69.36 185.1,69.23 185.5,69.1 185.89,68.96 186.29,68.82 186.68,68.68 187.08,68.55 187.47,68.42 187.87,68.31 188.26,68.2 188.66,68.11 189.05,68.01 189.45,67.91 189.84,67.82 190.24,67.72 190.63,67.61 191.03,67.51 191.42,67.4 191.82,67.3 192.21,67.2 192.61,67.1 193,67 193.4,66.91 193.79,66.82 194.19,66.73 194.58,66.64 194.98,66.54 195.37,66.43 195.77,66.32 196.16,66.21 196.56,66.1 196.96,66 197.35,65.9 197.75,65.81 198.14,65.73 198.54,65.66 198.93,65.59 199.33,65.53 199.72,65.47 200.12,65.41 200.51,65.35 200.91,65.27 201.3,65.19 201.7,65.11 202.09,65.02 202.49,64.92 202.88,64.83 203.28,64.73 203.67,64.65 204.07,64.56 204.46,64.49 204.86,64.42 205.25,64.35 205.65,64.28 206.04,64.21 206.44,64.14 206.83,64.06 207.23,63.98 207.62,63.89 208.02,63.79 208.42,63.69 208.81,63.59 209.21,63.49 209.6,63.4 210,63.31 210.39,63.23 210.79,63.15 211.18,63.08 211.58,63.02 211.97,62.96 212.37,62.91 212.76,62.85 213.16,62.79 213.55,62.73 213.95,62.67 214.34,62.59 214.74,62.51 215.13,62.41 215.53,62.32 215.92,62.22 216.32,62.13 216.71,62.04 217.11,61.96 217.5,61.89 217.9,61.82 218.29,61.77 218.69,61.73 219.08,61.69 219.48,61.65 219.87,61.61 220.27,61.58 220.67,61.53 221.06,61.48 221.46,61.42 221.85,61.36 222.25,61.28 222.64,61.21 223.04,61.13 223.43,61.05 223.83,60.97 224.22,60.9 224.62,60.83 225.01,60.76 225.41,60.7 225.8,60.65 226.2,60.6 226.59,60.56 226.99,60.52 227.38,60.5 227.78,60.47 228.17,60.44 228.57,60.42 228.96,60.39 229.36,60.35 229.75,60.3 230.15,60.24 230.54,60.17 230.94,60.09 231.33,60 231.73,59.91 232.13,59.82 232.52,59.73 232.92,59.64 233.31,59.56 233.71,59.49 234.1,59.43 234.5,59.38 234.89,59.34 235.29,59.3 235.68,59.27 236.08,59.24 236.47,59.21 236.87,59.18 237.26,59.14 237.66,59.11 238.05,59.07 238.45,59.02 238.84,58.98 239.24,58.93 239.63,58.88 240.03,58.83 240.42,58.77 240.82,58.72 241.21,58.67 241.61,58.62 242,58.56 242.4,58.51 242.79,58.46 243.19,58.42 243.59,58.37 243.98,58.34 244.38,58.3 244.77,58.26 245.17,58.23 245.56,58.2 245.96,58.16 246.35,58.13 246.75,58.09 247.14,58.06 247.54,58.02 247.93,57.99 248.33,57.95 248.72,57.91 249.12,57.88 249.51,57.84 249.91,57.81 250.3,57.77 250.7,57.73 251.09,57.69 251.49,57.64 251.88,57.59 252.28,57.52 252.67,57.44 253.07,57.34 253.46,57.22 253.86,57.07 254.25,56.89 254.65,56.67 255.05,56.42 255.44,56.14 255.84,55.85 256.23,55.54 256.63,55.25 257.02,54.97 257.42,54.73 257.81,54.52 258.21,54.36 258.6,54.23 259,54.14 259.39,54.07 259.79,54.03 260.18,54 260.58,53.98 260.97,53.97 261.37,53.97" stroke-dasharray="none" stroke="rgb(31,120,180)" stroke-width="0.75" opacity="1" stroke-opacity="1" fill="none" class="aqm6" onclick="plotObjRespond('click', 6, 'dens')" onmouseover="plotObjRespond('show', 6, 'dens')" onmouseout="plotObjRespond('hide', 6, 'dens')"/>
          </g>
        </g>
        <g id="Fig:densplot_01.panel.1.1.off.vp.2">
          <g id="Fig:densplot_01.border.panel.1.1.1">
            <rect id="Fig:densplot_01.border.panel.1.1.1.1" x="44.8" y="42.19" width="231.2" height="191.81" stroke="rgb(0,0,0)" stroke-dasharray="none" stroke-width="0.75" opacity="1" fill="none" stroke-opacity="1" fill-opacity="0"/>
          </g>
        </g>
        <g id="Fig:densplot_01..1"/>
      </g>
    </g>
  </g>
</svg>