<?xml version="1.0" encoding="UTF-8"?>
<svg xmlns="http://www.w3.org/2000/svg" xmlns:xlink="http://www.w3.org/1999/xlink" width="360pt" height="252pt" viewBox="0 0 360 252" version="1.1" id="Fig:dig">
  <defs>
    <g>
      <symbol overflow="visible" id="dig-glyph0-0">
        <path style="stroke:none;" d=""/>
      </symbol>
      <symbol overflow="visible" id="dig-glyph0-1">
        <path style="stroke:none;" d="M 10.140625 -0.140625 L 10.140625 -0.625 C 9.78125 -0.8125 9.65625 -0.953125 9.65625 -1.4375 C 9.59375 -4.640625 9.5 -4.921875 8.109375 -5.515625 L 8.109375 -5.25 C 9.328125 -5.71875 9.984375 -6.734375 9.984375 -8.0625 C 9.984375 -9.75 8.9375 -11.140625 7.015625 -11.140625 L 1.140625 -11.140625 L 1.140625 0 L 3.46875 0 L 3.46875 -4.3125 L 6 -4.3125 C 6.96875 -4.3125 7.3125 -4.046875 7.3125 -3.140625 L 7.296875 -2 C 7.296875 -0.984375 7.359375 -0.546875 7.671875 0 L 10.140625 0 Z M 7.640625 -7.75 C 7.640625 -6.78125 7.390625 -6.4375 6.125 -6.4375 L 3.46875 -6.4375 L 3.46875 -9 L 6.125 -9 C 7.34375 -9 7.640625 -8.6875 7.640625 -7.75 Z M 7.640625 -7.75 "/>
      </symbol>
      <symbol overflow="visible" id="dig-glyph0-2">
        <path style="stroke:none;" d="M 9.890625 -0.140625 L 9.890625 -11.140625 L 7.5625 -11.140625 L 7.5625 -3.828125 L 3.3125 -11.140625 L 0.953125 -11.140625 L 0.953125 0 L 3.296875 0 L 3.296875 -7.40625 L 7.609375 0 L 9.890625 0 Z M 9.890625 -0.140625 "/>
      </symbol>
      <symbol overflow="visible" id="dig-glyph0-3">
        <path style="stroke:none;" d="M 10.53125 -0.140625 L 6.71875 -11.140625 L 4.25 -11.140625 L 0.28125 0 L 2.671875 0 L 3.40625 -2.1875 L 7.453125 -2.1875 L 8.171875 0 L 10.5625 0 Z M 6.859375 -4.328125 L 4.109375 -4.328125 L 5.4375 -8.28125 L 6.75 -4.328125 Z M 6.859375 -4.328125 "/>
      </symbol>
      <symbol overflow="visible" id="dig-glyph0-4">
        <path style="stroke:none;" d=""/>
      </symbol>
      <symbol overflow="visible" id="dig-glyph0-5">
        <path style="stroke:none;" d="M 8.171875 -0.140625 L 8.171875 -11.140625 L 5.984375 -11.140625 L 5.984375 -7.34375 C 5.546875 -8.03125 4.8125 -8.453125 3.8125 -8.453125 C 1.890625 -8.453125 0.375 -6.578125 0.375 -4.140625 C 0.375 -1.859375 1.6875 0.140625 3.8125 0.140625 C 4.8125 0.140625 5.546875 -0.265625 5.984375 -0.84375 L 5.984375 0 L 8.171875 0 Z M 5.984375 -4.109375 C 5.984375 -2.65625 5.328125 -1.875 4.28125 -1.875 C 3.234375 -1.875 2.5625 -2.671875 2.5625 -4.140625 C 2.5625 -5.640625 3.234375 -6.4375 4.28125 -6.4375 C 5.34375 -6.4375 5.984375 -5.65625 5.984375 -4.109375 Z M 5.984375 -4.109375 "/>
      </symbol>
      <symbol overflow="visible" id="dig-glyph0-6">
        <path style="stroke:none;" d="M 7.875 -3.859375 C 7.875 -6.640625 6.421875 -8.453125 4.046875 -8.453125 C 1.75 -8.453125 0.265625 -6.75 0.265625 -4.046875 C 0.265625 -1.46875 1.734375 0.140625 4.015625 0.140625 C 5.8125 0.140625 7.3125 -0.8125 7.8125 -2.53125 L 5.671875 -2.53125 C 5.4375 -1.8125 4.84375 -1.734375 4.078125 -1.734375 C 3.09375 -1.734375 2.515625 -2.046875 2.453125 -3.46875 L 7.84375 -3.46875 Z M 5.65625 -5.125 L 2.5 -5.125 C 2.625 -6.109375 3.09375 -6.59375 4.03125 -6.59375 C 4.921875 -6.59375 5.484375 -6.140625 5.578125 -5.125 Z M 5.65625 -5.125 "/>
      </symbol>
      <symbol overflow="visible" id="dig-glyph0-7">
        <path style="stroke:none;" d="M 8.109375 0.140625 L 8.109375 -8.3125 L 6.015625 -8.3125 L 6.015625 -7.15625 C 5.484375 -7.984375 4.765625 -8.453125 3.84375 -8.453125 C 1.9375 -8.453125 0.453125 -6.5625 0.453125 -4.0625 C 0.453125 -1.5625 1.8125 0.140625 3.796875 0.140625 C 4.734375 0.140625 5.34375 -0.171875 6.015625 -0.875 L 6.015625 0.140625 C 6.015625 1.109375 5.34375 1.640625 4.3125 1.640625 C 3.515625 1.640625 3.046875 1.453125 2.828125 0.703125 L 0.609375 0.703125 C 0.640625 2.140625 2.03125 3.25 4.234375 3.25 C 6.65625 3.25 8.109375 2.03125 8.109375 0.140625 Z M 6.046875 -4.09375 C 6.046875 -2.640625 5.34375 -1.875 4.265625 -1.875 C 3.28125 -1.875 2.640625 -2.640625 2.640625 -4.09375 C 2.640625 -5.625 3.28125 -6.4375 4.296875 -6.4375 C 5.34375 -6.4375 6.046875 -5.59375 6.046875 -4.09375 Z M 6.046875 -4.09375 "/>
      </symbol>
      <symbol overflow="visible" id="dig-glyph0-8">
        <path style="stroke:none;" d="M 5.5625 -6.1875 L 5.5625 -8.421875 C 5.390625 -8.453125 5.328125 -8.453125 5.265625 -8.453125 C 4.3125 -8.453125 3.40625 -7.6875 3.078125 -6.828125 L 3.078125 -8.3125 L 0.875 -8.3125 L 0.875 0 L 3.078125 0 L 3.078125 -4.40625 C 3.078125 -5.640625 3.640625 -6.109375 4.859375 -6.109375 C 5.078125 -6.109375 5.234375 -6.09375 5.5625 -6.03125 Z M 5.5625 -6.1875 "/>
      </symbol>
      <symbol overflow="visible" id="dig-glyph0-9">
        <path style="stroke:none;" d="M 7.859375 -0.140625 L 7.859375 -0.46875 C 7.46875 -0.8125 7.375 -0.953125 7.375 -1.375 L 7.375 -5.84375 C 7.375 -7.484375 6.21875 -8.453125 4.046875 -8.453125 C 1.859375 -8.453125 0.671875 -7.390625 0.53125 -5.390625 L 2.640625 -5.390625 C 2.75 -6.359375 3.0625 -6.5 4.078125 -6.5 C 4.890625 -6.5 5.234375 -6.359375 5.234375 -5.828125 C 5.234375 -4.984375 4.671875 -5.203125 3.625 -5.015625 L 2.78125 -4.875 C 1.1875 -4.59375 0.359375 -3.765625 0.359375 -2.3125 C 0.359375 -0.75 1.515625 0.140625 2.859375 0.140625 C 3.75 0.140625 4.609375 -0.28125 5.25 -0.96875 C 5.25 -0.734375 5.3125 -0.265625 5.53125 0 L 7.859375 0 Z M 5.234375 -3.578125 C 5.234375 -2.375 4.703125 -1.8125 3.640625 -1.8125 C 2.9375 -1.8125 2.546875 -1.953125 2.546875 -2.546875 C 2.546875 -3.15625 2.828125 -3.25 3.703125 -3.40625 L 4.40625 -3.546875 C 4.96875 -3.65625 5.078125 -3.71875 5.234375 -3.796875 Z M 5.234375 -3.578125 "/>
      </symbol>
      <symbol overflow="visible" id="dig-glyph0-10">
        <path style="stroke:none;" d="M 4.53125 -0.140625 L 4.53125 -1.734375 C 4.28125 -1.703125 4.15625 -1.6875 4.015625 -1.6875 C 3.453125 -1.6875 3.375 -1.71875 3.375 -2.4375 L 3.375 -6.5 L 4.53125 -6.5 L 4.53125 -8.15625 L 3.375 -8.15625 L 3.375 -10.3125 L 1.171875 -10.3125 L 1.171875 -8.15625 L 0.15625 -8.15625 L 0.15625 -6.5 L 1.171875 -6.5 L 1.171875 -1.859375 C 1.171875 -0.59375 1.90625 0.0625 3.28125 0.0625 C 3.734375 0.0625 4.109375 0.015625 4.53125 0 Z M 4.53125 -0.140625 "/>
      </symbol>
      <symbol overflow="visible" id="dig-glyph0-11">
        <path style="stroke:none;" d="M 3.125 -0.140625 L 3.125 -8.3125 L 0.9375 -8.3125 L 0.9375 0 L 3.125 0 Z M 3.15625 -9.15625 L 3.15625 -11.375 L 0.96875 -11.375 L 0.96875 -9.015625 L 3.15625 -9.015625 Z M 3.15625 -9.15625 "/>
      </symbol>
      <symbol overflow="visible" id="dig-glyph0-12">
        <path style="stroke:none;" d="M 8.53125 -4.09375 C 8.53125 -6.828125 7 -8.453125 4.484375 -8.453125 C 2.03125 -8.453125 0.46875 -6.796875 0.46875 -4.15625 C 0.46875 -1.5 2.03125 0.140625 4.5 0.140625 C 6.953125 0.140625 8.53125 -1.515625 8.53125 -4.09375 Z M 6.328125 -4.125 C 6.328125 -2.625 5.625 -1.8125 4.5 -1.8125 C 3.375 -1.8125 2.65625 -2.625 2.65625 -4.15625 C 2.65625 -5.6875 3.375 -6.5 4.5 -6.5 C 5.65625 -6.5 6.328125 -5.703125 6.328125 -4.125 Z M 6.328125 -4.125 "/>
      </symbol>
      <symbol overflow="visible" id="dig-glyph0-13">
        <path style="stroke:none;" d="M 8.1875 -0.140625 L 8.1875 -5.53125 C 8.1875 -7.296875 7.15625 -8.453125 5.4375 -8.453125 C 4.359375 -8.453125 3.578125 -8 3.078125 -7.234375 L 3.078125 -8.3125 L 0.875 -8.3125 L 0.875 0 L 3.078125 0 L 3.078125 -4.96875 C 3.078125 -5.921875 3.703125 -6.40625 4.703125 -6.40625 C 5.609375 -6.40625 6 -6.046875 6 -5.09375 L 6 0 L 8.1875 0 Z M 8.1875 -0.140625 "/>
      </symbol>
      <symbol overflow="visible" id="dig-glyph0-14">
        <path style="stroke:none;" d="M 8.59375 -4.15625 C 8.59375 -6.546875 7.296875 -8.453125 5.1875 -8.453125 C 4.171875 -8.453125 3.40625 -7.96875 3 -7.234375 L 3 -8.3125 L 0.8125 -8.3125 L 0.8125 3.25 L 3 3.25 L 3 -0.96875 C 3.40625 -0.203125 4.171875 0.140625 5.1875 0.140625 C 7.125 0.140625 8.59375 -1.71875 8.59375 -4.15625 Z M 6.40625 -4.125 C 6.40625 -2.671875 5.734375 -1.875 4.703125 -1.875 C 3.671875 -1.875 3 -2.65625 3 -4.15625 C 3 -5.671875 3.671875 -6.4375 4.703125 -6.4375 C 5.765625 -6.4375 6.40625 -5.671875 6.40625 -4.125 Z M 6.40625 -4.125 "/>
      </symbol>
      <symbol overflow="visible" id="dig-glyph0-15">
        <path style="stroke:none;" d="M 3.125 -0.140625 L 3.125 -11.140625 L 0.9375 -11.140625 L 0.9375 0 L 3.125 0 Z M 3.125 -0.140625 "/>
      </symbol>
      <symbol overflow="visible" id="dig-glyph1-0">
        <path style="stroke:none;" d=""/>
      </symbol>
      <symbol overflow="visible" id="dig-glyph1-1">
        <path style="stroke:none;" d="M 6.53125 -3.0625 C 6.53125 -4.8125 5.25 -6.09375 3.546875 -6.09375 C 2.921875 -6.09375 2.328125 -5.890625 2.09375 -5.71875 L 2.359375 -7.59375 L 6.078125 -7.59375 L 6.078125 -8.9375 L 1.25 -8.9375 L 0.546875 -4.03125 L 1.78125 -4.03125 C 2.328125 -4.6875 2.65625 -4.859375 3.34375 -4.859375 C 4.53125 -4.859375 5.15625 -4.21875 5.15625 -2.90625 C 5.15625 -1.640625 4.546875 -1.046875 3.34375 -1.046875 C 2.390625 -1.046875 1.921875 -1.40625 1.625 -2.53125 L 0.28125 -2.53125 C 0.65625 -0.640625 1.796875 0.1875 3.375 0.1875 C 5.15625 0.1875 6.53125 -1.1875 6.53125 -3.0625 Z M 6.53125 -3.0625 "/>
      </symbol>
      <symbol overflow="visible" id="dig-glyph1-2">
        <path style="stroke:none;" d="M 1.90625 -7.59375 L 1.90625 -9.125 L 0.46875 -9.125 L 0.46875 -7.59375 L 0.828125 -5.796875 L 1.53125 -5.796875 Z M 1.90625 -7.59375 "/>
      </symbol>
      <symbol overflow="visible" id="dig-glyph1-3">
        <path style="stroke:none;" d=""/>
      </symbol>
      <symbol overflow="visible" id="dig-glyph1-4">
        <path style="stroke:none;" d="M 5.71875 0.734375 L 5.71875 -0.453125 L 2.53125 -3.25 L 5.71875 -6.046875 L 5.71875 -7.53125 L 1.28125 -3.640625 L 1.28125 -2.859375 L 5.71875 1.03125 Z M 5.71875 0.734375 "/>
      </symbol>
      <symbol overflow="visible" id="dig-glyph1-5">
        <path style="stroke:none;" d="M 3.671875 -3.125 L 3.671875 -4.15625 L 0.4375 -4.15625 L 0.4375 -3 L 3.671875 -3 Z M 3.671875 -3.125 "/>
      </symbol>
      <symbol overflow="visible" id="dig-glyph1-6">
        <path style="stroke:none;" d="M 5.71875 -2.921875 L 5.71875 -3.640625 L 1.28125 -7.53125 L 1.28125 -6.046875 L 4.46875 -3.25 L 1.28125 -0.453125 L 1.28125 1.03125 L 5.71875 -2.859375 Z M 5.71875 -2.921875 "/>
      </symbol>
      <symbol overflow="visible" id="dig-glyph1-7">
        <path style="stroke:none;" d="M 6.453125 -2.703125 C 6.453125 -3.78125 5.890625 -4.53125 4.828125 -4.90625 L 4.828125 -4.640625 C 5.65625 -4.96875 6.1875 -5.65625 6.1875 -6.546875 C 6.1875 -8.078125 5.046875 -9.125 3.359375 -9.125 C 1.578125 -9.125 0.484375 -8.015625 0.453125 -6 L 1.8125 -6 C 1.84375 -7.4375 2.25 -7.90625 3.375 -7.90625 C 4.34375 -7.90625 4.796875 -7.453125 4.796875 -6.515625 C 4.796875 -5.5625 4.53125 -5.3125 2.625 -5.3125 L 2.625 -4.125 L 3.359375 -4.125 C 4.578125 -4.125 5.0625 -3.671875 5.0625 -2.6875 C 5.0625 -1.578125 4.515625 -1.046875 3.359375 -1.046875 C 2.15625 -1.046875 1.703125 -1.515625 1.609375 -2.9375 L 0.25 -2.9375 C 0.40625 -0.828125 1.515625 0.1875 3.328125 0.1875 C 5.15625 0.1875 6.453125 -1.03125 6.453125 -2.703125 Z M 6.453125 -2.703125 "/>
      </symbol>
      <symbol overflow="visible" id="dig-glyph1-8">
        <path style="stroke:none;" d="M 7.84375 -6.5625 C 7.84375 -8.28125 6.703125 -9.375 4.90625 -9.375 L 1 -9.375 L 1 0 L 2.421875 0 L 2.421875 -3.859375 L 5.15625 -3.859375 C 6.65625 -3.859375 7.84375 -5.046875 7.84375 -6.5625 Z M 6.359375 -6.609375 C 6.359375 -5.609375 5.84375 -5.15625 4.71875 -5.15625 L 2.421875 -5.15625 L 2.421875 -8.09375 L 4.71875 -8.09375 C 5.84375 -8.09375 6.359375 -7.609375 6.359375 -6.609375 Z M 6.359375 -6.609375 "/>
      </symbol>
      <symbol overflow="visible" id="dig-glyph1-9">
        <path style="stroke:none;" d="M 4.140625 -5.765625 L 4.140625 -6.9375 C 3.84375 -6.984375 3.75 -7 3.609375 -7 C 2.9375 -7 2.328125 -6.546875 1.71875 -5.578125 L 1.953125 -5.484375 L 1.953125 -6.8125 L 0.734375 -6.8125 L 0.734375 0 L 2.03125 0 L 2.03125 -3.53125 C 2.03125 -5 2.40625 -5.609375 4.140625 -5.640625 Z M 4.140625 -5.765625 "/>
      </symbol>
      <symbol overflow="visible" id="dig-glyph1-10">
        <path style="stroke:none;" d="M 6.5 -3.34375 C 6.5 -5.609375 5.28125 -7 3.40625 -7 C 1.5625 -7 0.3125 -5.59375 0.3125 -3.40625 C 0.3125 -1.203125 1.546875 0.1875 3.40625 0.1875 C 5.25 0.1875 6.5 -1.203125 6.5 -3.34375 Z M 5.15625 -3.359375 C 5.15625 -1.828125 4.5625 -1.03125 3.40625 -1.03125 C 2.25 -1.03125 1.65625 -1.8125 1.65625 -3.40625 C 1.65625 -4.96875 2.25 -5.78125 3.40625 -5.78125 C 4.59375 -5.78125 5.15625 -4.984375 5.15625 -3.359375 Z M 5.15625 -3.359375 "/>
      </symbol>
      <symbol overflow="visible" id="dig-glyph1-11">
        <path style="stroke:none;" d="M 6.65625 -3.46875 C 6.65625 -5.59375 5.46875 -7 3.734375 -7 C 2.84375 -7 2.09375 -6.609375 1.609375 -5.875 L 1.84375 -5.78125 L 1.84375 -9.375 L 0.53125 -9.375 L 0.53125 0 L 1.734375 0 L 1.734375 -1.0625 L 1.515625 -0.96875 C 2.015625 -0.21875 2.78125 0.1875 3.6875 0.1875 C 5.40625 0.1875 6.65625 -1.34375 6.65625 -3.46875 Z M 5.3125 -3.40625 C 5.3125 -1.921875 4.671875 -1.046875 3.53125 -1.046875 C 2.4375 -1.046875 1.84375 -1.90625 1.84375 -3.40625 C 1.84375 -4.9375 2.4375 -5.8125 3.53125 -5.765625 C 4.703125 -5.765625 5.3125 -4.875 5.3125 -3.40625 Z M 5.3125 -3.40625 "/>
      </symbol>
      <symbol overflow="visible" id="dig-glyph1-12">
        <path style="stroke:none;" d="M 6.53125 -3.09375 C 6.53125 -4.046875 6.46875 -4.65625 6.28125 -5.140625 C 5.84375 -6.21875 4.71875 -7 3.5 -7 C 1.671875 -7 0.359375 -5.515625 0.359375 -3.359375 C 0.359375 -1.21875 1.640625 0.1875 3.46875 0.1875 C 4.96875 0.1875 6.140625 -0.78125 6.421875 -2.25 L 5.125 -2.25 C 4.796875 -1.25 4.34375 -1.03125 3.515625 -1.03125 C 2.421875 -1.03125 1.734375 -1.59375 1.71875 -2.96875 L 6.53125 -2.96875 Z M 5.390625 -3.9375 C 5.390625 -3.9375 5.203125 -4.0625 5.21875 -4.09375 L 1.75 -4.09375 C 1.828125 -5.109375 2.4375 -5.78125 3.484375 -5.78125 C 4.515625 -5.78125 5.15625 -5.046875 5.15625 -4.03125 Z M 5.390625 -3.9375 "/>
      </symbol>
      <symbol overflow="visible" id="dig-glyph1-13">
        <path style="stroke:none;" d="M 8.203125 -0.125 L 8.203125 -9.375 L 6.84375 -9.375 L 6.84375 -1.78125 L 7.0625 -1.875 L 2.28125 -9.375 L 0.8125 -9.375 L 0.8125 0 L 2.171875 0 L 2.171875 -7.515625 L 1.953125 -7.421875 L 6.6875 0 L 8.203125 0 Z M 8.203125 -0.125 "/>
      </symbol>
      <symbol overflow="visible" id="dig-glyph1-14">
        <path style="stroke:none;" d="M 6.15625 -0.125 L 6.15625 -6.8125 L 4.84375 -6.8125 L 4.84375 -3.0625 C 4.84375 -1.71875 4.28125 -0.984375 3.203125 -0.984375 C 2.375 -0.984375 1.96875 -1.34375 1.96875 -2.140625 L 1.96875 -6.8125 L 0.671875 -6.8125 L 0.671875 -1.71875 C 0.671875 -0.640625 1.625 0.1875 2.90625 0.1875 C 3.859375 0.1875 4.5625 -0.1875 5.171875 -1.046875 L 4.953125 -1.140625 L 4.953125 0 L 6.15625 0 Z M 6.15625 -0.125 "/>
      </symbol>
      <symbol overflow="visible" id="dig-glyph1-15">
        <path style="stroke:none;" d="M 9.625 -0.125 L 9.625 -5.03125 C 9.625 -6.21875 8.84375 -7 7.625 -7 C 6.75 -7 6.125 -6.6875 5.625 -6.09375 C 5.3125 -6.65625 4.703125 -7 3.84375 -7 C 2.96875 -7 2.296875 -6.625 1.734375 -5.84375 L 1.96875 -5.75 L 1.96875 -6.8125 L 0.75 -6.8125 L 0.75 0 L 2.046875 0 L 2.046875 -4.234375 C 2.046875 -5.1875 2.609375 -5.828125 3.46875 -5.828125 C 4.234375 -5.828125 4.53125 -5.46875 4.53125 -4.640625 L 4.53125 0 L 5.84375 0 L 5.84375 -4.234375 C 5.84375 -5.1875 6.40625 -5.828125 7.265625 -5.828125 C 8.03125 -5.828125 8.328125 -5.46875 8.328125 -4.640625 L 8.328125 0 L 9.625 0 Z M 9.625 -0.125 "/>
      </symbol>
      <symbol overflow="visible" id="dig-glyph1-16">
        <path style="stroke:none;" d="M 6.46875 -4.390625 C 6.46875 -7.46875 5.359375 -9.125 3.4375 -9.125 C 1.53125 -9.125 0.40625 -7.4375 0.40625 -4.46875 C 0.40625 -1.46875 1.53125 0.1875 3.4375 0.1875 C 5.3125 0.1875 6.46875 -1.46875 6.46875 -4.390625 Z M 5.078125 -4.484375 C 5.078125 -1.96875 4.640625 -0.984375 3.40625 -0.984375 C 2.25 -0.984375 1.78125 -2.03125 1.78125 -4.453125 C 1.78125 -6.875 2.25 -7.890625 3.4375 -7.890625 C 4.625 -7.890625 5.078125 -6.859375 5.078125 -4.484375 Z M 5.078125 -4.484375 "/>
      </symbol>
      <symbol overflow="visible" id="dig-glyph1-17">
        <path style="stroke:none;" d="M 4.46875 -0.125 L 4.46875 -9.125 L 3.515625 -9.125 C 3.09375 -7.625 2.96875 -7.578125 1.140625 -7.34375 L 1.140625 -6.3125 L 3.09375 -6.3125 L 3.09375 0 L 4.46875 0 Z M 4.46875 -0.125 "/>
      </symbol>
      <symbol overflow="visible" id="dig-glyph2-0">
        <path style="stroke:none;" d=""/>
      </symbol>
      <symbol overflow="visible" id="dig-glyph2-1">
        <path style="stroke:none;" d="M -0.125 -9.640625 L -9.375 -9.640625 L -9.375 -7.796875 L -1.296875 -5.109375 L -1.296875 -5.375 L -9.375 -2.625 L -9.375 -0.796875 L 0 -0.796875 L 0 -2.15625 L -7.765625 -2.15625 L -7.765625 -1.90625 L 0 -4.53125 L 0 -5.9375 L -7.765625 -8.53125 L -7.765625 -8.28125 L 0 -8.28125 L 0 -9.640625 Z M -0.125 -9.640625 "/>
      </symbol>
      <symbol overflow="visible" id="dig-glyph2-2">
        <path style="stroke:none;" d="M -3.09375 -6.53125 C -4.046875 -6.53125 -4.65625 -6.46875 -5.140625 -6.28125 C -6.21875 -5.84375 -7 -4.71875 -7 -3.5 C -7 -1.671875 -5.515625 -0.359375 -3.359375 -0.359375 C -1.21875 -0.359375 0.1875 -1.640625 0.1875 -3.46875 C 0.1875 -4.96875 -0.78125 -6.140625 -2.25 -6.421875 L -2.25 -5.125 C -1.25 -4.796875 -1.03125 -4.34375 -1.03125 -3.515625 C -1.03125 -2.421875 -1.59375 -1.734375 -2.96875 -1.71875 L -2.96875 -6.53125 Z M -3.9375 -5.390625 C -3.9375 -5.390625 -4.0625 -5.203125 -4.09375 -5.21875 L -4.09375 -1.75 C -5.109375 -1.828125 -5.78125 -2.4375 -5.78125 -3.484375 C -5.78125 -4.515625 -5.046875 -5.15625 -4.03125 -5.15625 Z M -3.9375 -5.390625 "/>
      </symbol>
      <symbol overflow="visible" id="dig-glyph2-3">
        <path style="stroke:none;" d="M -0.15625 -6.8125 L -1.09375 -6.8125 C -1.046875 -6.578125 -1.046875 -6.53125 -1.046875 -6.46875 C -1.046875 -6.09375 -1.09375 -6.03125 -1.421875 -6.03125 L -5.078125 -6.03125 C -6.234375 -6.03125 -7 -5.046875 -7 -3.4375 C -7 -1.84375 -6.25 -0.734375 -4.609375 -0.65625 L -4.609375 -1.96875 C -5.53125 -2.078125 -5.78125 -2.421875 -5.78125 -3.40625 C -5.78125 -4.34375 -5.546875 -4.71875 -4.921875 -4.71875 L -4.65625 -4.71875 C -4.21875 -4.71875 -4.15625 -4.59375 -4.0625 -3.78125 C -3.875 -2.296875 -3.828125 -2.078125 -3.65625 -1.671875 C -3.34375 -0.90625 -2.625 -0.390625 -1.828125 -0.390625 C -0.640625 -0.390625 0.1875 -1.34375 0.1875 -2.671875 C 0.1875 -3.515625 -0.203125 -4.40625 -0.640625 -4.828125 C -0.40625 -4.875 0.09375 -5.46875 0.09375 -5.96875 C 0.09375 -6.1875 0.0625 -6.34375 -0.046875 -6.8125 Z M -2.390625 -4.71875 C -1.453125 -4.71875 -0.984375 -3.90625 -0.984375 -2.90625 C -0.984375 -2.09375 -1.140625 -1.734375 -1.84375 -1.734375 C -2.53125 -1.734375 -2.71875 -2.078125 -2.875 -3.1875 C -3.03125 -4.28125 -3.078125 -4.515625 -3.171875 -4.71875 Z M -2.390625 -4.71875 "/>
      </symbol>
      <symbol overflow="visible" id="dig-glyph2-4">
        <path style="stroke:none;" d="M -0.125 -6.21875 L -5.078125 -6.21875 C -6.15625 -6.21875 -7 -5.28125 -7 -4.015625 C -7 -3.03125 -6.578125 -2.3125 -5.65625 -1.734375 L -5.578125 -1.96875 L -6.8125 -1.96875 L -6.8125 -0.734375 L 0 -0.734375 L 0 -2.03125 L -3.734375 -2.03125 C -5.078125 -2.03125 -5.828125 -2.640625 -5.828125 -3.703125 C -5.828125 -4.53125 -5.453125 -4.90625 -4.65625 -4.90625 L 0 -4.90625 L 0 -6.21875 Z M -0.125 -6.21875 "/>
      </symbol>
      <symbol overflow="visible" id="dig-glyph2-5">
        <path style="stroke:none;" d=""/>
      </symbol>
      <symbol overflow="visible" id="dig-glyph2-6">
        <path style="stroke:none;" d="M -0.125 -2.53125 L -9.375 -2.53125 L -9.375 -1.109375 L 0 -1.109375 L 0 -2.53125 Z M -0.125 -2.53125 "/>
      </symbol>
      <symbol overflow="visible" id="dig-glyph2-7">
        <path style="stroke:none;" d="M -0.125 -3.296875 L -1.171875 -3.296875 C -1.09375 -3.03125 -1.09375 -2.875 -1.09375 -2.671875 C -1.09375 -2.21875 -1.078125 -2.21875 -1.53125 -2.21875 L -5.703125 -2.21875 L -5.703125 -3.296875 L -6.8125 -3.296875 L -6.8125 -2.21875 L -8.609375 -2.21875 L -8.609375 -0.921875 L -6.8125 -0.921875 L -6.8125 -0.03125 L -5.703125 -0.03125 L -5.703125 -0.921875 L -1.078125 -0.921875 C -0.40625 -0.921875 0.09375 -1.515625 0.09375 -2.328125 C 0.09375 -2.578125 0.0625 -2.828125 -0.015625 -3.296875 Z M -0.125 -3.296875 "/>
      </symbol>
      <symbol overflow="visible" id="dig-glyph2-8">
        <path style="stroke:none;" d="M -1.96875 -5.859375 C -2.9375 -5.859375 -3.5625 -5.1875 -3.875 -3.890625 L -4.109375 -2.890625 C -4.3125 -2.03125 -4.453125 -1.796875 -4.90625 -1.796875 C -5.515625 -1.796875 -5.78125 -2.21875 -5.78125 -3.0625 C -5.78125 -3.90625 -5.53125 -4.21875 -4.71875 -4.234375 L -4.71875 -5.59375 C -6.140625 -5.59375 -7 -4.609375 -7 -3.09375 C -7 -1.578125 -6.078125 -0.453125 -4.859375 -0.453125 C -3.84375 -0.453125 -3.21875 -1.109375 -2.84375 -2.65625 L -2.609375 -3.640625 C -2.4375 -4.359375 -2.34375 -4.515625 -1.875 -4.515625 C -1.265625 -4.515625 -1.03125 -4.03125 -1.03125 -3.125 C -1.03125 -2.1875 -1.125 -1.78125 -2.265625 -1.640625 L -2.265625 -0.28125 C -0.609375 -0.34375 0.1875 -1.328125 0.1875 -3.03125 C 0.1875 -4.6875 -0.703125 -5.859375 -1.96875 -5.859375 Z M -1.96875 -5.859375 "/>
      </symbol>
      <symbol overflow="visible" id="dig-glyph2-9">
        <path style="stroke:none;" d="M -0.125 -2.03125 L -6.8125 -2.03125 L -6.8125 -0.734375 L 0 -0.734375 L 0 -2.03125 Z M -7.65625 -2.171875 L -9.09375 -2.171875 L -9.09375 -0.609375 L -7.53125 -0.609375 L -7.53125 -2.171875 Z M -7.65625 -2.171875 "/>
      </symbol>
      <symbol overflow="visible" id="dig-glyph2-10">
        <path style="stroke:none;" d="M -6.8125 -5.96875 L -6.8125 -4.765625 L -1.578125 -2.90625 L -1.578125 -3.15625 L -6.8125 -1.453125 L -6.8125 -0.0625 L -0.09375 -2.328125 L 0.9375 -1.921875 C 1.40625 -1.75 1.4375 -1.671875 1.4375 -1.21875 C 1.4375 -1.078125 1.40625 -0.90625 1.34375 -0.53125 L 2.515625 -0.53125 C 2.640625 -0.78125 2.71875 -1.09375 2.71875 -1.375 C 2.71875 -2.109375 2.1875 -2.84375 1.25 -3.1875 L -6.8125 -6.15625 Z M -6.8125 -5.96875 "/>
      </symbol>
      <symbol overflow="visible" id="dig-glyph2-11">
        <path style="stroke:none;" d="M -0.125 -2.515625 L -1.5625 -2.515625 L -1.5625 -0.953125 L 0 -0.953125 L 0 -2.515625 Z M -5.375 -2.515625 L -6.8125 -2.515625 L -6.8125 -0.953125 L -5.25 -0.953125 L -5.25 -2.515625 Z M -5.375 -2.515625 "/>
      </symbol>
      <symbol overflow="visible" id="dig-glyph2-12">
        <path style="stroke:none;" d="M -0.125 -6.203125 L -5.078125 -6.203125 C -6.171875 -6.203125 -7 -5.28125 -7 -4.015625 C -7 -3.09375 -6.65625 -2.421875 -5.859375 -1.8125 L -5.78125 -2.03125 L -9.375 -2.03125 L -9.375 -0.734375 L 0 -0.734375 L 0 -2.03125 L -3.734375 -2.03125 C -5.078125 -2.03125 -5.828125 -2.609375 -5.828125 -3.6875 C -5.828125 -4.421875 -5.53125 -4.90625 -4.65625 -4.90625 L 0 -4.90625 L 0 -6.203125 Z M -0.125 -6.203125 "/>
      </symbol>
      <symbol overflow="visible" id="dig-glyph2-13">
        <path style="stroke:none;" d="M -5.828125 -3.34375 L -6.8125 -3.34375 L -6.8125 -2.265625 L -7.703125 -2.265625 C -8.140625 -2.265625 -8.234375 -2.390625 -8.234375 -2.859375 C -8.234375 -2.953125 -8.234375 -2.984375 -8.21875 -3.34375 L -9.3125 -3.34375 C -9.40625 -2.984375 -9.40625 -2.84375 -9.40625 -2.640625 C -9.40625 -1.671875 -8.71875 -0.96875 -7.78125 -0.96875 L -6.8125 -0.96875 L -6.8125 -0.09375 L -5.703125 -0.09375 L -5.703125 -0.96875 L 0 -0.96875 L 0 -2.265625 L -5.703125 -2.265625 L -5.703125 -3.34375 Z M -5.828125 -3.34375 "/>
      </symbol>
      <symbol overflow="visible" id="dig-glyph2-14">
        <path style="stroke:none;" d="M -0.125 -6.3125 L -9.375 -6.3125 L -9.375 -5.015625 L -5.84375 -5.015625 L -5.9375 -5.234375 C -6.59375 -4.796875 -7 -4.015625 -7 -3.140625 C -7 -1.4375 -5.546875 -0.1875 -3.46875 -0.1875 C -1.25 -0.1875 0.1875 -1.40625 0.1875 -3.171875 C 0.1875 -4.078125 -0.1875 -4.78125 -1 -5.34375 L -1.09375 -5.125 L 0 -5.125 L 0 -6.3125 Z M -3.375 -5.015625 C -1.859375 -5.015625 -1.046875 -4.421875 -1.046875 -3.328125 C -1.046875 -2.171875 -1.875 -1.53125 -3.40625 -1.53125 C -4.921875 -1.53125 -5.765625 -2.171875 -5.765625 -3.3125 C -5.765625 -4.4375 -4.890625 -5.015625 -3.375 -5.015625 Z M -3.375 -5.015625 "/>
      </symbol>
      <symbol overflow="visible" id="dig-glyph2-15">
        <path style="stroke:none;" d="M -2.515625 -5.96875 L -2.515625 -4.796875 C -1.328125 -4.59375 -1.03125 -4.203125 -1.03125 -3.3125 C -1.03125 -2.15625 -1.78125 -1.59375 -3.34375 -1.59375 C -4.96875 -1.59375 -5.78125 -2.15625 -5.78125 -3.28125 C -5.78125 -4.15625 -5.390625 -4.578125 -4.34375 -4.71875 L -4.34375 -6.03125 C -6.078125 -5.890625 -7 -4.765625 -7 -3.296875 C -7 -1.53125 -5.515625 -0.25 -3.34375 -0.25 C -1.21875 -0.25 0.1875 -1.515625 0.1875 -3.28125 C 0.1875 -4.84375 -0.875 -5.96875 -2.515625 -6.09375 Z M -2.515625 -5.96875 "/>
      </symbol>
      <symbol overflow="visible" id="dig-glyph2-16">
        <path style="stroke:none;" d="M -0.125 -2.015625 L -9.375 -2.015625 L -9.375 -0.71875 L 0 -0.71875 L 0 -2.015625 Z M -0.125 -2.015625 "/>
      </symbol>
      <symbol overflow="visible" id="dig-glyph2-17">
        <path style="stroke:none;" d="M -4.390625 -6.46875 C -7.46875 -6.46875 -9.125 -5.359375 -9.125 -3.4375 C -9.125 -1.53125 -7.4375 -0.40625 -4.46875 -0.40625 C -1.46875 -0.40625 0.1875 -1.53125 0.1875 -3.4375 C 0.1875 -5.3125 -1.46875 -6.46875 -4.390625 -6.46875 Z M -4.484375 -5.078125 C -1.96875 -5.078125 -0.984375 -4.640625 -0.984375 -3.40625 C -0.984375 -2.25 -2.03125 -1.78125 -4.453125 -1.78125 C -6.875 -1.78125 -7.890625 -2.25 -7.890625 -3.4375 C -7.890625 -4.625 -6.859375 -5.078125 -4.484375 -5.078125 Z M -4.484375 -5.078125 "/>
      </symbol>
      <symbol overflow="visible" id="dig-glyph2-18">
        <path style="stroke:none;" d="M -2.25 -6.625 L -3.375 -6.625 L -3.375 -5.3125 L -9.125 -5.3125 L -9.125 -4.296875 L -3.453125 -0.21875 L -2.125 -0.21875 L -2.125 -3.953125 L 0 -3.953125 L 0 -5.3125 L -2.125 -5.3125 L -2.125 -6.625 Z M -3.375 -4.09375 L -3.375 -1.5625 L -7.03125 -4.171875 L -7.109375 -3.953125 L -3.375 -3.953125 Z M -3.375 -4.09375 "/>
      </symbol>
      <symbol overflow="visible" id="dig-glyph2-19">
        <path style="stroke:none;" d="M -2.625 -6.53125 C -3.609375 -6.53125 -4.4375 -5.90625 -4.796875 -5.140625 C -5.25 -5.890625 -5.78125 -6.21875 -6.625 -6.21875 C -8.015625 -6.21875 -9.125 -5.015625 -9.125 -3.4375 C -9.125 -1.875 -8.015625 -0.640625 -6.625 -0.640625 C -5.796875 -0.640625 -5.265625 -0.96875 -4.796875 -1.71875 C -4.4375 -0.96875 -3.609375 -0.328125 -2.640625 -0.328125 C -1.015625 -0.328125 0.1875 -1.6875 0.1875 -3.4375 C 0.1875 -5.1875 -1.015625 -6.53125 -2.625 -6.53125 Z M -6.59375 -4.84375 C -5.78125 -4.84375 -5.359375 -4.359375 -5.359375 -3.4375 C -5.359375 -2.515625 -5.78125 -2.03125 -6.609375 -2.03125 C -7.46875 -2.03125 -7.890625 -2.515625 -7.890625 -3.4375 C -7.890625 -4.375 -7.46875 -4.84375 -6.59375 -4.84375 Z M -2.609375 -5.15625 C -1.5625 -5.15625 -1.046875 -4.53125 -1.046875 -3.40625 C -1.046875 -2.34375 -1.578125 -1.71875 -2.609375 -1.71875 C -3.65625 -1.71875 -4.171875 -2.34375 -4.171875 -3.4375 C -4.171875 -4.53125 -3.65625 -5.15625 -2.609375 -5.15625 Z M -2.609375 -5.15625 "/>
      </symbol>
    </g>
  </defs>
  <g id="surface652">
    <g style="fill:rgb(0%,0%,0%);fill-opacity:1;">
      <use xlink:href="#dig-glyph0-1" x="117.796875" y="35.089844"/>
      <use xlink:href="#dig-glyph0-2" x="128.559128" y="35.089844"/>
      <use xlink:href="#dig-glyph0-3" x="139.321381" y="35.089844"/>
      <use xlink:href="#dig-glyph0-4" x="150.083633" y="35.089844"/>
      <use xlink:href="#dig-glyph0-5" x="154.227554" y="35.089844"/>
      <use xlink:href="#dig-glyph0-6" x="163.33522" y="35.089844"/>
      <use xlink:href="#dig-glyph0-7" x="171.623047" y="35.089844"/>
      <use xlink:href="#dig-glyph0-8" x="180.730713" y="35.089844"/>
      <use xlink:href="#dig-glyph0-9" x="186.529205" y="35.089844"/>
      <use xlink:href="#dig-glyph0-5" x="194.817032" y="35.089844"/>
      <use xlink:href="#dig-glyph0-9" x="203.924698" y="35.089844"/>
      <use xlink:href="#dig-glyph0-10" x="212.212524" y="35.089844"/>
      <use xlink:href="#dig-glyph0-11" x="217.176285" y="35.089844"/>
      <use xlink:href="#dig-glyph0-12" x="221.320206" y="35.089844"/>
      <use xlink:href="#dig-glyph0-13" x="230.427872" y="35.089844"/>
      <use xlink:href="#dig-glyph0-4" x="239.535538" y="35.089844"/>
      <use xlink:href="#dig-glyph0-14" x="243.679459" y="35.089844"/>
      <use xlink:href="#dig-glyph0-15" x="252.787125" y="35.089844"/>
      <use xlink:href="#dig-glyph0-12" x="256.931046" y="35.089844"/>
      <use xlink:href="#dig-glyph0-10" x="266.038712" y="35.089844"/>
    </g>
    <g style="fill:rgb(0%,0%,0%);fill-opacity:1;">
      <use xlink:href="#dig-glyph1-1" x="163.878906" y="220.320312"/>
      <use xlink:href="#dig-glyph1-2" x="170.828934" y="220.320312"/>
      <use xlink:href="#dig-glyph1-3" x="173.216446" y="220.320312"/>
      <use xlink:href="#dig-glyph1-4" x="176.691452" y="220.320312"/>
      <use xlink:href="#dig-glyph1-5" x="183.991486" y="220.320312"/>
      <use xlink:href="#dig-glyph1-5" x="188.154007" y="220.320312"/>
      <use xlink:href="#dig-glyph1-5" x="192.316528" y="220.320312"/>
      <use xlink:href="#dig-glyph1-5" x="196.47905" y="220.320312"/>
      <use xlink:href="#dig-glyph1-5" x="200.641571" y="220.320312"/>
      <use xlink:href="#dig-glyph1-6" x="204.804092" y="220.320312"/>
      <use xlink:href="#dig-glyph1-3" x="212.104126" y="220.320312"/>
      <use xlink:href="#dig-glyph1-7" x="215.579132" y="220.320312"/>
      <use xlink:href="#dig-glyph1-2" x="222.52916" y="220.320312"/>
    </g>
    <g style="fill:rgb(0%,0%,0%);fill-opacity:1;">
      <use xlink:href="#dig-glyph1-3" x="150.285156" y="234.71875"/>
      <use xlink:href="#dig-glyph1-8" x="153.760162" y="234.71875"/>
      <use xlink:href="#dig-glyph1-9" x="162.097687" y="234.71875"/>
      <use xlink:href="#dig-glyph1-10" x="166.260208" y="234.71875"/>
      <use xlink:href="#dig-glyph1-11" x="173.210236" y="234.71875"/>
      <use xlink:href="#dig-glyph1-12" x="180.160263" y="234.71875"/>
      <use xlink:href="#dig-glyph1-3" x="187.110291" y="234.71875"/>
      <use xlink:href="#dig-glyph1-13" x="190.585297" y="234.71875"/>
      <use xlink:href="#dig-glyph1-14" x="199.610336" y="234.71875"/>
      <use xlink:href="#dig-glyph1-15" x="206.560364" y="234.71875"/>
      <use xlink:href="#dig-glyph1-11" x="216.9729" y="234.71875"/>
      <use xlink:href="#dig-glyph1-12" x="223.922928" y="234.71875"/>
      <use xlink:href="#dig-glyph1-9" x="230.872955" y="234.71875"/>
      <use xlink:href="#dig-glyph1-3" x="235.035477" y="234.71875"/>
    </g>
    <g style="fill:rgb(0%,0%,0%);fill-opacity:1;">
      <use xlink:href="#dig-glyph2-1" x="14.398438" y="215.03125"/>
      <use xlink:href="#dig-glyph2-2" x="14.398438" y="204.618713"/>
      <use xlink:href="#dig-glyph2-3" x="14.398438" y="197.668686"/>
      <use xlink:href="#dig-glyph2-4" x="14.398438" y="190.718658"/>
      <use xlink:href="#dig-glyph2-5" x="14.398438" y="183.768631"/>
      <use xlink:href="#dig-glyph2-6" x="14.398438" y="180.293625"/>
      <use xlink:href="#dig-glyph2-4" x="14.398438" y="176.818619"/>
      <use xlink:href="#dig-glyph2-7" x="14.398438" y="169.868591"/>
      <use xlink:href="#dig-glyph2-2" x="14.398438" y="166.393585"/>
      <use xlink:href="#dig-glyph2-4" x="14.398438" y="159.443558"/>
      <use xlink:href="#dig-glyph2-8" x="14.398438" y="152.49353"/>
      <use xlink:href="#dig-glyph2-9" x="14.398438" y="146.2435"/>
      <use xlink:href="#dig-glyph2-7" x="14.398438" y="143.468491"/>
      <use xlink:href="#dig-glyph2-10" x="14.398438" y="139.993484"/>
      <use xlink:href="#dig-glyph2-5" x="14.398438" y="133.743454"/>
      <use xlink:href="#dig-glyph2-11" x="14.398438" y="130.268448"/>
      <use xlink:href="#dig-glyph2-5" x="14.398438" y="126.793442"/>
      <use xlink:href="#dig-glyph2-8" x="14.398438" y="123.318436"/>
      <use xlink:href="#dig-glyph2-12" x="14.398438" y="117.068405"/>
      <use xlink:href="#dig-glyph2-9" x="14.398438" y="110.118378"/>
      <use xlink:href="#dig-glyph2-13" x="14.398438" y="107.343369"/>
      <use xlink:href="#dig-glyph2-7" x="14.398438" y="103.868362"/>
      <use xlink:href="#dig-glyph2-2" x="14.398438" y="100.393356"/>
      <use xlink:href="#dig-glyph2-14" x="14.398438" y="93.443329"/>
      <use xlink:href="#dig-glyph2-5" x="14.398438" y="86.493301"/>
      <use xlink:href="#dig-glyph2-3" x="14.398438" y="83.018295"/>
      <use xlink:href="#dig-glyph2-4" x="14.398438" y="76.068268"/>
      <use xlink:href="#dig-glyph2-14" x="14.398438" y="69.11824"/>
      <use xlink:href="#dig-glyph2-5" x="14.398438" y="62.168213"/>
      <use xlink:href="#dig-glyph2-8" x="14.398438" y="58.693207"/>
      <use xlink:href="#dig-glyph2-15" x="14.398438" y="52.443176"/>
      <use xlink:href="#dig-glyph2-3" x="14.398438" y="46.193146"/>
      <use xlink:href="#dig-glyph2-16" x="14.398438" y="39.243118"/>
      <use xlink:href="#dig-glyph2-2" x="14.398438" y="36.468109"/>
      <use xlink:href="#dig-glyph2-14" x="14.398438" y="29.518082"/>
    </g>
    <path style="fill:none;stroke-width:1;stroke-linecap:round;stroke-linejoin:round;stroke:rgb(0%,0%,0%);stroke-opacity:1;stroke-miterlimit:10;" d="M 85.777344 178.558594 L 252.890625 178.558594 "/>
    <path style="fill:none;stroke-width:1;stroke-linecap:round;stroke-linejoin:round;stroke:rgb(0%,0%,0%);stroke-opacity:1;stroke-miterlimit:10;" d="M 85.777344 178.558594 L 85.777344 185.761719 "/>
    <path style="fill:none;stroke-width:1;stroke-linecap:round;stroke-linejoin:round;stroke:rgb(0%,0%,0%);stroke-opacity:1;stroke-miterlimit:10;" d="M 169.332031 178.558594 L 169.332031 185.761719 "/>
    <path style="fill:none;stroke-width:1;stroke-linecap:round;stroke-linejoin:round;stroke:rgb(0%,0%,0%);stroke-opacity:1;stroke-miterlimit:10;" d="M 252.890625 178.558594 L 252.890625 185.761719 "/>
    <g style="fill:rgb(0%,0%,0%);fill-opacity:1;">
      <use xlink:href="#dig-glyph1-16" x="82.300781" y="205.921875"/>
    </g>
    <g style="fill:rgb(0%,0%,0%);fill-opacity:1;">
      <use xlink:href="#dig-glyph1-1" x="165.855469" y="205.921875"/>
    </g>
    <g style="fill:rgb(0%,0%,0%);fill-opacity:1;">
      <use xlink:href="#dig-glyph1-17" x="245.941406" y="205.921875"/>
      <use xlink:href="#dig-glyph1-16" x="252.891434" y="205.921875"/>
    </g>
    <path style="fill:none;stroke-width:1;stroke-linecap:round;stroke-linejoin:round;stroke:rgb(0%,0%,0%);stroke-opacity:1;stroke-miterlimit:10;" d="M 59.039062 174.132812 L 59.039062 71.640625 "/>
    <path style="fill:none;stroke-width:1;stroke-linecap:round;stroke-linejoin:round;stroke:rgb(0%,0%,0%);stroke-opacity:1;stroke-miterlimit:10;" d="M 59.039062 174.132812 L 51.839844 174.132812 "/>
    <path style="fill:none;stroke-width:1;stroke-linecap:round;stroke-linejoin:round;stroke:rgb(0%,0%,0%);stroke-opacity:1;stroke-miterlimit:10;" d="M 59.039062 153.636719 L 51.839844 153.636719 "/>
    <path style="fill:none;stroke-width:1;stroke-linecap:round;stroke-linejoin:round;stroke:rgb(0%,0%,0%);stroke-opacity:1;stroke-miterlimit:10;" d="M 59.039062 133.136719 L 51.839844 133.136719 "/>
    <path style="fill:none;stroke-width:1;stroke-linecap:round;stroke-linejoin:round;stroke:rgb(0%,0%,0%);stroke-opacity:1;stroke-miterlimit:10;" d="M 59.039062 112.640625 L 51.839844 112.640625 "/>
    <path style="fill:none;stroke-width:1;stroke-linecap:round;stroke-linejoin:round;stroke:rgb(0%,0%,0%);stroke-opacity:1;stroke-miterlimit:10;" d="M 59.039062 92.140625 L 51.839844 92.140625 "/>
    <path style="fill:none;stroke-width:1;stroke-linecap:round;stroke-linejoin:round;stroke:rgb(0%,0%,0%);stroke-opacity:1;stroke-miterlimit:10;" d="M 59.039062 71.640625 L 51.839844 71.640625 "/>
    <g style="fill:rgb(0%,0%,0%);fill-opacity:1;">
      <use xlink:href="#dig-glyph2-17" x="43.199219" y="177.609375"/>
    </g>
    <g style="fill:rgb(0%,0%,0%);fill-opacity:1;">
      <use xlink:href="#dig-glyph2-18" x="43.199219" y="140.085938"/>
      <use xlink:href="#dig-glyph2-17" x="43.199219" y="133.13591"/>
    </g>
    <g style="fill:rgb(0%,0%,0%);fill-opacity:1;">
      <use xlink:href="#dig-glyph2-19" x="43.199219" y="99.089844"/>
      <use xlink:href="#dig-glyph2-17" x="43.199219" y="92.139816"/>
    </g>
    <path d="M 85.777344 173.109375 L 102.488281 170.421875 L 119.199219 168.601562 L 135.910156 168.039062 L 152.621094 166.109375 L 169.332031 164.070312 L 186.042969 163.210938 L 202.753906 161.480469 L 219.464844 160.925781 L 236.179688 158.335938 L 252.890625 155.839844 L 269.601562 153.507812 L 286.3125 151.574219 L 303.023438 151.289062 " class="aqm1" onclick="plotObjRespond('click', 1, 'dig')" onmouseover="plotObjRespond('show', 1, 'dig')" onmouseout="plotObjRespond('hide', 1, 'dig')" fill="none" stroke-width="1" stroke-linecap="round" stroke-linejoin="round" stroke="rgb(12.156863%,47.058824%,70.588235%)" stroke-opacity="1" stroke-miterlimit="10"/>
    <path d="M 85.777344 172.082031 L 102.488281 169.339844 L 119.199219 167.21875 L 135.910156 166.625 L 152.621094 164.84375 L 169.332031 162.941406 L 186.042969 162.253906 L 202.753906 160.394531 L 219.464844 159.972656 L 236.179688 157.351562 L 252.890625 155.210938 L 269.601562 152.683594 L 286.3125 150.859375 L 303.023438 150.953125 " class="aqm2" onclick="plotObjRespond('click', 2, 'dig')" onmouseover="plotObjRespond('show', 2, 'dig')" onmouseout="plotObjRespond('hide', 2, 'dig')" fill="none" stroke-width="1" stroke-linecap="round" stroke-linejoin="round" stroke="rgb(12.156863%,47.058824%,70.588235%)" stroke-opacity="1" stroke-miterlimit="10"/>
    <path d="M 85.777344 171.058594 L 102.488281 168.125 L 119.199219 166.3125 L 135.910156 165.296875 L 152.621094 163.492188 L 169.332031 161.515625 L 186.042969 160.667969 L 202.753906 158.871094 L 219.464844 157.953125 L 236.179688 155.507812 L 252.890625 153.1875 L 269.601562 150.292969 L 286.3125 148.5 L 303.023438 148.15625 " class="aqm3" onclick="plotObjRespond('click', 3, 'dig')" onmouseover="plotObjRespond('show', 3, 'dig')" onmouseout="plotObjRespond('hide', 3, 'dig')" fill="none" stroke-width="1" stroke-linecap="round" stroke-linejoin="round" stroke="rgb(12.156863%,47.058824%,70.588235%)" stroke-opacity="1" stroke-miterlimit="10"/>
    <path d="M 85.777344 170.035156 L 102.488281 167.390625 L 119.199219 165.234375 L 135.910156 164.363281 L 152.621094 162.433594 L 169.332031 160.390625 L 186.042969 159.640625 L 202.753906 157.757812 L 219.464844 157.292969 L 236.179688 154.757812 L 252.890625 152.617188 L 269.601562 150.125 L 286.3125 148.445312 L 303.023438 148.511719 " class="aqm4" onclick="plotObjRespond('click', 4, 'dig')" onmouseover="plotObjRespond('show', 4, 'dig')" onmouseout="plotObjRespond('hide', 4, 'dig')" fill="none" stroke-width="1" stroke-linecap="round" stroke-linejoin="round" stroke="rgb(12.156863%,47.058824%,70.588235%)" stroke-opacity="1" stroke-miterlimit="10"/>
    <path d="M 85.777344 169.007812 L 102.488281 166.804688 L 119.199219 164.761719 L 135.910156 164.253906 L 152.621094 163.3125 L 169.332031 161.480469 L 186.042969 160.835938 L 202.753906 159.046875 L 219.464844 158.984375 L 236.179688 155.546875 L 252.890625 154.457031 L 269.601562 152.503906 L 286.3125 150.683594 L 303.023438 150.113281 " class="aqm5" onclick="plotObjRespond('click', 5, 'dig')" onmouseover="plotObjRespond('show', 5, 'dig')" onmouseout="plotObjRespond('hide', 5, 'dig')" fill="none" stroke-width="1" stroke-linecap="round" stroke-linejoin="round" stroke="rgb(12.156863%,47.058824%,70.588235%)" stroke-opacity="1" stroke-miterlimit="10"/>
    <path d="M 85.777344 167.984375 L 102.488281 165.808594 L 119.199219 163.917969 L 135.910156 163.433594 L 152.621094 162.375 L 169.332031 160.605469 L 186.042969 159.800781 L 202.753906 157.964844 L 219.464844 158.003906 L 236.179688 155.050781 L 252.890625 153.730469 L 269.601562 151.671875 L 286.3125 150.132812 L 303.023438 150.023438 " class="aqm6" onclick="plotObjRespond('click', 6, 'dig')" onmouseover="plotObjRespond('show', 6, 'dig')" onmouseout="plotObjRespond('hide', 6, 'dig')" fill="none" stroke-width="1" stroke-linecap="round" stroke-linejoin="round" stroke="rgb(12.156863%,47.058824%,70.588235%)" stroke-opacity="1" stroke-miterlimit="10"/>
    <path d="M 85.777344 166.957031 L 102.488281 164.675781 L 119.199219 162.804688 L 135.910156 162.484375 L 152.621094 161.25 L 169.332031 159.734375 L 186.042969 158.847656 L 202.753906 157.339844 L 219.464844 156.949219 L 236.179688 154.070312 L 252.890625 152.980469 L 269.601562 150.996094 L 286.3125 149.648438 L 303.023438 149.417969 " class="aqm7" onclick="plotObjRespond('click', 7, 'dig')" onmouseover="plotObjRespond('show', 7, 'dig')" onmouseout="plotObjRespond('hide', 7, 'dig')" fill="none" stroke-width="1" stroke-linecap="round" stroke-linejoin="round" stroke="rgb(12.156863%,47.058824%,70.588235%)" stroke-opacity="1" stroke-miterlimit="10"/>
    <path d="M 85.777344 165.933594 L 102.488281 163.542969 L 119.199219 161.597656 L 135.910156 160.988281 L 152.621094 159.835938 L 169.332031 157.925781 L 186.042969 157.128906 L 202.753906 155.292969 L 219.464844 155.074219 L 236.179688 151.9375 L 252.890625 150.882812 L 269.601562 148.777344 L 286.3125 147.316406 L 303.023438 146.859375 " class="aqm8" onclick="plotObjRespond('click', 8, 'dig')" onmouseover="plotObjRespond('show', 8, 'dig')" onmouseout="plotObjRespond('hide', 8, 'dig')" fill="none" stroke-width="1" stroke-linecap="round" stroke-linejoin="round" stroke="rgb(12.156863%,47.058824%,70.588235%)" stroke-opacity="1" stroke-miterlimit="10"/>
    <path d="M 85.777344 164.910156 L 102.488281 162.882812 L 119.199219 160.734375 L 135.910156 159.316406 L 152.621094 157.859375 L 169.332031 155.4375 L 186.042969 154.070312 L 202.753906 152.351562 L 219.464844 152.125 L 236.179688 150.085938 L 252.890625 148.707031 L 269.601562 147.652344 L 286.3125 146.929688 L 303.023438 146.8125 " class="aqm9" onclick="plotObjRespond('click', 9, 'dig')" onmouseover="plotObjRespond('show', 9, 'dig')" onmouseout="plotObjRespond('hide', 9, 'dig')" fill="none" stroke-width="1" stroke-linecap="round" stroke-linejoin="round" stroke="rgb(12.156863%,47.058824%,70.588235%)" stroke-opacity="1" stroke-miterlimit="10"/>
    <path d="M 85.777344 163.882812 L 102.488281 161.398438 L 119.199219 159.25 L 135.910156 157.839844 L 152.621094 156.460938 L 169.332031 153.96875 L 186.042969 152.273438 L 202.753906 150.359375 L 219.464844 150.113281 L 236.179688 147.734375 L 252.890625 146.386719 L 269.601562 145 L 286.3125 144.117188 L 303.023438 143.785156 " class="aqm10" onclick="plotObjRespond('click', 10, 'dig')" onmouseover="plotObjRespond('show', 10, 'dig')" onmouseout="plotObjRespond('hide', 10, 'dig')" fill="none" stroke-width="1" stroke-linecap="round" stroke-linejoin="round" stroke="rgb(12.156863%,47.058824%,70.588235%)" stroke-opacity="1" stroke-miterlimit="10"/>
    <path d="M 85.777344 162.859375 L 102.488281 160.542969 L 119.199219 158.476562 L 135.910156 156.917969 L 152.621094 155.296875 L 169.332031 152.765625 L 186.042969 151.15625 L 202.753906 149.597656 L 219.464844 148.945312 L 236.179688 146.714844 L 252.890625 145.3125 L 269.601562 144.199219 L 286.3125 142.949219 L 303.023438 142.949219 " class="aqm11" onclick="plotObjRespond('click', 11, 'dig')" onmouseover="plotObjRespond('show', 11, 'dig')" onmouseout="plotObjRespond('hide', 11, 'dig')" fill="none" stroke-width="1" stroke-linecap="round" stroke-linejoin="round" stroke="rgb(12.156863%,47.058824%,70.588235%)" stroke-opacity="1" stroke-miterlimit="10"/>
    <path d="M 85.777344 161.835938 L 102.488281 159.425781 L 119.199219 157.136719 L 135.910156 155.703125 L 152.621094 153.648438 L 169.332031 151.136719 L 186.042969 149.414062 L 202.753906 147.265625 L 219.464844 146.546875 L 236.179688 144.203125 L 252.890625 142.746094 L 269.601562 141.335938 L 286.3125 140.453125 L 303.023438 139.792969 " class="aqm12" onclick="plotObjRespond('click', 12, 'dig')" onmouseover="plotObjRespond('show', 12, 'dig')" onmouseout="plotObjRespond('hide', 12, 'dig')" fill="none" stroke-width="1" stroke-linecap="round" stroke-linejoin="round" stroke="rgb(12.156863%,47.058824%,70.588235%)" stroke-opacity="1" stroke-miterlimit="10"/>
    <path d="M 85.777344 160.808594 L 102.488281 158.527344 L 119.199219 156.09375 L 135.910156 154.765625 L 152.621094 152.894531 L 169.332031 150.429688 L 186.042969 148.765625 L 202.753906 147.335938 L 219.464844 146.414062 L 236.179688 143.53125 L 252.890625 141.132812 L 269.601562 139.503906 L 286.3125 138.011719 L 303.023438 138.527344 " class="aqm13" onclick="plotObjRespond('click', 13, 'dig')" onmouseover="plotObjRespond('show', 13, 'dig')" onmouseout="plotObjRespond('hide', 13, 'dig')" fill="none" stroke-width="1" stroke-linecap="round" stroke-linejoin="round" stroke="rgb(12.156863%,47.058824%,70.588235%)" stroke-opacity="1" stroke-miterlimit="10"/>
    <path d="M 85.777344 159.785156 L 102.488281 157.171875 L 119.199219 154.734375 L 135.910156 153.355469 L 152.621094 151.488281 L 169.332031 149.089844 L 186.042969 147.511719 L 202.753906 146.253906 L 219.464844 145.007812 L 236.179688 141.898438 L 252.890625 139.996094 L 269.601562 138.015625 L 286.3125 136.503906 L 303.023438 136.988281 " class="aqm14" onclick="plotObjRespond('click', 14, 'dig')" onmouseover="plotObjRespond('show', 14, 'dig')" onmouseout="plotObjRespond('hide', 14, 'dig')" fill="none" stroke-width="1" stroke-linecap="round" stroke-linejoin="round" stroke="rgb(12.156863%,47.058824%,70.588235%)" stroke-opacity="1" stroke-miterlimit="10"/>
    <path d="M 85.777344 158.757812 L 102.488281 156.191406 L 119.199219 153.65625 L 135.910156 152.359375 L 152.621094 150.609375 L 169.332031 148.113281 L 186.042969 146.621094 L 202.753906 145.332031 L 219.464844 144.496094 L 236.179688 141.632812 L 252.890625 139.421875 L 269.601562 137.964844 L 286.3125 136.804688 L 303.023438 137.289062 " class="aqm15" onclick="plotObjRespond('click', 15, 'dig')" onmouseover="plotObjRespond('show', 15, 'dig')" onmouseout="plotObjRespond('hide', 15, 'dig')" fill="none" stroke-width="1" stroke-linecap="round" stroke-linejoin="round" stroke="rgb(12.156863%,47.058824%,70.588235%)" stroke-opacity="1" stroke-miterlimit="10"/>
    <path d="M 85.777344 157.734375 L 102.488281 154.796875 L 119.199219 152.605469 L 135.910156 150.808594 L 152.621094 148.738281 L 169.332031 145.738281 L 186.042969 143.871094 L 202.753906 141.53125 L 219.464844 139.996094 L 236.179688 136.484375 L 252.890625 133.613281 L 269.601562 130.960938 L 286.3125 128.683594 L 303.023438 128.71875 " class="aqm16" onclick="plotObjRespond('click', 16, 'dig')" onmouseover="plotObjRespond('show', 16, 'dig')" onmouseout="plotObjRespond('hide', 16, 'dig')" fill="none" stroke-width="1" stroke-linecap="round" stroke-linejoin="round" stroke="rgb(12.156863%,47.058824%,70.588235%)" stroke-opacity="1" stroke-miterlimit="10"/>
    <path d="M 85.777344 156.710938 L 102.488281 153.878906 L 119.199219 152.152344 L 135.910156 151.554688 L 152.621094 149.746094 L 169.332031 147.605469 L 186.042969 146.679688 L 202.753906 144.882812 L 219.464844 143.734375 L 236.179688 140.511719 L 252.890625 137.847656 L 269.601562 134.242188 L 286.3125 131.449219 L 303.023438 129.875 " class="aqm17" onclick="plotObjRespond('click', 17, 'dig')" onmouseover="plotObjRespond('show', 17, 'dig')" onmouseout="plotObjRespond('hide', 17, 'dig')" fill="none" stroke-width="1" stroke-linecap="round" stroke-linejoin="round" stroke="rgb(12.156863%,47.058824%,70.588235%)" stroke-opacity="1" stroke-miterlimit="10"/>
    <path d="M 85.777344 155.683594 L 102.488281 152.195312 L 119.199219 150.246094 L 135.910156 149.484375 L 152.621094 147.566406 L 169.332031 144.949219 L 186.042969 143.636719 L 202.753906 141.605469 L 219.464844 140.445312 L 236.179688 136.859375 L 252.890625 133.734375 L 269.601562 130.027344 L 286.3125 126.757812 L 303.023438 125.078125 " class="aqm18" onclick="plotObjRespond('click', 18, 'dig')" onmouseover="plotObjRespond('show', 18, 'dig')" onmouseout="plotObjRespond('hide', 18, 'dig')" fill="none" stroke-width="1" stroke-linecap="round" stroke-linejoin="round" stroke="rgb(12.156863%,47.058824%,70.588235%)" stroke-opacity="1" stroke-miterlimit="10"/>
    <path d="M 85.777344 154.660156 L 102.488281 151.515625 L 119.199219 149.632812 L 135.910156 148.675781 L 152.621094 146.972656 L 169.332031 144.289062 L 186.042969 143.222656 L 202.753906 141.140625 L 219.464844 139.832031 L 236.179688 136.5 L 252.890625 133.292969 L 269.601562 129.664062 L 286.3125 126.496094 L 303.023438 124.550781 " class="aqm19" onclick="plotObjRespond('click', 19, 'dig')" onmouseover="plotObjRespond('show', 19, 'dig')" onmouseout="plotObjRespond('hide', 19, 'dig')" fill="none" stroke-width="1" stroke-linecap="round" stroke-linejoin="round" stroke="rgb(12.156863%,47.058824%,70.588235%)" stroke-opacity="1" stroke-miterlimit="10"/>
    <path d="M 85.777344 153.636719 L 102.488281 150.746094 L 119.199219 148.875 L 135.910156 147.828125 L 152.621094 145.820312 L 169.332031 143.613281 L 186.042969 142.332031 L 202.753906 140.804688 L 219.464844 139.609375 L 236.179688 136.28125 L 252.890625 133.59375 L 269.601562 130.457031 L 286.3125 127.660156 L 303.023438 126.355469 " class="aqm20" onclick="plotObjRespond('click', 20, 'dig')" onmouseover="plotObjRespond('show', 20, 'dig')" onmouseout="plotObjRespond('hide', 20, 'dig')" fill="none" stroke-width="1" stroke-linecap="round" stroke-linejoin="round" stroke="rgb(12.156863%,47.058824%,70.588235%)" stroke-opacity="1" stroke-miterlimit="10"/>
    <path d="M 85.777344 152.609375 L 102.488281 150.375 L 119.199219 147.675781 L 135.910156 146.574219 L 152.621094 145.003906 L 169.332031 142.839844 L 186.042969 141.875 L 202.753906 140.171875 L 219.464844 139.667969 L 236.179688 136.71875 L 252.890625 134.957031 L 269.601562 132.929688 L 286.3125 131.785156 L 303.023438 131.714844 " class="aqm21" onclick="plotObjRespond('click', 21, 'dig')" onmouseover="plotObjRespond('show', 21, 'dig')" onmouseout="plotObjRespond('hide', 21, 'dig')" fill="none" stroke-width="1" stroke-linecap="round" stroke-linejoin="round" stroke="rgb(12.156863%,47.058824%,70.588235%)" stroke-opacity="1" stroke-miterlimit="10"/>
    <path d="M 85.777344 151.585938 L 102.488281 148.308594 L 119.199219 145.253906 L 135.910156 143.664062 L 152.621094 141.417969 L 169.332031 138.382812 L 186.042969 136.515625 L 202.753906 134.121094 L 219.464844 132.371094 L 236.179688 128.570312 L 252.890625 125.234375 L 269.601562 121.589844 L 286.3125 119.007812 L 303.023438 117.132812 " class="aqm22" onclick="plotObjRespond('click', 22, 'dig')" onmouseover="plotObjRespond('show', 22, 'dig')" onmouseout="plotObjRespond('hide', 22, 'dig')" fill="none" stroke-width="1" stroke-linecap="round" stroke-linejoin="round" stroke="rgb(12.156863%,47.058824%,70.588235%)" stroke-opacity="1" stroke-miterlimit="10"/>
    <path d="M 85.777344 150.558594 L 102.488281 147.699219 L 119.199219 145.210938 L 135.910156 143.820312 L 152.621094 142.003906 L 169.332031 139.363281 L 186.042969 138.089844 L 202.753906 136.152344 L 219.464844 135.402344 L 236.179688 132.222656 L 252.890625 130.398438 L 269.601562 128.015625 L 286.3125 126.808594 L 303.023438 126.605469 " class="aqm23" onclick="plotObjRespond('click', 23, 'dig')" onmouseover="plotObjRespond('show', 23, 'dig')" onmouseout="plotObjRespond('hide', 23, 'dig')" fill="none" stroke-width="1" stroke-linecap="round" stroke-linejoin="round" stroke="rgb(12.156863%,47.058824%,70.588235%)" stroke-opacity="1" stroke-miterlimit="10"/>
    <path d="M 85.777344 149.535156 L 102.488281 146.550781 L 119.199219 143.875 L 135.910156 142.515625 L 152.621094 140.542969 L 169.332031 137.589844 L 186.042969 135.90625 L 202.753906 133.667969 L 219.464844 132.570312 L 236.179688 128.988281 L 252.890625 125.917969 L 269.601562 122.648438 L 286.3125 120.640625 L 303.023438 119.742188 " class="aqm24" onclick="plotObjRespond('click', 24, 'dig')" onmouseover="plotObjRespond('show', 24, 'dig')" onmouseout="plotObjRespond('hide', 24, 'dig')" fill="none" stroke-width="1" stroke-linecap="round" stroke-linejoin="round" stroke="rgb(12.156863%,47.058824%,70.588235%)" stroke-opacity="1" stroke-miterlimit="10"/>
    <path d="M 85.777344 148.511719 L 102.488281 145.722656 L 119.199219 144.066406 L 135.910156 143.480469 L 152.621094 141.800781 L 169.332031 139.699219 L 186.042969 138.824219 L 202.753906 137.289062 L 219.464844 136.21875 L 236.179688 133.667969 L 252.890625 131.425781 L 269.601562 128.808594 L 286.3125 127.503906 L 303.023438 126.515625 " class="aqm25" onclick="plotObjRespond('click', 25, 'dig')" onmouseover="plotObjRespond('show', 25, 'dig')" onmouseout="plotObjRespond('hide', 25, 'dig')" fill="none" stroke-width="1" stroke-linecap="round" stroke-linejoin="round" stroke="rgb(12.156863%,47.058824%,70.588235%)" stroke-opacity="1" stroke-miterlimit="10"/>
    <path d="M 85.777344 147.484375 L 102.488281 144.792969 L 119.199219 142.929688 L 135.910156 142.398438 L 152.621094 140.644531 L 169.332031 138.484375 L 186.042969 137.707031 L 202.753906 135.960938 L 219.464844 134.84375 L 236.179688 132.195312 L 252.890625 130 L 269.601562 127.148438 L 286.3125 125.523438 L 303.023438 124.382812 " class="aqm26" onclick="plotObjRespond('click', 26, 'dig')" onmouseover="plotObjRespond('show', 26, 'dig')" onmouseout="plotObjRespond('hide', 26, 'dig')" fill="none" stroke-width="1" stroke-linecap="round" stroke-linejoin="round" stroke="rgb(12.156863%,47.058824%,70.588235%)" stroke-opacity="1" stroke-miterlimit="10"/>
    <path d="M 85.777344 146.460938 L 102.488281 143.632812 L 119.199219 141.902344 L 135.910156 141.246094 L 152.621094 139.28125 L 169.332031 137.273438 L 186.042969 136.304688 L 202.753906 134.449219 L 219.464844 133.40625 L 236.179688 130.53125 L 252.890625 127.929688 L 269.601562 125.347656 L 286.3125 123.710938 L 303.023438 122.671875 " class="aqm27" onclick="plotObjRespond('click', 27, 'dig')" onmouseover="plotObjRespond('show', 27, 'dig')" onmouseout="plotObjRespond('hide', 27, 'dig')" fill="none" stroke-width="1" stroke-linecap="round" stroke-linejoin="round" stroke="rgb(12.156863%,47.058824%,70.588235%)" stroke-opacity="1" stroke-miterlimit="10"/>
    <path d="M 85.777344 145.4375 L 102.488281 142.484375 L 119.199219 140.785156 L 135.910156 140.074219 L 152.621094 138.324219 L 169.332031 135.980469 L 186.042969 135.175781 L 202.753906 133.25 L 219.464844 132.394531 L 236.179688 129.4375 L 252.890625 126.957031 L 269.601562 124.140625 L 286.3125 122.75 L 303.023438 121.84375 " class="aqm28" onclick="plotObjRespond('click', 28, 'dig')" onmouseover="plotObjRespond('show', 28, 'dig')" onmouseout="plotObjRespond('hide', 28, 'dig')" fill="none" stroke-width="1" stroke-linecap="round" stroke-linejoin="round" stroke="rgb(12.156863%,47.058824%,70.588235%)" stroke-opacity="1" stroke-miterlimit="10"/>
    <path d="M 85.777344 144.410156 L 102.488281 141.804688 L 119.199219 139.375 L 135.910156 138.425781 L 152.621094 136.347656 L 169.332031 133.519531 L 186.042969 132.078125 L 202.753906 129.597656 L 219.464844 128.21875 L 236.179688 124.828125 L 252.890625 122.15625 L 269.601562 118.660156 L 286.3125 116.464844 L 303.023438 115.109375 " class="aqm29" onclick="plotObjRespond('click', 29, 'dig')" onmouseover="plotObjRespond('show', 29, 'dig')" onmouseout="plotObjRespond('hide', 29, 'dig')" fill="none" stroke-width="1" stroke-linecap="round" stroke-linejoin="round" stroke="rgb(12.156863%,47.058824%,70.588235%)" stroke-opacity="1" stroke-miterlimit="10"/>
    <path d="M 85.777344 143.386719 L 102.488281 141.015625 L 119.199219 138.90625 L 135.910156 137.847656 L 152.621094 135.726562 L 169.332031 133.03125 L 186.042969 131.949219 L 202.753906 129.597656 L 219.464844 129.144531 L 236.179688 125.921875 L 252.890625 123.644531 L 269.601562 121.1875 L 286.3125 119.667969 L 303.023438 119.753906 " class="aqm30" onclick="plotObjRespond('click', 30, 'dig')" onmouseover="plotObjRespond('show', 30, 'dig')" onmouseout="plotObjRespond('hide', 30, 'dig')" fill="none" stroke-width="1" stroke-linecap="round" stroke-linejoin="round" stroke="rgb(12.156863%,47.058824%,70.588235%)" stroke-opacity="1" stroke-miterlimit="10"/>
    <path d="M 85.777344 142.359375 L 102.488281 139.25 L 119.199219 136.675781 L 135.910156 134.984375 L 152.621094 132.90625 L 169.332031 129.703125 L 186.042969 128.082031 L 202.753906 125.21875 L 219.464844 123.949219 L 236.179688 120.203125 L 252.890625 117.175781 L 269.601562 113.566406 L 286.3125 111.238281 L 303.023438 109.960938 " class="aqm31" onclick="plotObjRespond('click', 31, 'dig')" onmouseover="plotObjRespond('show', 31, 'dig')" onmouseout="plotObjRespond('hide', 31, 'dig')" fill="none" stroke-width="1" stroke-linecap="round" stroke-linejoin="round" stroke="rgb(12.156863%,47.058824%,70.588235%)" stroke-opacity="1" stroke-miterlimit="10"/>
    <path d="M 85.777344 141.335938 L 102.488281 138.101562 L 119.199219 135.722656 L 135.910156 133.816406 L 152.621094 131.007812 L 169.332031 128.058594 L 186.042969 125.464844 L 202.753906 122.210938 L 219.464844 120.195312 L 236.179688 115.320312 L 252.890625 110.894531 L 269.601562 106.292969 L 286.3125 102.652344 L 303.023438 100.335938 " class="aqm32" onclick="plotObjRespond('click', 32, 'dig')" onmouseover="plotObjRespond('show', 32, 'dig')" onmouseout="plotObjRespond('hide', 32, 'dig')" fill="none" stroke-width="1" stroke-linecap="round" stroke-linejoin="round" stroke="rgb(12.156863%,47.058824%,70.588235%)" stroke-opacity="1" stroke-miterlimit="10"/>
    <path d="M 85.777344 140.3125 L 102.488281 138.289062 L 119.199219 136.234375 L 135.910156 135.160156 L 152.621094 133.554688 L 169.332031 131.554688 L 186.042969 130.382812 L 202.753906 129.59375 L 219.464844 128.644531 L 236.179688 126.347656 L 252.890625 125.675781 L 269.601562 123.5625 L 286.3125 121.609375 L 303.023438 121.683594 " class="aqm33" onclick="plotObjRespond('click', 33, 'dig')" onmouseover="plotObjRespond('show', 33, 'dig')" onmouseout="plotObjRespond('hide', 33, 'dig')" fill="none" stroke-width="1" stroke-linecap="round" stroke-linejoin="round" stroke="rgb(12.156863%,47.058824%,70.588235%)" stroke-opacity="1" stroke-miterlimit="10"/>
    <path d="M 85.777344 139.285156 L 102.488281 137.691406 L 119.199219 135.308594 L 135.910156 134.5 L 152.621094 133.226562 L 169.332031 131.054688 L 186.042969 130.011719 L 202.753906 129.082031 L 219.464844 128.210938 L 236.179688 125.765625 L 252.890625 125.023438 L 269.601562 122.839844 L 286.3125 120.992188 L 303.023438 121.039062 " class="aqm34" onclick="plotObjRespond('click', 34, 'dig')" onmouseover="plotObjRespond('show', 34, 'dig')" onmouseout="plotObjRespond('hide', 34, 'dig')" fill="none" stroke-width="1" stroke-linecap="round" stroke-linejoin="round" stroke="rgb(12.156863%,47.058824%,70.588235%)" stroke-opacity="1" stroke-miterlimit="10"/>
    <path d="M 85.777344 138.261719 L 102.488281 136.558594 L 119.199219 134.195312 L 135.910156 133.023438 L 152.621094 131.675781 L 169.332031 129.066406 L 186.042969 127.886719 L 202.753906 127.328125 L 219.464844 126.273438 L 236.179688 123.929688 L 252.890625 123.066406 L 269.601562 120.804688 L 286.3125 119.148438 L 303.023438 118.164062 " class="aqm35" onclick="plotObjRespond('click', 35, 'dig')" onmouseover="plotObjRespond('show', 35, 'dig')" onmouseout="plotObjRespond('hide', 35, 'dig')" fill="none" stroke-width="1" stroke-linecap="round" stroke-linejoin="round" stroke="rgb(12.156863%,47.058824%,70.588235%)" stroke-opacity="1" stroke-miterlimit="10"/>
    <path d="M 85.777344 137.238281 L 102.488281 135.046875 L 119.199219 132.523438 L 135.910156 131.585938 L 152.621094 130.054688 L 169.332031 127.554688 L 186.042969 126.511719 L 202.753906 125.898438 L 219.464844 124.71875 L 236.179688 122.457031 L 252.890625 121.804688 L 269.601562 119.511719 L 286.3125 117.824219 L 303.023438 117.121094 " class="aqm36" onclick="plotObjRespond('click', 36, 'dig')" onmouseover="plotObjRespond('show', 36, 'dig')" onmouseout="plotObjRespond('hide', 36, 'dig')" fill="none" stroke-width="1" stroke-linecap="round" stroke-linejoin="round" stroke="rgb(12.156863%,47.058824%,70.588235%)" stroke-opacity="1" stroke-miterlimit="10"/>
    <path d="M 85.777344 136.210938 L 102.488281 133.832031 L 119.199219 131.433594 L 135.910156 130.484375 L 152.621094 128.542969 L 169.332031 126.207031 L 186.042969 125.210938 L 202.753906 123.804688 L 219.464844 122.679688 L 236.179688 120.511719 L 252.890625 118.820312 L 269.601562 117.035156 L 286.3125 115.847656 L 303.023438 116.421875 " class="aqm37" onclick="plotObjRespond('click', 37, 'dig')" onmouseover="plotObjRespond('show', 37, 'dig')" onmouseout="plotObjRespond('hide', 37, 'dig')" fill="none" stroke-width="1" stroke-linecap="round" stroke-linejoin="round" stroke="rgb(12.156863%,47.058824%,70.588235%)" stroke-opacity="1" stroke-miterlimit="10"/>
    <path d="M 85.777344 135.1875 L 102.488281 132.238281 L 119.199219 129.796875 L 135.910156 128.601562 L 152.621094 126.261719 L 169.332031 123.964844 L 186.042969 122.222656 L 202.753906 120.453125 L 219.464844 119.054688 L 236.179688 116.941406 L 252.890625 114.765625 L 269.601562 112.257812 L 286.3125 110.921875 L 303.023438 111.367188 " class="aqm38" onclick="plotObjRespond('click', 38, 'dig')" onmouseover="plotObjRespond('show', 38, 'dig')" onmouseout="plotObjRespond('hide', 38, 'dig')" fill="none" stroke-width="1" stroke-linecap="round" stroke-linejoin="round" stroke="rgb(12.156863%,47.058824%,70.588235%)" stroke-opacity="1" stroke-miterlimit="10"/>
    <path d="M 85.777344 134.160156 L 102.488281 131.886719 L 119.199219 129.546875 L 135.910156 128.585938 L 152.621094 127.3125 L 169.332031 125.066406 L 186.042969 124.453125 L 202.753906 123.683594 L 219.464844 123.175781 L 236.179688 121.339844 L 252.890625 120.335938 L 269.601562 118.648438 L 286.3125 117.523438 L 303.023438 117.777344 " class="aqm39" onclick="plotObjRespond('click', 39, 'dig')" onmouseover="plotObjRespond('show', 39, 'dig')" onmouseout="plotObjRespond('hide', 39, 'dig')" fill="none" stroke-width="1" stroke-linecap="round" stroke-linejoin="round" stroke="rgb(12.156863%,47.058824%,70.588235%)" stroke-opacity="1" stroke-miterlimit="10"/>
    <path d="M 85.777344 133.136719 L 102.488281 130.582031 L 119.199219 128.238281 L 135.910156 126.925781 L 152.621094 124.96875 L 169.332031 122.523438 L 186.042969 121.21875 L 202.753906 119.519531 L 219.464844 118.234375 L 236.179688 115.566406 L 252.890625 113.597656 L 269.601562 111.101562 L 286.3125 109.617188 L 303.023438 109.617188 " class="aqm40" onclick="plotObjRespond('click', 40, 'dig')" onmouseover="plotObjRespond('show', 40, 'dig')" onmouseout="plotObjRespond('hide', 40, 'dig')" fill="none" stroke-width="1" stroke-linecap="round" stroke-linejoin="round" stroke="rgb(12.156863%,47.058824%,70.588235%)" stroke-opacity="1" stroke-miterlimit="10"/>
    <path d="M 85.777344 132.113281 L 102.488281 127.179688 L 119.199219 121.332031 L 135.910156 117.757812 L 152.621094 113.222656 L 169.332031 108.027344 L 186.042969 104.109375 L 202.753906 100.4375 L 219.464844 97.003906 L 236.179688 91.597656 L 252.890625 87.34375 L 269.601562 82.507812 L 286.3125 79.429688 L 303.023438 78.9375 " class="aqm41" onclick="plotObjRespond('click', 41, 'dig')" onmouseover="plotObjRespond('show', 41, 'dig')" onmouseout="plotObjRespond('hide', 41, 'dig')" fill="none" stroke-width="1" stroke-linecap="round" stroke-linejoin="round" stroke="rgb(12.156863%,47.058824%,70.588235%)" stroke-opacity="1" stroke-miterlimit="10"/>
    <path d="M 85.777344 131.085938 L 102.488281 126.714844 L 119.199219 120.808594 L 135.910156 117.605469 L 169.332031 108.347656 L 186.042969 104.671875 L 202.753906 101.265625 L 219.464844 98.058594 L 236.179688 93.21875 L 252.890625 89.5 L 269.601562 84.925781 L 286.3125 82.226562 L 303.023438 81.367188 " class="aqm42" onclick="plotObjRespond('click', 42, 'dig')" onmouseover="plotObjRespond('show', 42, 'dig')" onmouseout="plotObjRespond('hide', 42, 'dig')" fill="none" stroke-width="1" stroke-linecap="round" stroke-linejoin="round" stroke="rgb(12.156863%,47.058824%,70.588235%)" stroke-opacity="1" stroke-miterlimit="10"/>
    <path d="M 85.777344 130.0625 L 102.488281 125.433594 L 119.199219 119.652344 L 135.910156 116.136719 L 152.621094 111.527344 L 169.332031 106.714844 L 186.042969 102.683594 L 202.753906 98.933594 L 219.464844 95.75 L 236.179688 90.453125 L 252.890625 86.304688 L 269.601562 81.488281 L 286.3125 78.628906 L 303.023438 77.40625 " class="aqm43" onclick="plotObjRespond('click', 43, 'dig')" onmouseover="plotObjRespond('show', 43, 'dig')" onmouseout="plotObjRespond('hide', 43, 'dig')" fill="none" stroke-width="1" stroke-linecap="round" stroke-linejoin="round" stroke="rgb(12.156863%,47.058824%,70.588235%)" stroke-opacity="1" stroke-miterlimit="10"/>
    <path d="M 85.777344 129.039062 L 102.488281 124.269531 L 119.199219 119.023438 L 135.910156 115.515625 L 152.621094 111.214844 L 169.332031 106.425781 L 186.042969 102.617188 L 202.753906 99.179688 L 219.464844 96.242188 L 236.179688 91.410156 L 252.890625 87.417969 L 269.601562 83.007812 L 286.3125 80.140625 L 303.023438 78.488281 " class="aqm44" onclick="plotObjRespond('click', 44, 'dig')" onmouseover="plotObjRespond('show', 44, 'dig')" onmouseout="plotObjRespond('hide', 44, 'dig')" fill="none" stroke-width="1" stroke-linecap="round" stroke-linejoin="round" stroke="rgb(12.156863%,47.058824%,70.588235%)" stroke-opacity="1" stroke-miterlimit="10"/>
    <path d="M 85.777344 128.011719 L 102.488281 123.980469 L 119.199219 118.289062 L 135.910156 115.300781 L 152.621094 110.632812 L 169.332031 106.285156 L 186.042969 102.207031 L 202.753906 99.160156 L 219.464844 96.199219 L 236.179688 91.105469 L 252.890625 87.273438 L 269.601562 82.800781 L 286.3125 79.910156 L 303.023438 78.296875 " class="aqm45" onclick="plotObjRespond('click', 45, 'dig')" onmouseover="plotObjRespond('show', 45, 'dig')" onmouseout="plotObjRespond('hide', 45, 'dig')" fill="none" stroke-width="1" stroke-linecap="round" stroke-linejoin="round" stroke="rgb(12.156863%,47.058824%,70.588235%)" stroke-opacity="1" stroke-miterlimit="10"/>
    <path d="M 85.777344 126.988281 L 102.488281 122.179688 L 119.199219 116.898438 L 135.910156 113.542969 L 152.621094 109.460938 L 169.332031 105.195312 L 186.042969 101.683594 L 202.753906 98.011719 L 219.464844 95.316406 L 236.179688 90.351562 L 252.890625 86.535156 L 269.601562 82.042969 L 286.3125 79.179688 L 303.023438 78.019531 " class="aqm46" onclick="plotObjRespond('click', 46, 'dig')" onmouseover="plotObjRespond('show', 46, 'dig')" onmouseout="plotObjRespond('hide', 46, 'dig')" fill="none" stroke-width="1" stroke-linecap="round" stroke-linejoin="round" stroke="rgb(12.156863%,47.058824%,70.588235%)" stroke-opacity="1" stroke-miterlimit="10"/>
    <path d="M 85.777344 125.960938 L 102.488281 121.296875 L 119.199219 116.027344 L 135.910156 112.414062 L 152.621094 108.183594 L 169.332031 103.71875 L 186.042969 99.824219 L 202.753906 96.265625 L 219.464844 93.285156 L 236.179688 88.421875 L 252.890625 84.488281 L 269.601562 79.902344 L 286.3125 77.191406 L 303.023438 75.910156 " class="aqm47" onclick="plotObjRespond('click', 47, 'dig')" onmouseover="plotObjRespond('show', 47, 'dig')" onmouseout="plotObjRespond('hide', 47, 'dig')" fill="none" stroke-width="1" stroke-linecap="round" stroke-linejoin="round" stroke="rgb(12.156863%,47.058824%,70.588235%)" stroke-opacity="1" stroke-miterlimit="10"/>
    <path d="M 85.777344 124.9375 L 102.488281 120.1875 L 119.199219 114.671875 L 135.910156 110.796875 L 152.621094 106.390625 L 169.332031 101.660156 L 186.042969 97.726562 L 202.753906 93.800781 L 219.464844 90.738281 L 236.179688 85.757812 L 252.890625 81.519531 L 269.601562 76.773438 L 286.3125 73.828125 L 303.023438 72.128906 " class="aqm48" onclick="plotObjRespond('click', 48, 'dig')" onmouseover="plotObjRespond('show', 48, 'dig')" onmouseout="plotObjRespond('hide', 48, 'dig')" fill="none" stroke-width="1" stroke-linecap="round" stroke-linejoin="round" stroke="rgb(12.156863%,47.058824%,70.588235%)" stroke-opacity="1" stroke-miterlimit="10"/>
    <path d="M 85.777344 123.914062 L 102.488281 122.257812 L 119.199219 119.863281 L 135.910156 118.820312 L 152.621094 117.066406 L 169.332031 114.605469 L 186.042969 113.257812 L 202.753906 111.632812 L 219.464844 110.527344 L 236.179688 107.679688 L 252.890625 105.554688 L 269.601562 102.273438 L 286.3125 100.886719 L 303.023438 99.710938 " class="aqm49" onclick="plotObjRespond('click', 49, 'dig')" onmouseover="plotObjRespond('show', 49, 'dig')" onmouseout="plotObjRespond('hide', 49, 'dig')" fill="none" stroke-width="1" stroke-linecap="round" stroke-linejoin="round" stroke="rgb(12.156863%,47.058824%,70.588235%)" stroke-opacity="1" stroke-miterlimit="10"/>
    <path d="M 85.777344 122.886719 L 102.488281 121.015625 L 119.199219 118.425781 L 135.910156 117.183594 L 152.621094 115.167969 L 169.332031 112.671875 L 186.042969 110.957031 L 202.753906 109.316406 L 219.464844 108.125 L 236.179688 104.878906 L 252.890625 102.339844 L 269.601562 98.945312 L 286.3125 97.207031 L 303.023438 95.882812 " class="aqm50" onclick="plotObjRespond('click', 50, 'dig')" onmouseover="plotObjRespond('show', 50, 'dig')" onmouseout="plotObjRespond('hide', 50, 'dig')" fill="none" stroke-width="1" stroke-linecap="round" stroke-linejoin="round" stroke="rgb(12.156863%,47.058824%,70.588235%)" stroke-opacity="1" stroke-miterlimit="10"/>
    <path d="M 85.777344 121.863281 L 102.488281 119.179688 L 119.199219 116.957031 L 135.910156 115.246094 L 152.621094 113.027344 L 169.332031 110.386719 L 186.042969 108.300781 L 202.753906 106.425781 L 219.464844 104.917969 L 236.179688 102.199219 L 252.890625 99.671875 L 269.601562 96.394531 L 286.3125 94.164062 L 303.023438 92.058594 " class="aqm51" onclick="plotObjRespond('click', 51, 'dig')" onmouseover="plotObjRespond('show', 51, 'dig')" onmouseout="plotObjRespond('hide', 51, 'dig')" fill="none" stroke-width="1" stroke-linecap="round" stroke-linejoin="round" stroke="rgb(12.156863%,47.058824%,70.588235%)" stroke-opacity="1" stroke-miterlimit="10"/>
    <path d="M 85.777344 120.839844 L 102.488281 119.480469 L 119.199219 117.308594 L 135.910156 117.039062 L 152.621094 115.246094 L 169.332031 113.1875 L 186.042969 112.316406 L 202.753906 111.210938 L 219.464844 110.3125 L 236.179688 108.3125 L 252.890625 106.757812 L 269.601562 104.246094 L 286.3125 103.378906 L 303.023438 101.691406 " class="aqm52" onclick="plotObjRespond('click', 52, 'dig')" onmouseover="plotObjRespond('show', 52, 'dig')" onmouseout="plotObjRespond('hide', 52, 'dig')" fill="none" stroke-width="1" stroke-linecap="round" stroke-linejoin="round" stroke="rgb(12.156863%,47.058824%,70.588235%)" stroke-opacity="1" stroke-miterlimit="10"/>
    <path d="M 85.777344 119.8125 L 102.488281 117 L 119.199219 115.128906 L 135.910156 113.160156 L 152.621094 110.710938 L 169.332031 107.570312 L 186.042969 106.015625 L 202.753906 103.710938 L 219.464844 101.863281 L 236.179688 98.148438 L 252.890625 96.140625 L 269.601562 92.863281 L 286.3125 91.503906 L 303.023438 91.507812 " class="aqm53" onclick="plotObjRespond('click', 53, 'dig')" onmouseover="plotObjRespond('show', 53, 'dig')" onmouseout="plotObjRespond('hide', 53, 'dig')" fill="none" stroke-width="1" stroke-linecap="round" stroke-linejoin="round" stroke="rgb(12.156863%,47.058824%,70.588235%)" stroke-opacity="1" stroke-miterlimit="10"/>
    <path d="M 85.777344 118.789062 L 102.488281 116.046875 L 119.199219 114.0625 L 135.910156 112.199219 L 152.621094 110.023438 L 169.332031 106.84375 L 186.042969 105.03125 L 202.753906 102.914062 L 219.464844 101.464844 L 236.179688 97.222656 L 252.890625 95.417969 L 269.601562 92.066406 L 286.3125 90.542969 L 303.023438 90.4375 " class="aqm54" onclick="plotObjRespond('click', 54, 'dig')" onmouseover="plotObjRespond('show', 54, 'dig')" onmouseout="plotObjRespond('hide', 54, 'dig')" fill="none" stroke-width="1" stroke-linecap="round" stroke-linejoin="round" stroke="rgb(12.156863%,47.058824%,70.588235%)" stroke-opacity="1" stroke-miterlimit="10"/>
    <path d="M 85.777344 117.761719 L 102.488281 115.414062 L 119.199219 113.097656 L 135.910156 111.414062 L 152.621094 108.859375 L 169.332031 105.773438 L 186.042969 104.25 L 202.753906 101.441406 L 219.464844 100.128906 L 236.179688 96.125 L 252.890625 93.941406 L 269.601562 90.667969 L 286.3125 89.386719 L 303.023438 89.488281 " class="aqm55" onclick="plotObjRespond('click', 55, 'dig')" onmouseover="plotObjRespond('show', 55, 'dig')" onmouseout="plotObjRespond('hide', 55, 'dig')" fill="none" stroke-width="1" stroke-linecap="round" stroke-linejoin="round" stroke="rgb(12.156863%,47.058824%,70.588235%)" stroke-opacity="1" stroke-miterlimit="10"/>
    <path d="M 85.777344 116.738281 L 102.488281 114.632812 L 119.199219 112.125 L 135.910156 110.523438 L 152.621094 108.058594 L 169.332031 105.050781 L 186.042969 103.300781 L 202.753906 100.902344 L 219.464844 99.410156 L 236.179688 95.515625 L 252.890625 93.269531 L 269.601562 90.191406 L 286.3125 88.664062 L 303.023438 88.601562 " class="aqm56" onclick="plotObjRespond('click', 56, 'dig')" onmouseover="plotObjRespond('show', 56, 'dig')" onmouseout="plotObjRespond('hide', 56, 'dig')" fill="none" stroke-width="1" stroke-linecap="round" stroke-linejoin="round" stroke="rgb(12.156863%,47.058824%,70.588235%)" stroke-opacity="1" stroke-miterlimit="10"/>
    <path d="M 85.777344 115.714844 L 102.488281 113.804688 L 119.199219 111.792969 L 135.910156 110.613281 L 152.621094 108.484375 L 169.332031 106.015625 L 186.042969 104.253906 L 202.753906 102.441406 L 219.464844 101.003906 L 236.179688 98.058594 L 252.890625 96.28125 L 269.601562 93.558594 L 286.3125 92.027344 L 303.023438 91.410156 " class="aqm57" onclick="plotObjRespond('click', 57, 'dig')" onmouseover="plotObjRespond('show', 57, 'dig')" onmouseout="plotObjRespond('hide', 57, 'dig')" fill="none" stroke-width="1" stroke-linecap="round" stroke-linejoin="round" stroke="rgb(12.156863%,47.058824%,70.588235%)" stroke-opacity="1" stroke-miterlimit="10"/>
    <path d="M 85.777344 114.6875 L 102.488281 112.152344 L 119.199219 110.175781 L 135.910156 108.726562 L 152.621094 106.445312 L 169.332031 103.582031 L 186.042969 102.023438 L 202.753906 100 L 219.464844 98.710938 L 236.179688 95.296875 L 252.890625 93.144531 L 269.601562 90.363281 L 286.3125 88.488281 L 303.023438 88.046875 " class="aqm58" onclick="plotObjRespond('click', 58, 'dig')" onmouseover="plotObjRespond('show', 58, 'dig')" onmouseout="plotObjRespond('hide', 58, 'dig')" fill="none" stroke-width="1" stroke-linecap="round" stroke-linejoin="round" stroke="rgb(12.156863%,47.058824%,70.588235%)" stroke-opacity="1" stroke-miterlimit="10"/>
    <path d="M 85.777344 113.664062 L 102.488281 110.941406 L 119.199219 108.832031 L 135.910156 107.25 L 152.621094 105.046875 L 169.332031 102.011719 L 186.042969 99.941406 L 202.753906 98.023438 L 219.464844 96.355469 L 236.179688 92.984375 L 252.890625 90.726562 L 269.601562 87.445312 L 286.3125 85.707031 L 303.023438 84.71875 " class="aqm59" onclick="plotObjRespond('click', 59, 'dig')" onmouseover="plotObjRespond('show', 59, 'dig')" onmouseout="plotObjRespond('hide', 59, 'dig')" fill="none" stroke-width="1" stroke-linecap="round" stroke-linejoin="round" stroke="rgb(12.156863%,47.058824%,70.588235%)" stroke-opacity="1" stroke-miterlimit="10"/>
    <path d="M 85.777344 112.640625 L 102.488281 110.066406 L 119.199219 108.410156 L 135.910156 107.109375 L 152.621094 104.644531 L 169.332031 102.238281 L 186.042969 100.652344 L 202.753906 98.863281 L 219.464844 97.425781 L 236.179688 94.730469 L 252.890625 92.71875 L 269.601562 90.363281 L 286.3125 88.785156 L 303.023438 89.125 " class="aqm60" onclick="plotObjRespond('click', 60, 'dig')" onmouseover="plotObjRespond('show', 60, 'dig')" onmouseout="plotObjRespond('hide', 60, 'dig')" fill="none" stroke-width="1" stroke-linecap="round" stroke-linejoin="round" stroke="rgb(12.156863%,47.058824%,70.588235%)" stroke-opacity="1" stroke-miterlimit="10"/>
    <path d="M 85.777344 111.613281 L 102.488281 108.792969 L 119.199219 106.664062 L 135.910156 105.460938 L 152.621094 103.953125 L 169.332031 101.667969 L 186.042969 100.371094 L 202.753906 98.90625 L 219.464844 97.949219 L 236.179688 95.242188 L 252.890625 93.636719 L 269.601562 91.707031 L 286.3125 91.113281 L 303.023438 92.007812 " class="aqm61" onclick="plotObjRespond('click', 61, 'dig')" onmouseover="plotObjRespond('show', 61, 'dig')" onmouseout="plotObjRespond('hide', 61, 'dig')" fill="none" stroke-width="1" stroke-linecap="round" stroke-linejoin="round" stroke="rgb(12.156863%,47.058824%,70.588235%)" stroke-opacity="1" stroke-miterlimit="10"/>
    <path d="M 85.777344 110.589844 L 102.488281 107.242188 L 119.199219 104.332031 L 135.910156 102.886719 L 152.621094 101.011719 L 169.332031 98.007812 L 186.042969 96.191406 L 202.753906 94.171875 L 219.464844 92.84375 L 236.179688 89.410156 L 252.890625 87.035156 L 269.601562 84.589844 L 286.3125 82.96875 L 303.023438 82.886719 " class="aqm62" onclick="plotObjRespond('click', 62, 'dig')" onmouseover="plotObjRespond('show', 62, 'dig')" onmouseout="plotObjRespond('hide', 62, 'dig')" fill="none" stroke-width="1" stroke-linecap="round" stroke-linejoin="round" stroke="rgb(12.156863%,47.058824%,70.588235%)" stroke-opacity="1" stroke-miterlimit="10"/>
    <path d="M 85.777344 109.5625 L 102.488281 106.75 L 119.199219 104.664062 L 135.910156 103.503906 L 152.621094 102.167969 L 169.332031 99.558594 L 186.042969 98.199219 L 202.753906 96.9375 L 219.464844 96.238281 L 236.179688 93.1875 L 252.890625 91.289062 L 269.601562 89.269531 L 286.3125 88.421875 L 303.023438 89.25 " class="aqm63" onclick="plotObjRespond('click', 63, 'dig')" onmouseover="plotObjRespond('show', 63, 'dig')" onmouseout="plotObjRespond('hide', 63, 'dig')" fill="none" stroke-width="1" stroke-linecap="round" stroke-linejoin="round" stroke="rgb(12.156863%,47.058824%,70.588235%)" stroke-opacity="1" stroke-miterlimit="10"/>
    <path d="M 85.777344 108.539062 L 102.488281 105.804688 L 119.199219 103.710938 L 135.910156 102.832031 L 152.621094 101.617188 L 169.332031 99.25 L 186.042969 98.125 L 202.753906 96.800781 L 219.464844 96.5 L 236.179688 93.300781 L 252.890625 91.761719 L 269.601562 90.027344 L 286.3125 89.71875 L 303.023438 91.148438 " class="aqm64" onclick="plotObjRespond('click', 64, 'dig')" onmouseover="plotObjRespond('show', 64, 'dig')" onmouseout="plotObjRespond('hide', 64, 'dig')" fill="none" stroke-width="1" stroke-linecap="round" stroke-linejoin="round" stroke="rgb(12.156863%,47.058824%,70.588235%)" stroke-opacity="1" stroke-miterlimit="10"/>
    <path d="M 85.777344 107.515625 L 102.488281 103.476562 L 119.199219 99.980469 L 135.910156 97.929688 L 152.621094 94.261719 L 169.332031 90.699219 L 186.042969 87.800781 L 202.753906 84.472656 L 219.464844 82.503906 L 236.179688 77.835938 L 252.890625 74.289062 L 269.601562 70.777344 L 286.3125 67.285156 L 303.023438 64.492188 " class="aqm65" onclick="plotObjRespond('click', 65, 'dig')" onmouseover="plotObjRespond('show', 65, 'dig')" onmouseout="plotObjRespond('hide', 65, 'dig')" fill="none" stroke-width="1" stroke-linecap="round" stroke-linejoin="round" stroke="rgb(12.156863%,47.058824%,70.588235%)" stroke-opacity="1" stroke-miterlimit="10"/>
    <path d="M 85.777344 106.488281 L 102.488281 103.25 L 119.199219 100.078125 L 135.910156 97.992188 L 152.621094 94.914062 L 169.332031 91.628906 L 186.042969 89.628906 L 202.753906 86.621094 L 219.464844 84.820312 L 236.179688 80.960938 L 252.890625 78.117188 L 269.601562 75.136719 L 286.3125 72.386719 L 303.023438 71.066406 " class="aqm66" onclick="plotObjRespond('click', 66, 'dig')" onmouseover="plotObjRespond('show', 66, 'dig')" onmouseout="plotObjRespond('hide', 66, 'dig')" fill="none" stroke-width="1" stroke-linecap="round" stroke-linejoin="round" stroke="rgb(12.156863%,47.058824%,70.588235%)" stroke-opacity="1" stroke-miterlimit="10"/>
    <path d="M 85.777344 105.464844 L 102.488281 102.085938 L 119.199219 98.765625 L 135.910156 96.625 L 152.621094 93.554688 L 169.332031 89.972656 L 186.042969 87.367188 L 202.753906 84.539062 L 219.464844 82.625 L 236.179688 78.480469 L 252.890625 75.242188 L 269.601562 72.324219 L 286.3125 69.070312 L 303.023438 67.074219 " class="aqm67" onclick="plotObjRespond('click', 67, 'dig')" onmouseover="plotObjRespond('show', 67, 'dig')" onmouseout="plotObjRespond('hide', 67, 'dig')" fill="none" stroke-width="1" stroke-linecap="round" stroke-linejoin="round" stroke="rgb(12.156863%,47.058824%,70.588235%)" stroke-opacity="1" stroke-miterlimit="10"/>
    <path d="M 85.777344 104.4375 L 102.488281 101.78125 L 119.199219 98.777344 L 135.910156 96.910156 L 152.621094 94.308594 L 169.332031 91.6875 L 186.042969 89.664062 L 202.753906 87.25 L 219.464844 85.988281 L 236.179688 81.984375 L 252.890625 79.535156 L 269.601562 76.714844 L 286.3125 74.589844 L 303.023438 72.679688 " class="aqm68" onclick="plotObjRespond('click', 68, 'dig')" onmouseover="plotObjRespond('show', 68, 'dig')" onmouseout="plotObjRespond('hide', 68, 'dig')" fill="none" stroke-width="1" stroke-linecap="round" stroke-linejoin="round" stroke="rgb(12.156863%,47.058824%,70.588235%)" stroke-opacity="1" stroke-miterlimit="10"/>
    <path d="M 85.777344 103.414062 L 102.488281 100.3125 L 119.199219 97.988281 L 135.910156 96.769531 L 152.621094 94.261719 L 169.332031 91.867188 L 186.042969 90.363281 L 202.753906 88.613281 L 219.464844 87.433594 L 236.179688 84.699219 L 252.890625 81.8125 L 269.601562 79.609375 L 286.3125 77.3125 L 303.023438 76.269531 " class="aqm69" onclick="plotObjRespond('click', 69, 'dig')" onmouseover="plotObjRespond('show', 69, 'dig')" onmouseout="plotObjRespond('hide', 69, 'dig')" fill="none" stroke-width="1" stroke-linecap="round" stroke-linejoin="round" stroke="rgb(12.156863%,47.058824%,70.588235%)" stroke-opacity="1" stroke-miterlimit="10"/>
    <path d="M 85.777344 102.390625 L 102.488281 99.886719 L 119.199219 97.765625 L 135.910156 97.054688 L 152.621094 94.265625 L 169.332031 91.75 L 186.042969 90.246094 L 202.753906 88.445312 L 219.464844 87.34375 L 236.179688 85.035156 L 252.890625 82.632812 L 269.601562 80.597656 L 286.3125 78.570312 L 303.023438 77.242188 " class="aqm70" onclick="plotObjRespond('click', 70, 'dig')" onmouseover="plotObjRespond('show', 70, 'dig')" onmouseout="plotObjRespond('hide', 70, 'dig')" fill="none" stroke-width="1" stroke-linecap="round" stroke-linejoin="round" stroke="rgb(12.156863%,47.058824%,70.588235%)" stroke-opacity="1" stroke-miterlimit="10"/>
    <path d="M 85.777344 101.363281 L 102.488281 98.671875 L 119.199219 96.136719 L 135.910156 95.054688 L 152.621094 92.191406 L 169.332031 89.476562 L 186.042969 87.957031 L 202.753906 85.980469 L 219.464844 84.417969 L 236.179688 81.667969 L 252.890625 79.167969 L 269.601562 77.261719 L 286.3125 74.828125 L 303.023438 73.824219 " class="aqm71" onclick="plotObjRespond('click', 71, 'dig')" onmouseover="plotObjRespond('show', 71, 'dig')" onmouseout="plotObjRespond('hide', 71, 'dig')" fill="none" stroke-width="1" stroke-linecap="round" stroke-linejoin="round" stroke="rgb(12.156863%,47.058824%,70.588235%)" stroke-opacity="1" stroke-miterlimit="10"/>
    <path d="M 85.777344 100.339844 L 102.488281 98.371094 L 119.199219 95.546875 L 135.910156 94.746094 L 152.621094 92.148438 L 169.332031 89.933594 L 186.042969 88.828125 L 202.753906 86.972656 L 219.464844 85.996094 L 236.179688 83.136719 L 252.890625 81.328125 L 269.601562 79.4375 L 286.3125 78.476562 L 303.023438 78.109375 " class="aqm72" onclick="plotObjRespond('click', 72, 'dig')" onmouseover="plotObjRespond('show', 72, 'dig')" onmouseout="plotObjRespond('hide', 72, 'dig')" fill="none" stroke-width="1" stroke-linecap="round" stroke-linejoin="round" stroke="rgb(12.156863%,47.058824%,70.588235%)" stroke-opacity="1" stroke-miterlimit="10"/>
    <path d="M 85.777344 99.316406 L 102.488281 96.25 L 119.199219 93.269531 L 135.910156 91.84375 L 152.621094 89.421875 L 169.332031 86.226562 L 186.042969 84.535156 L 202.753906 82.183594 L 219.464844 81.410156 L 236.179688 77.105469 L 252.890625 75.011719 L 269.601562 72.171875 L 286.3125 69.996094 L 303.023438 69.542969 " class="aqm73" onclick="plotObjRespond('click', 73, 'dig')" onmouseover="plotObjRespond('show', 73, 'dig')" onmouseout="plotObjRespond('hide', 73, 'dig')" fill="none" stroke-width="1" stroke-linecap="round" stroke-linejoin="round" stroke="rgb(12.156863%,47.058824%,70.588235%)" stroke-opacity="1" stroke-miterlimit="10"/>
    <path d="M 85.777344 98.289062 L 102.488281 94.800781 L 119.199219 92.59375 L 135.910156 90.539062 L 152.621094 88.042969 L 169.332031 84.871094 L 186.042969 83.8125 L 202.753906 81.042969 L 219.464844 80.226562 L 236.179688 76.078125 L 252.890625 73.714844 L 269.601562 70.664062 L 286.3125 68.890625 L 303.023438 68.667969 " class="aqm74" onclick="plotObjRespond('click', 74, 'dig')" onmouseover="plotObjRespond('show', 74, 'dig')" onmouseout="plotObjRespond('hide', 74, 'dig')" fill="none" stroke-width="1" stroke-linecap="round" stroke-linejoin="round" stroke="rgb(12.156863%,47.058824%,70.588235%)" stroke-opacity="1" stroke-miterlimit="10"/>
    <path d="M 85.777344 97.265625 L 102.488281 94.121094 L 119.199219 91.398438 L 135.910156 89.789062 L 152.621094 87.101562 L 169.332031 84 L 186.042969 82.5625 L 202.753906 79.96875 L 219.464844 78.789062 L 236.179688 74.835938 L 252.890625 72.234375 L 269.601562 69.492188 L 286.3125 67.375 L 303.023438 66.308594 " class="aqm75" onclick="plotObjRespond('click', 75, 'dig')" onmouseover="plotObjRespond('show', 75, 'dig')" onmouseout="plotObjRespond('hide', 75, 'dig')" fill="none" stroke-width="1" stroke-linecap="round" stroke-linejoin="round" stroke="rgb(12.156863%,47.058824%,70.588235%)" stroke-opacity="1" stroke-miterlimit="10"/>
    <path d="M 85.777344 96.238281 L 102.488281 93.03125 L 119.199219 90.398438 L 135.910156 88.617188 L 152.621094 85.980469 L 169.332031 83.136719 L 186.042969 81.40625 L 202.753906 78.933594 L 219.464844 77.9375 L 236.179688 73.746094 L 252.890625 71.371094 L 269.601562 68.527344 L 286.3125 66.46875 L 303.023438 65.53125 " class="aqm76" onclick="plotObjRespond('click', 76, 'dig')" onmouseover="plotObjRespond('show', 76, 'dig')" onmouseout="plotObjRespond('hide', 76, 'dig')" fill="none" stroke-width="1" stroke-linecap="round" stroke-linejoin="round" stroke="rgb(12.156863%,47.058824%,70.588235%)" stroke-opacity="1" stroke-miterlimit="10"/>
    <path d="M 85.777344 95.214844 L 102.488281 92.988281 L 119.199219 90.023438 L 135.910156 89.453125 L 152.621094 86.574219 L 169.332031 84.488281 L 186.042969 82.945312 L 202.753906 81.144531 L 219.464844 80.136719 L 236.179688 77.203125 L 252.890625 74.828125 L 269.601562 72.84375 L 286.3125 71.1875 L 303.023438 69.960938 " class="aqm77" onclick="plotObjRespond('click', 77, 'dig')" onmouseover="plotObjRespond('show', 77, 'dig')" onmouseout="plotObjRespond('hide', 77, 'dig')" fill="none" stroke-width="1" stroke-linecap="round" stroke-linejoin="round" stroke="rgb(12.156863%,47.058824%,70.588235%)" stroke-opacity="1" stroke-miterlimit="10"/>
    <path d="M 85.777344 94.191406 L 102.488281 91.886719 L 119.199219 89.921875 L 135.910156 88.980469 L 152.621094 86.792969 L 169.332031 84.070312 L 186.042969 83.152344 L 202.753906 81.519531 L 219.464844 80.410156 L 236.179688 77.917969 L 252.890625 75.4375 L 269.601562 73.628906 L 286.3125 71.664062 L 303.023438 70.289062 " class="aqm78" onclick="plotObjRespond('click', 78, 'dig')" onmouseover="plotObjRespond('show', 78, 'dig')" onmouseout="plotObjRespond('hide', 78, 'dig')" fill="none" stroke-width="1" stroke-linecap="round" stroke-linejoin="round" stroke="rgb(12.156863%,47.058824%,70.588235%)" stroke-opacity="1" stroke-miterlimit="10"/>
    <path d="M 85.777344 93.164062 L 102.488281 90.527344 L 119.199219 87.945312 L 135.910156 87.335938 L 152.621094 84.53125 L 169.332031 82.675781 L 186.042969 81.144531 L 202.753906 79.269531 L 219.464844 78.335938 L 236.179688 75.53125 L 252.890625 73.507812 L 269.601562 71.511719 L 286.3125 70.109375 L 303.023438 69.601562 " class="aqm79" onclick="plotObjRespond('click', 79, 'dig')" onmouseover="plotObjRespond('show', 79, 'dig')" onmouseout="plotObjRespond('hide', 79, 'dig')" fill="none" stroke-width="1" stroke-linecap="round" stroke-linejoin="round" stroke="rgb(12.156863%,47.058824%,70.588235%)" stroke-opacity="1" stroke-miterlimit="10"/>
    <path d="M 85.777344 92.140625 L 102.488281 89.609375 L 119.199219 86.78125 L 135.910156 86.207031 L 152.621094 83.539062 L 169.332031 81.34375 L 186.042969 80.378906 L 202.753906 78.402344 L 219.464844 77.386719 L 236.179688 74.390625 L 252.890625 72.515625 L 269.601562 70.542969 L 286.3125 68.980469 L 303.023438 68.582031 " class="aqm80" onclick="plotObjRespond('click', 80, 'dig')" onmouseover="plotObjRespond('show', 80, 'dig')" onmouseout="plotObjRespond('hide', 80, 'dig')" fill="none" stroke-width="1" stroke-linecap="round" stroke-linejoin="round" stroke="rgb(12.156863%,47.058824%,70.588235%)" stroke-opacity="1" stroke-miterlimit="10"/>
  </g>
</svg>

