<?xml version="1.0" encoding="UTF-8"?>
<svg xmlns="http://www.w3.org/2000/svg" xmlns:xlink="http://www.w3.org/1999/xlink" width="360pt" height="252pt" viewBox="0 0 360 252" version="1.1" id="Fig:dig">
  <defs>
    <g>
      <symbol overflow="visible" id="dig-glyph0-0">
        <path style="stroke:none;" d="M 0.484375 0 L 0.484375 -10.6875 L 8.96875 -10.6875 L 8.96875 0 Z M 7.625 -1.34375 L 7.625 -9.359375 L 1.8125 -9.359375 L 1.8125 -1.34375 Z "/>
      </symbol>
      <symbol overflow="visible" id="dig-glyph0-1">
        <path style="stroke:none;" d="M 6.109375 -5.796875 C 6.785156 -5.796875 7.320312 -5.929688 7.71875 -6.203125 C 8.113281 -6.472656 8.3125 -6.960938 8.3125 -7.671875 C 8.3125 -8.429688 8.035156 -8.953125 7.484375 -9.234375 C 7.179688 -9.378906 6.785156 -9.453125 6.296875 -9.453125 L 2.765625 -9.453125 L 2.765625 -5.796875 Z M 1.3125 -10.6875 L 6.265625 -10.6875 C 7.078125 -10.6875 7.75 -10.566406 8.28125 -10.328125 C 9.28125 -9.878906 9.78125 -9.039062 9.78125 -7.8125 C 9.78125 -7.164062 9.644531 -6.640625 9.375 -6.234375 C 9.113281 -5.828125 8.75 -5.5 8.28125 -5.25 C 8.695312 -5.082031 9.007812 -4.859375 9.21875 -4.578125 C 9.425781 -4.304688 9.546875 -3.859375 9.578125 -3.234375 L 9.625 -1.8125 C 9.632812 -1.394531 9.664062 -1.085938 9.71875 -0.890625 C 9.8125 -0.554688 9.96875 -0.335938 10.1875 -0.234375 L 10.1875 0 L 8.40625 0 C 8.363281 -0.09375 8.328125 -0.210938 8.296875 -0.359375 C 8.265625 -0.503906 8.238281 -0.785156 8.21875 -1.203125 L 8.140625 -2.984375 C 8.109375 -3.679688 7.847656 -4.148438 7.359375 -4.390625 C 7.078125 -4.515625 6.644531 -4.578125 6.0625 -4.578125 L 2.765625 -4.578125 L 2.765625 0 L 1.3125 0 Z "/>
      </symbol>
      <symbol overflow="visible" id="dig-glyph0-2">
        <path style="stroke:none;" d="M 1.140625 -10.6875 L 2.84375 -10.6875 L 8.25 -2.03125 L 8.25 -10.6875 L 9.625 -10.6875 L 9.625 0 L 8 0 L 2.515625 -8.65625 L 2.515625 0 L 1.140625 0 Z M 5.28125 -10.6875 Z "/>
      </symbol>
      <symbol overflow="visible" id="dig-glyph0-3">
        <path style="stroke:none;" d="M 6.625 -4.375 L 5 -9.109375 L 3.28125 -4.375 Z M 4.25 -10.6875 L 5.875 -10.6875 L 9.765625 0 L 8.171875 0 L 7.09375 -3.203125 L 2.859375 -3.203125 L 1.703125 0 L 0.21875 0 Z M 5 -10.6875 Z "/>
      </symbol>
      <symbol overflow="visible" id="dig-glyph0-4">
        <path style="stroke:none;" d=""/>
      </symbol>
      <symbol overflow="visible" id="dig-glyph0-5">
        <path style="stroke:none;" d="M 1.796875 -3.8125 C 1.796875 -2.976562 1.972656 -2.273438 2.328125 -1.703125 C 2.679688 -1.140625 3.25 -0.859375 4.03125 -0.859375 C 4.632812 -0.859375 5.128906 -1.117188 5.515625 -1.640625 C 5.910156 -2.171875 6.109375 -2.921875 6.109375 -3.890625 C 6.109375 -4.878906 5.90625 -5.609375 5.5 -6.078125 C 5.09375 -6.554688 4.597656 -6.796875 4.015625 -6.796875 C 3.347656 -6.796875 2.8125 -6.539062 2.40625 -6.03125 C 2 -5.53125 1.796875 -4.789062 1.796875 -3.8125 Z M 3.765625 -7.9375 C 4.359375 -7.9375 4.859375 -7.8125 5.265625 -7.5625 C 5.492188 -7.414062 5.757812 -7.160156 6.0625 -6.796875 L 6.0625 -10.734375 L 7.3125 -10.734375 L 7.3125 0 L 6.140625 0 L 6.140625 -1.078125 C 5.828125 -0.597656 5.460938 -0.25 5.046875 -0.03125 C 4.628906 0.175781 4.15625 0.28125 3.625 0.28125 C 2.75 0.28125 1.992188 -0.0820312 1.359375 -0.8125 C 0.722656 -1.550781 0.40625 -2.523438 0.40625 -3.734375 C 0.40625 -4.867188 0.691406 -5.851562 1.265625 -6.6875 C 1.847656 -7.519531 2.679688 -7.9375 3.765625 -7.9375 Z "/>
      </symbol>
      <symbol overflow="visible" id="dig-glyph0-6">
        <path style="stroke:none;" d="M 4.203125 -7.96875 C 4.753906 -7.96875 5.289062 -7.835938 5.8125 -7.578125 C 6.332031 -7.316406 6.726562 -6.984375 7 -6.578125 C 7.257812 -6.179688 7.4375 -5.722656 7.53125 -5.203125 C 7.601562 -4.835938 7.640625 -4.265625 7.640625 -3.484375 L 1.921875 -3.484375 C 1.953125 -2.691406 2.140625 -2.054688 2.484375 -1.578125 C 2.835938 -1.097656 3.378906 -0.859375 4.109375 -0.859375 C 4.796875 -0.859375 5.34375 -1.082031 5.75 -1.53125 C 5.976562 -1.789062 6.144531 -2.097656 6.25 -2.453125 L 7.53125 -2.453125 C 7.5 -2.160156 7.382812 -1.835938 7.1875 -1.484375 C 7 -1.128906 6.785156 -0.84375 6.546875 -0.625 C 6.148438 -0.238281 5.660156 0.0195312 5.078125 0.15625 C 4.753906 0.238281 4.394531 0.28125 4 0.28125 C 3.03125 0.28125 2.207031 -0.0703125 1.53125 -0.78125 C 0.863281 -1.488281 0.53125 -2.476562 0.53125 -3.75 C 0.53125 -5 0.867188 -6.015625 1.546875 -6.796875 C 2.222656 -7.578125 3.109375 -7.96875 4.203125 -7.96875 Z M 6.296875 -4.515625 C 6.242188 -5.085938 6.117188 -5.539062 5.921875 -5.875 C 5.566406 -6.507812 4.96875 -6.828125 4.125 -6.828125 C 3.519531 -6.828125 3.015625 -6.609375 2.609375 -6.171875 C 2.203125 -5.742188 1.988281 -5.191406 1.96875 -4.515625 Z M 4.078125 -7.984375 Z "/>
      </symbol>
      <symbol overflow="visible" id="dig-glyph0-7">
        <path style="stroke:none;" d="M 3.71875 -7.9375 C 4.320312 -7.9375 4.851562 -7.785156 5.3125 -7.484375 C 5.5625 -7.316406 5.8125 -7.066406 6.0625 -6.734375 L 6.0625 -7.71875 L 7.28125 -7.71875 L 7.28125 -0.640625 C 7.28125 0.359375 7.132812 1.140625 6.84375 1.703125 C 6.300781 2.765625 5.273438 3.296875 3.765625 3.296875 C 2.921875 3.296875 2.210938 3.109375 1.640625 2.734375 C 1.066406 2.359375 0.75 1.769531 0.6875 0.96875 L 2.015625 0.96875 C 2.078125 1.3125 2.203125 1.582031 2.390625 1.78125 C 2.691406 2.070312 3.160156 2.21875 3.796875 2.21875 C 4.796875 2.21875 5.453125 1.863281 5.765625 1.15625 C 5.953125 0.738281 6.035156 -0.00390625 6.015625 -1.078125 C 5.753906 -0.679688 5.4375 -0.382812 5.0625 -0.1875 C 4.695312 0 4.210938 0.09375 3.609375 0.09375 C 2.765625 0.09375 2.023438 -0.203125 1.390625 -0.796875 C 0.753906 -1.398438 0.4375 -2.394531 0.4375 -3.78125 C 0.4375 -5.082031 0.753906 -6.097656 1.390625 -6.828125 C 2.035156 -7.566406 2.8125 -7.9375 3.71875 -7.9375 Z M 6.0625 -3.9375 C 6.0625 -4.894531 5.863281 -5.609375 5.46875 -6.078125 C 5.070312 -6.546875 4.566406 -6.78125 3.953125 -6.78125 C 3.023438 -6.78125 2.394531 -6.347656 2.0625 -5.484375 C 1.882812 -5.023438 1.796875 -4.421875 1.796875 -3.671875 C 1.796875 -2.785156 1.972656 -2.113281 2.328125 -1.65625 C 2.679688 -1.195312 3.160156 -0.96875 3.765625 -0.96875 C 4.703125 -0.96875 5.363281 -1.394531 5.75 -2.25 C 5.957031 -2.726562 6.0625 -3.289062 6.0625 -3.9375 Z M 3.859375 -7.984375 Z "/>
      </symbol>
      <symbol overflow="visible" id="dig-glyph0-8">
        <path style="stroke:none;" d="M 1 -7.796875 L 2.234375 -7.796875 L 2.234375 -6.453125 C 2.335938 -6.710938 2.585938 -7.03125 2.984375 -7.40625 C 3.390625 -7.78125 3.847656 -7.96875 4.359375 -7.96875 C 4.390625 -7.96875 4.429688 -7.960938 4.484375 -7.953125 C 4.546875 -7.953125 4.648438 -7.945312 4.796875 -7.9375 L 4.796875 -6.546875 C 4.710938 -6.566406 4.632812 -6.578125 4.5625 -6.578125 C 4.5 -6.585938 4.429688 -6.59375 4.359375 -6.59375 C 3.703125 -6.59375 3.195312 -6.378906 2.84375 -5.953125 C 2.488281 -5.523438 2.3125 -5.035156 2.3125 -4.484375 L 2.3125 0 L 1 0 Z "/>
      </symbol>
      <symbol overflow="visible" id="dig-glyph0-9">
        <path style="stroke:none;" d="M 1.96875 -2.078125 C 1.96875 -1.691406 2.101562 -1.390625 2.375 -1.171875 C 2.65625 -0.960938 2.984375 -0.859375 3.359375 -0.859375 C 3.816406 -0.859375 4.265625 -0.960938 4.703125 -1.171875 C 5.429688 -1.523438 5.796875 -2.101562 5.796875 -2.90625 L 5.796875 -3.96875 C 5.628906 -3.863281 5.421875 -3.773438 5.171875 -3.703125 C 4.921875 -3.640625 4.675781 -3.59375 4.4375 -3.5625 L 3.640625 -3.46875 C 3.160156 -3.40625 2.800781 -3.304688 2.5625 -3.171875 C 2.164062 -2.941406 1.96875 -2.578125 1.96875 -2.078125 Z M 5.140625 -4.71875 C 5.441406 -4.757812 5.644531 -4.890625 5.75 -5.109375 C 5.800781 -5.222656 5.828125 -5.390625 5.828125 -5.609375 C 5.828125 -6.054688 5.664062 -6.378906 5.34375 -6.578125 C 5.03125 -6.773438 4.578125 -6.875 3.984375 -6.875 C 3.304688 -6.875 2.820312 -6.691406 2.53125 -6.328125 C 2.375 -6.117188 2.269531 -5.816406 2.21875 -5.421875 L 1 -5.421875 C 1.019531 -6.378906 1.328125 -7.046875 1.921875 -7.421875 C 2.523438 -7.796875 3.222656 -7.984375 4.015625 -7.984375 C 4.929688 -7.984375 5.675781 -7.804688 6.25 -7.453125 C 6.820312 -7.109375 7.109375 -6.566406 7.109375 -5.828125 L 7.109375 -1.34375 C 7.109375 -1.207031 7.132812 -1.097656 7.1875 -1.015625 C 7.238281 -0.929688 7.359375 -0.890625 7.546875 -0.890625 C 7.597656 -0.890625 7.660156 -0.890625 7.734375 -0.890625 C 7.804688 -0.898438 7.882812 -0.914062 7.96875 -0.9375 L 7.96875 0.03125 C 7.769531 0.09375 7.613281 0.128906 7.5 0.140625 C 7.394531 0.160156 7.25 0.171875 7.0625 0.171875 C 6.613281 0.171875 6.285156 0.0078125 6.078125 -0.3125 C 5.972656 -0.476562 5.898438 -0.71875 5.859375 -1.03125 C 5.585938 -0.6875 5.203125 -0.382812 4.703125 -0.125 C 4.203125 0.132812 3.65625 0.265625 3.0625 0.265625 C 2.332031 0.265625 1.738281 0.046875 1.28125 -0.390625 C 0.820312 -0.835938 0.59375 -1.390625 0.59375 -2.046875 C 0.59375 -2.765625 0.816406 -3.320312 1.265625 -3.71875 C 1.722656 -4.125 2.316406 -4.375 3.046875 -4.46875 Z M 4.046875 -7.984375 Z "/>
      </symbol>
      <symbol overflow="visible" id="dig-glyph0-10">
        <path style="stroke:none;" d="M 1.21875 -9.96875 L 2.546875 -9.96875 L 2.546875 -7.796875 L 3.796875 -7.796875 L 3.796875 -6.71875 L 2.546875 -6.71875 L 2.546875 -1.640625 C 2.546875 -1.367188 2.640625 -1.1875 2.828125 -1.09375 C 2.929688 -1.039062 3.097656 -1.015625 3.328125 -1.015625 C 3.390625 -1.015625 3.457031 -1.015625 3.53125 -1.015625 C 3.601562 -1.015625 3.691406 -1.019531 3.796875 -1.03125 L 3.796875 0 C 3.640625 0.0390625 3.476562 0.0703125 3.3125 0.09375 C 3.15625 0.113281 2.984375 0.125 2.796875 0.125 C 2.179688 0.125 1.765625 -0.03125 1.546875 -0.34375 C 1.328125 -0.65625 1.21875 -1.0625 1.21875 -1.5625 L 1.21875 -6.71875 L 0.171875 -6.71875 L 0.171875 -7.796875 L 1.21875 -7.796875 Z "/>
      </symbol>
      <symbol overflow="visible" id="dig-glyph0-11">
        <path style="stroke:none;" d="M 0.953125 -7.765625 L 2.296875 -7.765625 L 2.296875 0 L 0.953125 0 Z M 0.953125 -10.6875 L 2.296875 -10.6875 L 2.296875 -9.203125 L 0.953125 -9.203125 Z "/>
      </symbol>
      <symbol overflow="visible" id="dig-glyph0-12">
        <path style="stroke:none;" d="M 4.046875 -0.84375 C 4.921875 -0.84375 5.519531 -1.171875 5.84375 -1.828125 C 6.164062 -2.484375 6.328125 -3.21875 6.328125 -4.03125 C 6.328125 -4.75 6.207031 -5.335938 5.96875 -5.796875 C 5.601562 -6.515625 4.96875 -6.875 4.0625 -6.875 C 3.269531 -6.875 2.691406 -6.566406 2.328125 -5.953125 C 1.960938 -5.347656 1.78125 -4.613281 1.78125 -3.75 C 1.78125 -2.914062 1.960938 -2.222656 2.328125 -1.671875 C 2.691406 -1.117188 3.265625 -0.84375 4.046875 -0.84375 Z M 4.109375 -8.015625 C 5.109375 -8.015625 5.953125 -7.679688 6.640625 -7.015625 C 7.335938 -6.347656 7.6875 -5.363281 7.6875 -4.0625 C 7.6875 -2.800781 7.378906 -1.757812 6.765625 -0.9375 C 6.160156 -0.125 5.21875 0.28125 3.9375 0.28125 C 2.863281 0.28125 2.007812 -0.078125 1.375 -0.796875 C 0.738281 -1.523438 0.421875 -2.503906 0.421875 -3.734375 C 0.421875 -5.035156 0.753906 -6.070312 1.421875 -6.84375 C 2.085938 -7.625 2.984375 -8.015625 4.109375 -8.015625 Z M 4.0625 -7.984375 Z "/>
      </symbol>
      <symbol overflow="visible" id="dig-glyph0-13">
        <path style="stroke:none;" d="M 0.953125 -7.796875 L 2.203125 -7.796875 L 2.203125 -6.6875 C 2.578125 -7.144531 2.96875 -7.472656 3.375 -7.671875 C 3.789062 -7.867188 4.25 -7.96875 4.75 -7.96875 C 5.851562 -7.96875 6.601562 -7.582031 7 -6.8125 C 7.207031 -6.382812 7.3125 -5.78125 7.3125 -5 L 7.3125 0 L 5.984375 0 L 5.984375 -4.90625 C 5.984375 -5.382812 5.910156 -5.769531 5.765625 -6.0625 C 5.535156 -6.550781 5.113281 -6.796875 4.5 -6.796875 C 4.195312 -6.796875 3.941406 -6.765625 3.734375 -6.703125 C 3.378906 -6.585938 3.066406 -6.375 2.796875 -6.0625 C 2.578125 -5.800781 2.429688 -5.53125 2.359375 -5.25 C 2.296875 -4.976562 2.265625 -4.585938 2.265625 -4.078125 L 2.265625 0 L 0.953125 0 Z M 4.046875 -7.984375 Z "/>
      </symbol>
      <symbol overflow="visible" id="dig-glyph0-14">
        <path style="stroke:none;" d="M 4.25 -0.875 C 4.863281 -0.875 5.375 -1.128906 5.78125 -1.640625 C 6.1875 -2.160156 6.390625 -2.925781 6.390625 -3.9375 C 6.390625 -4.5625 6.296875 -5.097656 6.109375 -5.546875 C 5.773438 -6.398438 5.15625 -6.828125 4.25 -6.828125 C 3.34375 -6.828125 2.722656 -6.375 2.390625 -5.46875 C 2.210938 -4.988281 2.125 -4.375 2.125 -3.625 C 2.125 -3.019531 2.210938 -2.507812 2.390625 -2.09375 C 2.722656 -1.28125 3.34375 -0.875 4.25 -0.875 Z M 0.859375 -7.765625 L 2.125 -7.765625 L 2.125 -6.71875 C 2.394531 -7.070312 2.679688 -7.347656 2.984375 -7.546875 C 3.429688 -7.835938 3.953125 -7.984375 4.546875 -7.984375 C 5.429688 -7.984375 6.179688 -7.644531 6.796875 -6.96875 C 7.410156 -6.289062 7.71875 -5.320312 7.71875 -4.0625 C 7.71875 -2.363281 7.273438 -1.148438 6.390625 -0.421875 C 5.828125 0.0351562 5.171875 0.265625 4.421875 0.265625 C 3.835938 0.265625 3.347656 0.132812 2.953125 -0.125 C 2.710938 -0.269531 2.453125 -0.519531 2.171875 -0.875 L 2.171875 3.109375 L 0.859375 3.109375 Z "/>
      </symbol>
      <symbol overflow="visible" id="dig-glyph0-15">
        <path style="stroke:none;" d="M 1 -10.6875 L 2.3125 -10.6875 L 2.3125 0 L 1 0 Z "/>
      </symbol>
      <symbol overflow="visible" id="dig-glyph1-0">
        <path style="stroke:none;" d="M 0.40625 0 L 0.40625 -8.96875 L 7.515625 -8.96875 L 7.515625 0 Z M 6.390625 -1.125 L 6.390625 -7.84375 L 1.53125 -7.84375 L 1.53125 -1.125 Z "/>
      </symbol>
      <symbol overflow="visible" id="dig-glyph1-1">
        <path style="stroke:none;" d="M 1.546875 -2.234375 C 1.617188 -1.597656 1.910156 -1.160156 2.421875 -0.921875 C 2.679688 -0.804688 2.984375 -0.75 3.328125 -0.75 C 3.972656 -0.75 4.453125 -0.953125 4.765625 -1.359375 C 5.078125 -1.773438 5.234375 -2.238281 5.234375 -2.75 C 5.234375 -3.351562 5.046875 -3.820312 4.671875 -4.15625 C 4.304688 -4.488281 3.863281 -4.65625 3.34375 -4.65625 C 2.957031 -4.65625 2.628906 -4.582031 2.359375 -4.4375 C 2.085938 -4.289062 1.859375 -4.085938 1.671875 -3.828125 L 0.71875 -3.890625 L 1.390625 -8.59375 L 5.921875 -8.59375 L 5.921875 -7.53125 L 2.203125 -7.53125 L 1.84375 -5.109375 C 2.039062 -5.253906 2.234375 -5.367188 2.421875 -5.453125 C 2.742188 -5.585938 3.117188 -5.65625 3.546875 -5.65625 C 4.347656 -5.65625 5.023438 -5.394531 5.578125 -4.875 C 6.140625 -4.363281 6.421875 -3.707031 6.421875 -2.90625 C 6.421875 -2.082031 6.164062 -1.351562 5.65625 -0.71875 C 5.144531 -0.09375 4.328125 0.21875 3.203125 0.21875 C 2.492188 0.21875 1.863281 0.0195312 1.3125 -0.375 C 0.769531 -0.78125 0.46875 -1.398438 0.40625 -2.234375 Z "/>
      </symbol>
      <symbol overflow="visible" id="dig-glyph1-2">
        <path style="stroke:none;" d="M 2.0625 -8.96875 L 1.859375 -5.375 L 1.15625 -5.375 L 0.953125 -8.96875 Z "/>
      </symbol>
      <symbol overflow="visible" id="dig-glyph1-3">
        <path style="stroke:none;" d=""/>
      </symbol>
      <symbol overflow="visible" id="dig-glyph1-4">
        <path style="stroke:none;" d="M 0.171875 -3.703125 L 7.3125 -6.5 L 7.3125 -5.390625 L 1.46875 -3.1875 L 7.3125 -0.984375 L 7.3125 0.109375 L 0.171875 -2.6875 Z "/>
      </symbol>
      <symbol overflow="visible" id="dig-glyph1-5">
        <path style="stroke:none;" d="M 0.515625 -4.046875 L 3.578125 -4.046875 L 3.578125 -2.921875 L 0.515625 -2.921875 Z "/>
      </symbol>
      <symbol overflow="visible" id="dig-glyph1-6">
        <path style="stroke:none;" d="M 7.3125 -2.671875 L 0.171875 0.109375 L 0.171875 -0.984375 L 6 -3.1875 L 0.171875 -5.390625 L 0.171875 -6.5 L 7.3125 -3.703125 Z "/>
      </symbol>
      <symbol overflow="visible" id="dig-glyph1-7">
        <path style="stroke:none;" d="M 3.25 0.234375 C 2.21875 0.234375 1.46875 -0.046875 1 -0.609375 C 0.53125 -1.179688 0.296875 -1.875 0.296875 -2.6875 L 1.453125 -2.6875 C 1.492188 -2.125 1.597656 -1.710938 1.765625 -1.453125 C 2.046875 -0.992188 2.5625 -0.765625 3.3125 -0.765625 C 3.882812 -0.765625 4.34375 -0.914062 4.6875 -1.21875 C 5.039062 -1.53125 5.21875 -1.929688 5.21875 -2.421875 C 5.21875 -3.023438 5.035156 -3.445312 4.671875 -3.6875 C 4.304688 -3.925781 3.796875 -4.046875 3.140625 -4.046875 C 3.066406 -4.046875 2.988281 -4.046875 2.90625 -4.046875 C 2.832031 -4.046875 2.757812 -4.039062 2.6875 -4.03125 L 2.6875 -5 C 2.800781 -4.988281 2.894531 -4.976562 2.96875 -4.96875 C 3.050781 -4.96875 3.132812 -4.96875 3.21875 -4.96875 C 3.632812 -4.96875 3.972656 -5.035156 4.234375 -5.171875 C 4.703125 -5.398438 4.9375 -5.804688 4.9375 -6.390625 C 4.9375 -6.828125 4.78125 -7.160156 4.46875 -7.390625 C 4.15625 -7.628906 3.796875 -7.75 3.390625 -7.75 C 2.648438 -7.75 2.144531 -7.503906 1.875 -7.015625 C 1.71875 -6.742188 1.628906 -6.363281 1.609375 -5.875 L 0.515625 -5.875 C 0.515625 -6.519531 0.644531 -7.070312 0.90625 -7.53125 C 1.351562 -8.34375 2.140625 -8.75 3.265625 -8.75 C 4.160156 -8.75 4.851562 -8.550781 5.34375 -8.15625 C 5.832031 -7.757812 6.078125 -7.1875 6.078125 -6.4375 C 6.078125 -5.894531 5.929688 -5.457031 5.640625 -5.125 C 5.460938 -4.914062 5.226562 -4.753906 4.9375 -4.640625 C 5.40625 -4.515625 5.765625 -4.269531 6.015625 -3.90625 C 6.273438 -3.550781 6.40625 -3.113281 6.40625 -2.59375 C 6.40625 -1.757812 6.128906 -1.078125 5.578125 -0.546875 C 5.035156 -0.0234375 4.257812 0.234375 3.25 0.234375 Z "/>
      </symbol>
      <symbol overflow="visible" id="dig-glyph1-8">
        <path style="stroke:none;" d="M 1.0625 -8.96875 L 5.109375 -8.96875 C 5.898438 -8.96875 6.539062 -8.742188 7.03125 -8.296875 C 7.519531 -7.847656 7.765625 -7.210938 7.765625 -6.390625 C 7.765625 -5.691406 7.546875 -5.082031 7.109375 -4.5625 C 6.671875 -4.050781 6.003906 -3.796875 5.109375 -3.796875 L 2.28125 -3.796875 L 2.28125 0 L 1.0625 0 Z M 6.53125 -6.390625 C 6.53125 -7.046875 6.285156 -7.492188 5.796875 -7.734375 C 5.535156 -7.859375 5.171875 -7.921875 4.703125 -7.921875 L 2.28125 -7.921875 L 2.28125 -4.8125 L 4.703125 -4.8125 C 5.242188 -4.8125 5.679688 -4.925781 6.015625 -5.15625 C 6.359375 -5.394531 6.53125 -5.804688 6.53125 -6.390625 Z "/>
      </symbol>
      <symbol overflow="visible" id="dig-glyph1-9">
        <path style="stroke:none;" d="M 0.84375 -6.53125 L 1.875 -6.53125 L 1.875 -5.40625 C 1.96875 -5.625 2.179688 -5.890625 2.515625 -6.203125 C 2.847656 -6.523438 3.226562 -6.6875 3.65625 -6.6875 C 3.675781 -6.6875 3.710938 -6.679688 3.765625 -6.671875 C 3.816406 -6.671875 3.898438 -6.664062 4.015625 -6.65625 L 4.015625 -5.5 C 3.953125 -5.507812 3.890625 -5.515625 3.828125 -5.515625 C 3.773438 -5.523438 3.71875 -5.53125 3.65625 -5.53125 C 3.101562 -5.53125 2.675781 -5.347656 2.375 -4.984375 C 2.082031 -4.628906 1.9375 -4.222656 1.9375 -3.765625 L 1.9375 0 L 0.84375 0 Z "/>
      </symbol>
      <symbol overflow="visible" id="dig-glyph1-10">
        <path style="stroke:none;" d="M 3.40625 -0.703125 C 4.132812 -0.703125 4.628906 -0.976562 4.890625 -1.53125 C 5.160156 -2.082031 5.296875 -2.695312 5.296875 -3.375 C 5.296875 -3.988281 5.203125 -4.484375 5.015625 -4.859375 C 4.703125 -5.460938 4.164062 -5.765625 3.40625 -5.765625 C 2.738281 -5.765625 2.25 -5.507812 1.9375 -5 C 1.632812 -4.488281 1.484375 -3.867188 1.484375 -3.140625 C 1.484375 -2.441406 1.632812 -1.859375 1.9375 -1.390625 C 2.25 -0.929688 2.738281 -0.703125 3.40625 -0.703125 Z M 3.4375 -6.71875 C 4.28125 -6.71875 4.992188 -6.4375 5.578125 -5.875 C 6.160156 -5.320312 6.453125 -4.5 6.453125 -3.40625 C 6.453125 -2.351562 6.191406 -1.484375 5.671875 -0.796875 C 5.160156 -0.109375 4.367188 0.234375 3.296875 0.234375 C 2.398438 0.234375 1.6875 -0.0664062 1.15625 -0.671875 C 0.625 -1.285156 0.359375 -2.101562 0.359375 -3.125 C 0.359375 -4.21875 0.632812 -5.085938 1.1875 -5.734375 C 1.75 -6.390625 2.5 -6.71875 3.4375 -6.71875 Z M 3.40625 -6.703125 Z "/>
      </symbol>
      <symbol overflow="visible" id="dig-glyph1-11">
        <path style="stroke:none;" d="M 0.71875 -9 L 1.78125 -9 L 1.78125 -5.75 C 2.03125 -6.0625 2.320312 -6.296875 2.65625 -6.453125 C 2.988281 -6.617188 3.347656 -6.703125 3.734375 -6.703125 C 4.546875 -6.703125 5.203125 -6.421875 5.703125 -5.859375 C 6.210938 -5.304688 6.46875 -4.484375 6.46875 -3.390625 C 6.46875 -2.359375 6.21875 -1.5 5.71875 -0.8125 C 5.21875 -0.132812 4.523438 0.203125 3.640625 0.203125 C 3.148438 0.203125 2.734375 0.0820312 2.390625 -0.15625 C 2.179688 -0.289062 1.960938 -0.519531 1.734375 -0.84375 L 1.734375 0 L 0.71875 0 Z M 3.578125 -0.765625 C 4.171875 -0.765625 4.613281 -1 4.90625 -1.46875 C 5.207031 -1.9375 5.359375 -2.5625 5.359375 -3.34375 C 5.359375 -4.03125 5.207031 -4.597656 4.90625 -5.046875 C 4.613281 -5.492188 4.179688 -5.71875 3.609375 -5.71875 C 3.109375 -5.71875 2.671875 -5.53125 2.296875 -5.15625 C 1.921875 -4.789062 1.734375 -4.1875 1.734375 -3.34375 C 1.734375 -2.726562 1.804688 -2.226562 1.953125 -1.84375 C 2.242188 -1.125 2.785156 -0.765625 3.578125 -0.765625 Z "/>
      </symbol>
      <symbol overflow="visible" id="dig-glyph1-12">
        <path style="stroke:none;" d="M 3.53125 -6.6875 C 3.988281 -6.6875 4.4375 -6.578125 4.875 -6.359375 C 5.3125 -6.140625 5.644531 -5.859375 5.875 -5.515625 C 6.09375 -5.179688 6.238281 -4.796875 6.3125 -4.359375 C 6.375 -4.054688 6.40625 -3.578125 6.40625 -2.921875 L 1.625 -2.921875 C 1.632812 -2.253906 1.785156 -1.71875 2.078125 -1.3125 C 2.378906 -0.914062 2.835938 -0.71875 3.453125 -0.71875 C 4.023438 -0.71875 4.484375 -0.90625 4.828125 -1.28125 C 5.015625 -1.507812 5.148438 -1.765625 5.234375 -2.046875 L 6.3125 -2.046875 C 6.289062 -1.804688 6.195312 -1.539062 6.03125 -1.25 C 5.875 -0.957031 5.695312 -0.71875 5.5 -0.53125 C 5.164062 -0.195312 4.75 0.0234375 4.25 0.140625 C 3.988281 0.203125 3.691406 0.234375 3.359375 0.234375 C 2.546875 0.234375 1.851562 -0.0625 1.28125 -0.65625 C 0.71875 -1.25 0.4375 -2.078125 0.4375 -3.140625 C 0.4375 -4.191406 0.722656 -5.046875 1.296875 -5.703125 C 1.867188 -6.359375 2.613281 -6.6875 3.53125 -6.6875 Z M 5.28125 -3.796875 C 5.238281 -4.265625 5.132812 -4.644531 4.96875 -4.9375 C 4.664062 -5.457031 4.160156 -5.71875 3.453125 -5.71875 C 2.953125 -5.71875 2.53125 -5.535156 2.1875 -5.171875 C 1.84375 -4.804688 1.660156 -4.347656 1.640625 -3.796875 Z M 3.421875 -6.703125 Z "/>
      </symbol>
      <symbol overflow="visible" id="dig-glyph1-13">
        <path style="stroke:none;" d="M 0.953125 -8.96875 L 2.390625 -8.96875 L 6.921875 -1.703125 L 6.921875 -8.96875 L 8.0625 -8.96875 L 8.0625 0 L 6.703125 0 L 2.109375 -7.25 L 2.109375 0 L 0.953125 0 Z M 4.4375 -8.96875 Z "/>
      </symbol>
      <symbol overflow="visible" id="dig-glyph1-14">
        <path style="stroke:none;" d="M 1.90625 -6.53125 L 1.90625 -2.203125 C 1.90625 -1.867188 1.957031 -1.59375 2.0625 -1.375 C 2.257812 -0.988281 2.625 -0.796875 3.15625 -0.796875 C 3.914062 -0.796875 4.4375 -1.132812 4.71875 -1.8125 C 4.863281 -2.1875 4.9375 -2.691406 4.9375 -3.328125 L 4.9375 -6.53125 L 6.046875 -6.53125 L 6.046875 0 L 5 0 L 5.015625 -0.96875 C 4.867188 -0.71875 4.691406 -0.503906 4.484375 -0.328125 C 4.066406 0.00390625 3.554688 0.171875 2.953125 0.171875 C 2.023438 0.171875 1.394531 -0.132812 1.0625 -0.75 C 0.875 -1.082031 0.78125 -1.53125 0.78125 -2.09375 L 0.78125 -6.53125 Z M 3.40625 -6.703125 Z "/>
      </symbol>
      <symbol overflow="visible" id="dig-glyph1-15">
        <path style="stroke:none;" d="M 0.8125 -6.53125 L 1.890625 -6.53125 L 1.890625 -5.609375 C 2.148438 -5.929688 2.382812 -6.164062 2.59375 -6.3125 C 2.957031 -6.5625 3.367188 -6.6875 3.828125 -6.6875 C 4.347656 -6.6875 4.769531 -6.554688 5.09375 -6.296875 C 5.269531 -6.148438 5.429688 -5.9375 5.578125 -5.65625 C 5.816406 -6 6.101562 -6.253906 6.4375 -6.421875 C 6.769531 -6.597656 7.140625 -6.6875 7.546875 -6.6875 C 8.429688 -6.6875 9.03125 -6.367188 9.34375 -5.734375 C 9.507812 -5.390625 9.59375 -4.929688 9.59375 -4.359375 L 9.59375 0 L 8.453125 0 L 8.453125 -4.546875 C 8.453125 -4.972656 8.34375 -5.269531 8.125 -5.4375 C 7.914062 -5.601562 7.65625 -5.6875 7.34375 -5.6875 C 6.90625 -5.6875 6.53125 -5.539062 6.21875 -5.25 C 5.90625 -4.957031 5.75 -4.472656 5.75 -3.796875 L 5.75 0 L 4.640625 0 L 4.640625 -4.265625 C 4.640625 -4.710938 4.585938 -5.035156 4.484375 -5.234375 C 4.316406 -5.535156 4.003906 -5.6875 3.546875 -5.6875 C 3.128906 -5.6875 2.75 -5.523438 2.40625 -5.203125 C 2.070312 -4.890625 1.90625 -4.3125 1.90625 -3.46875 L 1.90625 0 L 0.8125 0 Z "/>
      </symbol>
      <symbol overflow="visible" id="dig-glyph1-16">
        <path style="stroke:none;" d="M 3.375 -8.734375 C 4.507812 -8.734375 5.328125 -8.269531 5.828125 -7.34375 C 6.222656 -6.625 6.421875 -5.632812 6.421875 -4.375 C 6.421875 -3.1875 6.242188 -2.207031 5.890625 -1.4375 C 5.378906 -0.320312 4.539062 0.234375 3.375 0.234375 C 2.320312 0.234375 1.539062 -0.21875 1.03125 -1.125 C 0.601562 -1.882812 0.390625 -2.90625 0.390625 -4.1875 C 0.390625 -5.1875 0.519531 -6.039062 0.78125 -6.75 C 1.257812 -8.070312 2.125 -8.734375 3.375 -8.734375 Z M 3.375 -0.765625 C 3.9375 -0.765625 4.382812 -1.015625 4.71875 -1.515625 C 5.0625 -2.023438 5.234375 -2.96875 5.234375 -4.34375 C 5.234375 -5.332031 5.109375 -6.144531 4.859375 -6.78125 C 4.617188 -7.425781 4.148438 -7.75 3.453125 -7.75 C 2.804688 -7.75 2.332031 -7.441406 2.03125 -6.828125 C 1.726562 -6.222656 1.578125 -5.332031 1.578125 -4.15625 C 1.578125 -3.257812 1.675781 -2.539062 1.875 -2 C 2.164062 -1.175781 2.664062 -0.765625 3.375 -0.765625 Z "/>
      </symbol>
      <symbol overflow="visible" id="dig-glyph1-17">
        <path style="stroke:none;" d="M 0.390625 0 C 0.429688 -0.75 0.585938 -1.398438 0.859375 -1.953125 C 1.128906 -2.515625 1.65625 -3.023438 2.4375 -3.484375 L 3.609375 -4.15625 C 4.140625 -4.46875 4.507812 -4.726562 4.71875 -4.9375 C 5.050781 -5.28125 5.21875 -5.671875 5.21875 -6.109375 C 5.21875 -6.609375 5.0625 -7.007812 4.75 -7.3125 C 4.445312 -7.613281 4.046875 -7.765625 3.546875 -7.765625 C 2.785156 -7.765625 2.265625 -7.476562 1.984375 -6.90625 C 1.828125 -6.601562 1.738281 -6.179688 1.71875 -5.640625 L 0.609375 -5.640625 C 0.617188 -6.398438 0.757812 -7.019531 1.03125 -7.5 C 1.5 -8.34375 2.335938 -8.765625 3.546875 -8.765625 C 4.546875 -8.765625 5.273438 -8.492188 5.734375 -7.953125 C 6.203125 -7.410156 6.4375 -6.8125 6.4375 -6.15625 C 6.4375 -5.457031 6.1875 -4.859375 5.6875 -4.359375 C 5.40625 -4.066406 4.894531 -3.71875 4.15625 -3.3125 L 3.328125 -2.84375 C 2.929688 -2.625 2.617188 -2.414062 2.390625 -2.21875 C 1.984375 -1.863281 1.726562 -1.46875 1.625 -1.03125 L 6.390625 -1.03125 L 6.390625 0 Z "/>
      </symbol>
      <symbol overflow="visible" id="dig-glyph1-18">
        <path style="stroke:none;" d="M 4.125 -3.09375 L 4.125 -7.0625 L 1.328125 -3.09375 Z M 4.15625 0 L 4.15625 -2.140625 L 0.3125 -2.140625 L 0.3125 -3.203125 L 4.328125 -8.765625 L 5.25 -8.765625 L 5.25 -3.09375 L 6.53125 -3.09375 L 6.53125 -2.140625 L 5.25 -2.140625 L 5.25 0 Z "/>
      </symbol>
      <symbol overflow="visible" id="dig-glyph1-19">
        <path style="stroke:none;" d="M 3.65625 -8.78125 C 4.632812 -8.78125 5.316406 -8.523438 5.703125 -8.015625 C 6.085938 -7.503906 6.28125 -6.984375 6.28125 -6.453125 L 5.1875 -6.453125 C 5.125 -6.796875 5.019531 -7.066406 4.875 -7.265625 C 4.613281 -7.628906 4.210938 -7.8125 3.671875 -7.8125 C 3.054688 -7.8125 2.566406 -7.523438 2.203125 -6.953125 C 1.847656 -6.390625 1.648438 -5.578125 1.609375 -4.515625 C 1.859375 -4.890625 2.175781 -5.171875 2.5625 -5.359375 C 2.90625 -5.515625 3.296875 -5.59375 3.734375 -5.59375 C 4.460938 -5.59375 5.097656 -5.359375 5.640625 -4.890625 C 6.191406 -4.421875 6.46875 -3.722656 6.46875 -2.796875 C 6.46875 -2.003906 6.207031 -1.300781 5.6875 -0.6875 C 5.164062 -0.0820312 4.429688 0.21875 3.484375 0.21875 C 2.660156 0.21875 1.953125 -0.0859375 1.359375 -0.703125 C 0.765625 -1.328125 0.46875 -2.375 0.46875 -3.84375 C 0.46875 -4.925781 0.597656 -5.847656 0.859375 -6.609375 C 1.367188 -8.054688 2.300781 -8.78125 3.65625 -8.78125 Z M 3.578125 -0.75 C 4.148438 -0.75 4.578125 -0.941406 4.859375 -1.328125 C 5.148438 -1.722656 5.296875 -2.179688 5.296875 -2.703125 C 5.296875 -3.148438 5.164062 -3.578125 4.90625 -3.984375 C 4.65625 -4.390625 4.191406 -4.59375 3.515625 -4.59375 C 3.046875 -4.59375 2.632812 -4.4375 2.28125 -4.125 C 1.925781 -3.8125 1.75 -3.335938 1.75 -2.703125 C 1.75 -2.148438 1.910156 -1.6875 2.234375 -1.3125 C 2.554688 -0.9375 3.003906 -0.75 3.578125 -0.75 Z "/>
      </symbol>
      <symbol overflow="visible" id="dig-glyph1-20">
        <path style="stroke:none;" d="M 3.40625 -5.078125 C 3.882812 -5.078125 4.257812 -5.210938 4.53125 -5.484375 C 4.800781 -5.753906 4.9375 -6.078125 4.9375 -6.453125 C 4.9375 -6.773438 4.804688 -7.070312 4.546875 -7.34375 C 4.285156 -7.613281 3.890625 -7.75 3.359375 -7.75 C 2.828125 -7.75 2.441406 -7.613281 2.203125 -7.34375 C 1.972656 -7.070312 1.859375 -6.753906 1.859375 -6.390625 C 1.859375 -5.984375 2.007812 -5.660156 2.3125 -5.421875 C 2.625 -5.191406 2.988281 -5.078125 3.40625 -5.078125 Z M 3.46875 -0.75 C 3.976562 -0.75 4.398438 -0.882812 4.734375 -1.15625 C 5.066406 -1.4375 5.234375 -1.847656 5.234375 -2.390625 C 5.234375 -2.953125 5.0625 -3.378906 4.71875 -3.671875 C 4.375 -3.972656 3.929688 -4.125 3.390625 -4.125 C 2.859375 -4.125 2.425781 -3.972656 2.09375 -3.671875 C 1.769531 -3.367188 1.609375 -2.953125 1.609375 -2.421875 C 1.609375 -1.972656 1.757812 -1.582031 2.0625 -1.25 C 2.363281 -0.914062 2.832031 -0.75 3.46875 -0.75 Z M 1.90625 -4.65625 C 1.601562 -4.789062 1.363281 -4.941406 1.1875 -5.109375 C 0.863281 -5.441406 0.703125 -5.867188 0.703125 -6.390625 C 0.703125 -7.035156 0.9375 -7.59375 1.40625 -8.0625 C 1.882812 -8.53125 2.554688 -8.765625 3.421875 -8.765625 C 4.265625 -8.765625 4.921875 -8.539062 5.390625 -8.09375 C 5.867188 -7.65625 6.109375 -7.144531 6.109375 -6.5625 C 6.109375 -6.007812 5.96875 -5.566406 5.6875 -5.234375 C 5.539062 -5.035156 5.300781 -4.847656 4.96875 -4.671875 C 5.332031 -4.503906 5.617188 -4.3125 5.828125 -4.09375 C 6.210938 -3.6875 6.40625 -3.160156 6.40625 -2.515625 C 6.40625 -1.742188 6.144531 -1.085938 5.625 -0.546875 C 5.113281 -0.015625 4.382812 0.25 3.4375 0.25 C 2.59375 0.25 1.875 0.0195312 1.28125 -0.4375 C 0.695312 -0.90625 0.40625 -1.578125 0.40625 -2.453125 C 0.40625 -2.972656 0.53125 -3.421875 0.78125 -3.796875 C 1.03125 -4.171875 1.40625 -4.457031 1.90625 -4.65625 Z "/>
      </symbol>
      <symbol overflow="visible" id="dig-glyph1-21">
        <path style="stroke:none;" d="M 1.203125 -6.1875 L 1.203125 -7.03125 C 1.992188 -7.101562 2.546875 -7.226562 2.859375 -7.40625 C 3.171875 -7.59375 3.40625 -8.023438 3.5625 -8.703125 L 4.421875 -8.703125 L 4.421875 0 L 3.25 0 L 3.25 -6.1875 Z "/>
      </symbol>
      <symbol overflow="visible" id="dig-glyph2-0">
        <path style="stroke:none;" d="M 0 -0.40625 L -8.96875 -0.40625 L -8.96875 -7.515625 L 0 -7.515625 Z M -1.125 -6.390625 L -7.84375 -6.390625 L -7.84375 -1.53125 L -1.125 -1.53125 Z "/>
      </symbol>
      <symbol overflow="visible" id="dig-glyph2-1">
        <path style="stroke:none;" d="M -8.96875 -0.921875 L -8.96875 -2.65625 L -1.390625 -5.234375 L -8.96875 -7.796875 L -8.96875 -9.515625 L 0 -9.515625 L 0 -8.359375 L -5.296875 -8.359375 C -5.472656 -8.359375 -5.773438 -8.363281 -6.203125 -8.375 C -6.628906 -8.382812 -7.082031 -8.390625 -7.5625 -8.390625 L 0 -5.828125 L 0 -4.625 L -7.5625 -2.046875 L -7.28125 -2.046875 C -7.0625 -2.046875 -6.726562 -2.050781 -6.28125 -2.0625 C -5.832031 -2.070312 -5.503906 -2.078125 -5.296875 -2.078125 L 0 -2.078125 L 0 -0.921875 Z "/>
      </symbol>
      <symbol overflow="visible" id="dig-glyph2-2">
        <path style="stroke:none;" d="M -6.6875 -3.53125 C -6.6875 -3.988281 -6.578125 -4.4375 -6.359375 -4.875 C -6.140625 -5.3125 -5.859375 -5.644531 -5.515625 -5.875 C -5.179688 -6.09375 -4.796875 -6.238281 -4.359375 -6.3125 C -4.054688 -6.375 -3.578125 -6.40625 -2.921875 -6.40625 L -2.921875 -1.625 C -2.253906 -1.632812 -1.71875 -1.785156 -1.3125 -2.078125 C -0.914062 -2.378906 -0.71875 -2.835938 -0.71875 -3.453125 C -0.71875 -4.023438 -0.90625 -4.484375 -1.28125 -4.828125 C -1.507812 -5.015625 -1.765625 -5.148438 -2.046875 -5.234375 L -2.046875 -6.3125 C -1.804688 -6.289062 -1.539062 -6.195312 -1.25 -6.03125 C -0.957031 -5.875 -0.71875 -5.695312 -0.53125 -5.5 C -0.195312 -5.164062 0.0234375 -4.75 0.140625 -4.25 C 0.203125 -3.988281 0.234375 -3.691406 0.234375 -3.359375 C 0.234375 -2.546875 -0.0625 -1.851562 -0.65625 -1.28125 C -1.25 -0.71875 -2.078125 -0.4375 -3.140625 -0.4375 C -4.191406 -0.4375 -5.046875 -0.722656 -5.703125 -1.296875 C -6.359375 -1.867188 -6.6875 -2.613281 -6.6875 -3.53125 Z M -3.796875 -5.28125 C -4.265625 -5.238281 -4.644531 -5.132812 -4.9375 -4.96875 C -5.457031 -4.664062 -5.71875 -4.160156 -5.71875 -3.453125 C -5.71875 -2.953125 -5.535156 -2.53125 -5.171875 -2.1875 C -4.804688 -1.84375 -4.347656 -1.660156 -3.796875 -1.640625 Z M -6.703125 -3.421875 Z "/>
      </symbol>
      <symbol overflow="visible" id="dig-glyph2-3">
        <path style="stroke:none;" d="M -1.734375 -1.640625 C -1.421875 -1.640625 -1.171875 -1.753906 -0.984375 -1.984375 C -0.804688 -2.222656 -0.71875 -2.5 -0.71875 -2.8125 C -0.71875 -3.207031 -0.804688 -3.582031 -0.984375 -3.9375 C -1.273438 -4.550781 -1.757812 -4.859375 -2.4375 -4.859375 L -3.328125 -4.859375 C -3.242188 -4.722656 -3.171875 -4.546875 -3.109375 -4.328125 C -3.054688 -4.117188 -3.015625 -3.914062 -2.984375 -3.71875 L -2.90625 -3.046875 C -2.851562 -2.648438 -2.769531 -2.351562 -2.65625 -2.15625 C -2.46875 -1.8125 -2.160156 -1.640625 -1.734375 -1.640625 Z M -3.96875 -4.3125 C -4 -4.5625 -4.101562 -4.726562 -4.28125 -4.8125 C -4.375 -4.863281 -4.515625 -4.890625 -4.703125 -4.890625 C -5.078125 -4.890625 -5.347656 -4.753906 -5.515625 -4.484375 C -5.679688 -4.222656 -5.765625 -3.84375 -5.765625 -3.34375 C -5.765625 -2.769531 -5.609375 -2.363281 -5.296875 -2.125 C -5.128906 -1.988281 -4.878906 -1.898438 -4.546875 -1.859375 L -4.546875 -0.84375 C -5.347656 -0.851562 -5.90625 -1.109375 -6.21875 -1.609375 C -6.539062 -2.117188 -6.703125 -2.707031 -6.703125 -3.375 C -6.703125 -4.132812 -6.550781 -4.757812 -6.25 -5.25 C -5.957031 -5.71875 -5.503906 -5.953125 -4.890625 -5.953125 L -1.125 -5.953125 C -1.007812 -5.953125 -0.914062 -5.972656 -0.84375 -6.015625 C -0.78125 -6.066406 -0.75 -6.171875 -0.75 -6.328125 C -0.75 -6.367188 -0.75 -6.421875 -0.75 -6.484375 C -0.757812 -6.546875 -0.769531 -6.613281 -0.78125 -6.6875 L 0.03125 -6.6875 C 0.0820312 -6.507812 0.113281 -6.375 0.125 -6.28125 C 0.132812 -6.195312 0.140625 -6.078125 0.140625 -5.921875 C 0.140625 -5.546875 0.00390625 -5.273438 -0.265625 -5.109375 C -0.398438 -5.015625 -0.597656 -4.945312 -0.859375 -4.90625 C -0.566406 -4.6875 -0.3125 -4.367188 -0.09375 -3.953125 C 0.113281 -3.535156 0.21875 -3.070312 0.21875 -2.5625 C 0.21875 -1.957031 0.0351562 -1.460938 -0.328125 -1.078125 C -0.703125 -0.691406 -1.164062 -0.5 -1.71875 -0.5 C -2.320312 -0.5 -2.789062 -0.6875 -3.125 -1.0625 C -3.457031 -1.445312 -3.660156 -1.945312 -3.734375 -2.5625 Z M -6.703125 -3.40625 Z "/>
      </symbol>
      <symbol overflow="visible" id="dig-glyph2-4">
        <path style="stroke:none;" d="M -6.53125 -0.8125 L -6.53125 -1.84375 L -5.609375 -1.84375 C -5.992188 -2.15625 -6.269531 -2.484375 -6.4375 -2.828125 C -6.601562 -3.171875 -6.6875 -3.554688 -6.6875 -3.984375 C -6.6875 -4.910156 -6.363281 -5.535156 -5.71875 -5.859375 C -5.363281 -6.046875 -4.851562 -6.140625 -4.1875 -6.140625 L 0 -6.140625 L 0 -5.015625 L -4.125 -5.015625 C -4.519531 -5.015625 -4.835938 -4.957031 -5.078125 -4.84375 C -5.484375 -4.644531 -5.6875 -4.289062 -5.6875 -3.78125 C -5.6875 -3.519531 -5.660156 -3.304688 -5.609375 -3.140625 C -5.523438 -2.835938 -5.347656 -2.570312 -5.078125 -2.34375 C -4.859375 -2.15625 -4.632812 -2.035156 -4.40625 -1.984375 C -4.175781 -1.929688 -3.847656 -1.90625 -3.421875 -1.90625 L 0 -1.90625 L 0 -0.8125 Z M -6.703125 -3.390625 Z "/>
      </symbol>
      <symbol overflow="visible" id="dig-glyph2-5">
        <path style="stroke:none;" d=""/>
      </symbol>
      <symbol overflow="visible" id="dig-glyph2-6">
        <path style="stroke:none;" d="M -8.96875 -1.234375 L -8.96875 -2.453125 L 0 -2.453125 L 0 -1.234375 Z "/>
      </symbol>
      <symbol overflow="visible" id="dig-glyph2-7">
        <path style="stroke:none;" d="M -8.359375 -1.03125 L -8.359375 -2.140625 L -6.53125 -2.140625 L -6.53125 -3.1875 L -5.640625 -3.1875 L -5.640625 -2.140625 L -1.375 -2.140625 C -1.144531 -2.140625 -0.992188 -2.21875 -0.921875 -2.375 C -0.867188 -2.457031 -0.84375 -2.597656 -0.84375 -2.796875 C -0.84375 -2.847656 -0.84375 -2.90625 -0.84375 -2.96875 C -0.851562 -3.03125 -0.859375 -3.101562 -0.859375 -3.1875 L 0 -3.1875 C 0.0390625 -3.050781 0.0664062 -2.914062 0.078125 -2.78125 C 0.0976562 -2.644531 0.109375 -2.5 0.109375 -2.34375 C 0.109375 -1.832031 -0.0195312 -1.484375 -0.28125 -1.296875 C -0.550781 -1.117188 -0.894531 -1.03125 -1.3125 -1.03125 L -5.640625 -1.03125 L -5.640625 -0.140625 L -6.53125 -0.140625 L -6.53125 -1.03125 Z "/>
      </symbol>
      <symbol overflow="visible" id="dig-glyph2-8">
        <path style="stroke:none;" d="M -2.046875 -1.453125 C -1.679688 -1.484375 -1.398438 -1.578125 -1.203125 -1.734375 C -0.847656 -2.015625 -0.671875 -2.492188 -0.671875 -3.171875 C -0.671875 -3.578125 -0.757812 -3.9375 -0.9375 -4.25 C -1.113281 -4.5625 -1.390625 -4.71875 -1.765625 -4.71875 C -2.046875 -4.71875 -2.257812 -4.59375 -2.40625 -4.34375 C -2.5 -4.1875 -2.601562 -3.875 -2.71875 -3.40625 L -2.9375 -2.53125 C -3.070312 -1.96875 -3.226562 -1.554688 -3.40625 -1.296875 C -3.695312 -0.828125 -4.101562 -0.59375 -4.625 -0.59375 C -5.25 -0.59375 -5.75 -0.8125 -6.125 -1.25 C -6.507812 -1.695312 -6.703125 -2.296875 -6.703125 -3.046875 C -6.703125 -4.035156 -6.414062 -4.75 -5.84375 -5.1875 C -5.476562 -5.457031 -5.082031 -5.585938 -4.65625 -5.578125 L -4.65625 -4.546875 C -4.90625 -4.523438 -5.128906 -4.4375 -5.328125 -4.28125 C -5.617188 -4.03125 -5.765625 -3.59375 -5.765625 -2.96875 C -5.765625 -2.550781 -5.6875 -2.234375 -5.53125 -2.015625 C -5.375 -1.804688 -5.164062 -1.703125 -4.90625 -1.703125 C -4.613281 -1.703125 -4.382812 -1.84375 -4.21875 -2.125 C -4.113281 -2.289062 -4.023438 -2.53125 -3.953125 -2.84375 L -3.765625 -3.578125 C -3.578125 -4.359375 -3.394531 -4.882812 -3.21875 -5.15625 C -2.9375 -5.582031 -2.492188 -5.796875 -1.890625 -5.796875 C -1.304688 -5.796875 -0.800781 -5.570312 -0.375 -5.125 C 0.0390625 -4.6875 0.25 -4.019531 0.25 -3.125 C 0.25 -2.144531 0.03125 -1.453125 -0.40625 -1.046875 C -0.851562 -0.648438 -1.398438 -0.4375 -2.046875 -0.40625 Z M -6.703125 -3.078125 Z "/>
      </symbol>
      <symbol overflow="visible" id="dig-glyph2-9">
        <path style="stroke:none;" d="M -6.5 -0.8125 L -6.5 -1.921875 L 0 -1.921875 L 0 -0.8125 Z M -8.96875 -0.8125 L -8.96875 -1.921875 L -7.71875 -1.921875 L -7.71875 -0.8125 Z "/>
      </symbol>
      <symbol overflow="visible" id="dig-glyph2-10">
        <path style="stroke:none;" d="M -6.53125 -4.890625 L -6.53125 -6.109375 C -6.113281 -5.953125 -5.160156 -5.609375 -3.671875 -5.078125 C -2.546875 -4.671875 -1.628906 -4.335938 -0.921875 -4.078125 C 0.742188 -3.441406 1.757812 -2.992188 2.125 -2.734375 C 2.488281 -2.472656 2.671875 -2.023438 2.671875 -1.390625 C 2.671875 -1.234375 2.664062 -1.113281 2.65625 -1.03125 C 2.644531 -0.945312 2.625 -0.84375 2.59375 -0.71875 L 1.59375 -0.71875 C 1.644531 -0.90625 1.675781 -1.039062 1.6875 -1.125 C 1.695312 -1.21875 1.703125 -1.296875 1.703125 -1.359375 C 1.703125 -1.566406 1.664062 -1.71875 1.59375 -1.8125 C 1.53125 -1.90625 1.453125 -1.984375 1.359375 -2.046875 C 1.328125 -2.066406 1.160156 -2.140625 0.859375 -2.265625 C 0.554688 -2.390625 0.332031 -2.484375 0.1875 -2.546875 L -6.53125 -0.125 L -6.53125 -1.375 L -1.21875 -3.125 Z M -6.703125 -3.125 Z "/>
      </symbol>
      <symbol overflow="visible" id="dig-glyph2-11">
        <path style="stroke:none;" d="M -6.453125 -1.390625 L -6.453125 -2.65625 L -5.125 -2.65625 L -5.125 -1.390625 Z M -1.328125 -1.390625 L -1.328125 -2.65625 L 0 -2.65625 L 0 -1.390625 Z "/>
      </symbol>
      <symbol overflow="visible" id="dig-glyph2-12">
        <path style="stroke:none;" d="M -9 -0.8125 L -9 -1.90625 L -5.65625 -1.90625 C -5.976562 -2.164062 -6.207031 -2.398438 -6.34375 -2.609375 C -6.582031 -2.960938 -6.703125 -3.40625 -6.703125 -3.9375 C -6.703125 -4.882812 -6.367188 -5.523438 -5.703125 -5.859375 C -5.335938 -6.046875 -4.832031 -6.140625 -4.1875 -6.140625 L 0 -6.140625 L 0 -5 L -4.125 -5 C -4.601562 -5 -4.953125 -4.941406 -5.171875 -4.828125 C -5.535156 -4.617188 -5.71875 -4.242188 -5.71875 -3.703125 C -5.71875 -3.242188 -5.554688 -2.828125 -5.234375 -2.453125 C -4.921875 -2.085938 -4.332031 -1.90625 -3.46875 -1.90625 L 0 -1.90625 L 0 -0.8125 Z "/>
      </symbol>
      <symbol overflow="visible" id="dig-glyph2-13">
        <path style="stroke:none;" d="M -7.53125 -1.078125 C -7.988281 -1.097656 -8.320312 -1.175781 -8.53125 -1.3125 C -8.90625 -1.570312 -9.09375 -2.066406 -9.09375 -2.796875 C -9.09375 -2.867188 -9.085938 -2.941406 -9.078125 -3.015625 C -9.078125 -3.085938 -9.070312 -3.171875 -9.0625 -3.265625 L -8.0625 -3.265625 C -8.070312 -3.148438 -8.078125 -3.066406 -8.078125 -3.015625 C -8.085938 -2.960938 -8.09375 -2.914062 -8.09375 -2.875 C -8.09375 -2.539062 -8.003906 -2.335938 -7.828125 -2.265625 C -7.648438 -2.203125 -7.207031 -2.171875 -6.5 -2.171875 L -6.5 -3.265625 L -5.640625 -3.265625 L -5.640625 -2.171875 L 0 -2.171875 L 0 -1.078125 L -5.640625 -1.078125 L -5.640625 -0.171875 L -6.5 -0.171875 L -6.5 -1.078125 Z "/>
      </symbol>
      <symbol overflow="visible" id="dig-glyph2-14">
        <path style="stroke:none;" d="M -3.1875 -1.5 C -2.488281 -1.5 -1.898438 -1.644531 -1.421875 -1.9375 C -0.953125 -2.238281 -0.71875 -2.71875 -0.71875 -3.375 C -0.71875 -3.882812 -0.9375 -4.300781 -1.375 -4.625 C -1.8125 -4.957031 -2.441406 -5.125 -3.265625 -5.125 C -4.085938 -5.125 -4.695312 -4.953125 -5.09375 -4.609375 C -5.488281 -4.273438 -5.6875 -3.859375 -5.6875 -3.359375 C -5.6875 -2.804688 -5.472656 -2.359375 -5.046875 -2.015625 C -4.628906 -1.671875 -4.007812 -1.5 -3.1875 -1.5 Z M -6.65625 -3.15625 C -6.65625 -3.65625 -6.546875 -4.070312 -6.328125 -4.40625 C -6.210938 -4.601562 -6 -4.828125 -5.6875 -5.078125 L -9 -5.078125 L -9 -6.140625 L 0 -6.140625 L 0 -5.140625 L -0.90625 -5.140625 C -0.507812 -4.890625 -0.21875 -4.585938 -0.03125 -4.234375 C 0.144531 -3.890625 0.234375 -3.488281 0.234375 -3.03125 C 0.234375 -2.300781 -0.0703125 -1.671875 -0.6875 -1.140625 C -1.300781 -0.609375 -2.113281 -0.34375 -3.125 -0.34375 C -4.082031 -0.34375 -4.910156 -0.582031 -5.609375 -1.0625 C -6.304688 -1.550781 -6.65625 -2.25 -6.65625 -3.15625 Z "/>
      </symbol>
      <symbol overflow="visible" id="dig-glyph2-15">
        <path style="stroke:none;" d="M -6.71875 -3.328125 C -6.71875 -4.066406 -6.539062 -4.664062 -6.1875 -5.125 C -5.832031 -5.582031 -5.21875 -5.859375 -4.34375 -5.953125 L -4.34375 -4.890625 C -4.738281 -4.828125 -5.070312 -4.675781 -5.34375 -4.4375 C -5.613281 -4.207031 -5.75 -3.835938 -5.75 -3.328125 C -5.75 -2.628906 -5.40625 -2.128906 -4.71875 -1.828125 C -4.269531 -1.628906 -3.722656 -1.53125 -3.078125 -1.53125 C -2.421875 -1.53125 -1.867188 -1.664062 -1.421875 -1.9375 C -0.972656 -2.21875 -0.75 -2.65625 -0.75 -3.25 C -0.75 -3.707031 -0.890625 -4.066406 -1.171875 -4.328125 C -1.453125 -4.597656 -1.832031 -4.785156 -2.3125 -4.890625 L -2.3125 -5.953125 C -1.445312 -5.835938 -0.8125 -5.535156 -0.40625 -5.046875 C -0.0078125 -4.554688 0.1875 -3.929688 0.1875 -3.171875 C 0.1875 -2.316406 -0.125 -1.632812 -0.75 -1.125 C -1.375 -0.613281 -2.15625 -0.359375 -3.09375 -0.359375 C -4.238281 -0.359375 -5.128906 -0.632812 -5.765625 -1.1875 C -6.398438 -1.75 -6.71875 -2.460938 -6.71875 -3.328125 Z M -6.703125 -3.15625 Z "/>
      </symbol>
      <symbol overflow="visible" id="dig-glyph2-16">
        <path style="stroke:none;" d="M -8.96875 -0.84375 L -8.96875 -1.9375 L 0 -1.9375 L 0 -0.84375 Z "/>
      </symbol>
      <symbol overflow="visible" id="dig-glyph2-17">
        <path style="stroke:none;" d="M -8.734375 -3.375 C -8.734375 -4.507812 -8.269531 -5.328125 -7.34375 -5.828125 C -6.625 -6.222656 -5.632812 -6.421875 -4.375 -6.421875 C -3.1875 -6.421875 -2.207031 -6.242188 -1.4375 -5.890625 C -0.320312 -5.378906 0.234375 -4.539062 0.234375 -3.375 C 0.234375 -2.320312 -0.21875 -1.539062 -1.125 -1.03125 C -1.882812 -0.601562 -2.90625 -0.390625 -4.1875 -0.390625 C -5.1875 -0.390625 -6.039062 -0.519531 -6.75 -0.78125 C -8.070312 -1.257812 -8.734375 -2.125 -8.734375 -3.375 Z M -0.765625 -3.375 C -0.765625 -3.9375 -1.015625 -4.382812 -1.515625 -4.71875 C -2.023438 -5.0625 -2.96875 -5.234375 -4.34375 -5.234375 C -5.332031 -5.234375 -6.144531 -5.109375 -6.78125 -4.859375 C -7.425781 -4.617188 -7.75 -4.148438 -7.75 -3.453125 C -7.75 -2.804688 -7.441406 -2.332031 -6.828125 -2.03125 C -6.222656 -1.726562 -5.332031 -1.578125 -4.15625 -1.578125 C -3.257812 -1.578125 -2.539062 -1.675781 -2 -1.875 C -1.175781 -2.164062 -0.765625 -2.664062 -0.765625 -3.375 Z "/>
      </symbol>
      <symbol overflow="visible" id="dig-glyph2-18">
        <path style="stroke:none;" d="M -3.09375 -4.125 L -7.0625 -4.125 L -3.09375 -1.328125 Z M 0 -4.15625 L -2.140625 -4.15625 L -2.140625 -0.3125 L -3.203125 -0.3125 L -8.765625 -4.328125 L -8.765625 -5.25 L -3.09375 -5.25 L -3.09375 -6.53125 L -2.140625 -6.53125 L -2.140625 -5.25 L 0 -5.25 Z "/>
      </symbol>
      <symbol overflow="visible" id="dig-glyph2-19">
        <path style="stroke:none;" d="M -5.078125 -3.40625 C -5.078125 -3.882812 -5.210938 -4.257812 -5.484375 -4.53125 C -5.753906 -4.800781 -6.078125 -4.9375 -6.453125 -4.9375 C -6.773438 -4.9375 -7.070312 -4.804688 -7.34375 -4.546875 C -7.613281 -4.285156 -7.75 -3.890625 -7.75 -3.359375 C -7.75 -2.828125 -7.613281 -2.441406 -7.34375 -2.203125 C -7.070312 -1.972656 -6.753906 -1.859375 -6.390625 -1.859375 C -5.984375 -1.859375 -5.660156 -2.007812 -5.421875 -2.3125 C -5.191406 -2.625 -5.078125 -2.988281 -5.078125 -3.40625 Z M -0.75 -3.46875 C -0.75 -3.976562 -0.882812 -4.398438 -1.15625 -4.734375 C -1.4375 -5.066406 -1.847656 -5.234375 -2.390625 -5.234375 C -2.953125 -5.234375 -3.378906 -5.0625 -3.671875 -4.71875 C -3.972656 -4.375 -4.125 -3.929688 -4.125 -3.390625 C -4.125 -2.859375 -3.972656 -2.425781 -3.671875 -2.09375 C -3.367188 -1.769531 -2.953125 -1.609375 -2.421875 -1.609375 C -1.972656 -1.609375 -1.582031 -1.757812 -1.25 -2.0625 C -0.914062 -2.363281 -0.75 -2.832031 -0.75 -3.46875 Z M -4.65625 -1.90625 C -4.789062 -1.601562 -4.941406 -1.363281 -5.109375 -1.1875 C -5.441406 -0.863281 -5.867188 -0.703125 -6.390625 -0.703125 C -7.035156 -0.703125 -7.59375 -0.9375 -8.0625 -1.40625 C -8.53125 -1.882812 -8.765625 -2.554688 -8.765625 -3.421875 C -8.765625 -4.265625 -8.539062 -4.921875 -8.09375 -5.390625 C -7.65625 -5.867188 -7.144531 -6.109375 -6.5625 -6.109375 C -6.007812 -6.109375 -5.566406 -5.96875 -5.234375 -5.6875 C -5.035156 -5.539062 -4.847656 -5.300781 -4.671875 -4.96875 C -4.503906 -5.332031 -4.3125 -5.617188 -4.09375 -5.828125 C -3.6875 -6.210938 -3.160156 -6.40625 -2.515625 -6.40625 C -1.742188 -6.40625 -1.085938 -6.144531 -0.546875 -5.625 C -0.015625 -5.113281 0.25 -4.382812 0.25 -3.4375 C 0.25 -2.59375 0.0195312 -1.875 -0.4375 -1.28125 C -0.90625 -0.695312 -1.578125 -0.40625 -2.453125 -0.40625 C -2.972656 -0.40625 -3.421875 -0.53125 -3.796875 -0.78125 C -4.171875 -1.03125 -4.457031 -1.40625 -4.65625 -1.90625 Z "/>
      </symbol>
    </g>
  </defs>
  <g id="surface1">
    <g style="fill:rgb(0%,0%,0%);fill-opacity:1;">
      <use xlink:href="#dig-glyph0-1" x="123.136719" y="34.863281"/>
      <use xlink:href="#dig-glyph0-2" x="133.901535" y="34.863281"/>
      <use xlink:href="#dig-glyph0-3" x="144.666351" y="34.863281"/>
      <use xlink:href="#dig-glyph0-4" x="154.608704" y="34.863281"/>
      <use xlink:href="#dig-glyph0-5" x="158.750137" y="34.863281"/>
      <use xlink:href="#dig-glyph0-6" x="167.040283" y="34.863281"/>
      <use xlink:href="#dig-glyph0-7" x="175.330429" y="34.863281"/>
      <use xlink:href="#dig-glyph0-8" x="183.620575" y="34.863281"/>
      <use xlink:href="#dig-glyph0-9" x="188.584473" y="34.863281"/>
      <use xlink:href="#dig-glyph0-5" x="196.874619" y="34.863281"/>
      <use xlink:href="#dig-glyph0-9" x="205.164764" y="34.863281"/>
      <use xlink:href="#dig-glyph0-10" x="213.45491" y="34.863281"/>
      <use xlink:href="#dig-glyph0-11" x="217.596344" y="34.863281"/>
      <use xlink:href="#dig-glyph0-12" x="220.908035" y="34.863281"/>
      <use xlink:href="#dig-glyph0-13" x="229.198181" y="34.863281"/>
      <use xlink:href="#dig-glyph0-4" x="237.488327" y="34.863281"/>
      <use xlink:href="#dig-glyph0-14" x="241.629761" y="34.863281"/>
      <use xlink:href="#dig-glyph0-15" x="249.919907" y="34.863281"/>
      <use xlink:href="#dig-glyph0-12" x="253.231598" y="34.863281"/>
      <use xlink:href="#dig-glyph0-10" x="261.521744" y="34.863281"/>
    </g>
    <g style="fill:rgb(0%,0%,0%);fill-opacity:1;">
      <use xlink:href="#dig-glyph1-1" x="163.882812" y="220.320312"/>
      <use xlink:href="#dig-glyph1-2" x="170.834717" y="220.320312"/>
      <use xlink:href="#dig-glyph1-3" x="173.221191" y="220.320312"/>
      <use xlink:href="#dig-glyph1-4" x="176.694092" y="220.320312"/>
      <use xlink:href="#dig-glyph1-5" x="183.993896" y="220.320312"/>
      <use xlink:href="#dig-glyph1-5" x="188.156494" y="220.320312"/>
      <use xlink:href="#dig-glyph1-5" x="192.319092" y="220.320312"/>
      <use xlink:href="#dig-glyph1-5" x="196.481689" y="220.320312"/>
      <use xlink:href="#dig-glyph1-5" x="200.644287" y="220.320312"/>
      <use xlink:href="#dig-glyph1-6" x="204.806885" y="220.320312"/>
      <use xlink:href="#dig-glyph1-3" x="212.106689" y="220.320312"/>
      <use xlink:href="#dig-glyph1-7" x="215.57959" y="220.320312"/>
      <use xlink:href="#dig-glyph1-2" x="222.531494" y="220.320312"/>
    </g>
    <g style="fill:rgb(0%,0%,0%);fill-opacity:1;">
      <use xlink:href="#dig-glyph1-3" x="150.28125" y="234.71875"/>
      <use xlink:href="#dig-glyph1-8" x="153.75415" y="234.71875"/>
      <use xlink:href="#dig-glyph1-9" x="162.091553" y="234.71875"/>
      <use xlink:href="#dig-glyph1-10" x="166.25415" y="234.71875"/>
      <use xlink:href="#dig-glyph1-11" x="173.206055" y="234.71875"/>
      <use xlink:href="#dig-glyph1-12" x="180.157959" y="234.71875"/>
      <use xlink:href="#dig-glyph1-3" x="187.109863" y="234.71875"/>
      <use xlink:href="#dig-glyph1-13" x="190.582764" y="234.71875"/>
      <use xlink:href="#dig-glyph1-14" x="199.609863" y="234.71875"/>
      <use xlink:href="#dig-glyph1-15" x="206.561768" y="234.71875"/>
      <use xlink:href="#dig-glyph1-11" x="216.974365" y="234.71875"/>
      <use xlink:href="#dig-glyph1-12" x="223.92627" y="234.71875"/>
      <use xlink:href="#dig-glyph1-9" x="230.878174" y="234.71875"/>
      <use xlink:href="#dig-glyph1-3" x="235.040771" y="234.71875"/>
    </g>
    <g style="fill:rgb(0%,0%,0%);fill-opacity:1;">
      <use xlink:href="#dig-glyph2-1" x="14.398438" y="215.039062"/>
      <use xlink:href="#dig-glyph2-2" x="14.398438" y="204.626465"/>
      <use xlink:href="#dig-glyph2-3" x="14.398438" y="197.674561"/>
      <use xlink:href="#dig-glyph2-4" x="14.398438" y="190.722656"/>
      <use xlink:href="#dig-glyph2-5" x="14.398438" y="183.770752"/>
      <use xlink:href="#dig-glyph2-6" x="14.398438" y="180.297852"/>
      <use xlink:href="#dig-glyph2-4" x="14.398438" y="176.824951"/>
      <use xlink:href="#dig-glyph2-7" x="14.398438" y="169.873047"/>
      <use xlink:href="#dig-glyph2-2" x="14.398438" y="166.400146"/>
      <use xlink:href="#dig-glyph2-4" x="14.398438" y="159.448242"/>
      <use xlink:href="#dig-glyph2-8" x="14.398438" y="152.496338"/>
      <use xlink:href="#dig-glyph2-9" x="14.398438" y="146.246338"/>
      <use xlink:href="#dig-glyph2-7" x="14.398438" y="143.469238"/>
      <use xlink:href="#dig-glyph2-10" x="14.398438" y="139.996338"/>
      <use xlink:href="#dig-glyph2-5" x="14.398438" y="133.746338"/>
      <use xlink:href="#dig-glyph2-11" x="14.398438" y="130.273438"/>
      <use xlink:href="#dig-glyph2-5" x="14.398438" y="126.800537"/>
      <use xlink:href="#dig-glyph2-8" x="14.398438" y="123.327637"/>
      <use xlink:href="#dig-glyph2-12" x="14.398438" y="117.077637"/>
      <use xlink:href="#dig-glyph2-9" x="14.398438" y="110.125732"/>
      <use xlink:href="#dig-glyph2-13" x="14.398438" y="107.348633"/>
      <use xlink:href="#dig-glyph2-7" x="14.398438" y="103.875732"/>
      <use xlink:href="#dig-glyph2-2" x="14.398438" y="100.402832"/>
      <use xlink:href="#dig-glyph2-14" x="14.398438" y="93.450928"/>
      <use xlink:href="#dig-glyph2-5" x="14.398438" y="86.499023"/>
      <use xlink:href="#dig-glyph2-3" x="14.398438" y="83.026123"/>
      <use xlink:href="#dig-glyph2-4" x="14.398438" y="76.074219"/>
      <use xlink:href="#dig-glyph2-14" x="14.398438" y="69.122314"/>
      <use xlink:href="#dig-glyph2-5" x="14.398438" y="62.17041"/>
      <use xlink:href="#dig-glyph2-8" x="14.398438" y="58.69751"/>
      <use xlink:href="#dig-glyph2-15" x="14.398438" y="52.44751"/>
      <use xlink:href="#dig-glyph2-3" x="14.398438" y="46.19751"/>
      <use xlink:href="#dig-glyph2-16" x="14.398438" y="39.245605"/>
      <use xlink:href="#dig-glyph2-2" x="14.398438" y="36.468506"/>
      <use xlink:href="#dig-glyph2-14" x="14.398438" y="29.516602"/>
    </g>
    <path style="fill:none;stroke-width:1;stroke-linecap:round;stroke-linejoin:round;stroke:rgb(0%,0%,0%);stroke-opacity:1;stroke-miterlimit:10;" d="M 89.957031 178.558594 L 298.84375 178.558594 "/>
    <path style="fill:none;stroke-width:1;stroke-linecap:round;stroke-linejoin:round;stroke:rgb(0%,0%,0%);stroke-opacity:1;stroke-miterlimit:10;" d="M 89.957031 178.558594 L 89.957031 185.761719 "/>
    <path style="fill:none;stroke-width:1;stroke-linecap:round;stroke-linejoin:round;stroke:rgb(0%,0%,0%);stroke-opacity:1;stroke-miterlimit:10;" d="M 131.734375 178.558594 L 131.734375 185.761719 "/>
    <path style="fill:none;stroke-width:1;stroke-linecap:round;stroke-linejoin:round;stroke:rgb(0%,0%,0%);stroke-opacity:1;stroke-miterlimit:10;" d="M 173.511719 178.558594 L 173.511719 185.761719 "/>
    <path style="fill:none;stroke-width:1;stroke-linecap:round;stroke-linejoin:round;stroke:rgb(0%,0%,0%);stroke-opacity:1;stroke-miterlimit:10;" d="M 215.289062 178.558594 L 215.289062 185.761719 "/>
    <path style="fill:none;stroke-width:1;stroke-linecap:round;stroke-linejoin:round;stroke:rgb(0%,0%,0%);stroke-opacity:1;stroke-miterlimit:10;" d="M 257.066406 178.558594 L 257.066406 185.761719 "/>
    <path style="fill:none;stroke-width:1;stroke-linecap:round;stroke-linejoin:round;stroke:rgb(0%,0%,0%);stroke-opacity:1;stroke-miterlimit:10;" d="M 298.84375 178.558594 L 298.84375 185.761719 "/>
    <g style="fill:rgb(0%,0%,0%);fill-opacity:1;">
      <use xlink:href="#dig-glyph1-16" x="86.480469" y="205.921875"/>
    </g>
    <g style="fill:rgb(0%,0%,0%);fill-opacity:1;">
      <use xlink:href="#dig-glyph1-17" x="128.257812" y="205.921875"/>
    </g>
    <g style="fill:rgb(0%,0%,0%);fill-opacity:1;">
      <use xlink:href="#dig-glyph1-18" x="170.035156" y="205.921875"/>
    </g>
    <g style="fill:rgb(0%,0%,0%);fill-opacity:1;">
      <use xlink:href="#dig-glyph1-19" x="211.8125" y="205.921875"/>
    </g>
    <g style="fill:rgb(0%,0%,0%);fill-opacity:1;">
      <use xlink:href="#dig-glyph1-20" x="253.589844" y="205.921875"/>
    </g>
    <g style="fill:rgb(0%,0%,0%);fill-opacity:1;">
      <use xlink:href="#dig-glyph1-21" x="291.890625" y="205.921875"/>
      <use xlink:href="#dig-glyph1-16" x="298.842529" y="205.921875"/>
    </g>
    <path style="fill:none;stroke-width:1;stroke-linecap:round;stroke-linejoin:round;stroke:rgb(0%,0%,0%);stroke-opacity:1;stroke-miterlimit:10;" d="M 59.039062 174.132812 L 59.039062 71.707031 "/>
    <path style="fill:none;stroke-width:1;stroke-linecap:round;stroke-linejoin:round;stroke:rgb(0%,0%,0%);stroke-opacity:1;stroke-miterlimit:10;" d="M 59.039062 174.132812 L 51.839844 174.132812 "/>
    <path style="fill:none;stroke-width:1;stroke-linecap:round;stroke-linejoin:round;stroke:rgb(0%,0%,0%);stroke-opacity:1;stroke-miterlimit:10;" d="M 59.039062 153.648438 L 51.839844 153.648438 "/>
    <path style="fill:none;stroke-width:1;stroke-linecap:round;stroke-linejoin:round;stroke:rgb(0%,0%,0%);stroke-opacity:1;stroke-miterlimit:10;" d="M 59.039062 133.164062 L 51.839844 133.164062 "/>
    <path style="fill:none;stroke-width:1;stroke-linecap:round;stroke-linejoin:round;stroke:rgb(0%,0%,0%);stroke-opacity:1;stroke-miterlimit:10;" d="M 59.039062 112.679688 L 51.839844 112.679688 "/>
    <path style="fill:none;stroke-width:1;stroke-linecap:round;stroke-linejoin:round;stroke:rgb(0%,0%,0%);stroke-opacity:1;stroke-miterlimit:10;" d="M 59.039062 92.191406 L 51.839844 92.191406 "/>
    <path style="fill:none;stroke-width:1;stroke-linecap:round;stroke-linejoin:round;stroke:rgb(0%,0%,0%);stroke-opacity:1;stroke-miterlimit:10;" d="M 59.039062 71.707031 L 51.839844 71.707031 "/>
    <g style="fill:rgb(0%,0%,0%);fill-opacity:1;">
      <use xlink:href="#dig-glyph2-17" x="43.199219" y="177.609375"/>
    </g>
    <g style="fill:rgb(0%,0%,0%);fill-opacity:1;">
      <use xlink:href="#dig-glyph2-18" x="43.199219" y="140.117188"/>
      <use xlink:href="#dig-glyph2-17" x="43.199219" y="133.165283"/>
    </g>
    <g style="fill:rgb(0%,0%,0%);fill-opacity:1;">
      <use xlink:href="#dig-glyph2-19" x="43.199219" y="99.144531"/>
      <use xlink:href="#dig-glyph2-17" x="43.199219" y="92.192627"/>
    </g>
    <path d="M 89.957031 173.109375 L 110.84375 169.222656 L 131.734375 168.527344 L 152.621094 166.28125 L 173.511719 164.175781 L 194.398438 161.453125 L 215.289062 160.121094 L 236.179688 158.8125 L 257.066406 155.839844 L 277.957031 154.15625 L 298.84375 152.910156 " class="aqm1" onclick="plotObjRespond('click', 1, 'dig')" onmouseover="plotObjRespond('show', 1, 'dig')" onmouseout="plotObjRespond('hide', 1, 'dig')" fill="none" stroke-width="1" stroke-linecap="round" stroke-linejoin="round" stroke="rgb(12.156863%,47.058824%,70.588235%)" stroke-opacity="1" stroke-miterlimit="10"/>
    <path d="M 89.957031 172.085938 L 110.84375 168.378906 L 131.734375 167.25 L 152.621094 164.910156 L 173.511719 162.417969 L 194.398438 159.566406 L 215.289062 158.402344 L 236.179688 156.023438 L 257.066406 153.09375 L 277.957031 150.101562 L 298.84375 147.917969 " class="aqm2" onclick="plotObjRespond('click', 2, 'dig')" onmouseover="plotObjRespond('show', 2, 'dig')" onmouseout="plotObjRespond('hide', 2, 'dig')" fill="none" stroke-width="1" stroke-linecap="round" stroke-linejoin="round" stroke="rgb(12.156863%,47.058824%,70.588235%)" stroke-opacity="1" stroke-miterlimit="10"/>
    <path d="M 89.957031 171.0625 L 110.84375 167.097656 L 131.734375 166.105469 L 152.621094 164.011719 L 173.511719 161.648438 L 194.398438 158.753906 L 215.289062 157.769531 L 236.179688 155.660156 L 257.066406 152.757812 L 277.957031 150.464844 L 298.84375 149.121094 " class="aqm3" onclick="plotObjRespond('click', 3, 'dig')" onmouseover="plotObjRespond('show', 3, 'dig')" onmouseout="plotObjRespond('hide', 3, 'dig')" fill="none" stroke-width="1" stroke-linecap="round" stroke-linejoin="round" stroke="rgb(12.156863%,47.058824%,70.588235%)" stroke-opacity="1" stroke-miterlimit="10"/>
    <path d="M 89.957031 170.035156 L 110.84375 165.207031 L 131.734375 163.953125 L 152.621094 161.242188 L 173.511719 158.082031 L 194.398438 154.09375 L 215.289062 152.554688 L 236.179688 148.539062 L 257.066406 143.40625 L 277.957031 136.246094 L 298.84375 129.300781 " class="aqm4" onclick="plotObjRespond('click', 4, 'dig')" onmouseover="plotObjRespond('show', 4, 'dig')" onmouseout="plotObjRespond('hide', 4, 'dig')" fill="none" stroke-width="1" stroke-linecap="round" stroke-linejoin="round" stroke="rgb(12.156863%,47.058824%,70.588235%)" stroke-opacity="1" stroke-miterlimit="10"/>
    <path d="M 89.957031 169.011719 L 110.84375 164.453125 L 131.734375 163.386719 L 152.621094 160.238281 L 173.511719 157.175781 L 194.398438 154.078125 L 215.289062 152.285156 L 236.179688 148.6875 L 257.066406 144.25 L 277.957031 137.304688 L 298.84375 130.164062 " class="aqm5" onclick="plotObjRespond('click', 5, 'dig')" onmouseover="plotObjRespond('show', 5, 'dig')" onmouseout="plotObjRespond('hide', 5, 'dig')" fill="none" stroke-width="1" stroke-linecap="round" stroke-linejoin="round" stroke="rgb(12.156863%,47.058824%,70.588235%)" stroke-opacity="1" stroke-miterlimit="10"/>
    <path d="M 89.957031 167.988281 L 110.84375 163.003906 L 131.734375 161.921875 L 152.621094 158.734375 L 173.511719 155.632812 L 194.398438 151.980469 L 215.289062 150 L 236.179688 146.4375 L 257.066406 141.324219 L 277.957031 134.28125 L 298.84375 127.113281 " class="aqm6" onclick="plotObjRespond('click', 6, 'dig')" onmouseover="plotObjRespond('show', 6, 'dig')" onmouseout="plotObjRespond('hide', 6, 'dig')" fill="none" stroke-width="1" stroke-linecap="round" stroke-linejoin="round" stroke="rgb(12.156863%,47.058824%,70.588235%)" stroke-opacity="1" stroke-miterlimit="10"/>
    <path d="M 89.957031 166.964844 L 110.84375 162.164062 L 131.734375 161.316406 L 152.621094 159.417969 L 173.511719 156.960938 L 194.398438 153.488281 L 215.289062 152.496094 L 236.179688 150.433594 L 257.066406 146.871094 L 277.957031 143.535156 L 298.84375 139.683594 " class="aqm7" onclick="plotObjRespond('click', 7, 'dig')" onmouseover="plotObjRespond('show', 7, 'dig')" onmouseout="plotObjRespond('hide', 7, 'dig')" fill="none" stroke-width="1" stroke-linecap="round" stroke-linejoin="round" stroke="rgb(12.156863%,47.058824%,70.588235%)" stroke-opacity="1" stroke-miterlimit="10"/>
    <path d="M 89.957031 165.9375 L 110.84375 160.878906 L 131.734375 160.1875 L 152.621094 158.199219 L 173.511719 155.367188 L 194.398438 152.484375 L 215.289062 150.964844 L 236.179688 148.726562 L 257.066406 144.945312 L 277.957031 141.390625 L 298.84375 137.691406 " class="aqm8" onclick="plotObjRespond('click', 8, 'dig')" onmouseover="plotObjRespond('show', 8, 'dig')" onmouseout="plotObjRespond('hide', 8, 'dig')" fill="none" stroke-width="1" stroke-linecap="round" stroke-linejoin="round" stroke="rgb(12.156863%,47.058824%,70.588235%)" stroke-opacity="1" stroke-miterlimit="10"/>
    <path d="M 89.957031 164.914062 L 110.84375 160.109375 L 131.734375 159.421875 L 152.621094 157.269531 L 173.511719 154.910156 L 194.398438 151.355469 L 215.289062 150.46875 L 236.179688 148.476562 L 257.066406 144.777344 L 277.957031 141.488281 L 298.84375 137.824219 " class="aqm9" onclick="plotObjRespond('click', 9, 'dig')" onmouseover="plotObjRespond('show', 9, 'dig')" onmouseout="plotObjRespond('hide', 9, 'dig')" fill="none" stroke-width="1" stroke-linecap="round" stroke-linejoin="round" stroke="rgb(12.156863%,47.058824%,70.588235%)" stroke-opacity="1" stroke-miterlimit="10"/>
    <path d="M 89.957031 163.890625 L 110.84375 158.992188 L 131.734375 158.101562 L 152.621094 156.03125 L 173.511719 153.457031 L 194.398438 150.492188 L 215.289062 149.269531 L 236.179688 146.929688 L 257.066406 143.316406 L 277.957031 139.792969 L 298.84375 136.152344 " class="aqm10" onclick="plotObjRespond('click', 10, 'dig')" onmouseover="plotObjRespond('show', 10, 'dig')" onmouseout="plotObjRespond('hide', 10, 'dig')" fill="none" stroke-width="1" stroke-linecap="round" stroke-linejoin="round" stroke="rgb(12.156863%,47.058824%,70.588235%)" stroke-opacity="1" stroke-miterlimit="10"/>
    <path d="M 89.957031 162.867188 L 110.84375 159.4375 L 131.734375 158.410156 L 152.621094 155.683594 L 173.511719 154.179688 L 194.398438 150.71875 L 215.289062 149.585938 L 236.179688 147.398438 L 257.066406 143.824219 L 277.957031 141.28125 L 298.84375 138.785156 " class="aqm11" onclick="plotObjRespond('click', 11, 'dig')" onmouseover="plotObjRespond('show', 11, 'dig')" onmouseout="plotObjRespond('hide', 11, 'dig')" fill="none" stroke-width="1" stroke-linecap="round" stroke-linejoin="round" stroke="rgb(12.156863%,47.058824%,70.588235%)" stroke-opacity="1" stroke-miterlimit="10"/>
    <path d="M 89.957031 161.84375 L 110.84375 157.9375 L 131.734375 156.882812 L 152.621094 153.808594 L 173.511719 152.246094 L 194.398438 149.332031 L 215.289062 148.183594 L 236.179688 145.859375 L 257.066406 142.253906 L 277.957031 140.144531 L 298.84375 138.363281 " class="aqm12" onclick="plotObjRespond('click', 12, 'dig')" onmouseover="plotObjRespond('show', 12, 'dig')" onmouseout="plotObjRespond('hide', 12, 'dig')" fill="none" stroke-width="1" stroke-linecap="round" stroke-linejoin="round" stroke="rgb(12.156863%,47.058824%,70.588235%)" stroke-opacity="1" stroke-miterlimit="10"/>
    <path d="M 89.957031 160.816406 L 110.84375 156.152344 L 131.734375 155.019531 L 152.621094 151.582031 L 173.511719 149.414062 L 194.398438 145.636719 L 215.289062 144.007812 L 236.179688 141.535156 L 257.066406 137.511719 L 277.957031 135.109375 L 298.84375 132.738281 " class="aqm13" onclick="plotObjRespond('click', 13, 'dig')" onmouseover="plotObjRespond('show', 13, 'dig')" onmouseout="plotObjRespond('hide', 13, 'dig')" fill="none" stroke-width="1" stroke-linecap="round" stroke-linejoin="round" stroke="rgb(12.156863%,47.058824%,70.588235%)" stroke-opacity="1" stroke-miterlimit="10"/>
    <path d="M 89.957031 159.792969 L 110.84375 154.175781 L 131.734375 152.753906 L 152.621094 149.414062 L 173.511719 146.367188 L 194.398438 142.707031 L 215.289062 140.402344 L 236.179688 137.199219 L 257.066406 133.21875 L 277.957031 129.617188 L 298.84375 127.449219 " class="aqm14" onclick="plotObjRespond('click', 14, 'dig')" onmouseover="plotObjRespond('show', 14, 'dig')" onmouseout="plotObjRespond('hide', 14, 'dig')" fill="none" stroke-width="1" stroke-linecap="round" stroke-linejoin="round" stroke="rgb(12.156863%,47.058824%,70.588235%)" stroke-opacity="1" stroke-miterlimit="10"/>
    <path d="M 89.957031 158.769531 L 110.84375 153.445312 L 131.734375 151.453125 L 152.621094 147.953125 L 173.511719 144.902344 L 194.398438 140.964844 L 215.289062 138.613281 L 236.179688 135.535156 L 257.066406 130.847656 L 277.957031 127.332031 L 298.84375 125.25 " class="aqm15" onclick="plotObjRespond('click', 15, 'dig')" onmouseover="plotObjRespond('show', 15, 'dig')" onmouseout="plotObjRespond('hide', 15, 'dig')" fill="none" stroke-width="1" stroke-linecap="round" stroke-linejoin="round" stroke="rgb(12.156863%,47.058824%,70.588235%)" stroke-opacity="1" stroke-miterlimit="10"/>
    <path d="M 89.957031 157.746094 L 110.84375 152.402344 L 131.734375 151.148438 L 152.621094 147.789062 L 173.511719 144.714844 L 194.398438 141.132812 L 215.289062 138.65625 L 236.179688 135.640625 L 257.066406 131.261719 L 277.957031 127.601562 L 298.84375 124.84375 " class="aqm16" onclick="plotObjRespond('click', 16, 'dig')" onmouseover="plotObjRespond('show', 16, 'dig')" onmouseout="plotObjRespond('hide', 16, 'dig')" fill="none" stroke-width="1" stroke-linecap="round" stroke-linejoin="round" stroke="rgb(12.156863%,47.058824%,70.588235%)" stroke-opacity="1" stroke-miterlimit="10"/>
    <path d="M 89.957031 156.722656 L 110.84375 151.699219 L 131.734375 150.246094 L 152.621094 147.6875 L 173.511719 144.828125 L 194.398438 141.324219 L 215.289062 140.125 L 236.179688 137.292969 L 257.066406 134.414062 L 277.957031 131.664062 L 298.84375 130.429688 " class="aqm17" onclick="plotObjRespond('click', 17, 'dig')" onmouseover="plotObjRespond('show', 17, 'dig')" onmouseout="plotObjRespond('hide', 17, 'dig')" fill="none" stroke-width="1" stroke-linecap="round" stroke-linejoin="round" stroke="rgb(12.156863%,47.058824%,70.588235%)" stroke-opacity="1" stroke-miterlimit="10"/>
    <path d="M 89.957031 155.695312 L 110.84375 151.695312 L 131.734375 150.632812 L 152.621094 148.335938 L 173.511719 146.574219 L 194.398438 143.667969 L 215.289062 142.683594 L 236.179688 141.183594 L 257.066406 139.757812 L 277.957031 139.523438 L 298.84375 142.542969 " class="aqm18" onclick="plotObjRespond('click', 18, 'dig')" onmouseover="plotObjRespond('show', 18, 'dig')" onmouseout="plotObjRespond('hide', 18, 'dig')" fill="none" stroke-width="1" stroke-linecap="round" stroke-linejoin="round" stroke="rgb(12.156863%,47.058824%,70.588235%)" stroke-opacity="1" stroke-miterlimit="10"/>
    <path d="M 89.957031 154.671875 L 110.84375 149.089844 L 131.734375 147.753906 L 152.621094 144.75 L 173.511719 141.941406 L 194.398438 138.203125 L 215.289062 136.652344 L 236.179688 133.636719 L 257.066406 130.074219 L 277.957031 126.875 L 298.84375 125.152344 " class="aqm19" onclick="plotObjRespond('click', 19, 'dig')" onmouseover="plotObjRespond('show', 19, 'dig')" onmouseout="plotObjRespond('hide', 19, 'dig')" fill="none" stroke-width="1" stroke-linecap="round" stroke-linejoin="round" stroke="rgb(12.156863%,47.058824%,70.588235%)" stroke-opacity="1" stroke-miterlimit="10"/>
    <path d="M 89.957031 153.648438 L 110.84375 148.382812 L 131.734375 147.398438 L 152.621094 145.476562 L 173.511719 142.921875 L 194.398438 139.652344 L 215.289062 138.375 L 236.179688 135.902344 L 257.066406 132.902344 L 277.957031 130.113281 L 298.84375 128.804688 " class="aqm20" onclick="plotObjRespond('click', 20, 'dig')" onmouseover="plotObjRespond('show', 20, 'dig')" onmouseout="plotObjRespond('hide', 20, 'dig')" fill="none" stroke-width="1" stroke-linecap="round" stroke-linejoin="round" stroke="rgb(12.156863%,47.058824%,70.588235%)" stroke-opacity="1" stroke-miterlimit="10"/>
    <path d="M 89.957031 152.625 L 110.84375 147.429688 L 131.734375 146.382812 L 152.621094 144.238281 L 173.511719 141.632812 L 194.398438 138.644531 L 215.289062 136.925781 L 236.179688 134.507812 L 257.066406 131.332031 L 277.957031 128.183594 L 298.84375 126.953125 " class="aqm21" onclick="plotObjRespond('click', 21, 'dig')" onmouseover="plotObjRespond('show', 21, 'dig')" onmouseout="plotObjRespond('hide', 21, 'dig')" fill="none" stroke-width="1" stroke-linecap="round" stroke-linejoin="round" stroke="rgb(12.156863%,47.058824%,70.588235%)" stroke-opacity="1" stroke-miterlimit="10"/>
    <path d="M 89.957031 151.601562 L 110.84375 146.457031 L 131.734375 145.21875 L 152.621094 143.128906 L 173.511719 140.390625 L 194.398438 137.292969 L 215.289062 136.140625 L 236.179688 133.511719 L 257.066406 130.59375 L 277.957031 128.210938 L 298.84375 127.199219 " class="aqm22" onclick="plotObjRespond('click', 22, 'dig')" onmouseover="plotObjRespond('show', 22, 'dig')" onmouseout="plotObjRespond('hide', 22, 'dig')" fill="none" stroke-width="1" stroke-linecap="round" stroke-linejoin="round" stroke="rgb(12.156863%,47.058824%,70.588235%)" stroke-opacity="1" stroke-miterlimit="10"/>
    <path d="M 89.957031 150.574219 L 110.84375 144.445312 L 131.734375 143.421875 L 152.621094 140.441406 L 173.511719 137.710938 L 194.398438 134.464844 L 215.289062 132.574219 L 236.179688 129.234375 L 257.066406 124.609375 L 277.957031 120.246094 L 298.84375 115.441406 " class="aqm23" onclick="plotObjRespond('click', 23, 'dig')" onmouseover="plotObjRespond('show', 23, 'dig')" onmouseout="plotObjRespond('hide', 23, 'dig')" fill="none" stroke-width="1" stroke-linecap="round" stroke-linejoin="round" stroke="rgb(12.156863%,47.058824%,70.588235%)" stroke-opacity="1" stroke-miterlimit="10"/>
    <path d="M 89.957031 149.550781 L 110.84375 143.902344 L 131.734375 142.464844 L 152.621094 138.839844 L 173.511719 136.390625 L 194.398438 132.464844 L 215.289062 130.136719 L 236.179688 126.957031 L 257.066406 122.066406 L 277.957031 117.207031 L 298.84375 112.484375 " class="aqm24" onclick="plotObjRespond('click', 24, 'dig')" onmouseover="plotObjRespond('show', 24, 'dig')" onmouseout="plotObjRespond('hide', 24, 'dig')" fill="none" stroke-width="1" stroke-linecap="round" stroke-linejoin="round" stroke="rgb(12.156863%,47.058824%,70.588235%)" stroke-opacity="1" stroke-miterlimit="10"/>
    <path d="M 89.957031 148.527344 L 110.84375 143.910156 L 131.734375 142.734375 L 152.621094 139.679688 L 173.511719 137.039062 L 194.398438 133.894531 L 215.289062 132.007812 L 236.179688 128.789062 L 257.066406 124.28125 L 277.957031 120.335938 L 298.84375 117.179688 " class="aqm25" onclick="plotObjRespond('click', 25, 'dig')" onmouseover="plotObjRespond('show', 25, 'dig')" onmouseout="plotObjRespond('hide', 25, 'dig')" fill="none" stroke-width="1" stroke-linecap="round" stroke-linejoin="round" stroke="rgb(12.156863%,47.058824%,70.588235%)" stroke-opacity="1" stroke-miterlimit="10"/>
    <path d="M 89.957031 147.503906 L 110.84375 141.382812 L 131.734375 141.175781 L 152.621094 138.960938 L 173.511719 136.460938 L 194.398438 133.089844 L 215.289062 133.277344 L 236.179688 131.90625 L 257.066406 128.898438 L 277.957031 126.785156 L 298.84375 125.121094 " class="aqm26" onclick="plotObjRespond('click', 26, 'dig')" onmouseover="plotObjRespond('show', 26, 'dig')" onmouseout="plotObjRespond('hide', 26, 'dig')" fill="none" stroke-width="1" stroke-linecap="round" stroke-linejoin="round" stroke="rgb(12.156863%,47.058824%,70.588235%)" stroke-opacity="1" stroke-miterlimit="10"/>
    <path d="M 89.957031 146.476562 L 110.84375 140.785156 L 131.734375 140.425781 L 152.621094 138.277344 L 173.511719 136.1875 L 194.398438 133.0625 L 215.289062 133.164062 L 236.179688 132.027344 L 257.066406 130.003906 L 277.957031 129.089844 L 298.84375 128.957031 " class="aqm27" onclick="plotObjRespond('click', 27, 'dig')" onmouseover="plotObjRespond('show', 27, 'dig')" onmouseout="plotObjRespond('hide', 27, 'dig')" fill="none" stroke-width="1" stroke-linecap="round" stroke-linejoin="round" stroke="rgb(12.156863%,47.058824%,70.588235%)" stroke-opacity="1" stroke-miterlimit="10"/>
    <path d="M 89.957031 145.453125 L 110.84375 139.644531 L 131.734375 139.59375 L 152.621094 136.8125 L 173.511719 134.921875 L 194.398438 131.578125 L 215.289062 131.011719 L 236.179688 129.035156 L 257.066406 125.625 L 277.957031 123.050781 L 298.84375 120.238281 " class="aqm28" onclick="plotObjRespond('click', 28, 'dig')" onmouseover="plotObjRespond('show', 28, 'dig')" onmouseout="plotObjRespond('hide', 28, 'dig')" fill="none" stroke-width="1" stroke-linecap="round" stroke-linejoin="round" stroke="rgb(12.156863%,47.058824%,70.588235%)" stroke-opacity="1" stroke-miterlimit="10"/>
    <path d="M 89.957031 144.429688 L 110.84375 138.53125 L 131.734375 138.46875 L 152.621094 135.863281 L 173.511719 133.476562 L 194.398438 129.660156 L 215.289062 129.324219 L 236.179688 127.1875 L 257.066406 124.191406 L 277.957031 121.652344 L 298.84375 118.746094 " class="aqm29" onclick="plotObjRespond('click', 29, 'dig')" onmouseover="plotObjRespond('show', 29, 'dig')" onmouseout="plotObjRespond('hide', 29, 'dig')" fill="none" stroke-width="1" stroke-linecap="round" stroke-linejoin="round" stroke="rgb(12.156863%,47.058824%,70.588235%)" stroke-opacity="1" stroke-miterlimit="10"/>
    <path d="M 89.957031 143.40625 L 110.84375 138.058594 L 131.734375 136.402344 L 152.621094 133.113281 L 173.511719 130.324219 L 194.398438 126.730469 L 215.289062 125.324219 L 236.179688 122.84375 L 257.066406 119.90625 L 277.957031 118.011719 L 298.84375 117.296875 " class="aqm30" onclick="plotObjRespond('click', 30, 'dig')" onmouseover="plotObjRespond('show', 30, 'dig')" onmouseout="plotObjRespond('hide', 30, 'dig')" fill="none" stroke-width="1" stroke-linecap="round" stroke-linejoin="round" stroke="rgb(12.156863%,47.058824%,70.588235%)" stroke-opacity="1" stroke-miterlimit="10"/>
    <path d="M 89.957031 142.382812 L 110.84375 136.980469 L 131.734375 135.167969 L 152.621094 132.164062 L 173.511719 129.410156 L 194.398438 125.703125 L 215.289062 124.074219 L 236.179688 120.808594 L 257.066406 116.882812 L 277.957031 112.890625 L 298.84375 109.5625 " class="aqm31" onclick="plotObjRespond('click', 31, 'dig')" onmouseover="plotObjRespond('show', 31, 'dig')" onmouseout="plotObjRespond('hide', 31, 'dig')" fill="none" stroke-width="1" stroke-linecap="round" stroke-linejoin="round" stroke="rgb(12.156863%,47.058824%,70.588235%)" stroke-opacity="1" stroke-miterlimit="10"/>
    <path d="M 89.957031 141.355469 L 110.84375 135.710938 L 131.734375 133.484375 L 152.621094 129.871094 L 173.511719 126.898438 L 194.398438 122.941406 L 215.289062 120.585938 L 236.179688 116.871094 L 257.066406 112.664062 L 277.957031 108.144531 L 298.84375 104.578125 " class="aqm32" onclick="plotObjRespond('click', 32, 'dig')" onmouseover="plotObjRespond('show', 32, 'dig')" onmouseout="plotObjRespond('hide', 32, 'dig')" fill="none" stroke-width="1" stroke-linecap="round" stroke-linejoin="round" stroke="rgb(12.156863%,47.058824%,70.588235%)" stroke-opacity="1" stroke-miterlimit="10"/>
    <path d="M 89.957031 140.332031 L 110.84375 135.105469 L 131.734375 133.742188 L 152.621094 130.722656 L 173.511719 127.300781 L 194.398438 123.351562 L 215.289062 121.464844 L 236.179688 118.511719 L 257.066406 114.613281 L 277.957031 111.148438 L 298.84375 109.515625 " class="aqm33" onclick="plotObjRespond('click', 33, 'dig')" onmouseover="plotObjRespond('show', 33, 'dig')" onmouseout="plotObjRespond('hide', 33, 'dig')" fill="none" stroke-width="1" stroke-linecap="round" stroke-linejoin="round" stroke="rgb(12.156863%,47.058824%,70.588235%)" stroke-opacity="1" stroke-miterlimit="10"/>
    <path d="M 89.957031 139.308594 L 110.84375 134.046875 L 131.734375 132.464844 L 152.621094 129.078125 L 173.511719 125.636719 L 194.398438 121.988281 L 215.289062 119.75 L 236.179688 116.6875 L 257.066406 113.425781 L 277.957031 109.910156 L 298.84375 108.292969 " class="aqm34" onclick="plotObjRespond('click', 34, 'dig')" onmouseover="plotObjRespond('show', 34, 'dig')" onmouseout="plotObjRespond('hide', 34, 'dig')" fill="none" stroke-width="1" stroke-linecap="round" stroke-linejoin="round" stroke="rgb(12.156863%,47.058824%,70.588235%)" stroke-opacity="1" stroke-miterlimit="10"/>
    <path d="M 89.957031 138.285156 L 110.84375 133.382812 L 131.734375 132.984375 L 152.621094 129.738281 L 173.511719 126.738281 L 194.398438 123.113281 L 215.289062 120.710938 L 236.179688 117.511719 L 257.066406 112.707031 L 277.957031 107.570312 L 298.84375 104.082031 " class="aqm35" onclick="plotObjRespond('click', 35, 'dig')" onmouseover="plotObjRespond('show', 35, 'dig')" onmouseout="plotObjRespond('hide', 35, 'dig')" fill="none" stroke-width="1" stroke-linecap="round" stroke-linejoin="round" stroke="rgb(12.156863%,47.058824%,70.588235%)" stroke-opacity="1" stroke-miterlimit="10"/>
    <path d="M 89.957031 137.261719 L 110.84375 132.59375 L 131.734375 131.453125 L 152.621094 128.261719 L 173.511719 125.582031 L 194.398438 121.550781 L 215.289062 119.542969 L 236.179688 116.386719 L 257.066406 111.953125 L 277.957031 107.578125 L 298.84375 104.472656 " class="aqm36" onclick="plotObjRespond('click', 36, 'dig')" onmouseover="plotObjRespond('show', 36, 'dig')" onmouseout="plotObjRespond('hide', 36, 'dig')" fill="none" stroke-width="1" stroke-linecap="round" stroke-linejoin="round" stroke="rgb(12.156863%,47.058824%,70.588235%)" stroke-opacity="1" stroke-miterlimit="10"/>
    <path d="M 89.957031 136.234375 L 110.84375 131.695312 L 131.734375 130.390625 L 152.621094 127.179688 L 173.511719 124.539062 L 194.398438 121.121094 L 215.289062 118.796875 L 236.179688 116.085938 L 257.066406 112.347656 L 277.957031 108.425781 L 298.84375 105.253906 " class="aqm37" onclick="plotObjRespond('click', 37, 'dig')" onmouseover="plotObjRespond('show', 37, 'dig')" onmouseout="plotObjRespond('hide', 37, 'dig')" fill="none" stroke-width="1" stroke-linecap="round" stroke-linejoin="round" stroke="rgb(12.156863%,47.058824%,70.588235%)" stroke-opacity="1" stroke-miterlimit="10"/>
    <path d="M 89.957031 135.210938 L 110.84375 130.832031 L 131.734375 130.101562 L 152.621094 128.1875 L 173.511719 125.855469 L 194.398438 123.328125 L 215.289062 122.148438 L 236.179688 121.078125 L 257.066406 118.804688 L 277.957031 119.378906 L 298.84375 118.125 " class="aqm38" onclick="plotObjRespond('click', 38, 'dig')" onmouseover="plotObjRespond('show', 38, 'dig')" onmouseout="plotObjRespond('hide', 38, 'dig')" fill="none" stroke-width="1" stroke-linecap="round" stroke-linejoin="round" stroke="rgb(12.156863%,47.058824%,70.588235%)" stroke-opacity="1" stroke-miterlimit="10"/>
    <path d="M 89.957031 134.1875 L 110.84375 129.28125 L 131.734375 128.484375 L 152.621094 126.394531 L 173.511719 123.988281 L 194.398438 121.097656 L 215.289062 119.722656 L 236.179688 118.199219 L 257.066406 115.8125 L 277.957031 116.226562 L 298.84375 115.015625 " class="aqm39" onclick="plotObjRespond('click', 39, 'dig')" onmouseover="plotObjRespond('show', 39, 'dig')" onmouseout="plotObjRespond('hide', 39, 'dig')" fill="none" stroke-width="1" stroke-linecap="round" stroke-linejoin="round" stroke="rgb(12.156863%,47.058824%,70.588235%)" stroke-opacity="1" stroke-miterlimit="10"/>
    <path d="M 89.957031 133.164062 L 110.84375 128.398438 L 131.734375 127.03125 L 152.621094 125.011719 L 173.511719 122.878906 L 194.398438 119.390625 L 215.289062 118.136719 L 236.179688 116.753906 L 257.066406 113.566406 L 277.957031 113.609375 L 298.84375 111.632812 " class="aqm40" onclick="plotObjRespond('click', 40, 'dig')" onmouseover="plotObjRespond('show', 40, 'dig')" onmouseout="plotObjRespond('hide', 40, 'dig')" fill="none" stroke-width="1" stroke-linecap="round" stroke-linejoin="round" stroke="rgb(12.156863%,47.058824%,70.588235%)" stroke-opacity="1" stroke-miterlimit="10"/>
    <path d="M 89.957031 132.140625 L 110.84375 126.878906 L 131.734375 127.210938 L 152.621094 125.425781 L 173.511719 122.078125 L 194.398438 119.425781 L 215.289062 119.304688 L 236.179688 116.390625 L 257.066406 113.945312 L 277.957031 110.613281 L 298.84375 107.492188 " class="aqm41" onclick="plotObjRespond('click', 41, 'dig')" onmouseover="plotObjRespond('show', 41, 'dig')" onmouseout="plotObjRespond('hide', 41, 'dig')" fill="none" stroke-width="1" stroke-linecap="round" stroke-linejoin="round" stroke="rgb(12.156863%,47.058824%,70.588235%)" stroke-opacity="1" stroke-miterlimit="10"/>
    <path d="M 89.957031 131.113281 L 110.84375 126.835938 L 131.734375 126.722656 L 152.621094 125.28125 L 173.511719 121.867188 L 194.398438 119.195312 L 215.289062 118.933594 L 236.179688 116.609375 L 257.066406 114.003906 L 277.957031 110.648438 L 298.84375 107.746094 " class="aqm42" onclick="plotObjRespond('click', 42, 'dig')" onmouseover="plotObjRespond('show', 42, 'dig')" onmouseout="plotObjRespond('hide', 42, 'dig')" fill="none" stroke-width="1" stroke-linecap="round" stroke-linejoin="round" stroke="rgb(12.156863%,47.058824%,70.588235%)" stroke-opacity="1" stroke-miterlimit="10"/>
    <path d="M 89.957031 130.089844 L 110.84375 124.820312 L 131.734375 125.1875 L 152.621094 123.660156 L 173.511719 120.128906 L 194.398438 117.433594 L 215.289062 117.09375 L 236.179688 114.605469 L 257.066406 111.8125 L 277.957031 108.285156 L 298.84375 104.929688 " class="aqm43" onclick="plotObjRespond('click', 43, 'dig')" onmouseover="plotObjRespond('show', 43, 'dig')" onmouseout="plotObjRespond('hide', 43, 'dig')" fill="none" stroke-width="1" stroke-linecap="round" stroke-linejoin="round" stroke="rgb(12.156863%,47.058824%,70.588235%)" stroke-opacity="1" stroke-miterlimit="10"/>
    <path d="M 89.957031 129.066406 L 110.84375 123.316406 L 131.734375 122.472656 L 152.621094 120.085938 L 173.511719 117.671875 L 194.398438 113.894531 L 215.289062 113.042969 L 236.179688 110.6875 L 257.066406 106.96875 L 277.957031 103.613281 L 298.84375 100.28125 " class="aqm44" onclick="plotObjRespond('click', 44, 'dig')" onmouseover="plotObjRespond('show', 44, 'dig')" onmouseout="plotObjRespond('hide', 44, 'dig')" fill="none" stroke-width="1" stroke-linecap="round" stroke-linejoin="round" stroke="rgb(12.156863%,47.058824%,70.588235%)" stroke-opacity="1" stroke-miterlimit="10"/>
    <path d="M 89.957031 128.042969 L 110.84375 121.863281 L 131.734375 121.234375 L 152.621094 118.710938 L 173.511719 116.390625 L 194.398438 112.457031 L 215.289062 111.476562 L 236.179688 108.554688 L 257.066406 105.082031 L 277.957031 101.296875 L 298.84375 98.300781 " class="aqm45" onclick="plotObjRespond('click', 45, 'dig')" onmouseover="plotObjRespond('show', 45, 'dig')" onmouseout="plotObjRespond('hide', 45, 'dig')" fill="none" stroke-width="1" stroke-linecap="round" stroke-linejoin="round" stroke="rgb(12.156863%,47.058824%,70.588235%)" stroke-opacity="1" stroke-miterlimit="10"/>
    <path d="M 89.957031 127.015625 L 110.84375 121.359375 L 131.734375 120.597656 L 152.621094 118.328125 L 173.511719 115.914062 L 194.398438 112.113281 L 215.289062 110.570312 L 236.179688 107.9375 L 257.066406 104.222656 L 277.957031 100.59375 L 298.84375 96.964844 " class="aqm46" onclick="plotObjRespond('click', 46, 'dig')" onmouseover="plotObjRespond('show', 46, 'dig')" onmouseout="plotObjRespond('hide', 46, 'dig')" fill="none" stroke-width="1" stroke-linecap="round" stroke-linejoin="round" stroke="rgb(12.156863%,47.058824%,70.588235%)" stroke-opacity="1" stroke-miterlimit="10"/>
    <path d="M 89.957031 125.992188 L 110.84375 120.488281 L 131.734375 120.683594 L 152.621094 118.457031 L 173.511719 116.46875 L 194.398438 113.375 L 215.289062 111.964844 L 236.179688 110.390625 L 257.066406 106.558594 L 277.957031 103.433594 L 298.84375 99.851562 " class="aqm47" onclick="plotObjRespond('click', 47, 'dig')" onmouseover="plotObjRespond('show', 47, 'dig')" onmouseout="plotObjRespond('hide', 47, 'dig')" fill="none" stroke-width="1" stroke-linecap="round" stroke-linejoin="round" stroke="rgb(12.156863%,47.058824%,70.588235%)" stroke-opacity="1" stroke-miterlimit="10"/>
    <path d="M 89.957031 124.96875 L 110.84375 119.753906 L 131.734375 119.667969 L 152.621094 117.128906 L 173.511719 115.261719 L 194.398438 111.929688 L 215.289062 110.253906 L 236.179688 108.296875 L 257.066406 104.355469 L 277.957031 101.074219 L 298.84375 97.480469 " class="aqm48" onclick="plotObjRespond('click', 48, 'dig')" onmouseover="plotObjRespond('show', 48, 'dig')" onmouseout="plotObjRespond('hide', 48, 'dig')" fill="none" stroke-width="1" stroke-linecap="round" stroke-linejoin="round" stroke="rgb(12.156863%,47.058824%,70.588235%)" stroke-opacity="1" stroke-miterlimit="10"/>
    <path d="M 89.957031 123.945312 L 110.84375 118.082031 L 131.734375 118.445312 L 152.621094 115.921875 L 173.511719 114.292969 L 194.398438 111.109375 L 215.289062 110.410156 L 236.179688 109.46875 L 257.066406 107.074219 L 277.957031 105.710938 L 298.84375 105.597656 " class="aqm49" onclick="plotObjRespond('click', 49, 'dig')" onmouseover="plotObjRespond('show', 49, 'dig')" onmouseout="plotObjRespond('hide', 49, 'dig')" fill="none" stroke-width="1" stroke-linecap="round" stroke-linejoin="round" stroke="rgb(12.156863%,47.058824%,70.588235%)" stroke-opacity="1" stroke-miterlimit="10"/>
    <path d="M 89.957031 122.921875 L 110.84375 117.492188 L 131.734375 116.734375 L 152.621094 114.410156 L 173.511719 112.351562 L 194.398438 109.183594 L 215.289062 108.742188 L 236.179688 107.617188 L 257.066406 104.386719 L 277.957031 102.980469 L 298.84375 100.636719 " class="aqm50" onclick="plotObjRespond('click', 50, 'dig')" onmouseover="plotObjRespond('show', 50, 'dig')" onmouseout="plotObjRespond('hide', 50, 'dig')" fill="none" stroke-width="1" stroke-linecap="round" stroke-linejoin="round" stroke="rgb(12.156863%,47.058824%,70.588235%)" stroke-opacity="1" stroke-miterlimit="10"/>
    <path d="M 89.957031 121.894531 L 110.84375 116.214844 L 131.734375 115.792969 L 152.621094 113.664062 L 173.511719 111.351562 L 194.398438 108.496094 L 215.289062 108.050781 L 236.179688 106.992188 L 257.066406 104.457031 L 277.957031 103.429688 L 298.84375 102.171875 " class="aqm51" onclick="plotObjRespond('click', 51, 'dig')" onmouseover="plotObjRespond('show', 51, 'dig')" onmouseout="plotObjRespond('hide', 51, 'dig')" fill="none" stroke-width="1" stroke-linecap="round" stroke-linejoin="round" stroke="rgb(12.156863%,47.058824%,70.588235%)" stroke-opacity="1" stroke-miterlimit="10"/>
    <path d="M 89.957031 120.871094 L 110.84375 115.027344 L 131.734375 114.527344 L 152.621094 111.867188 L 173.511719 109.617188 L 194.398438 106.59375 L 215.289062 105.621094 L 236.179688 103.765625 L 257.066406 100.730469 L 277.957031 98.773438 L 298.84375 96.21875 " class="aqm52" onclick="plotObjRespond('click', 52, 'dig')" onmouseover="plotObjRespond('show', 52, 'dig')" onmouseout="plotObjRespond('hide', 52, 'dig')" fill="none" stroke-width="1" stroke-linecap="round" stroke-linejoin="round" stroke="rgb(12.156863%,47.058824%,70.588235%)" stroke-opacity="1" stroke-miterlimit="10"/>
    <path d="M 89.957031 119.847656 L 110.84375 114.875 L 131.734375 114.011719 L 152.621094 111.914062 L 173.511719 109.875 L 194.398438 106.691406 L 215.289062 105.578125 L 236.179688 103 L 257.066406 98.875 L 277.957031 95.664062 L 298.84375 91.828125 " class="aqm53" onclick="plotObjRespond('click', 53, 'dig')" onmouseover="plotObjRespond('show', 53, 'dig')" onmouseout="plotObjRespond('hide', 53, 'dig')" fill="none" stroke-width="1" stroke-linecap="round" stroke-linejoin="round" stroke="rgb(12.156863%,47.058824%,70.588235%)" stroke-opacity="1" stroke-miterlimit="10"/>
    <path d="M 89.957031 118.824219 L 110.84375 113.542969 L 131.734375 112.65625 L 152.621094 110.382812 L 173.511719 108.253906 L 194.398438 105.3125 L 215.289062 104.21875 L 236.179688 101.65625 L 257.066406 97.855469 L 277.957031 94.886719 L 298.84375 92.230469 " class="aqm54" onclick="plotObjRespond('click', 54, 'dig')" onmouseover="plotObjRespond('show', 54, 'dig')" onmouseout="plotObjRespond('hide', 54, 'dig')" fill="none" stroke-width="1" stroke-linecap="round" stroke-linejoin="round" stroke="rgb(12.156863%,47.058824%,70.588235%)" stroke-opacity="1" stroke-miterlimit="10"/>
    <path d="M 89.957031 117.800781 L 110.84375 111.464844 L 131.734375 110.886719 L 152.621094 108.824219 L 173.511719 106.746094 L 194.398438 103.117188 L 215.289062 102.644531 L 236.179688 100.429688 L 257.066406 97.300781 L 277.957031 94.828125 L 298.84375 92.113281 " class="aqm55" onclick="plotObjRespond('click', 55, 'dig')" onmouseover="plotObjRespond('show', 55, 'dig')" onmouseout="plotObjRespond('hide', 55, 'dig')" fill="none" stroke-width="1" stroke-linecap="round" stroke-linejoin="round" stroke="rgb(12.156863%,47.058824%,70.588235%)" stroke-opacity="1" stroke-miterlimit="10"/>
    <path d="M 89.957031 116.773438 L 110.84375 109.820312 L 131.734375 108.480469 L 152.621094 105.347656 L 173.511719 102.316406 L 194.398438 97.742188 L 215.289062 95.980469 L 236.179688 93.113281 L 257.066406 88.675781 L 277.957031 84.1875 L 298.84375 80.25 " class="aqm56" onclick="plotObjRespond('click', 56, 'dig')" onmouseover="plotObjRespond('show', 56, 'dig')" onmouseout="plotObjRespond('hide', 56, 'dig')" fill="none" stroke-width="1" stroke-linecap="round" stroke-linejoin="round" stroke="rgb(12.156863%,47.058824%,70.588235%)" stroke-opacity="1" stroke-miterlimit="10"/>
    <path d="M 89.957031 115.75 L 110.84375 108.550781 L 131.734375 107.257812 L 152.621094 104.246094 L 173.511719 101.234375 L 194.398438 96.609375 L 215.289062 94.558594 L 236.179688 91.472656 L 257.066406 86.726562 L 277.957031 81.996094 L 298.84375 77.566406 " class="aqm57" onclick="plotObjRespond('click', 57, 'dig')" onmouseover="plotObjRespond('show', 57, 'dig')" onmouseout="plotObjRespond('hide', 57, 'dig')" fill="none" stroke-width="1" stroke-linecap="round" stroke-linejoin="round" stroke="rgb(12.156863%,47.058824%,70.588235%)" stroke-opacity="1" stroke-miterlimit="10"/>
    <path d="M 89.957031 114.726562 L 110.84375 108.054688 L 131.734375 106.539062 L 152.621094 103.496094 L 173.511719 100.425781 L 194.398438 96.214844 L 215.289062 94.21875 L 236.179688 91.410156 L 257.066406 86.558594 L 277.957031 82.207031 L 298.84375 77.136719 " class="aqm58" onclick="plotObjRespond('click', 58, 'dig')" onmouseover="plotObjRespond('show', 58, 'dig')" onmouseout="plotObjRespond('hide', 58, 'dig')" fill="none" stroke-width="1" stroke-linecap="round" stroke-linejoin="round" stroke="rgb(12.156863%,47.058824%,70.588235%)" stroke-opacity="1" stroke-miterlimit="10"/>
    <path d="M 89.957031 113.703125 L 110.84375 109.285156 L 131.734375 108.527344 L 152.621094 106.464844 L 173.511719 104.109375 L 194.398438 101.066406 L 215.289062 99.539062 L 236.179688 96.90625 L 257.066406 93.820312 L 277.957031 90.292969 L 298.84375 87.558594 " class="aqm59" onclick="plotObjRespond('click', 59, 'dig')" onmouseover="plotObjRespond('show', 59, 'dig')" onmouseout="plotObjRespond('hide', 59, 'dig')" fill="none" stroke-width="1" stroke-linecap="round" stroke-linejoin="round" stroke="rgb(12.156863%,47.058824%,70.588235%)" stroke-opacity="1" stroke-miterlimit="10"/>
    <path d="M 89.957031 112.679688 L 110.84375 108.105469 L 131.734375 107.496094 L 152.621094 105.136719 L 173.511719 102.804688 L 194.398438 99.707031 L 215.289062 98.082031 L 236.179688 95.464844 L 257.066406 92.1875 L 277.957031 88.351562 L 298.84375 85.171875 " class="aqm60" onclick="plotObjRespond('click', 60, 'dig')" onmouseover="plotObjRespond('show', 60, 'dig')" onmouseout="plotObjRespond('hide', 60, 'dig')" fill="none" stroke-width="1" stroke-linecap="round" stroke-linejoin="round" stroke="rgb(12.156863%,47.058824%,70.588235%)" stroke-opacity="1" stroke-miterlimit="10"/>
    <path d="M 89.957031 111.652344 L 110.84375 107.109375 L 131.734375 106.25 L 152.621094 104.007812 L 173.511719 101.476562 L 194.398438 98.339844 L 215.289062 96.597656 L 236.179688 93.707031 L 257.066406 90.195312 L 277.957031 86.28125 L 298.84375 83.28125 " class="aqm61" onclick="plotObjRespond('click', 61, 'dig')" onmouseover="plotObjRespond('show', 61, 'dig')" onmouseout="plotObjRespond('hide', 61, 'dig')" fill="none" stroke-width="1" stroke-linecap="round" stroke-linejoin="round" stroke="rgb(12.156863%,47.058824%,70.588235%)" stroke-opacity="1" stroke-miterlimit="10"/>
    <path d="M 89.957031 110.628906 L 110.84375 104.667969 L 131.734375 103.023438 L 152.621094 99.226562 L 173.511719 96.152344 L 194.398438 91.828125 L 215.289062 89.757812 L 236.179688 86.539062 L 257.066406 83.300781 L 277.957031 79.863281 L 298.84375 77.753906 " class="aqm62" onclick="plotObjRespond('click', 62, 'dig')" onmouseover="plotObjRespond('show', 62, 'dig')" onmouseout="plotObjRespond('hide', 62, 'dig')" fill="none" stroke-width="1" stroke-linecap="round" stroke-linejoin="round" stroke="rgb(12.156863%,47.058824%,70.588235%)" stroke-opacity="1" stroke-miterlimit="10"/>
    <path d="M 89.957031 109.605469 L 110.84375 104.265625 L 131.734375 102.109375 L 152.621094 98.539062 L 173.511719 95.242188 L 194.398438 90.902344 L 215.289062 88.960938 L 236.179688 85.910156 L 257.066406 82.765625 L 277.957031 79.328125 L 298.84375 76.816406 " class="aqm63" onclick="plotObjRespond('click', 63, 'dig')" onmouseover="plotObjRespond('show', 63, 'dig')" onmouseout="plotObjRespond('hide', 63, 'dig')" fill="none" stroke-width="1" stroke-linecap="round" stroke-linejoin="round" stroke="rgb(12.156863%,47.058824%,70.588235%)" stroke-opacity="1" stroke-miterlimit="10"/>
    <path d="M 89.957031 108.582031 L 110.84375 103.632812 L 131.734375 101.941406 L 152.621094 98.652344 L 173.511719 96.191406 L 194.398438 92.519531 L 215.289062 90.960938 L 236.179688 88.65625 L 257.066406 86.339844 L 277.957031 84.140625 L 298.84375 82.660156 " class="aqm64" onclick="plotObjRespond('click', 64, 'dig')" onmouseover="plotObjRespond('show', 64, 'dig')" onmouseout="plotObjRespond('hide', 64, 'dig')" fill="none" stroke-width="1" stroke-linecap="round" stroke-linejoin="round" stroke="rgb(12.156863%,47.058824%,70.588235%)" stroke-opacity="1" stroke-miterlimit="10"/>
    <path d="M 89.957031 107.558594 L 110.84375 100.925781 L 131.734375 98.1875 L 152.621094 94.277344 L 173.511719 90.492188 L 194.398438 85.347656 L 215.289062 82.457031 L 236.179688 78.289062 L 257.066406 74.167969 L 277.957031 69.945312 L 298.84375 66.296875 " class="aqm65" onclick="plotObjRespond('click', 65, 'dig')" onmouseover="plotObjRespond('show', 65, 'dig')" onmouseout="plotObjRespond('hide', 65, 'dig')" fill="none" stroke-width="1" stroke-linecap="round" stroke-linejoin="round" stroke="rgb(12.156863%,47.058824%,70.588235%)" stroke-opacity="1" stroke-miterlimit="10"/>
    <path d="M 89.957031 106.53125 L 110.84375 99.613281 L 131.734375 97.183594 L 152.621094 93.019531 L 173.511719 88.949219 L 194.398438 84.160156 L 215.289062 80.992188 L 236.179688 76.707031 L 257.066406 72.292969 L 277.957031 68.03125 L 298.84375 64.492188 " class="aqm66" onclick="plotObjRespond('click', 66, 'dig')" onmouseover="plotObjRespond('show', 66, 'dig')" onmouseout="plotObjRespond('hide', 66, 'dig')" fill="none" stroke-width="1" stroke-linecap="round" stroke-linejoin="round" stroke="rgb(12.156863%,47.058824%,70.588235%)" stroke-opacity="1" stroke-miterlimit="10"/>
    <path d="M 89.957031 105.507812 L 110.84375 98.652344 L 131.734375 96.339844 L 152.621094 92.390625 L 173.511719 88.660156 L 194.398438 83.5 L 215.289062 80.628906 L 236.179688 76.910156 L 257.066406 72.597656 L 277.957031 68.898438 L 298.84375 65.652344 " class="aqm67" onclick="plotObjRespond('click', 67, 'dig')" onmouseover="plotObjRespond('show', 67, 'dig')" onmouseout="plotObjRespond('hide', 67, 'dig')" fill="none" stroke-width="1" stroke-linecap="round" stroke-linejoin="round" stroke="rgb(12.156863%,47.058824%,70.588235%)" stroke-opacity="1" stroke-miterlimit="10"/>
  </g>
</svg>

